G04 EAGLE Gerber RS-274X export*
G75*
%MOMM*%
%FSLAX34Y34*%
%LPD*%
%INInner Layer 15*%
%IPPOS*%
%AMOC8*
5,1,8,0,0,1.08239X$1,22.5*%
G01*
%ADD10C,0.755600*%
%ADD11C,1.524000*%
%ADD12C,0.660400*%
%ADD13C,0.558800*%
%ADD14C,0.177800*%
%ADD15C,0.736600*%
%ADD16C,0.304800*%
%ADD17C,0.705600*%

G36*
X190464Y48D02*
X190464Y48D01*
X190483Y46D01*
X190585Y68D01*
X190687Y84D01*
X190704Y94D01*
X190724Y98D01*
X190813Y151D01*
X190904Y200D01*
X190918Y214D01*
X190935Y224D01*
X191002Y303D01*
X191074Y378D01*
X191082Y396D01*
X191095Y411D01*
X191134Y507D01*
X191177Y601D01*
X191179Y621D01*
X191187Y639D01*
X191205Y806D01*
X191205Y11158D01*
X192842Y12795D01*
X279158Y12795D01*
X280795Y11158D01*
X280795Y806D01*
X280798Y786D01*
X280796Y767D01*
X280818Y665D01*
X280834Y563D01*
X280844Y546D01*
X280848Y526D01*
X280901Y437D01*
X280950Y346D01*
X280964Y332D01*
X280974Y315D01*
X281053Y248D01*
X281128Y176D01*
X281146Y168D01*
X281161Y155D01*
X281257Y116D01*
X281351Y73D01*
X281371Y71D01*
X281389Y63D01*
X281556Y45D01*
X301834Y45D01*
X301863Y49D01*
X301892Y47D01*
X301984Y69D01*
X302077Y84D01*
X302103Y98D01*
X302131Y105D01*
X302211Y155D01*
X302295Y200D01*
X302315Y221D01*
X302339Y236D01*
X302399Y309D01*
X302464Y378D01*
X302476Y404D01*
X302495Y427D01*
X302528Y515D01*
X302568Y601D01*
X302571Y630D01*
X302581Y657D01*
X302584Y752D01*
X302595Y845D01*
X302589Y874D01*
X302590Y903D01*
X302562Y994D01*
X302542Y1086D01*
X302527Y1111D01*
X302519Y1139D01*
X302430Y1281D01*
X302095Y1701D01*
X301552Y2827D01*
X301274Y4045D01*
X301274Y4446D01*
X301264Y4510D01*
X301263Y4576D01*
X301240Y4656D01*
X301234Y4688D01*
X301225Y4705D01*
X301216Y4737D01*
X300744Y5877D01*
X300576Y6721D01*
X303816Y6721D01*
X303816Y4670D01*
X303891Y4002D01*
X303892Y4002D01*
X303891Y4001D01*
X304113Y3367D01*
X304114Y3367D01*
X304114Y3366D01*
X304471Y2797D01*
X304472Y2797D01*
X304947Y2322D01*
X304947Y2321D01*
X305516Y1964D01*
X305517Y1964D01*
X305517Y1963D01*
X306151Y1741D01*
X306152Y1741D01*
X306820Y1666D01*
X307488Y1741D01*
X307488Y1742D01*
X307489Y1741D01*
X308123Y1963D01*
X308123Y1964D01*
X308124Y1964D01*
X308693Y2321D01*
X308693Y2322D01*
X309169Y2797D01*
X309527Y3366D01*
X309526Y3367D01*
X309527Y3367D01*
X309749Y4001D01*
X309749Y4002D01*
X309750Y4007D01*
X309750Y4011D01*
X309751Y4020D01*
X309751Y4024D01*
X309752Y4024D01*
X309751Y4024D01*
X309752Y4032D01*
X309752Y4033D01*
X309753Y4037D01*
X309754Y4045D01*
X309754Y4049D01*
X309754Y4050D01*
X309755Y4058D01*
X309756Y4062D01*
X309757Y4071D01*
X309757Y4075D01*
X309758Y4083D01*
X309758Y4084D01*
X309759Y4088D01*
X309760Y4096D01*
X309760Y4100D01*
X309760Y4101D01*
X309761Y4105D01*
X309761Y4109D01*
X309762Y4113D01*
X309762Y4117D01*
X309762Y4118D01*
X309763Y4122D01*
X309763Y4126D01*
X309763Y4130D01*
X309764Y4139D01*
X309765Y4143D01*
X309766Y4151D01*
X309766Y4152D01*
X309766Y4156D01*
X309767Y4164D01*
X309768Y4168D01*
X309768Y4169D01*
X309769Y4177D01*
X309769Y4181D01*
X309770Y4190D01*
X309771Y4194D01*
X309772Y4202D01*
X309772Y4203D01*
X309772Y4207D01*
X309773Y4215D01*
X309774Y4219D01*
X309774Y4220D01*
X309774Y4228D01*
X309775Y4228D01*
X309774Y4228D01*
X309775Y4232D01*
X309776Y4241D01*
X309776Y4245D01*
X309777Y4249D01*
X309777Y4253D01*
X309777Y4254D01*
X309778Y4258D01*
X309778Y4262D01*
X309779Y4266D01*
X309779Y4270D01*
X309779Y4271D01*
X309780Y4275D01*
X309781Y4283D01*
X309781Y4287D01*
X309781Y4288D01*
X309782Y4296D01*
X309783Y4300D01*
X309784Y4309D01*
X309784Y4313D01*
X309785Y4321D01*
X309785Y4322D01*
X309785Y4326D01*
X309786Y4326D01*
X309785Y4326D01*
X309786Y4334D01*
X309787Y4338D01*
X309787Y4339D01*
X309788Y4347D01*
X309788Y4351D01*
X309789Y4360D01*
X309790Y4364D01*
X309791Y4372D01*
X309791Y4373D01*
X309791Y4377D01*
X309792Y4385D01*
X309793Y4389D01*
X309793Y4390D01*
X309794Y4398D01*
X309794Y4402D01*
X309795Y4406D01*
X309795Y4407D01*
X309795Y4411D01*
X309796Y4415D01*
X309796Y4419D01*
X309797Y4423D01*
X309797Y4424D01*
X309797Y4428D01*
X309797Y4432D01*
X309798Y4440D01*
X309798Y4441D01*
X309799Y4445D01*
X309800Y4453D01*
X309800Y4457D01*
X309800Y4458D01*
X309801Y4466D01*
X309802Y4470D01*
X309803Y4479D01*
X309803Y4483D01*
X309804Y4491D01*
X309804Y4492D01*
X309805Y4496D01*
X309806Y4504D01*
X309806Y4508D01*
X309806Y4509D01*
X309807Y4517D01*
X309808Y4521D01*
X309808Y4530D01*
X309809Y4530D01*
X309808Y4530D01*
X309809Y4534D01*
X309810Y4542D01*
X309810Y4543D01*
X309810Y4547D01*
X309811Y4555D01*
X309812Y4559D01*
X309812Y4560D01*
X309812Y4564D01*
X309813Y4568D01*
X309813Y4572D01*
X309814Y4576D01*
X309814Y4577D01*
X309815Y4585D01*
X309815Y4589D01*
X309816Y4598D01*
X309817Y4602D01*
X309818Y4610D01*
X309818Y4611D01*
X309818Y4615D01*
X309819Y4623D01*
X309819Y4627D01*
X309820Y4627D01*
X309819Y4628D01*
X309820Y4636D01*
X309821Y4640D01*
X309822Y4649D01*
X309822Y4653D01*
X309823Y4661D01*
X309823Y4662D01*
X309824Y4666D01*
X309824Y4670D01*
X309824Y6721D01*
X313064Y6721D01*
X312896Y5877D01*
X312424Y4737D01*
X312409Y4673D01*
X312384Y4612D01*
X312375Y4529D01*
X312368Y4497D01*
X312369Y4478D01*
X312366Y4445D01*
X312366Y4045D01*
X312088Y2827D01*
X311545Y1701D01*
X311210Y1281D01*
X311196Y1255D01*
X311176Y1234D01*
X311136Y1148D01*
X311090Y1066D01*
X311085Y1037D01*
X311072Y1011D01*
X311062Y917D01*
X311044Y824D01*
X311048Y795D01*
X311045Y767D01*
X311065Y674D01*
X311078Y581D01*
X311091Y555D01*
X311098Y526D01*
X311146Y445D01*
X311188Y361D01*
X311209Y340D01*
X311224Y315D01*
X311295Y254D01*
X311362Y187D01*
X311388Y174D01*
X311411Y155D01*
X311498Y120D01*
X311583Y78D01*
X311612Y74D01*
X311639Y63D01*
X311805Y45D01*
X388195Y45D01*
X388223Y49D01*
X388252Y47D01*
X388344Y69D01*
X388437Y84D01*
X388463Y98D01*
X388491Y105D01*
X388571Y155D01*
X388655Y200D01*
X388675Y221D01*
X388699Y236D01*
X388759Y309D01*
X388824Y378D01*
X388836Y404D01*
X388855Y427D01*
X388888Y515D01*
X388928Y601D01*
X388931Y630D01*
X388941Y657D01*
X388944Y752D01*
X388955Y845D01*
X388949Y874D01*
X388950Y903D01*
X388923Y994D01*
X388902Y1086D01*
X388888Y1111D01*
X388879Y1139D01*
X388790Y1281D01*
X388455Y1701D01*
X387912Y2827D01*
X387634Y4045D01*
X387634Y4445D01*
X387624Y4510D01*
X387623Y4576D01*
X387600Y4656D01*
X387594Y4688D01*
X387585Y4705D01*
X387576Y4737D01*
X387104Y5877D01*
X386936Y6721D01*
X390176Y6721D01*
X390176Y4670D01*
X390251Y4002D01*
X390252Y4002D01*
X390251Y4001D01*
X390473Y3367D01*
X390474Y3367D01*
X390474Y3366D01*
X390831Y2797D01*
X390832Y2797D01*
X391307Y2322D01*
X391307Y2321D01*
X391876Y1964D01*
X391877Y1964D01*
X391877Y1963D01*
X392511Y1741D01*
X392512Y1741D01*
X393180Y1666D01*
X393848Y1741D01*
X393848Y1742D01*
X393849Y1741D01*
X394483Y1963D01*
X394483Y1964D01*
X394484Y1964D01*
X395053Y2321D01*
X395053Y2322D01*
X395529Y2797D01*
X395887Y3366D01*
X395886Y3367D01*
X395887Y3367D01*
X396109Y4001D01*
X396109Y4002D01*
X396110Y4007D01*
X396110Y4011D01*
X396111Y4020D01*
X396111Y4024D01*
X396112Y4024D01*
X396111Y4024D01*
X396112Y4032D01*
X396112Y4033D01*
X396113Y4037D01*
X396114Y4045D01*
X396114Y4049D01*
X396114Y4050D01*
X396115Y4058D01*
X396116Y4062D01*
X396117Y4071D01*
X396117Y4075D01*
X396118Y4083D01*
X396118Y4084D01*
X396119Y4088D01*
X396120Y4096D01*
X396120Y4100D01*
X396120Y4101D01*
X396121Y4105D01*
X396121Y4109D01*
X396122Y4113D01*
X396122Y4117D01*
X396122Y4118D01*
X396123Y4122D01*
X396123Y4126D01*
X396123Y4130D01*
X396124Y4139D01*
X396125Y4143D01*
X396126Y4151D01*
X396126Y4152D01*
X396126Y4156D01*
X396127Y4164D01*
X396128Y4168D01*
X396128Y4169D01*
X396129Y4177D01*
X396129Y4181D01*
X396130Y4190D01*
X396131Y4194D01*
X396132Y4202D01*
X396132Y4203D01*
X396132Y4207D01*
X396133Y4215D01*
X396134Y4219D01*
X396134Y4220D01*
X396134Y4228D01*
X396135Y4228D01*
X396134Y4228D01*
X396135Y4232D01*
X396136Y4241D01*
X396136Y4245D01*
X396137Y4249D01*
X396137Y4253D01*
X396137Y4254D01*
X396138Y4258D01*
X396138Y4262D01*
X396139Y4266D01*
X396139Y4270D01*
X396139Y4271D01*
X396140Y4275D01*
X396141Y4283D01*
X396141Y4287D01*
X396141Y4288D01*
X396142Y4296D01*
X396143Y4300D01*
X396144Y4309D01*
X396144Y4313D01*
X396145Y4321D01*
X396145Y4322D01*
X396145Y4326D01*
X396146Y4326D01*
X396145Y4326D01*
X396146Y4334D01*
X396147Y4338D01*
X396147Y4339D01*
X396148Y4347D01*
X396148Y4351D01*
X396149Y4360D01*
X396150Y4364D01*
X396151Y4372D01*
X396151Y4373D01*
X396151Y4377D01*
X396152Y4385D01*
X396153Y4389D01*
X396153Y4390D01*
X396154Y4398D01*
X396154Y4402D01*
X396155Y4406D01*
X396155Y4407D01*
X396155Y4411D01*
X396156Y4415D01*
X396156Y4419D01*
X396157Y4423D01*
X396157Y4424D01*
X396157Y4428D01*
X396157Y4432D01*
X396158Y4440D01*
X396158Y4441D01*
X396159Y4445D01*
X396160Y4453D01*
X396160Y4457D01*
X396160Y4458D01*
X396161Y4466D01*
X396162Y4470D01*
X396163Y4479D01*
X396163Y4483D01*
X396164Y4491D01*
X396164Y4492D01*
X396165Y4496D01*
X396166Y4504D01*
X396166Y4508D01*
X396166Y4509D01*
X396167Y4517D01*
X396168Y4521D01*
X396168Y4530D01*
X396169Y4530D01*
X396168Y4530D01*
X396169Y4534D01*
X396170Y4542D01*
X396170Y4543D01*
X396170Y4547D01*
X396171Y4555D01*
X396172Y4559D01*
X396172Y4560D01*
X396172Y4564D01*
X396173Y4568D01*
X396173Y4572D01*
X396174Y4576D01*
X396174Y4577D01*
X396175Y4585D01*
X396175Y4589D01*
X396176Y4598D01*
X396177Y4602D01*
X396178Y4610D01*
X396178Y4611D01*
X396178Y4615D01*
X396179Y4623D01*
X396179Y4627D01*
X396180Y4627D01*
X396179Y4628D01*
X396180Y4636D01*
X396181Y4640D01*
X396182Y4649D01*
X396182Y4653D01*
X396183Y4661D01*
X396183Y4662D01*
X396184Y4666D01*
X396184Y4670D01*
X396184Y6721D01*
X399424Y6721D01*
X399256Y5877D01*
X398784Y4737D01*
X398769Y4673D01*
X398744Y4612D01*
X398735Y4529D01*
X398728Y4497D01*
X398729Y4478D01*
X398726Y4446D01*
X398726Y4045D01*
X398448Y2827D01*
X397905Y1701D01*
X397570Y1281D01*
X397556Y1255D01*
X397536Y1234D01*
X397496Y1148D01*
X397450Y1066D01*
X397445Y1037D01*
X397432Y1011D01*
X397422Y917D01*
X397404Y824D01*
X397408Y795D01*
X397405Y767D01*
X397425Y674D01*
X397438Y581D01*
X397451Y555D01*
X397457Y526D01*
X397506Y445D01*
X397548Y361D01*
X397569Y340D01*
X397584Y315D01*
X397655Y254D01*
X397722Y187D01*
X397748Y174D01*
X397771Y155D01*
X397858Y120D01*
X397943Y78D01*
X397972Y74D01*
X397999Y63D01*
X398165Y45D01*
X416134Y45D01*
X416163Y49D01*
X416192Y47D01*
X416284Y69D01*
X416377Y84D01*
X416403Y98D01*
X416431Y105D01*
X416511Y155D01*
X416595Y200D01*
X416615Y221D01*
X416639Y236D01*
X416699Y309D01*
X416764Y378D01*
X416776Y404D01*
X416795Y427D01*
X416828Y515D01*
X416868Y601D01*
X416871Y630D01*
X416881Y657D01*
X416884Y752D01*
X416895Y845D01*
X416889Y874D01*
X416890Y903D01*
X416862Y994D01*
X416842Y1086D01*
X416827Y1111D01*
X416819Y1139D01*
X416730Y1281D01*
X416395Y1701D01*
X415852Y2827D01*
X415574Y4045D01*
X415574Y4446D01*
X415564Y4510D01*
X415563Y4576D01*
X415540Y4656D01*
X415534Y4688D01*
X415525Y4705D01*
X415516Y4737D01*
X415044Y5877D01*
X414876Y6721D01*
X418116Y6721D01*
X418116Y4670D01*
X418191Y4002D01*
X418192Y4002D01*
X418191Y4001D01*
X418413Y3367D01*
X418414Y3367D01*
X418414Y3366D01*
X418771Y2797D01*
X418772Y2797D01*
X419247Y2322D01*
X419247Y2321D01*
X419816Y1964D01*
X419817Y1964D01*
X419817Y1963D01*
X420451Y1741D01*
X420452Y1741D01*
X421120Y1666D01*
X421788Y1741D01*
X421788Y1742D01*
X421789Y1741D01*
X422423Y1963D01*
X422423Y1964D01*
X422424Y1964D01*
X422993Y2321D01*
X422993Y2322D01*
X423469Y2797D01*
X423827Y3366D01*
X423826Y3367D01*
X423827Y3367D01*
X424049Y4001D01*
X424049Y4002D01*
X424050Y4007D01*
X424050Y4011D01*
X424051Y4020D01*
X424051Y4024D01*
X424052Y4024D01*
X424051Y4024D01*
X424052Y4032D01*
X424052Y4033D01*
X424053Y4037D01*
X424054Y4045D01*
X424054Y4049D01*
X424054Y4050D01*
X424055Y4058D01*
X424056Y4062D01*
X424057Y4071D01*
X424057Y4075D01*
X424058Y4083D01*
X424058Y4084D01*
X424059Y4088D01*
X424060Y4096D01*
X424060Y4100D01*
X424060Y4101D01*
X424061Y4105D01*
X424061Y4109D01*
X424062Y4113D01*
X424062Y4117D01*
X424062Y4118D01*
X424063Y4122D01*
X424063Y4126D01*
X424063Y4130D01*
X424064Y4139D01*
X424065Y4143D01*
X424066Y4151D01*
X424066Y4152D01*
X424066Y4156D01*
X424067Y4164D01*
X424068Y4168D01*
X424068Y4169D01*
X424069Y4177D01*
X424069Y4181D01*
X424070Y4190D01*
X424071Y4194D01*
X424072Y4202D01*
X424072Y4203D01*
X424072Y4207D01*
X424073Y4215D01*
X424074Y4219D01*
X424074Y4220D01*
X424074Y4228D01*
X424075Y4228D01*
X424074Y4228D01*
X424075Y4232D01*
X424076Y4241D01*
X424076Y4245D01*
X424077Y4249D01*
X424077Y4253D01*
X424077Y4254D01*
X424078Y4258D01*
X424078Y4262D01*
X424079Y4266D01*
X424079Y4270D01*
X424079Y4271D01*
X424080Y4275D01*
X424081Y4283D01*
X424081Y4287D01*
X424081Y4288D01*
X424082Y4296D01*
X424083Y4300D01*
X424084Y4309D01*
X424084Y4313D01*
X424085Y4321D01*
X424085Y4322D01*
X424085Y4326D01*
X424086Y4326D01*
X424085Y4326D01*
X424086Y4334D01*
X424087Y4338D01*
X424087Y4339D01*
X424088Y4347D01*
X424088Y4351D01*
X424089Y4360D01*
X424090Y4364D01*
X424091Y4372D01*
X424091Y4373D01*
X424091Y4377D01*
X424092Y4385D01*
X424093Y4389D01*
X424093Y4390D01*
X424094Y4398D01*
X424094Y4402D01*
X424095Y4406D01*
X424095Y4407D01*
X424095Y4411D01*
X424096Y4415D01*
X424096Y4419D01*
X424097Y4423D01*
X424097Y4424D01*
X424097Y4428D01*
X424097Y4432D01*
X424098Y4440D01*
X424098Y4441D01*
X424099Y4445D01*
X424100Y4453D01*
X424100Y4457D01*
X424100Y4458D01*
X424101Y4466D01*
X424102Y4470D01*
X424103Y4479D01*
X424103Y4483D01*
X424104Y4491D01*
X424104Y4492D01*
X424105Y4496D01*
X424106Y4504D01*
X424106Y4508D01*
X424106Y4509D01*
X424107Y4517D01*
X424108Y4521D01*
X424108Y4530D01*
X424109Y4530D01*
X424108Y4530D01*
X424109Y4534D01*
X424110Y4542D01*
X424110Y4543D01*
X424110Y4547D01*
X424111Y4555D01*
X424112Y4559D01*
X424112Y4560D01*
X424112Y4564D01*
X424113Y4568D01*
X424113Y4572D01*
X424114Y4576D01*
X424114Y4577D01*
X424115Y4585D01*
X424115Y4589D01*
X424116Y4598D01*
X424117Y4602D01*
X424118Y4610D01*
X424118Y4611D01*
X424118Y4615D01*
X424119Y4623D01*
X424119Y4627D01*
X424120Y4627D01*
X424119Y4628D01*
X424120Y4636D01*
X424121Y4640D01*
X424122Y4649D01*
X424122Y4653D01*
X424123Y4661D01*
X424123Y4662D01*
X424124Y4666D01*
X424124Y4670D01*
X424124Y6721D01*
X427364Y6721D01*
X427196Y5877D01*
X426724Y4737D01*
X426709Y4673D01*
X426684Y4612D01*
X426675Y4529D01*
X426668Y4497D01*
X426669Y4478D01*
X426666Y4445D01*
X426666Y4045D01*
X426388Y2827D01*
X425845Y1701D01*
X425510Y1281D01*
X425496Y1255D01*
X425476Y1234D01*
X425436Y1148D01*
X425390Y1066D01*
X425385Y1037D01*
X425372Y1011D01*
X425362Y917D01*
X425344Y824D01*
X425348Y795D01*
X425345Y767D01*
X425365Y674D01*
X425378Y581D01*
X425391Y555D01*
X425398Y526D01*
X425446Y445D01*
X425488Y361D01*
X425509Y340D01*
X425524Y315D01*
X425595Y254D01*
X425662Y187D01*
X425688Y174D01*
X425711Y155D01*
X425798Y120D01*
X425883Y78D01*
X425912Y74D01*
X425939Y63D01*
X426105Y45D01*
X502494Y45D01*
X502523Y49D01*
X502552Y47D01*
X502644Y69D01*
X502737Y84D01*
X502763Y98D01*
X502791Y105D01*
X502871Y155D01*
X502955Y200D01*
X502975Y221D01*
X502999Y236D01*
X503059Y310D01*
X503124Y378D01*
X503136Y404D01*
X503155Y427D01*
X503188Y515D01*
X503228Y601D01*
X503231Y630D01*
X503241Y657D01*
X503244Y752D01*
X503255Y845D01*
X503249Y874D01*
X503250Y903D01*
X503223Y993D01*
X503202Y1086D01*
X503187Y1111D01*
X503179Y1139D01*
X503090Y1281D01*
X502755Y1701D01*
X502212Y2827D01*
X501934Y4045D01*
X501934Y4445D01*
X501924Y4510D01*
X501923Y4576D01*
X501900Y4656D01*
X501894Y4688D01*
X501885Y4705D01*
X501876Y4737D01*
X501404Y5877D01*
X501236Y6721D01*
X504476Y6721D01*
X504476Y4670D01*
X504551Y4002D01*
X504552Y4002D01*
X504551Y4001D01*
X504773Y3367D01*
X504774Y3367D01*
X504774Y3366D01*
X505131Y2797D01*
X505132Y2797D01*
X505607Y2322D01*
X505607Y2321D01*
X506176Y1964D01*
X506177Y1964D01*
X506177Y1963D01*
X506811Y1741D01*
X506812Y1741D01*
X507480Y1666D01*
X508148Y1741D01*
X508148Y1742D01*
X508149Y1741D01*
X508783Y1963D01*
X508783Y1964D01*
X508784Y1964D01*
X509353Y2321D01*
X509353Y2322D01*
X509829Y2797D01*
X510187Y3366D01*
X510186Y3367D01*
X510187Y3367D01*
X510409Y4001D01*
X510409Y4002D01*
X510410Y4007D01*
X510410Y4011D01*
X510411Y4020D01*
X510411Y4024D01*
X510412Y4024D01*
X510411Y4024D01*
X510412Y4032D01*
X510412Y4033D01*
X510413Y4037D01*
X510414Y4045D01*
X510414Y4049D01*
X510414Y4050D01*
X510415Y4058D01*
X510416Y4062D01*
X510417Y4071D01*
X510417Y4075D01*
X510418Y4083D01*
X510418Y4084D01*
X510419Y4088D01*
X510420Y4096D01*
X510420Y4100D01*
X510420Y4101D01*
X510421Y4105D01*
X510421Y4109D01*
X510422Y4113D01*
X510422Y4117D01*
X510422Y4118D01*
X510423Y4122D01*
X510423Y4126D01*
X510423Y4130D01*
X510424Y4139D01*
X510425Y4143D01*
X510426Y4151D01*
X510426Y4152D01*
X510426Y4156D01*
X510427Y4164D01*
X510428Y4168D01*
X510428Y4169D01*
X510429Y4177D01*
X510429Y4181D01*
X510430Y4190D01*
X510431Y4194D01*
X510432Y4202D01*
X510432Y4203D01*
X510432Y4207D01*
X510433Y4215D01*
X510434Y4219D01*
X510434Y4220D01*
X510434Y4228D01*
X510435Y4228D01*
X510434Y4228D01*
X510435Y4232D01*
X510436Y4241D01*
X510436Y4245D01*
X510437Y4249D01*
X510437Y4253D01*
X510437Y4254D01*
X510438Y4258D01*
X510438Y4262D01*
X510439Y4266D01*
X510439Y4270D01*
X510439Y4271D01*
X510440Y4275D01*
X510441Y4283D01*
X510441Y4287D01*
X510441Y4288D01*
X510442Y4296D01*
X510443Y4300D01*
X510444Y4309D01*
X510444Y4313D01*
X510445Y4321D01*
X510445Y4322D01*
X510445Y4326D01*
X510446Y4326D01*
X510445Y4326D01*
X510446Y4334D01*
X510447Y4338D01*
X510447Y4339D01*
X510448Y4347D01*
X510448Y4351D01*
X510449Y4360D01*
X510450Y4364D01*
X510451Y4372D01*
X510451Y4373D01*
X510451Y4377D01*
X510452Y4385D01*
X510453Y4389D01*
X510453Y4390D01*
X510454Y4398D01*
X510454Y4402D01*
X510455Y4406D01*
X510455Y4407D01*
X510455Y4411D01*
X510456Y4415D01*
X510456Y4419D01*
X510457Y4423D01*
X510457Y4424D01*
X510457Y4428D01*
X510457Y4432D01*
X510458Y4440D01*
X510458Y4441D01*
X510459Y4445D01*
X510460Y4453D01*
X510460Y4457D01*
X510460Y4458D01*
X510461Y4466D01*
X510462Y4470D01*
X510463Y4479D01*
X510463Y4483D01*
X510464Y4491D01*
X510464Y4492D01*
X510465Y4496D01*
X510466Y4504D01*
X510466Y4508D01*
X510466Y4509D01*
X510467Y4517D01*
X510468Y4521D01*
X510468Y4530D01*
X510469Y4530D01*
X510468Y4530D01*
X510469Y4534D01*
X510470Y4542D01*
X510470Y4543D01*
X510470Y4547D01*
X510471Y4555D01*
X510472Y4559D01*
X510472Y4560D01*
X510472Y4564D01*
X510473Y4568D01*
X510473Y4572D01*
X510474Y4576D01*
X510474Y4577D01*
X510475Y4585D01*
X510475Y4589D01*
X510476Y4598D01*
X510477Y4602D01*
X510478Y4610D01*
X510478Y4611D01*
X510478Y4615D01*
X510479Y4623D01*
X510479Y4627D01*
X510480Y4627D01*
X510479Y4628D01*
X510480Y4636D01*
X510481Y4640D01*
X510482Y4649D01*
X510482Y4653D01*
X510483Y4661D01*
X510483Y4662D01*
X510484Y4666D01*
X510484Y4670D01*
X510484Y6721D01*
X513724Y6721D01*
X513556Y5877D01*
X513084Y4737D01*
X513069Y4673D01*
X513044Y4612D01*
X513035Y4529D01*
X513028Y4497D01*
X513029Y4478D01*
X513026Y4446D01*
X513026Y4045D01*
X512748Y2827D01*
X512205Y1701D01*
X511870Y1281D01*
X511856Y1255D01*
X511836Y1234D01*
X511796Y1148D01*
X511750Y1066D01*
X511745Y1037D01*
X511732Y1011D01*
X511722Y917D01*
X511704Y824D01*
X511708Y795D01*
X511705Y767D01*
X511725Y674D01*
X511738Y581D01*
X511751Y555D01*
X511757Y526D01*
X511806Y445D01*
X511848Y361D01*
X511869Y340D01*
X511884Y315D01*
X511955Y254D01*
X512022Y187D01*
X512048Y174D01*
X512071Y155D01*
X512158Y120D01*
X512243Y78D01*
X512272Y74D01*
X512299Y63D01*
X512465Y45D01*
X636444Y45D01*
X636464Y48D01*
X636483Y46D01*
X636585Y68D01*
X636687Y84D01*
X636704Y94D01*
X636724Y98D01*
X636813Y151D01*
X636904Y200D01*
X636918Y214D01*
X636935Y224D01*
X637002Y303D01*
X637074Y378D01*
X637082Y396D01*
X637095Y411D01*
X637134Y507D01*
X637177Y601D01*
X637179Y621D01*
X637187Y639D01*
X637205Y806D01*
X637205Y31158D01*
X638842Y32795D01*
X653912Y32795D01*
X654001Y32809D01*
X654090Y32816D01*
X654121Y32829D01*
X654155Y32834D01*
X654234Y32876D01*
X654317Y32911D01*
X654342Y32934D01*
X654372Y32950D01*
X654434Y33014D01*
X654501Y33074D01*
X654518Y33103D01*
X654542Y33128D01*
X654579Y33209D01*
X654624Y33287D01*
X654635Y33329D01*
X654645Y33351D01*
X654649Y33383D01*
X654666Y33449D01*
X661799Y83837D01*
X661799Y83844D01*
X661801Y83854D01*
X674521Y191001D01*
X674520Y191011D01*
X674523Y191024D01*
X684026Y298505D01*
X684025Y298512D01*
X684027Y298522D01*
X687564Y352265D01*
X687562Y352284D01*
X687565Y352315D01*
X687565Y494694D01*
X687562Y494714D01*
X687564Y494733D01*
X687542Y494835D01*
X687526Y494937D01*
X687516Y494954D01*
X687512Y494974D01*
X687459Y495063D01*
X687410Y495154D01*
X687396Y495168D01*
X687386Y495185D01*
X687307Y495252D01*
X687232Y495324D01*
X687214Y495332D01*
X687199Y495345D01*
X687103Y495384D01*
X687009Y495427D01*
X686989Y495429D01*
X686971Y495437D01*
X686804Y495455D01*
X630279Y495455D01*
X619871Y498837D01*
X611019Y505269D01*
X604587Y514121D01*
X601205Y524529D01*
X601205Y535471D01*
X604587Y545879D01*
X611019Y554731D01*
X619871Y561163D01*
X630279Y564545D01*
X686804Y564545D01*
X686824Y564548D01*
X686843Y564546D01*
X686945Y564568D01*
X687047Y564584D01*
X687064Y564594D01*
X687084Y564598D01*
X687173Y564651D01*
X687264Y564700D01*
X687278Y564714D01*
X687295Y564724D01*
X687362Y564803D01*
X687434Y564878D01*
X687442Y564896D01*
X687455Y564911D01*
X687494Y565007D01*
X687537Y565101D01*
X687539Y565121D01*
X687547Y565139D01*
X687565Y565306D01*
X687565Y758498D01*
X687563Y758515D01*
X687564Y758542D01*
X682681Y843987D01*
X682655Y844105D01*
X682629Y844224D01*
X682628Y844226D01*
X682628Y844228D01*
X682565Y844332D01*
X682503Y844435D01*
X682502Y844436D01*
X682501Y844438D01*
X682409Y844515D01*
X682316Y844595D01*
X682314Y844596D01*
X682313Y844597D01*
X682203Y844640D01*
X682088Y844687D01*
X682086Y844687D01*
X682084Y844688D01*
X682077Y844688D01*
X681921Y844705D01*
X653642Y844705D01*
X652005Y846342D01*
X652005Y1020000D01*
X652002Y1020020D01*
X652004Y1020039D01*
X651982Y1020141D01*
X651966Y1020243D01*
X651956Y1020260D01*
X651952Y1020280D01*
X651899Y1020369D01*
X651850Y1020460D01*
X651836Y1020474D01*
X651826Y1020491D01*
X651747Y1020558D01*
X651672Y1020630D01*
X651654Y1020638D01*
X651639Y1020651D01*
X651543Y1020690D01*
X651449Y1020733D01*
X651429Y1020735D01*
X651411Y1020743D01*
X651244Y1020761D01*
X255003Y1020761D01*
X254933Y1020750D01*
X254861Y1020748D01*
X254812Y1020730D01*
X254761Y1020722D01*
X254697Y1020688D01*
X254630Y1020663D01*
X254589Y1020631D01*
X254543Y1020606D01*
X254494Y1020555D01*
X254438Y1020510D01*
X254410Y1020466D01*
X254374Y1020428D01*
X254344Y1020363D01*
X254305Y1020303D01*
X254292Y1020252D01*
X254270Y1020205D01*
X254262Y1020134D01*
X254245Y1020064D01*
X254249Y1020012D01*
X254243Y1019961D01*
X254258Y1019890D01*
X254264Y1019819D01*
X254284Y1019771D01*
X254295Y1019720D01*
X254332Y1019659D01*
X254360Y1019593D01*
X254405Y1019537D01*
X254422Y1019509D01*
X254439Y1019494D01*
X254465Y1019462D01*
X272573Y1001354D01*
X272573Y500928D01*
X272575Y500916D01*
X272574Y500908D01*
X272583Y500866D01*
X272587Y500838D01*
X272595Y500747D01*
X272607Y500717D01*
X272612Y500685D01*
X272655Y500604D01*
X272691Y500521D01*
X272717Y500488D01*
X272728Y500468D01*
X272751Y500446D01*
X272796Y500390D01*
X273081Y500105D01*
X273081Y495895D01*
X270105Y492919D01*
X265895Y492919D01*
X262919Y495895D01*
X262919Y500105D01*
X263204Y500390D01*
X263257Y500463D01*
X263317Y500533D01*
X263329Y500563D01*
X263348Y500589D01*
X263375Y500676D01*
X263409Y500761D01*
X263413Y500802D01*
X263420Y500824D01*
X263419Y500857D01*
X263427Y500928D01*
X263427Y997251D01*
X263413Y997341D01*
X263405Y997432D01*
X263393Y997461D01*
X263388Y997493D01*
X263345Y997574D01*
X263309Y997658D01*
X263283Y997690D01*
X263272Y997711D01*
X263249Y997733D01*
X263204Y997789D01*
X240455Y1020538D01*
X240381Y1020591D01*
X240311Y1020651D01*
X240281Y1020663D01*
X240255Y1020682D01*
X240168Y1020709D01*
X240083Y1020743D01*
X240042Y1020747D01*
X240020Y1020754D01*
X239988Y1020753D01*
X239917Y1020761D01*
X234347Y1020761D01*
X234268Y1020748D01*
X234189Y1020745D01*
X234148Y1020729D01*
X234104Y1020722D01*
X234034Y1020684D01*
X233960Y1020655D01*
X233926Y1020627D01*
X233887Y1020606D01*
X233832Y1020549D01*
X233771Y1020498D01*
X233748Y1020460D01*
X233717Y1020428D01*
X233684Y1020356D01*
X233642Y1020288D01*
X233632Y1020245D01*
X233614Y1020205D01*
X233605Y1020126D01*
X233591Y1020063D01*
X224282Y1020063D01*
X224262Y1020060D01*
X224243Y1020062D01*
X224141Y1020040D01*
X224039Y1020023D01*
X224022Y1020014D01*
X224002Y1020010D01*
X223913Y1019957D01*
X223822Y1019908D01*
X223808Y1019894D01*
X223791Y1019884D01*
X223724Y1019805D01*
X223653Y1019730D01*
X223644Y1019712D01*
X223631Y1019697D01*
X223593Y1019601D01*
X223549Y1019507D01*
X223547Y1019487D01*
X223539Y1019469D01*
X223521Y1019302D01*
X223521Y1018539D01*
X223519Y1018539D01*
X223519Y1019302D01*
X223516Y1019322D01*
X223518Y1019341D01*
X223496Y1019443D01*
X223479Y1019545D01*
X223470Y1019562D01*
X223466Y1019582D01*
X223413Y1019671D01*
X223364Y1019762D01*
X223350Y1019776D01*
X223340Y1019793D01*
X223261Y1019860D01*
X223186Y1019931D01*
X223168Y1019940D01*
X223153Y1019953D01*
X223057Y1019992D01*
X222963Y1020035D01*
X222943Y1020037D01*
X222925Y1020045D01*
X222758Y1020063D01*
X213448Y1020063D01*
X213444Y1020083D01*
X213444Y1020127D01*
X213418Y1020202D01*
X213401Y1020280D01*
X213378Y1020318D01*
X213364Y1020360D01*
X213316Y1020423D01*
X213275Y1020491D01*
X213241Y1020520D01*
X213214Y1020555D01*
X213148Y1020599D01*
X213088Y1020651D01*
X213047Y1020667D01*
X213010Y1020692D01*
X212934Y1020713D01*
X212860Y1020743D01*
X212801Y1020749D01*
X212773Y1020757D01*
X212745Y1020755D01*
X212693Y1020761D01*
X48756Y1020761D01*
X48736Y1020758D01*
X48717Y1020760D01*
X48615Y1020738D01*
X48513Y1020722D01*
X48496Y1020712D01*
X48476Y1020708D01*
X48387Y1020655D01*
X48296Y1020606D01*
X48282Y1020592D01*
X48265Y1020582D01*
X48198Y1020503D01*
X48126Y1020428D01*
X48118Y1020410D01*
X48105Y1020395D01*
X48066Y1020299D01*
X48023Y1020205D01*
X48021Y1020185D01*
X48013Y1020167D01*
X47995Y1020000D01*
X47995Y846342D01*
X46358Y844705D01*
X18063Y844705D01*
X17946Y844686D01*
X17828Y844668D01*
X17824Y844666D01*
X17820Y844666D01*
X17716Y844610D01*
X17609Y844555D01*
X17606Y844552D01*
X17603Y844550D01*
X17523Y844466D01*
X17438Y844378D01*
X17436Y844375D01*
X17434Y844372D01*
X17384Y844264D01*
X17332Y844156D01*
X17331Y844152D01*
X17330Y844149D01*
X17329Y844137D01*
X17303Y843991D01*
X11166Y744567D01*
X11168Y744549D01*
X11165Y744520D01*
X11165Y565306D01*
X11168Y565286D01*
X11166Y565267D01*
X11188Y565165D01*
X11204Y565063D01*
X11214Y565046D01*
X11218Y565026D01*
X11271Y564937D01*
X11320Y564846D01*
X11334Y564832D01*
X11344Y564815D01*
X11423Y564748D01*
X11498Y564676D01*
X11516Y564668D01*
X11531Y564655D01*
X11627Y564616D01*
X11721Y564573D01*
X11741Y564571D01*
X11759Y564563D01*
X11926Y564545D01*
X69721Y564545D01*
X80129Y561163D01*
X88981Y554731D01*
X95413Y545879D01*
X98795Y535471D01*
X98795Y524529D01*
X95413Y514121D01*
X88981Y505269D01*
X80128Y498837D01*
X69721Y495455D01*
X11926Y495455D01*
X11906Y495452D01*
X11887Y495454D01*
X11785Y495432D01*
X11683Y495416D01*
X11666Y495406D01*
X11646Y495402D01*
X11557Y495349D01*
X11466Y495300D01*
X11452Y495286D01*
X11435Y495276D01*
X11368Y495197D01*
X11296Y495122D01*
X11288Y495104D01*
X11275Y495089D01*
X11236Y494993D01*
X11193Y494899D01*
X11191Y494879D01*
X11183Y494861D01*
X11165Y494694D01*
X11165Y397976D01*
X11166Y397966D01*
X11165Y397950D01*
X12700Y351846D01*
X12701Y351839D01*
X12700Y351827D01*
X18112Y259665D01*
X18115Y259655D01*
X18114Y259639D01*
X26642Y167713D01*
X26644Y167704D01*
X26645Y167688D01*
X38278Y76103D01*
X38280Y76096D01*
X38281Y76084D01*
X44801Y33441D01*
X44827Y33360D01*
X44845Y33276D01*
X44865Y33243D01*
X44877Y33207D01*
X44928Y33138D01*
X44972Y33065D01*
X45001Y33040D01*
X45024Y33009D01*
X45094Y32961D01*
X45159Y32905D01*
X45194Y32891D01*
X45225Y32869D01*
X45307Y32845D01*
X45387Y32813D01*
X45436Y32808D01*
X45462Y32800D01*
X45492Y32802D01*
X45553Y32795D01*
X61158Y32795D01*
X62795Y31158D01*
X62795Y806D01*
X62798Y786D01*
X62796Y767D01*
X62818Y665D01*
X62834Y563D01*
X62844Y546D01*
X62848Y526D01*
X62901Y437D01*
X62950Y346D01*
X62964Y332D01*
X62974Y315D01*
X63053Y248D01*
X63128Y176D01*
X63146Y168D01*
X63161Y155D01*
X63257Y116D01*
X63351Y73D01*
X63371Y71D01*
X63389Y63D01*
X63556Y45D01*
X190444Y45D01*
X190464Y48D01*
G37*
%LPC*%
G36*
X407895Y94919D02*
X407895Y94919D01*
X404919Y97895D01*
X404919Y100095D01*
X404905Y100185D01*
X404897Y100276D01*
X404885Y100305D01*
X404880Y100337D01*
X404837Y100418D01*
X404801Y100502D01*
X404775Y100534D01*
X404764Y100555D01*
X404741Y100577D01*
X404696Y100633D01*
X401925Y103404D01*
X401851Y103457D01*
X401782Y103517D01*
X401751Y103529D01*
X401725Y103548D01*
X401638Y103575D01*
X401553Y103609D01*
X401512Y103613D01*
X401490Y103620D01*
X401458Y103619D01*
X401387Y103627D01*
X357792Y103627D01*
X346897Y114522D01*
X346897Y134742D01*
X346883Y134832D01*
X346875Y134923D01*
X346863Y134953D01*
X346858Y134985D01*
X346815Y135066D01*
X346779Y135149D01*
X346753Y135182D01*
X346742Y135202D01*
X346719Y135224D01*
X346674Y135280D01*
X345119Y136835D01*
X345119Y138811D01*
X345116Y138831D01*
X345118Y138850D01*
X345096Y138952D01*
X345080Y139054D01*
X345070Y139071D01*
X345066Y139091D01*
X345013Y139180D01*
X344964Y139271D01*
X344950Y139285D01*
X344940Y139302D01*
X344861Y139369D01*
X344786Y139441D01*
X344768Y139449D01*
X344753Y139462D01*
X344657Y139501D01*
X344563Y139544D01*
X344543Y139546D01*
X344525Y139554D01*
X344358Y139572D01*
X326555Y139572D01*
X324769Y141358D01*
X318892Y147235D01*
X317106Y149021D01*
X317106Y325126D01*
X317105Y325134D01*
X317105Y325138D01*
X317101Y325156D01*
X317092Y325216D01*
X317084Y325307D01*
X317072Y325336D01*
X317067Y325368D01*
X317024Y325449D01*
X316988Y325533D01*
X316962Y325565D01*
X316951Y325586D01*
X316928Y325608D01*
X316883Y325664D01*
X298318Y344229D01*
X296532Y346015D01*
X296532Y378720D01*
X296518Y378810D01*
X296510Y378901D01*
X296498Y378930D01*
X296493Y378962D01*
X296450Y379043D01*
X296414Y379127D01*
X296388Y379159D01*
X296377Y379180D01*
X296354Y379202D01*
X296309Y379258D01*
X280871Y394696D01*
X280797Y394749D01*
X280728Y394809D01*
X280697Y394821D01*
X280671Y394840D01*
X280584Y394867D01*
X280499Y394901D01*
X280458Y394905D01*
X280436Y394912D01*
X280404Y394911D01*
X280333Y394919D01*
X277895Y394919D01*
X274919Y397895D01*
X274919Y402105D01*
X277895Y405081D01*
X282105Y405081D01*
X285081Y402105D01*
X285081Y398347D01*
X285095Y398257D01*
X285103Y398166D01*
X285115Y398137D01*
X285120Y398105D01*
X285163Y398024D01*
X285199Y397940D01*
X285225Y397908D01*
X285236Y397887D01*
X285259Y397865D01*
X285304Y397809D01*
X300082Y383031D01*
X300313Y382800D01*
X300371Y382758D01*
X300423Y382709D01*
X300470Y382687D01*
X300512Y382656D01*
X300581Y382635D01*
X300646Y382605D01*
X300698Y382599D01*
X300748Y382584D01*
X300819Y382586D01*
X300890Y382578D01*
X300941Y382589D01*
X300993Y382590D01*
X301061Y382615D01*
X301131Y382630D01*
X301176Y382657D01*
X301224Y382675D01*
X301280Y382720D01*
X301342Y382756D01*
X301376Y382796D01*
X301416Y382829D01*
X301455Y382889D01*
X301502Y382943D01*
X301521Y382992D01*
X301549Y383035D01*
X301567Y383105D01*
X301594Y383172D01*
X301602Y383243D01*
X301610Y383274D01*
X301608Y383297D01*
X301612Y383338D01*
X301612Y394158D01*
X301609Y394178D01*
X301611Y394197D01*
X301589Y394299D01*
X301573Y394401D01*
X301563Y394418D01*
X301559Y394438D01*
X301506Y394527D01*
X301457Y394618D01*
X301443Y394632D01*
X301433Y394649D01*
X301354Y394716D01*
X301279Y394788D01*
X301261Y394796D01*
X301246Y394809D01*
X301150Y394848D01*
X301056Y394891D01*
X301036Y394893D01*
X301018Y394901D01*
X300851Y394919D01*
X297895Y394919D01*
X294919Y397895D01*
X294919Y402105D01*
X297895Y405081D01*
X302105Y405081D01*
X305081Y402105D01*
X305081Y399007D01*
X305095Y398917D01*
X305103Y398826D01*
X305115Y398797D01*
X305120Y398765D01*
X305163Y398684D01*
X305199Y398600D01*
X305225Y398568D01*
X305236Y398547D01*
X305259Y398525D01*
X305304Y398469D01*
X306948Y396825D01*
X306948Y375949D01*
X306951Y375929D01*
X306949Y375910D01*
X306971Y375808D01*
X306987Y375706D01*
X306997Y375689D01*
X307001Y375669D01*
X307054Y375580D01*
X307103Y375489D01*
X307117Y375475D01*
X307127Y375458D01*
X307206Y375391D01*
X307281Y375319D01*
X307299Y375311D01*
X307314Y375298D01*
X307410Y375259D01*
X307504Y375216D01*
X307524Y375214D01*
X307542Y375206D01*
X307709Y375188D01*
X326975Y375188D01*
X331078Y371085D01*
X331078Y362525D01*
X326594Y358041D01*
X307859Y358041D01*
X307769Y358027D01*
X307678Y358019D01*
X307649Y358007D01*
X307617Y358002D01*
X307536Y357959D01*
X307452Y357923D01*
X307420Y357897D01*
X307399Y357886D01*
X307377Y357863D01*
X307321Y357818D01*
X305901Y356398D01*
X305848Y356324D01*
X305788Y356255D01*
X305776Y356224D01*
X305757Y356198D01*
X305730Y356111D01*
X305696Y356026D01*
X305692Y355985D01*
X305685Y355963D01*
X305686Y355931D01*
X305678Y355860D01*
X305678Y349810D01*
X305692Y349720D01*
X305700Y349629D01*
X305712Y349600D01*
X305717Y349568D01*
X305760Y349487D01*
X305796Y349403D01*
X305822Y349371D01*
X305833Y349350D01*
X305856Y349328D01*
X305901Y349272D01*
X325998Y329175D01*
X325998Y166170D01*
X326012Y166080D01*
X326020Y165989D01*
X326032Y165960D01*
X326037Y165928D01*
X326080Y165847D01*
X326116Y165763D01*
X326142Y165731D01*
X326153Y165710D01*
X326176Y165688D01*
X326221Y165632D01*
X337039Y154814D01*
X337113Y154761D01*
X337182Y154701D01*
X337213Y154689D01*
X337239Y154670D01*
X337326Y154643D01*
X337411Y154609D01*
X337452Y154605D01*
X337474Y154598D01*
X337506Y154599D01*
X337577Y154591D01*
X340675Y154591D01*
X343651Y151615D01*
X343651Y147713D01*
X343653Y147699D01*
X343652Y147688D01*
X343662Y147639D01*
X343664Y147570D01*
X343682Y147521D01*
X343690Y147470D01*
X343724Y147407D01*
X343749Y147339D01*
X343781Y147299D01*
X343806Y147253D01*
X343857Y147203D01*
X343902Y147147D01*
X343946Y147119D01*
X343984Y147083D01*
X344049Y147053D01*
X344109Y147014D01*
X344160Y147002D01*
X344207Y146980D01*
X344278Y146972D01*
X344348Y146954D01*
X344400Y146958D01*
X344451Y146953D01*
X344522Y146968D01*
X344593Y146973D01*
X344641Y146994D01*
X344692Y147005D01*
X344753Y147042D01*
X344819Y147070D01*
X344875Y147115D01*
X344880Y147118D01*
X344887Y147121D01*
X344887Y147122D01*
X344903Y147131D01*
X344918Y147149D01*
X344950Y147174D01*
X345353Y147577D01*
X357588Y147577D01*
X361558Y143607D01*
X361558Y140373D01*
X361572Y140283D01*
X361580Y140192D01*
X361592Y140162D01*
X361597Y140130D01*
X361640Y140049D01*
X361676Y139966D01*
X361702Y139933D01*
X361713Y139913D01*
X361736Y139891D01*
X361781Y139835D01*
X363971Y137645D01*
X363971Y133435D01*
X360995Y130459D01*
X356785Y130459D01*
X354802Y132443D01*
X354744Y132484D01*
X354692Y132534D01*
X354645Y132556D01*
X354603Y132586D01*
X354534Y132607D01*
X354469Y132637D01*
X354417Y132643D01*
X354367Y132658D01*
X354296Y132657D01*
X354225Y132664D01*
X354174Y132653D01*
X354122Y132652D01*
X354054Y132627D01*
X353984Y132612D01*
X353939Y132585D01*
X353891Y132568D01*
X353835Y132523D01*
X353773Y132486D01*
X353739Y132446D01*
X353699Y132414D01*
X353660Y132354D01*
X353613Y132299D01*
X353594Y132251D01*
X353566Y132207D01*
X353548Y132138D01*
X353521Y132071D01*
X353513Y132000D01*
X353505Y131968D01*
X353507Y131945D01*
X353503Y131904D01*
X353503Y117573D01*
X353517Y117483D01*
X353525Y117392D01*
X353537Y117363D01*
X353542Y117331D01*
X353585Y117250D01*
X353621Y117166D01*
X353647Y117134D01*
X353658Y117113D01*
X353681Y117091D01*
X353726Y117035D01*
X360305Y110456D01*
X360379Y110403D01*
X360448Y110343D01*
X360479Y110331D01*
X360505Y110312D01*
X360592Y110285D01*
X360677Y110251D01*
X360718Y110247D01*
X360740Y110240D01*
X360772Y110241D01*
X360843Y110233D01*
X404438Y110233D01*
X406596Y108075D01*
X409367Y105304D01*
X409441Y105251D01*
X409510Y105191D01*
X409541Y105179D01*
X409567Y105160D01*
X409654Y105133D01*
X409739Y105099D01*
X409780Y105095D01*
X409802Y105088D01*
X409834Y105089D01*
X409905Y105081D01*
X412105Y105081D01*
X412390Y104796D01*
X412463Y104743D01*
X412533Y104683D01*
X412563Y104671D01*
X412589Y104652D01*
X412676Y104625D01*
X412761Y104591D01*
X412802Y104587D01*
X412824Y104580D01*
X412857Y104581D01*
X412928Y104573D01*
X471791Y104573D01*
X471881Y104587D01*
X471972Y104595D01*
X472001Y104607D01*
X472033Y104612D01*
X472114Y104655D01*
X472198Y104691D01*
X472230Y104717D01*
X472251Y104728D01*
X472273Y104751D01*
X472329Y104796D01*
X480696Y113163D01*
X480749Y113237D01*
X480809Y113307D01*
X480821Y113337D01*
X480840Y113363D01*
X480867Y113450D01*
X480901Y113535D01*
X480905Y113576D01*
X480912Y113598D01*
X480911Y113630D01*
X480919Y113701D01*
X480919Y114105D01*
X483895Y117081D01*
X488105Y117081D01*
X488390Y116796D01*
X488463Y116743D01*
X488533Y116683D01*
X488563Y116671D01*
X488589Y116652D01*
X488676Y116625D01*
X488761Y116591D01*
X488802Y116587D01*
X488824Y116580D01*
X488857Y116581D01*
X488928Y116573D01*
X498091Y116573D01*
X498181Y116587D01*
X498272Y116595D01*
X498301Y116607D01*
X498333Y116612D01*
X498414Y116655D01*
X498498Y116691D01*
X498530Y116717D01*
X498551Y116728D01*
X498573Y116751D01*
X498629Y116796D01*
X511774Y129941D01*
X511827Y130015D01*
X511887Y130085D01*
X511899Y130115D01*
X511918Y130141D01*
X511945Y130228D01*
X511979Y130313D01*
X511983Y130354D01*
X511990Y130376D01*
X511989Y130408D01*
X511997Y130479D01*
X511997Y148336D01*
X511994Y148356D01*
X511996Y148375D01*
X511974Y148477D01*
X511958Y148579D01*
X511948Y148596D01*
X511944Y148616D01*
X511891Y148705D01*
X511842Y148796D01*
X511828Y148810D01*
X511818Y148827D01*
X511739Y148894D01*
X511664Y148966D01*
X511646Y148974D01*
X511631Y148987D01*
X511535Y149026D01*
X511441Y149069D01*
X511421Y149071D01*
X511403Y149079D01*
X511236Y149097D01*
X494126Y149097D01*
X494036Y149083D01*
X493945Y149075D01*
X493915Y149063D01*
X493883Y149058D01*
X493803Y149015D01*
X493719Y148979D01*
X493686Y148953D01*
X493666Y148942D01*
X493644Y148919D01*
X493588Y148874D01*
X493205Y148491D01*
X489416Y148491D01*
X488369Y149538D01*
X488295Y149591D01*
X488226Y149651D01*
X488196Y149663D01*
X488170Y149682D01*
X488083Y149709D01*
X487998Y149743D01*
X487957Y149747D01*
X487935Y149754D01*
X487902Y149753D01*
X487831Y149761D01*
X473052Y149761D01*
X472962Y149747D01*
X472871Y149739D01*
X472841Y149727D01*
X472809Y149722D01*
X472728Y149679D01*
X472645Y149643D01*
X472612Y149617D01*
X472592Y149606D01*
X472570Y149583D01*
X472514Y149538D01*
X471675Y148699D01*
X467465Y148699D01*
X464489Y151675D01*
X464489Y155885D01*
X467465Y158861D01*
X471358Y158861D01*
X471378Y158864D01*
X471397Y158862D01*
X471499Y158884D01*
X471601Y158900D01*
X471618Y158910D01*
X471638Y158914D01*
X471727Y158967D01*
X471818Y159016D01*
X471832Y159030D01*
X471849Y159040D01*
X471916Y159119D01*
X471988Y159194D01*
X471996Y159212D01*
X472009Y159227D01*
X472048Y159323D01*
X472091Y159417D01*
X472093Y159437D01*
X472101Y159455D01*
X472119Y159622D01*
X472119Y163395D01*
X474556Y165832D01*
X474568Y165848D01*
X474584Y165860D01*
X474640Y165948D01*
X474700Y166031D01*
X474706Y166050D01*
X474717Y166067D01*
X474742Y166168D01*
X474772Y166267D01*
X474772Y166286D01*
X474777Y166306D01*
X474769Y166409D01*
X474766Y166512D01*
X474759Y166531D01*
X474758Y166551D01*
X474717Y166646D01*
X474682Y166743D01*
X474669Y166759D01*
X474661Y166777D01*
X474556Y166908D01*
X472119Y169345D01*
X472119Y173555D01*
X475095Y176531D01*
X478193Y176531D01*
X478283Y176545D01*
X478374Y176553D01*
X478403Y176565D01*
X478435Y176570D01*
X478516Y176613D01*
X478600Y176649D01*
X478632Y176675D01*
X478653Y176686D01*
X478675Y176709D01*
X478731Y176754D01*
X482745Y180768D01*
X482798Y180842D01*
X482858Y180911D01*
X482870Y180942D01*
X482889Y180968D01*
X482916Y181055D01*
X482950Y181140D01*
X482954Y181181D01*
X482961Y181203D01*
X482960Y181235D01*
X482968Y181306D01*
X482968Y354771D01*
X482954Y354861D01*
X482946Y354952D01*
X482934Y354981D01*
X482929Y355013D01*
X482886Y355094D01*
X482850Y355178D01*
X482824Y355210D01*
X482813Y355231D01*
X482790Y355253D01*
X482779Y355267D01*
X482772Y355278D01*
X482765Y355284D01*
X482745Y355309D01*
X468933Y369121D01*
X468859Y369174D01*
X468789Y369234D01*
X468759Y369246D01*
X468733Y369265D01*
X468646Y369292D01*
X468561Y369326D01*
X468520Y369330D01*
X468498Y369337D01*
X468466Y369336D01*
X468394Y369344D01*
X446722Y369344D01*
X403974Y412092D01*
X403974Y798567D01*
X404386Y798979D01*
X404439Y799053D01*
X404499Y799122D01*
X404511Y799153D01*
X404530Y799179D01*
X404557Y799266D01*
X404591Y799351D01*
X404595Y799392D01*
X404602Y799414D01*
X404601Y799446D01*
X404609Y799517D01*
X404609Y802615D01*
X407585Y805591D01*
X411795Y805591D01*
X414613Y802772D01*
X414671Y802731D01*
X414723Y802681D01*
X414770Y802659D01*
X414812Y802629D01*
X414881Y802608D01*
X414946Y802578D01*
X414998Y802572D01*
X415048Y802557D01*
X415119Y802558D01*
X415190Y802551D01*
X415241Y802562D01*
X415293Y802563D01*
X415361Y802588D01*
X415431Y802603D01*
X415476Y802630D01*
X415524Y802647D01*
X415580Y802692D01*
X415642Y802729D01*
X415676Y802769D01*
X415716Y802801D01*
X415755Y802861D01*
X415802Y802916D01*
X415821Y802964D01*
X415849Y803008D01*
X415867Y803077D01*
X415894Y803144D01*
X415902Y803215D01*
X415910Y803247D01*
X415908Y803270D01*
X415912Y803311D01*
X415912Y851160D01*
X415898Y851250D01*
X415890Y851341D01*
X415878Y851370D01*
X415873Y851402D01*
X415830Y851483D01*
X415794Y851567D01*
X415768Y851599D01*
X415757Y851620D01*
X415734Y851642D01*
X415689Y851698D01*
X403974Y863413D01*
X403974Y880278D01*
X403963Y880349D01*
X403961Y880421D01*
X403943Y880470D01*
X403935Y880521D01*
X403901Y880584D01*
X403876Y880652D01*
X403844Y880692D01*
X403819Y880738D01*
X403768Y880788D01*
X403723Y880844D01*
X403679Y880872D01*
X403641Y880908D01*
X403576Y880938D01*
X403516Y880977D01*
X403465Y880989D01*
X403418Y881011D01*
X403347Y881019D01*
X403277Y881037D01*
X403225Y881033D01*
X403174Y881038D01*
X403103Y881023D01*
X403032Y881018D01*
X402984Y880997D01*
X402933Y880986D01*
X402872Y880949D01*
X402806Y880921D01*
X402803Y880919D01*
X398568Y880919D01*
X395592Y883895D01*
X395592Y888105D01*
X398568Y891081D01*
X402810Y891081D01*
X402832Y891070D01*
X402874Y891040D01*
X402943Y891019D01*
X403008Y890989D01*
X403060Y890983D01*
X403109Y890968D01*
X403181Y890969D01*
X403252Y890962D01*
X403303Y890973D01*
X403355Y890974D01*
X403423Y890999D01*
X403493Y891014D01*
X403538Y891041D01*
X403586Y891058D01*
X403642Y891103D01*
X403704Y891140D01*
X403738Y891180D01*
X403778Y891212D01*
X403817Y891272D01*
X403864Y891327D01*
X403883Y891375D01*
X403911Y891419D01*
X403929Y891488D01*
X403956Y891555D01*
X403964Y891626D01*
X403972Y891657D01*
X403970Y891681D01*
X403974Y891722D01*
X403974Y897627D01*
X404386Y898039D01*
X404439Y898113D01*
X404499Y898182D01*
X404511Y898213D01*
X404530Y898239D01*
X404557Y898326D01*
X404591Y898411D01*
X404595Y898452D01*
X404602Y898474D01*
X404601Y898506D01*
X404609Y898577D01*
X404609Y901675D01*
X407585Y904651D01*
X409159Y904651D01*
X409229Y904662D01*
X409301Y904664D01*
X409350Y904682D01*
X409401Y904690D01*
X409465Y904724D01*
X409532Y904749D01*
X409573Y904781D01*
X409619Y904806D01*
X409668Y904858D01*
X409724Y904902D01*
X409752Y904946D01*
X409788Y904984D01*
X409818Y905049D01*
X409857Y905109D01*
X409870Y905160D01*
X409892Y905207D01*
X409900Y905278D01*
X409917Y905348D01*
X409913Y905400D01*
X409919Y905451D01*
X409904Y905522D01*
X409898Y905593D01*
X409878Y905641D01*
X409867Y905692D01*
X409830Y905753D01*
X409802Y905819D01*
X409757Y905875D01*
X409741Y905903D01*
X409723Y905918D01*
X409697Y905950D01*
X405760Y909887D01*
X403974Y911673D01*
X403974Y994058D01*
X403971Y994078D01*
X403973Y994097D01*
X403951Y994199D01*
X403935Y994301D01*
X403925Y994318D01*
X403921Y994338D01*
X403868Y994427D01*
X403819Y994518D01*
X403805Y994532D01*
X403795Y994549D01*
X403716Y994616D01*
X403641Y994688D01*
X403623Y994696D01*
X403608Y994709D01*
X403512Y994748D01*
X403418Y994791D01*
X403398Y994793D01*
X403380Y994801D01*
X403213Y994819D01*
X402505Y994819D01*
X399529Y997795D01*
X399529Y1002005D01*
X402505Y1004981D01*
X406715Y1004981D01*
X409691Y1002005D01*
X409691Y997795D01*
X409533Y997637D01*
X409480Y997564D01*
X409420Y997494D01*
X409408Y997464D01*
X409389Y997438D01*
X409362Y997351D01*
X409328Y997266D01*
X409324Y997225D01*
X409317Y997203D01*
X409318Y997170D01*
X409310Y997099D01*
X409310Y927263D01*
X409321Y927192D01*
X409323Y927120D01*
X409341Y927071D01*
X409349Y927020D01*
X409383Y926957D01*
X409408Y926889D01*
X409440Y926849D01*
X409465Y926803D01*
X409517Y926753D01*
X409561Y926697D01*
X409605Y926669D01*
X409643Y926633D01*
X409708Y926603D01*
X409768Y926564D01*
X409819Y926552D01*
X409866Y926530D01*
X409937Y926522D01*
X410007Y926504D01*
X410059Y926508D01*
X410110Y926503D01*
X410181Y926518D01*
X410252Y926523D01*
X410300Y926544D01*
X410351Y926555D01*
X410412Y926592D01*
X410478Y926620D01*
X410534Y926664D01*
X410562Y926681D01*
X410577Y926699D01*
X410609Y926724D01*
X412665Y928781D01*
X416875Y928781D01*
X419851Y925805D01*
X419851Y921596D01*
X419704Y921449D01*
X419692Y921432D01*
X419677Y921420D01*
X419620Y921333D01*
X419560Y921249D01*
X419554Y921230D01*
X419544Y921213D01*
X419518Y921113D01*
X419488Y921014D01*
X419488Y920994D01*
X419484Y920974D01*
X419492Y920871D01*
X419494Y920768D01*
X419501Y920749D01*
X419503Y920729D01*
X419543Y920634D01*
X419579Y920537D01*
X419591Y920521D01*
X419599Y920503D01*
X419704Y920372D01*
X431916Y908160D01*
X431916Y784131D01*
X430130Y782346D01*
X427313Y779528D01*
X427260Y779454D01*
X427200Y779385D01*
X427188Y779355D01*
X427169Y779329D01*
X427142Y779242D01*
X427108Y779157D01*
X427104Y779116D01*
X427097Y779094D01*
X427098Y779061D01*
X427090Y778990D01*
X427090Y421983D01*
X427104Y421893D01*
X427112Y421802D01*
X427124Y421772D01*
X427129Y421740D01*
X427172Y421659D01*
X427208Y421575D01*
X427234Y421543D01*
X427245Y421522D01*
X427268Y421500D01*
X427313Y421444D01*
X456074Y392683D01*
X456148Y392630D01*
X456218Y392570D01*
X456248Y392558D01*
X456274Y392539D01*
X456361Y392512D01*
X456446Y392478D01*
X456487Y392474D01*
X456509Y392467D01*
X456541Y392468D01*
X456613Y392460D01*
X478285Y392460D01*
X480070Y390674D01*
X480071Y390674D01*
X506084Y364661D01*
X506084Y322644D01*
X506098Y322554D01*
X506106Y322463D01*
X506118Y322433D01*
X506123Y322401D01*
X506166Y322321D01*
X506202Y322237D01*
X506228Y322205D01*
X506239Y322184D01*
X506262Y322162D01*
X506307Y322106D01*
X517614Y310798D01*
X517614Y302162D01*
X517617Y302142D01*
X517615Y302123D01*
X517637Y302021D01*
X517654Y301919D01*
X517663Y301902D01*
X517668Y301882D01*
X517721Y301793D01*
X517769Y301702D01*
X517783Y301688D01*
X517794Y301671D01*
X517872Y301604D01*
X517947Y301532D01*
X517965Y301524D01*
X517981Y301511D01*
X518077Y301472D01*
X518170Y301429D01*
X518190Y301427D01*
X518209Y301419D01*
X518375Y301401D01*
X519745Y301401D01*
X522721Y298425D01*
X522721Y294215D01*
X519745Y291239D01*
X515535Y291239D01*
X513467Y293308D01*
X513451Y293319D01*
X513438Y293335D01*
X513351Y293391D01*
X513267Y293451D01*
X513248Y293457D01*
X513231Y293468D01*
X513131Y293493D01*
X513032Y293524D01*
X513012Y293523D01*
X512993Y293528D01*
X512890Y293520D01*
X512786Y293517D01*
X512768Y293510D01*
X512748Y293509D01*
X512653Y293468D01*
X512555Y293433D01*
X512540Y293420D01*
X512521Y293413D01*
X512390Y293308D01*
X511082Y291999D01*
X506873Y291999D01*
X503897Y294975D01*
X503897Y299436D01*
X503894Y299455D01*
X503896Y299475D01*
X503874Y299576D01*
X503857Y299678D01*
X503848Y299696D01*
X503843Y299715D01*
X503790Y299804D01*
X503742Y299896D01*
X503728Y299909D01*
X503717Y299926D01*
X503639Y299994D01*
X503564Y300065D01*
X503546Y300073D01*
X503530Y300086D01*
X503434Y300125D01*
X503341Y300169D01*
X503321Y300171D01*
X503302Y300178D01*
X503227Y300187D01*
X500240Y303173D01*
X500240Y306270D01*
X500226Y306360D01*
X500218Y306451D01*
X500206Y306481D01*
X500201Y306513D01*
X500158Y306594D01*
X500122Y306677D01*
X500096Y306710D01*
X500085Y306730D01*
X500062Y306752D01*
X500017Y306808D01*
X499635Y307191D01*
X499619Y307203D01*
X499606Y307218D01*
X499519Y307274D01*
X499435Y307335D01*
X499416Y307340D01*
X499399Y307351D01*
X499299Y307377D01*
X499200Y307407D01*
X499180Y307406D01*
X499161Y307411D01*
X499058Y307403D01*
X498954Y307401D01*
X498935Y307394D01*
X498915Y307392D01*
X498821Y307352D01*
X498723Y307316D01*
X498707Y307304D01*
X498689Y307296D01*
X498558Y307191D01*
X497266Y305898D01*
X493024Y305898D01*
X493002Y305909D01*
X492960Y305939D01*
X492891Y305960D01*
X492826Y305991D01*
X492774Y305996D01*
X492725Y306012D01*
X492653Y306010D01*
X492582Y306018D01*
X492531Y306007D01*
X492479Y306005D01*
X492411Y305981D01*
X492341Y305965D01*
X492296Y305939D01*
X492248Y305921D01*
X492192Y305876D01*
X492130Y305839D01*
X492096Y305800D01*
X492056Y305767D01*
X492017Y305707D01*
X491970Y305652D01*
X491951Y305604D01*
X491923Y305560D01*
X491905Y305491D01*
X491878Y305424D01*
X491870Y305353D01*
X491862Y305322D01*
X491864Y305298D01*
X491860Y305257D01*
X491860Y167097D01*
X485446Y160683D01*
X483042Y160683D01*
X483022Y160680D01*
X483003Y160682D01*
X482901Y160660D01*
X482799Y160644D01*
X482782Y160634D01*
X482762Y160630D01*
X482673Y160577D01*
X482582Y160528D01*
X482568Y160514D01*
X482551Y160504D01*
X482484Y160425D01*
X482412Y160350D01*
X482404Y160332D01*
X482391Y160317D01*
X482352Y160221D01*
X482309Y160127D01*
X482307Y160107D01*
X482299Y160089D01*
X482281Y159922D01*
X482281Y159185D01*
X480761Y157666D01*
X480720Y157608D01*
X480670Y157556D01*
X480648Y157509D01*
X480618Y157467D01*
X480597Y157398D01*
X480567Y157333D01*
X480561Y157281D01*
X480546Y157231D01*
X480547Y157160D01*
X480540Y157089D01*
X480551Y157038D01*
X480552Y156986D01*
X480577Y156918D01*
X480592Y156848D01*
X480619Y156803D01*
X480636Y156755D01*
X480681Y156699D01*
X480718Y156637D01*
X480758Y156603D01*
X480790Y156563D01*
X480850Y156524D01*
X480905Y156477D01*
X480953Y156458D01*
X480997Y156430D01*
X481066Y156412D01*
X481133Y156385D01*
X481204Y156377D01*
X481236Y156369D01*
X481259Y156371D01*
X481300Y156367D01*
X487831Y156367D01*
X487921Y156381D01*
X488012Y156389D01*
X488042Y156401D01*
X488074Y156406D01*
X488155Y156449D01*
X488239Y156485D01*
X488271Y156511D01*
X488291Y156522D01*
X488313Y156545D01*
X488369Y156590D01*
X490022Y158243D01*
X511236Y158243D01*
X511256Y158246D01*
X511275Y158244D01*
X511377Y158266D01*
X511479Y158282D01*
X511496Y158292D01*
X511516Y158296D01*
X511605Y158349D01*
X511696Y158398D01*
X511710Y158412D01*
X511727Y158422D01*
X511794Y158501D01*
X511866Y158576D01*
X511874Y158594D01*
X511887Y158609D01*
X511926Y158705D01*
X511969Y158799D01*
X511971Y158819D01*
X511979Y158837D01*
X511997Y159004D01*
X511997Y181574D01*
X554404Y223981D01*
X554457Y224055D01*
X554517Y224125D01*
X554529Y224155D01*
X554548Y224181D01*
X554575Y224268D01*
X554609Y224353D01*
X554613Y224394D01*
X554620Y224416D01*
X554619Y224448D01*
X554627Y224519D01*
X554627Y434511D01*
X554613Y434601D01*
X554605Y434692D01*
X554593Y434721D01*
X554588Y434753D01*
X554545Y434834D01*
X554509Y434918D01*
X554483Y434950D01*
X554472Y434971D01*
X554449Y434993D01*
X554404Y435049D01*
X545837Y443616D01*
X545763Y443669D01*
X545693Y443729D01*
X545663Y443741D01*
X545637Y443760D01*
X545550Y443787D01*
X545465Y443821D01*
X545424Y443825D01*
X545402Y443832D01*
X545370Y443831D01*
X545299Y443839D01*
X544895Y443839D01*
X541919Y446815D01*
X541919Y451025D01*
X544895Y454001D01*
X549105Y454001D01*
X552081Y451025D01*
X552081Y450621D01*
X552095Y450531D01*
X552103Y450440D01*
X552115Y450411D01*
X552120Y450379D01*
X552163Y450298D01*
X552199Y450214D01*
X552225Y450182D01*
X552236Y450161D01*
X552259Y450139D01*
X552304Y450083D01*
X563773Y438614D01*
X563773Y220416D01*
X521366Y178009D01*
X521313Y177935D01*
X521253Y177865D01*
X521241Y177835D01*
X521222Y177809D01*
X521195Y177722D01*
X521161Y177637D01*
X521157Y177596D01*
X521150Y177574D01*
X521151Y177542D01*
X521143Y177471D01*
X521143Y126376D01*
X502194Y107427D01*
X488928Y107427D01*
X488838Y107413D01*
X488747Y107405D01*
X488717Y107393D01*
X488685Y107388D01*
X488604Y107345D01*
X488521Y107309D01*
X488488Y107283D01*
X488468Y107272D01*
X488446Y107249D01*
X488390Y107204D01*
X488105Y106919D01*
X487701Y106919D01*
X487611Y106905D01*
X487520Y106897D01*
X487491Y106885D01*
X487459Y106880D01*
X487378Y106837D01*
X487294Y106801D01*
X487262Y106775D01*
X487241Y106764D01*
X487219Y106741D01*
X487163Y106696D01*
X478796Y98329D01*
X475894Y95427D01*
X412928Y95427D01*
X412838Y95413D01*
X412747Y95405D01*
X412717Y95393D01*
X412685Y95388D01*
X412604Y95345D01*
X412521Y95309D01*
X412488Y95283D01*
X412468Y95272D01*
X412446Y95249D01*
X412390Y95204D01*
X412105Y94919D01*
X407895Y94919D01*
G37*
%LPD*%
%LPC*%
G36*
X439535Y532129D02*
X439535Y532129D01*
X436559Y535105D01*
X436559Y539315D01*
X439199Y541955D01*
X439252Y542028D01*
X439312Y542098D01*
X439324Y542128D01*
X439343Y542154D01*
X439370Y542241D01*
X439404Y542326D01*
X439408Y542367D01*
X439415Y542389D01*
X439414Y542422D01*
X439422Y542493D01*
X439422Y656788D01*
X448078Y665444D01*
X448131Y665517D01*
X448191Y665587D01*
X448203Y665617D01*
X448222Y665643D01*
X448249Y665730D01*
X448283Y665815D01*
X448287Y665856D01*
X448294Y665878D01*
X448293Y665911D01*
X448301Y665982D01*
X448301Y744278D01*
X448290Y744349D01*
X448288Y744421D01*
X448270Y744470D01*
X448262Y744521D01*
X448228Y744584D01*
X448203Y744652D01*
X448171Y744692D01*
X448146Y744738D01*
X448095Y744788D01*
X448050Y744844D01*
X448006Y744872D01*
X447968Y744908D01*
X447903Y744938D01*
X447843Y744977D01*
X447792Y744989D01*
X447745Y745011D01*
X447674Y745019D01*
X447604Y745037D01*
X447552Y745033D01*
X447501Y745038D01*
X447430Y745023D01*
X447359Y745018D01*
X447311Y744997D01*
X447260Y744986D01*
X447199Y744949D01*
X447133Y744921D01*
X447130Y744919D01*
X442895Y744919D01*
X439919Y747895D01*
X439919Y752105D01*
X442109Y754295D01*
X442162Y754368D01*
X442222Y754438D01*
X442234Y754468D01*
X442253Y754494D01*
X442280Y754581D01*
X442314Y754666D01*
X442318Y754707D01*
X442325Y754729D01*
X442324Y754762D01*
X442332Y754833D01*
X442332Y894126D01*
X456075Y907869D01*
X456128Y907943D01*
X456188Y908012D01*
X456200Y908043D01*
X456219Y908069D01*
X456246Y908156D01*
X456280Y908241D01*
X456284Y908282D01*
X456291Y908304D01*
X456290Y908336D01*
X456298Y908407D01*
X456298Y920815D01*
X456284Y920905D01*
X456276Y920996D01*
X456264Y921026D01*
X456259Y921058D01*
X456216Y921139D01*
X456180Y921222D01*
X456154Y921255D01*
X456143Y921275D01*
X456120Y921297D01*
X456075Y921353D01*
X446118Y931311D01*
X444332Y933096D01*
X444332Y945167D01*
X444318Y945257D01*
X444310Y945348D01*
X444298Y945378D01*
X444293Y945410D01*
X444250Y945491D01*
X444214Y945574D01*
X444188Y945607D01*
X444177Y945627D01*
X444154Y945649D01*
X444109Y945705D01*
X441919Y947895D01*
X441919Y952105D01*
X444895Y955081D01*
X448689Y955081D01*
X448759Y955092D01*
X448831Y955094D01*
X448880Y955112D01*
X448931Y955120D01*
X448995Y955154D01*
X449062Y955179D01*
X449103Y955211D01*
X449149Y955236D01*
X449198Y955288D01*
X449254Y955332D01*
X449282Y955376D01*
X449318Y955414D01*
X449348Y955479D01*
X449387Y955539D01*
X449400Y955590D01*
X449422Y955637D01*
X449430Y955708D01*
X449447Y955778D01*
X449443Y955830D01*
X449449Y955881D01*
X449434Y955952D01*
X449428Y956023D01*
X449408Y956071D01*
X449397Y956122D01*
X449360Y956183D01*
X449332Y956249D01*
X449287Y956305D01*
X449271Y956333D01*
X449253Y956348D01*
X449227Y956380D01*
X448251Y957356D01*
X448177Y957409D01*
X448108Y957469D01*
X448077Y957481D01*
X448051Y957500D01*
X447964Y957527D01*
X447879Y957561D01*
X447838Y957565D01*
X447816Y957572D01*
X447784Y957571D01*
X447713Y957579D01*
X444615Y957579D01*
X441639Y960555D01*
X441639Y964765D01*
X444615Y967741D01*
X448825Y967741D01*
X451801Y964765D01*
X451801Y961667D01*
X451815Y961577D01*
X451823Y961486D01*
X451835Y961457D01*
X451840Y961425D01*
X451883Y961344D01*
X451919Y961260D01*
X451945Y961228D01*
X451956Y961207D01*
X451979Y961185D01*
X452024Y961129D01*
X465190Y947963D01*
X465190Y904409D01*
X452430Y891649D01*
X452377Y891575D01*
X452317Y891506D01*
X452305Y891475D01*
X452286Y891449D01*
X452259Y891362D01*
X452225Y891277D01*
X452221Y891236D01*
X452214Y891214D01*
X452215Y891182D01*
X452207Y891111D01*
X452207Y755323D01*
X452221Y755233D01*
X452229Y755142D01*
X452241Y755112D01*
X452246Y755080D01*
X452289Y754999D01*
X452325Y754916D01*
X452351Y754883D01*
X452362Y754863D01*
X452385Y754841D01*
X452430Y754785D01*
X453637Y753578D01*
X453637Y663456D01*
X444981Y654800D01*
X444928Y654727D01*
X444868Y654657D01*
X444856Y654627D01*
X444837Y654601D01*
X444810Y654514D01*
X444776Y654429D01*
X444772Y654388D01*
X444765Y654366D01*
X444766Y654333D01*
X444758Y654262D01*
X444758Y541593D01*
X444772Y541503D01*
X444780Y541412D01*
X444792Y541382D01*
X444797Y541350D01*
X444840Y541269D01*
X444876Y541186D01*
X444902Y541153D01*
X444913Y541133D01*
X444936Y541111D01*
X444981Y541055D01*
X446721Y539315D01*
X446721Y535105D01*
X443745Y532129D01*
X439535Y532129D01*
G37*
%LPD*%
%LPC*%
G36*
X468914Y443538D02*
X468914Y443538D01*
X466906Y444370D01*
X465370Y445906D01*
X464538Y447914D01*
X464538Y450086D01*
X465370Y452094D01*
X466474Y453198D01*
X466527Y453272D01*
X466587Y453342D01*
X466599Y453372D01*
X466618Y453398D01*
X466645Y453485D01*
X466665Y453537D01*
X466669Y453545D01*
X466669Y453546D01*
X466679Y453570D01*
X466683Y453611D01*
X466690Y453633D01*
X466689Y453665D01*
X466697Y453737D01*
X466697Y473001D01*
X466686Y473072D01*
X466684Y473144D01*
X466666Y473193D01*
X466658Y473244D01*
X466624Y473307D01*
X466599Y473375D01*
X466567Y473415D01*
X466542Y473461D01*
X466490Y473511D01*
X466446Y473567D01*
X466402Y473595D01*
X466364Y473631D01*
X466299Y473661D01*
X466239Y473700D01*
X466188Y473712D01*
X466141Y473734D01*
X466070Y473742D01*
X466000Y473760D01*
X465948Y473756D01*
X465897Y473761D01*
X465826Y473746D01*
X465755Y473741D01*
X465707Y473720D01*
X465656Y473709D01*
X465595Y473672D01*
X465529Y473644D01*
X465473Y473600D01*
X465445Y473583D01*
X465430Y473565D01*
X465398Y473540D01*
X462778Y470919D01*
X458568Y470919D01*
X455592Y473895D01*
X455592Y478105D01*
X458568Y481081D01*
X462778Y481081D01*
X465398Y478460D01*
X465456Y478419D01*
X465508Y478369D01*
X465555Y478347D01*
X465597Y478317D01*
X465666Y478296D01*
X465731Y478266D01*
X465783Y478260D01*
X465833Y478245D01*
X465904Y478246D01*
X465975Y478239D01*
X466026Y478250D01*
X466078Y478251D01*
X466146Y478276D01*
X466216Y478291D01*
X466261Y478318D01*
X466309Y478335D01*
X466365Y478380D01*
X466427Y478417D01*
X466461Y478457D01*
X466501Y478489D01*
X466540Y478549D01*
X466587Y478604D01*
X466606Y478652D01*
X466634Y478696D01*
X466652Y478765D01*
X466679Y478832D01*
X466687Y478903D01*
X466695Y478935D01*
X466693Y478958D01*
X466697Y478999D01*
X466697Y841226D01*
X466694Y841246D01*
X466696Y841265D01*
X466681Y841335D01*
X466675Y841407D01*
X466663Y841437D01*
X466658Y841469D01*
X466648Y841487D01*
X466644Y841506D01*
X466607Y841567D01*
X466579Y841633D01*
X466553Y841666D01*
X466542Y841686D01*
X466528Y841700D01*
X466518Y841717D01*
X466500Y841732D01*
X466474Y841764D01*
X464523Y843715D01*
X464523Y847925D01*
X467499Y850901D01*
X471709Y850901D01*
X474685Y847925D01*
X474685Y843715D01*
X473526Y842556D01*
X473473Y842483D01*
X473413Y842413D01*
X473401Y842383D01*
X473382Y842357D01*
X473355Y842270D01*
X473321Y842185D01*
X473317Y842144D01*
X473310Y842122D01*
X473311Y842089D01*
X473303Y842018D01*
X473303Y453737D01*
X473305Y453722D01*
X473304Y453710D01*
X473317Y453649D01*
X473317Y453647D01*
X473325Y453556D01*
X473337Y453526D01*
X473342Y453494D01*
X473385Y453413D01*
X473421Y453329D01*
X473447Y453297D01*
X473458Y453277D01*
X473481Y453254D01*
X473526Y453198D01*
X474630Y452094D01*
X475462Y450086D01*
X475462Y447914D01*
X474630Y445906D01*
X473094Y444370D01*
X471086Y443538D01*
X468914Y443538D01*
G37*
%LPD*%
%LPC*%
G36*
X385895Y395919D02*
X385895Y395919D01*
X382919Y398895D01*
X382919Y401993D01*
X382917Y402009D01*
X382918Y402024D01*
X382904Y402090D01*
X382897Y402174D01*
X382885Y402203D01*
X382880Y402235D01*
X382867Y402259D01*
X382866Y402265D01*
X382850Y402292D01*
X382837Y402316D01*
X382801Y402400D01*
X382775Y402432D01*
X382764Y402453D01*
X382741Y402475D01*
X382696Y402531D01*
X375172Y410055D01*
X375172Y431315D01*
X387140Y443283D01*
X387193Y443357D01*
X387253Y443426D01*
X387265Y443457D01*
X387284Y443483D01*
X387311Y443570D01*
X387345Y443655D01*
X387349Y443696D01*
X387356Y443718D01*
X387355Y443750D01*
X387363Y443821D01*
X387363Y782578D01*
X389149Y784363D01*
X392109Y787324D01*
X392162Y787398D01*
X392222Y787467D01*
X392234Y787497D01*
X392253Y787523D01*
X392280Y787610D01*
X392314Y787695D01*
X392318Y787736D01*
X392325Y787758D01*
X392324Y787791D01*
X392332Y787862D01*
X392332Y814167D01*
X392318Y814257D01*
X392310Y814348D01*
X392298Y814378D01*
X392293Y814410D01*
X392250Y814491D01*
X392214Y814574D01*
X392188Y814607D01*
X392177Y814627D01*
X392154Y814649D01*
X392109Y814705D01*
X389919Y816895D01*
X389919Y821105D01*
X392895Y824081D01*
X397105Y824081D01*
X400081Y821105D01*
X400081Y816895D01*
X397891Y814705D01*
X397838Y814632D01*
X397778Y814562D01*
X397766Y814532D01*
X397747Y814506D01*
X397720Y814419D01*
X397686Y814334D01*
X397682Y814293D01*
X397675Y814271D01*
X397676Y814238D01*
X397668Y814167D01*
X397668Y785320D01*
X397620Y785270D01*
X397598Y785223D01*
X397568Y785181D01*
X397547Y785112D01*
X397517Y785047D01*
X397511Y784995D01*
X397496Y784946D01*
X397497Y784874D01*
X397490Y784803D01*
X397501Y784752D01*
X397502Y784700D01*
X397527Y784632D01*
X397542Y784562D01*
X397568Y784517D01*
X397586Y784469D01*
X397631Y784413D01*
X397668Y784351D01*
X397707Y784317D01*
X397740Y784277D01*
X397800Y784238D01*
X397855Y784191D01*
X397903Y784172D01*
X397947Y784144D01*
X398016Y784126D01*
X398083Y784099D01*
X398086Y784099D01*
X401081Y781105D01*
X401081Y776895D01*
X398105Y773919D01*
X393863Y773919D01*
X393841Y773930D01*
X393799Y773960D01*
X393730Y773981D01*
X393665Y774011D01*
X393613Y774017D01*
X393564Y774032D01*
X393492Y774031D01*
X393421Y774038D01*
X393370Y774027D01*
X393318Y774026D01*
X393250Y774001D01*
X393180Y773986D01*
X393135Y773959D01*
X393087Y773942D01*
X393031Y773897D01*
X392969Y773860D01*
X392935Y773820D01*
X392895Y773788D01*
X392856Y773728D01*
X392809Y773673D01*
X392790Y773625D01*
X392762Y773581D01*
X392744Y773512D01*
X392717Y773445D01*
X392709Y773374D01*
X392701Y773343D01*
X392703Y773319D01*
X392699Y773278D01*
X392699Y441296D01*
X380731Y429328D01*
X380678Y429254D01*
X380618Y429185D01*
X380606Y429154D01*
X380587Y429128D01*
X380560Y429041D01*
X380526Y428956D01*
X380522Y428915D01*
X380515Y428893D01*
X380516Y428861D01*
X380508Y428790D01*
X380508Y412580D01*
X380522Y412490D01*
X380530Y412399D01*
X380542Y412370D01*
X380547Y412338D01*
X380590Y412257D01*
X380626Y412173D01*
X380652Y412141D01*
X380663Y412120D01*
X380686Y412098D01*
X380731Y412042D01*
X386469Y406304D01*
X386543Y406251D01*
X386612Y406191D01*
X386643Y406179D01*
X386669Y406160D01*
X386756Y406133D01*
X386841Y406099D01*
X386882Y406095D01*
X386904Y406088D01*
X386936Y406089D01*
X387007Y406081D01*
X390105Y406081D01*
X393081Y403105D01*
X393081Y398895D01*
X390105Y395919D01*
X385895Y395919D01*
G37*
%LPD*%
%LPC*%
G36*
X507895Y611919D02*
X507895Y611919D01*
X504919Y614895D01*
X504919Y619105D01*
X507109Y621295D01*
X507162Y621368D01*
X507222Y621438D01*
X507234Y621468D01*
X507253Y621494D01*
X507280Y621581D01*
X507314Y621666D01*
X507318Y621707D01*
X507325Y621729D01*
X507324Y621762D01*
X507332Y621833D01*
X507332Y920158D01*
X507329Y920178D01*
X507331Y920197D01*
X507309Y920299D01*
X507293Y920401D01*
X507283Y920418D01*
X507279Y920438D01*
X507226Y920527D01*
X507177Y920618D01*
X507163Y920632D01*
X507153Y920649D01*
X507074Y920716D01*
X506999Y920788D01*
X506981Y920796D01*
X506966Y920809D01*
X506870Y920848D01*
X506776Y920891D01*
X506756Y920893D01*
X506738Y920901D01*
X506571Y920919D01*
X503895Y920919D01*
X500919Y923895D01*
X500919Y928105D01*
X503895Y931081D01*
X508105Y931081D01*
X511095Y928091D01*
X511168Y928038D01*
X511238Y927978D01*
X511268Y927966D01*
X511294Y927947D01*
X511381Y927920D01*
X511466Y927886D01*
X511507Y927882D01*
X511529Y927875D01*
X511562Y927876D01*
X511633Y927868D01*
X516967Y927868D01*
X517057Y927882D01*
X517148Y927890D01*
X517178Y927902D01*
X517210Y927907D01*
X517291Y927950D01*
X517374Y927986D01*
X517407Y928012D01*
X517427Y928023D01*
X517449Y928046D01*
X517505Y928091D01*
X519695Y930281D01*
X523905Y930281D01*
X526881Y927305D01*
X526881Y923095D01*
X523905Y920119D01*
X519695Y920119D01*
X517505Y922309D01*
X517432Y922362D01*
X517362Y922422D01*
X517332Y922434D01*
X517306Y922453D01*
X517219Y922480D01*
X517134Y922514D01*
X517093Y922518D01*
X517071Y922525D01*
X517038Y922524D01*
X516967Y922532D01*
X513429Y922532D01*
X513409Y922529D01*
X513390Y922531D01*
X513288Y922509D01*
X513186Y922493D01*
X513169Y922483D01*
X513149Y922479D01*
X513060Y922426D01*
X512969Y922377D01*
X512955Y922363D01*
X512938Y922353D01*
X512871Y922274D01*
X512799Y922199D01*
X512791Y922181D01*
X512778Y922166D01*
X512739Y922070D01*
X512696Y921976D01*
X512694Y921956D01*
X512686Y921938D01*
X512668Y921771D01*
X512668Y863691D01*
X512679Y863620D01*
X512681Y863548D01*
X512699Y863499D01*
X512707Y863448D01*
X512741Y863385D01*
X512766Y863317D01*
X512798Y863277D01*
X512823Y863231D01*
X512875Y863181D01*
X512919Y863125D01*
X512963Y863097D01*
X513001Y863061D01*
X513066Y863031D01*
X513126Y862992D01*
X513177Y862980D01*
X513224Y862958D01*
X513295Y862950D01*
X513365Y862932D01*
X513417Y862936D01*
X513468Y862931D01*
X513539Y862946D01*
X513610Y862951D01*
X513658Y862972D01*
X513709Y862983D01*
X513770Y863020D01*
X513836Y863048D01*
X513892Y863092D01*
X513920Y863109D01*
X513935Y863127D01*
X513967Y863152D01*
X516109Y865295D01*
X516162Y865369D01*
X516222Y865438D01*
X516234Y865468D01*
X516253Y865494D01*
X516280Y865581D01*
X516314Y865666D01*
X516318Y865707D01*
X516325Y865729D01*
X516324Y865762D01*
X516332Y865833D01*
X516332Y896167D01*
X516318Y896257D01*
X516310Y896348D01*
X516298Y896378D01*
X516293Y896410D01*
X516250Y896491D01*
X516214Y896574D01*
X516188Y896607D01*
X516177Y896627D01*
X516154Y896649D01*
X516109Y896705D01*
X514919Y897895D01*
X514919Y902105D01*
X517895Y905081D01*
X522105Y905081D01*
X525081Y902105D01*
X525081Y897895D01*
X521891Y894705D01*
X521838Y894632D01*
X521778Y894562D01*
X521766Y894532D01*
X521747Y894506D01*
X521720Y894419D01*
X521686Y894334D01*
X521682Y894293D01*
X521675Y894271D01*
X521676Y894238D01*
X521668Y894167D01*
X521668Y865833D01*
X521682Y865743D01*
X521690Y865652D01*
X521702Y865622D01*
X521707Y865590D01*
X521750Y865509D01*
X521786Y865426D01*
X521812Y865393D01*
X521823Y865373D01*
X521846Y865351D01*
X521891Y865295D01*
X524081Y863105D01*
X524081Y858895D01*
X521105Y855919D01*
X516895Y855919D01*
X513967Y858848D01*
X513909Y858889D01*
X513857Y858939D01*
X513810Y858961D01*
X513768Y858991D01*
X513699Y859012D01*
X513634Y859042D01*
X513582Y859048D01*
X513532Y859063D01*
X513461Y859062D01*
X513390Y859069D01*
X513339Y859058D01*
X513287Y859057D01*
X513219Y859032D01*
X513149Y859017D01*
X513104Y858990D01*
X513056Y858973D01*
X513000Y858928D01*
X512938Y858891D01*
X512904Y858851D01*
X512864Y858819D01*
X512825Y858759D01*
X512778Y858704D01*
X512759Y858656D01*
X512731Y858612D01*
X512713Y858543D01*
X512686Y858476D01*
X512678Y858405D01*
X512670Y858373D01*
X512672Y858350D01*
X512668Y858309D01*
X512668Y621833D01*
X512682Y621743D01*
X512690Y621652D01*
X512702Y621622D01*
X512707Y621590D01*
X512750Y621509D01*
X512786Y621426D01*
X512812Y621393D01*
X512823Y621373D01*
X512846Y621351D01*
X512891Y621295D01*
X515081Y619105D01*
X515081Y614895D01*
X512105Y611919D01*
X507895Y611919D01*
G37*
%LPD*%
%LPC*%
G36*
X247895Y514919D02*
X247895Y514919D01*
X244919Y517895D01*
X244919Y522105D01*
X247109Y524295D01*
X247162Y524369D01*
X247222Y524438D01*
X247234Y524468D01*
X247253Y524494D01*
X247280Y524581D01*
X247314Y524666D01*
X247318Y524707D01*
X247325Y524729D01*
X247324Y524762D01*
X247332Y524833D01*
X247332Y842949D01*
X247321Y843020D01*
X247319Y843092D01*
X247301Y843141D01*
X247293Y843192D01*
X247259Y843255D01*
X247234Y843323D01*
X247202Y843364D01*
X247177Y843409D01*
X247125Y843459D01*
X247080Y843515D01*
X247037Y843543D01*
X246999Y843579D01*
X246934Y843609D01*
X246873Y843648D01*
X246823Y843661D01*
X246776Y843682D01*
X246705Y843690D01*
X246635Y843708D01*
X246583Y843704D01*
X246532Y843709D01*
X246461Y843694D01*
X246399Y843689D01*
X242025Y843689D01*
X239049Y846665D01*
X239049Y850875D01*
X242025Y853851D01*
X246421Y853851D01*
X246467Y853837D01*
X246539Y853838D01*
X246610Y853831D01*
X246661Y853842D01*
X246713Y853843D01*
X246780Y853867D01*
X246851Y853883D01*
X246895Y853909D01*
X246944Y853927D01*
X247000Y853972D01*
X247062Y854009D01*
X247096Y854048D01*
X247136Y854081D01*
X247175Y854141D01*
X247222Y854196D01*
X247241Y854244D01*
X247269Y854288D01*
X247287Y854357D01*
X247314Y854424D01*
X247322Y854495D01*
X247330Y854526D01*
X247328Y854550D01*
X247332Y854591D01*
X247332Y881167D01*
X247318Y881257D01*
X247310Y881348D01*
X247298Y881378D01*
X247293Y881410D01*
X247250Y881491D01*
X247214Y881575D01*
X247188Y881607D01*
X247177Y881627D01*
X247154Y881649D01*
X247109Y881705D01*
X244919Y883895D01*
X244919Y888105D01*
X247895Y891081D01*
X252105Y891081D01*
X255081Y888105D01*
X255081Y883895D01*
X252891Y881705D01*
X252838Y881631D01*
X252778Y881562D01*
X252766Y881532D01*
X252747Y881506D01*
X252720Y881419D01*
X252686Y881334D01*
X252682Y881293D01*
X252675Y881271D01*
X252676Y881238D01*
X252668Y881167D01*
X252668Y855762D01*
X252682Y855672D01*
X252690Y855581D01*
X252702Y855551D01*
X252707Y855519D01*
X252750Y855438D01*
X252786Y855355D01*
X252812Y855322D01*
X252823Y855302D01*
X252846Y855280D01*
X252891Y855224D01*
X255767Y852348D01*
X255767Y845192D01*
X252891Y842316D01*
X252838Y842243D01*
X252778Y842173D01*
X252766Y842143D01*
X252747Y842117D01*
X252720Y842030D01*
X252686Y841945D01*
X252682Y841904D01*
X252675Y841882D01*
X252676Y841849D01*
X252668Y841778D01*
X252668Y524833D01*
X252682Y524743D01*
X252690Y524652D01*
X252702Y524622D01*
X252707Y524590D01*
X252750Y524509D01*
X252786Y524425D01*
X252812Y524393D01*
X252823Y524373D01*
X252846Y524351D01*
X252891Y524295D01*
X255081Y522105D01*
X255081Y517895D01*
X252105Y514919D01*
X247895Y514919D01*
G37*
%LPD*%
%LPC*%
G36*
X233895Y470919D02*
X233895Y470919D01*
X230919Y473895D01*
X230919Y474299D01*
X230913Y474338D01*
X230913Y474343D01*
X230908Y474368D01*
X230905Y474389D01*
X230897Y474480D01*
X230885Y474509D01*
X230880Y474541D01*
X230864Y474571D01*
X230861Y474583D01*
X230834Y474629D01*
X230801Y474706D01*
X230775Y474738D01*
X230764Y474759D01*
X230745Y474777D01*
X230735Y474794D01*
X230720Y474807D01*
X230696Y474837D01*
X230157Y475376D01*
X230157Y508134D01*
X230146Y508205D01*
X230144Y508277D01*
X230126Y508326D01*
X230118Y508377D01*
X230084Y508440D01*
X230059Y508508D01*
X230027Y508548D01*
X230002Y508594D01*
X229950Y508644D01*
X229906Y508700D01*
X229862Y508728D01*
X229824Y508764D01*
X229759Y508794D01*
X229699Y508833D01*
X229648Y508845D01*
X229601Y508867D01*
X229530Y508875D01*
X229460Y508893D01*
X229408Y508889D01*
X229357Y508894D01*
X229286Y508879D01*
X229215Y508874D01*
X229167Y508853D01*
X229116Y508842D01*
X229055Y508805D01*
X228989Y508777D01*
X228933Y508733D01*
X228905Y508716D01*
X228890Y508698D01*
X228858Y508673D01*
X227105Y506919D01*
X222895Y506919D01*
X219919Y509895D01*
X219919Y514105D01*
X222895Y517081D01*
X227105Y517081D01*
X228858Y515327D01*
X228916Y515286D01*
X228968Y515236D01*
X229015Y515214D01*
X229057Y515184D01*
X229126Y515163D01*
X229191Y515133D01*
X229243Y515127D01*
X229293Y515112D01*
X229364Y515113D01*
X229435Y515106D01*
X229486Y515117D01*
X229538Y515118D01*
X229606Y515143D01*
X229676Y515158D01*
X229721Y515185D01*
X229769Y515202D01*
X229825Y515247D01*
X229887Y515284D01*
X229921Y515324D01*
X229961Y515356D01*
X230000Y515416D01*
X230047Y515471D01*
X230066Y515519D01*
X230094Y515563D01*
X230112Y515632D01*
X230139Y515699D01*
X230147Y515770D01*
X230155Y515802D01*
X230153Y515825D01*
X230157Y515866D01*
X230157Y619422D01*
X230143Y619512D01*
X230135Y619603D01*
X230123Y619633D01*
X230118Y619665D01*
X230075Y619746D01*
X230039Y619829D01*
X230013Y619862D01*
X230002Y619882D01*
X229979Y619904D01*
X229934Y619960D01*
X229649Y620245D01*
X229649Y624455D01*
X232625Y627431D01*
X236835Y627431D01*
X239811Y624455D01*
X239811Y620245D01*
X239526Y619960D01*
X239473Y619887D01*
X239413Y619817D01*
X239401Y619787D01*
X239382Y619761D01*
X239355Y619674D01*
X239321Y619589D01*
X239317Y619548D01*
X239310Y619526D01*
X239311Y619493D01*
X239303Y619422D01*
X239303Y480198D01*
X239317Y480108D01*
X239325Y480017D01*
X239337Y479987D01*
X239342Y479955D01*
X239385Y479874D01*
X239421Y479791D01*
X239447Y479758D01*
X239458Y479738D01*
X239481Y479716D01*
X239526Y479660D01*
X241081Y478105D01*
X241081Y473895D01*
X238105Y470919D01*
X233895Y470919D01*
G37*
%LPD*%
%LPC*%
G36*
X631451Y262156D02*
X631451Y262156D01*
X624916Y264863D01*
X619914Y269865D01*
X617207Y276400D01*
X617207Y283474D01*
X619914Y290009D01*
X624916Y295011D01*
X631451Y297718D01*
X638525Y297718D01*
X645060Y295011D01*
X650062Y290009D01*
X652769Y283474D01*
X652769Y276400D01*
X650062Y269865D01*
X645060Y264863D01*
X638525Y262156D01*
X631451Y262156D01*
G37*
%LPD*%
%LPC*%
G36*
X61475Y262156D02*
X61475Y262156D01*
X54940Y264863D01*
X49938Y269865D01*
X47231Y276400D01*
X47231Y283474D01*
X49938Y290009D01*
X54940Y295011D01*
X61475Y297718D01*
X68549Y297718D01*
X75084Y295011D01*
X80086Y290009D01*
X82793Y283474D01*
X82793Y276400D01*
X80086Y269865D01*
X75084Y264863D01*
X68549Y262156D01*
X61475Y262156D01*
G37*
%LPD*%
%LPC*%
G36*
X631451Y762282D02*
X631451Y762282D01*
X624916Y764989D01*
X619914Y769991D01*
X617207Y776526D01*
X617207Y783600D01*
X619914Y790135D01*
X624916Y795137D01*
X631451Y797844D01*
X638525Y797844D01*
X645060Y795137D01*
X650062Y790135D01*
X652769Y783600D01*
X652769Y776526D01*
X650062Y769991D01*
X645060Y764989D01*
X638525Y762282D01*
X631451Y762282D01*
G37*
%LPD*%
%LPC*%
G36*
X61475Y762282D02*
X61475Y762282D01*
X54940Y764989D01*
X49938Y769991D01*
X47231Y776526D01*
X47231Y783600D01*
X49938Y790135D01*
X54940Y795137D01*
X61475Y797844D01*
X68549Y797844D01*
X75084Y795137D01*
X80086Y790135D01*
X82793Y783600D01*
X82793Y776526D01*
X80086Y769991D01*
X75084Y764989D01*
X68549Y762282D01*
X61475Y762282D01*
G37*
%LPD*%
%LPC*%
G36*
X177895Y904919D02*
X177895Y904919D01*
X174919Y907895D01*
X174919Y912105D01*
X177109Y914295D01*
X177162Y914368D01*
X177222Y914438D01*
X177234Y914468D01*
X177253Y914494D01*
X177280Y914581D01*
X177314Y914666D01*
X177318Y914707D01*
X177325Y914729D01*
X177324Y914762D01*
X177332Y914833D01*
X177332Y980105D01*
X186315Y989088D01*
X186368Y989162D01*
X186428Y989231D01*
X186440Y989262D01*
X186459Y989288D01*
X186486Y989375D01*
X186520Y989460D01*
X186524Y989501D01*
X186531Y989523D01*
X186530Y989555D01*
X186538Y989626D01*
X186538Y990086D01*
X187370Y992094D01*
X188906Y993630D01*
X190914Y994462D01*
X193086Y994462D01*
X195094Y993630D01*
X196630Y992094D01*
X197462Y990086D01*
X197462Y987914D01*
X196630Y985906D01*
X195094Y984370D01*
X193086Y983538D01*
X190914Y983538D01*
X189543Y984106D01*
X189430Y984133D01*
X189316Y984161D01*
X189310Y984161D01*
X189304Y984162D01*
X189187Y984151D01*
X189071Y984142D01*
X189065Y984140D01*
X189059Y984139D01*
X188951Y984091D01*
X188845Y984046D01*
X188839Y984041D01*
X188834Y984039D01*
X188820Y984026D01*
X188714Y983941D01*
X182891Y978118D01*
X182838Y978044D01*
X182778Y977975D01*
X182766Y977944D01*
X182747Y977918D01*
X182720Y977831D01*
X182686Y977746D01*
X182682Y977705D01*
X182675Y977683D01*
X182676Y977651D01*
X182668Y977580D01*
X182668Y914833D01*
X182682Y914743D01*
X182690Y914652D01*
X182702Y914622D01*
X182707Y914590D01*
X182750Y914510D01*
X182786Y914426D01*
X182812Y914393D01*
X182823Y914373D01*
X182846Y914351D01*
X182891Y914295D01*
X184462Y912724D01*
X184478Y912712D01*
X184490Y912696D01*
X184578Y912640D01*
X184661Y912580D01*
X184680Y912574D01*
X184697Y912563D01*
X184798Y912538D01*
X184897Y912508D01*
X184916Y912508D01*
X184936Y912503D01*
X185039Y912511D01*
X185142Y912514D01*
X185161Y912521D01*
X185181Y912522D01*
X185276Y912563D01*
X185373Y912598D01*
X185389Y912611D01*
X185407Y912619D01*
X185538Y912724D01*
X187109Y914295D01*
X187162Y914368D01*
X187222Y914438D01*
X187234Y914468D01*
X187253Y914494D01*
X187280Y914581D01*
X187314Y914666D01*
X187318Y914707D01*
X187325Y914729D01*
X187324Y914762D01*
X187332Y914833D01*
X187332Y931105D01*
X204696Y948469D01*
X204749Y948543D01*
X204809Y948612D01*
X204821Y948643D01*
X204840Y948669D01*
X204867Y948756D01*
X204901Y948841D01*
X204905Y948882D01*
X204912Y948904D01*
X204911Y948936D01*
X204919Y949007D01*
X204919Y952105D01*
X207895Y955081D01*
X212105Y955081D01*
X215081Y952105D01*
X215081Y947895D01*
X212105Y944919D01*
X209007Y944919D01*
X208917Y944905D01*
X208826Y944897D01*
X208797Y944885D01*
X208765Y944880D01*
X208684Y944837D01*
X208600Y944801D01*
X208568Y944775D01*
X208547Y944764D01*
X208525Y944741D01*
X208469Y944696D01*
X192891Y929118D01*
X192838Y929044D01*
X192778Y928975D01*
X192766Y928944D01*
X192747Y928918D01*
X192720Y928831D01*
X192686Y928746D01*
X192682Y928705D01*
X192675Y928683D01*
X192676Y928651D01*
X192668Y928580D01*
X192668Y914833D01*
X192682Y914743D01*
X192690Y914652D01*
X192702Y914622D01*
X192707Y914590D01*
X192750Y914509D01*
X192786Y914426D01*
X192812Y914393D01*
X192823Y914373D01*
X192846Y914351D01*
X192891Y914295D01*
X195081Y912105D01*
X195081Y907895D01*
X192105Y904919D01*
X187895Y904919D01*
X185538Y907276D01*
X185522Y907288D01*
X185510Y907304D01*
X185422Y907360D01*
X185339Y907420D01*
X185320Y907426D01*
X185303Y907437D01*
X185202Y907462D01*
X185103Y907492D01*
X185084Y907492D01*
X185064Y907497D01*
X184961Y907489D01*
X184858Y907486D01*
X184839Y907479D01*
X184819Y907478D01*
X184724Y907437D01*
X184627Y907402D01*
X184611Y907389D01*
X184593Y907381D01*
X184462Y907276D01*
X182105Y904919D01*
X177895Y904919D01*
G37*
%LPD*%
%LPC*%
G36*
X538630Y304701D02*
X538630Y304701D01*
X535176Y306132D01*
X532532Y308776D01*
X531101Y312230D01*
X531101Y315970D01*
X532532Y319424D01*
X535176Y322068D01*
X535457Y322184D01*
X535556Y322246D01*
X535657Y322306D01*
X535661Y322311D01*
X535666Y322314D01*
X535740Y322403D01*
X535817Y322493D01*
X535819Y322499D01*
X535823Y322503D01*
X535865Y322611D01*
X535909Y322721D01*
X535910Y322728D01*
X535911Y322733D01*
X535912Y322751D01*
X535927Y322888D01*
X535927Y384622D01*
X535913Y384712D01*
X535905Y384803D01*
X535893Y384833D01*
X535888Y384865D01*
X535845Y384946D01*
X535809Y385029D01*
X535783Y385062D01*
X535772Y385082D01*
X535749Y385104D01*
X535704Y385160D01*
X535619Y385245D01*
X535619Y389455D01*
X538595Y392431D01*
X542805Y392431D01*
X545781Y389455D01*
X545781Y385245D01*
X545296Y384760D01*
X545243Y384687D01*
X545183Y384617D01*
X545171Y384587D01*
X545152Y384561D01*
X545125Y384474D01*
X545091Y384389D01*
X545087Y384348D01*
X545080Y384326D01*
X545081Y384293D01*
X545073Y384222D01*
X545073Y322888D01*
X545091Y322773D01*
X545109Y322657D01*
X545111Y322651D01*
X545112Y322645D01*
X545167Y322542D01*
X545220Y322437D01*
X545225Y322433D01*
X545228Y322428D01*
X545312Y322347D01*
X545396Y322265D01*
X545402Y322262D01*
X545406Y322258D01*
X545423Y322250D01*
X545543Y322184D01*
X545824Y322068D01*
X548468Y319424D01*
X549899Y315970D01*
X549899Y312230D01*
X548468Y308776D01*
X545824Y306132D01*
X542370Y304701D01*
X538630Y304701D01*
G37*
%LPD*%
%LPC*%
G36*
X324784Y62098D02*
X324784Y62098D01*
X322776Y62930D01*
X321240Y64466D01*
X320408Y66474D01*
X320408Y68646D01*
X321240Y70654D01*
X322776Y72190D01*
X324784Y73022D01*
X326956Y73022D01*
X328963Y72191D01*
X329027Y72176D01*
X329087Y72151D01*
X329170Y72142D01*
X329202Y72135D01*
X329222Y72136D01*
X329254Y72133D01*
X372016Y72133D01*
X372081Y72143D01*
X372146Y72144D01*
X372226Y72167D01*
X372259Y72172D01*
X372276Y72182D01*
X372307Y72191D01*
X374314Y73022D01*
X376486Y73022D01*
X378494Y72190D01*
X380030Y70654D01*
X380862Y68646D01*
X380862Y66474D01*
X380030Y64466D01*
X378494Y62930D01*
X376486Y62098D01*
X374314Y62098D01*
X372307Y62929D01*
X372243Y62944D01*
X372183Y62969D01*
X372100Y62978D01*
X372068Y62985D01*
X372048Y62984D01*
X372016Y62987D01*
X329254Y62987D01*
X329189Y62977D01*
X329124Y62976D01*
X329044Y62953D01*
X329011Y62948D01*
X328994Y62938D01*
X328963Y62929D01*
X326956Y62098D01*
X324784Y62098D01*
G37*
%LPD*%
%LPC*%
G36*
X438065Y68829D02*
X438065Y68829D01*
X435089Y71805D01*
X435089Y76015D01*
X438065Y78991D01*
X438469Y78991D01*
X438559Y79005D01*
X438650Y79013D01*
X438679Y79025D01*
X438711Y79030D01*
X438792Y79073D01*
X438876Y79109D01*
X438908Y79135D01*
X438929Y79146D01*
X438951Y79169D01*
X439007Y79214D01*
X439366Y79573D01*
X455072Y79573D01*
X455162Y79587D01*
X455253Y79595D01*
X455283Y79607D01*
X455315Y79612D01*
X455396Y79655D01*
X455479Y79691D01*
X455512Y79717D01*
X455532Y79728D01*
X455554Y79751D01*
X455610Y79796D01*
X455895Y80081D01*
X460105Y80081D01*
X460390Y79796D01*
X460463Y79743D01*
X460533Y79683D01*
X460563Y79671D01*
X460589Y79652D01*
X460676Y79625D01*
X460761Y79591D01*
X460802Y79587D01*
X460824Y79580D01*
X460857Y79581D01*
X460928Y79573D01*
X489234Y79573D01*
X489593Y79214D01*
X489667Y79161D01*
X489737Y79101D01*
X489767Y79089D01*
X489793Y79070D01*
X489880Y79043D01*
X489965Y79009D01*
X490006Y79005D01*
X490028Y78998D01*
X490060Y78999D01*
X490131Y78991D01*
X490535Y78991D01*
X493511Y76015D01*
X493511Y71805D01*
X490535Y68829D01*
X486325Y68829D01*
X484950Y70204D01*
X484877Y70257D01*
X484807Y70317D01*
X484777Y70329D01*
X484751Y70348D01*
X484664Y70375D01*
X484579Y70409D01*
X484538Y70413D01*
X484516Y70420D01*
X484483Y70419D01*
X484412Y70427D01*
X460928Y70427D01*
X460838Y70413D01*
X460747Y70405D01*
X460717Y70393D01*
X460685Y70388D01*
X460604Y70345D01*
X460521Y70309D01*
X460488Y70283D01*
X460468Y70272D01*
X460446Y70249D01*
X460390Y70204D01*
X460105Y69919D01*
X455895Y69919D01*
X455610Y70204D01*
X455537Y70257D01*
X455467Y70317D01*
X455437Y70329D01*
X455411Y70348D01*
X455324Y70375D01*
X455239Y70409D01*
X455198Y70413D01*
X455176Y70420D01*
X455143Y70419D01*
X455072Y70427D01*
X444188Y70427D01*
X444098Y70413D01*
X444007Y70405D01*
X443977Y70393D01*
X443945Y70388D01*
X443864Y70345D01*
X443781Y70309D01*
X443748Y70283D01*
X443728Y70272D01*
X443706Y70249D01*
X443650Y70204D01*
X442275Y68829D01*
X438065Y68829D01*
G37*
%LPD*%
%LPC*%
G36*
X420830Y70601D02*
X420830Y70601D01*
X417376Y72032D01*
X414732Y74676D01*
X413301Y78130D01*
X413301Y81870D01*
X414732Y85324D01*
X417376Y87968D01*
X420830Y89399D01*
X424570Y89399D01*
X428024Y87968D01*
X430668Y85324D01*
X432099Y81870D01*
X432099Y78130D01*
X430668Y74676D01*
X428024Y72032D01*
X424570Y70601D01*
X420830Y70601D01*
G37*
%LPD*%
%LPC*%
G36*
X395430Y70601D02*
X395430Y70601D01*
X391976Y72032D01*
X389332Y74676D01*
X387901Y78130D01*
X387901Y81870D01*
X389332Y85324D01*
X391976Y87968D01*
X395430Y89399D01*
X399170Y89399D01*
X402624Y87968D01*
X405268Y85324D01*
X406699Y81870D01*
X406699Y78130D01*
X405268Y74676D01*
X402624Y72032D01*
X399170Y70601D01*
X395430Y70601D01*
G37*
%LPD*%
%LPC*%
G36*
X633130Y968201D02*
X633130Y968201D01*
X629676Y969632D01*
X627032Y972276D01*
X625601Y975730D01*
X625601Y979470D01*
X627032Y982924D01*
X629676Y985568D01*
X633130Y986999D01*
X636870Y986999D01*
X640324Y985568D01*
X642968Y982924D01*
X644399Y979470D01*
X644399Y975730D01*
X642968Y972276D01*
X640324Y969632D01*
X636870Y968201D01*
X633130Y968201D01*
G37*
%LPD*%
%LPC*%
G36*
X538630Y279301D02*
X538630Y279301D01*
X535176Y280732D01*
X532532Y283376D01*
X531101Y286830D01*
X531101Y290570D01*
X532532Y294024D01*
X535176Y296668D01*
X538630Y298099D01*
X542370Y298099D01*
X545824Y296668D01*
X548468Y294024D01*
X549899Y290570D01*
X549899Y286830D01*
X548468Y283376D01*
X545824Y280732D01*
X542370Y279301D01*
X538630Y279301D01*
G37*
%LPD*%
%LPC*%
G36*
X589430Y162301D02*
X589430Y162301D01*
X585976Y163732D01*
X583332Y166376D01*
X581901Y169830D01*
X581901Y173570D01*
X583332Y177024D01*
X585976Y179668D01*
X589430Y181099D01*
X593170Y181099D01*
X596624Y179668D01*
X599268Y177024D01*
X600699Y173570D01*
X600699Y169830D01*
X599268Y166376D01*
X596624Y163732D01*
X593170Y162301D01*
X589430Y162301D01*
G37*
%LPD*%
%LPC*%
G36*
X633130Y915801D02*
X633130Y915801D01*
X629676Y917232D01*
X627032Y919876D01*
X625601Y923330D01*
X625601Y927070D01*
X627032Y930524D01*
X629676Y933168D01*
X633130Y934599D01*
X636870Y934599D01*
X640324Y933168D01*
X642968Y930524D01*
X644399Y927070D01*
X644399Y923330D01*
X642968Y919876D01*
X640324Y917232D01*
X636870Y915801D01*
X633130Y915801D01*
G37*
%LPD*%
%LPC*%
G36*
X78930Y460601D02*
X78930Y460601D01*
X75476Y462032D01*
X72832Y464676D01*
X71401Y468130D01*
X71401Y471870D01*
X72832Y475324D01*
X75476Y477968D01*
X78930Y479399D01*
X82670Y479399D01*
X86124Y477968D01*
X88768Y475324D01*
X90199Y471870D01*
X90199Y468130D01*
X88768Y464676D01*
X86124Y462032D01*
X82670Y460601D01*
X78930Y460601D01*
G37*
%LPD*%
%LPC*%
G36*
X104330Y460601D02*
X104330Y460601D01*
X100876Y462032D01*
X98232Y464676D01*
X96801Y468130D01*
X96801Y471870D01*
X98232Y475324D01*
X100876Y477968D01*
X104330Y479399D01*
X108070Y479399D01*
X111524Y477968D01*
X114168Y475324D01*
X115599Y471870D01*
X115599Y468130D01*
X114168Y464676D01*
X111524Y462032D01*
X108070Y460601D01*
X104330Y460601D01*
G37*
%LPD*%
%LPC*%
G36*
X633130Y890401D02*
X633130Y890401D01*
X629676Y891832D01*
X627032Y894476D01*
X625601Y897930D01*
X625601Y901670D01*
X627032Y905124D01*
X629676Y907768D01*
X633130Y909199D01*
X636870Y909199D01*
X640324Y907768D01*
X642968Y905124D01*
X644399Y901670D01*
X644399Y897930D01*
X642968Y894476D01*
X640324Y891832D01*
X636870Y890401D01*
X633130Y890401D01*
G37*
%LPD*%
%LPC*%
G36*
X53530Y460601D02*
X53530Y460601D01*
X50076Y462032D01*
X47432Y464676D01*
X46001Y468130D01*
X46001Y471870D01*
X47432Y475324D01*
X50076Y477968D01*
X53530Y479399D01*
X57270Y479399D01*
X60724Y477968D01*
X63368Y475324D01*
X64799Y471870D01*
X64799Y468130D01*
X63368Y464676D01*
X60724Y462032D01*
X57270Y460601D01*
X53530Y460601D01*
G37*
%LPD*%
%LPC*%
G36*
X108130Y570601D02*
X108130Y570601D01*
X104676Y572032D01*
X102032Y574676D01*
X100601Y578130D01*
X100601Y581870D01*
X102032Y585324D01*
X104676Y587968D01*
X108130Y589399D01*
X111870Y589399D01*
X115324Y587968D01*
X117968Y585324D01*
X119399Y581870D01*
X119399Y578130D01*
X117968Y574676D01*
X115324Y572032D01*
X111870Y570601D01*
X108130Y570601D01*
G37*
%LPD*%
%LPC*%
G36*
X633130Y865001D02*
X633130Y865001D01*
X629676Y866432D01*
X627032Y869076D01*
X625601Y872530D01*
X625601Y876270D01*
X627032Y879724D01*
X629676Y882368D01*
X633130Y883799D01*
X636870Y883799D01*
X640324Y882368D01*
X642968Y879724D01*
X644399Y876270D01*
X644399Y872530D01*
X642968Y869076D01*
X640324Y866432D01*
X636870Y865001D01*
X633130Y865001D01*
G37*
%LPD*%
%LPC*%
G36*
X30630Y304701D02*
X30630Y304701D01*
X27176Y306132D01*
X24532Y308776D01*
X23101Y312230D01*
X23101Y315970D01*
X24532Y319424D01*
X27176Y322068D01*
X30630Y323499D01*
X34370Y323499D01*
X37824Y322068D01*
X40468Y319424D01*
X41899Y315970D01*
X41899Y312230D01*
X40468Y308776D01*
X37824Y306132D01*
X34370Y304701D01*
X30630Y304701D01*
G37*
%LPD*%
%LPC*%
G36*
X168130Y229801D02*
X168130Y229801D01*
X164676Y231232D01*
X162032Y233876D01*
X160601Y237330D01*
X160601Y241070D01*
X162032Y244524D01*
X164676Y247168D01*
X168130Y248599D01*
X171870Y248599D01*
X175324Y247168D01*
X177968Y244524D01*
X179399Y241070D01*
X179399Y237330D01*
X177968Y233876D01*
X175324Y231232D01*
X171870Y229801D01*
X168130Y229801D01*
G37*
%LPD*%
%LPC*%
G36*
X538630Y253901D02*
X538630Y253901D01*
X535176Y255332D01*
X532532Y257976D01*
X531101Y261430D01*
X531101Y265170D01*
X532532Y268624D01*
X535176Y271268D01*
X538630Y272699D01*
X542370Y272699D01*
X545824Y271268D01*
X548468Y268624D01*
X549899Y265170D01*
X549899Y261430D01*
X548468Y257976D01*
X545824Y255332D01*
X542370Y253901D01*
X538630Y253901D01*
G37*
%LPD*%
%LPC*%
G36*
X168130Y204401D02*
X168130Y204401D01*
X164676Y205832D01*
X162032Y208476D01*
X160601Y211930D01*
X160601Y215670D01*
X162032Y219124D01*
X164676Y221768D01*
X168130Y223199D01*
X171870Y223199D01*
X175324Y221768D01*
X177968Y219124D01*
X179399Y215670D01*
X179399Y211930D01*
X177968Y208476D01*
X175324Y205832D01*
X171870Y204401D01*
X168130Y204401D01*
G37*
%LPD*%
%LPC*%
G36*
X168130Y179001D02*
X168130Y179001D01*
X164676Y180432D01*
X162032Y183076D01*
X160601Y186530D01*
X160601Y190270D01*
X162032Y193724D01*
X164676Y196368D01*
X168130Y197799D01*
X171870Y197799D01*
X175324Y196368D01*
X177968Y193724D01*
X179399Y190270D01*
X179399Y186530D01*
X177968Y183076D01*
X175324Y180432D01*
X171870Y179001D01*
X168130Y179001D01*
G37*
%LPD*%
%LPC*%
G36*
X168130Y255201D02*
X168130Y255201D01*
X164676Y256632D01*
X162032Y259276D01*
X160601Y262730D01*
X160601Y266470D01*
X162032Y269924D01*
X164676Y272568D01*
X168130Y273999D01*
X171870Y273999D01*
X175324Y272568D01*
X177968Y269924D01*
X179399Y266470D01*
X179399Y262730D01*
X177968Y259276D01*
X175324Y256632D01*
X171870Y255201D01*
X168130Y255201D01*
G37*
%LPD*%
%LPC*%
G36*
X168130Y280601D02*
X168130Y280601D01*
X164676Y282032D01*
X162032Y284676D01*
X160601Y288130D01*
X160601Y291870D01*
X162032Y295324D01*
X164676Y297968D01*
X168130Y299399D01*
X171870Y299399D01*
X175324Y297968D01*
X177968Y295324D01*
X179399Y291870D01*
X179399Y288130D01*
X177968Y284676D01*
X175324Y282032D01*
X171870Y280601D01*
X168130Y280601D01*
G37*
%LPD*%
%LPC*%
G36*
X564030Y162301D02*
X564030Y162301D01*
X560576Y163732D01*
X557932Y166376D01*
X556501Y169830D01*
X556501Y173570D01*
X557932Y177024D01*
X560576Y179668D01*
X564030Y181099D01*
X567770Y181099D01*
X571224Y179668D01*
X573868Y177024D01*
X575299Y173570D01*
X575299Y169830D01*
X573868Y166376D01*
X571224Y163732D01*
X567770Y162301D01*
X564030Y162301D01*
G37*
%LPD*%
%LPC*%
G36*
X538630Y162301D02*
X538630Y162301D01*
X535176Y163732D01*
X532532Y166376D01*
X531101Y169830D01*
X531101Y173570D01*
X532532Y177024D01*
X535176Y179668D01*
X538630Y181099D01*
X542370Y181099D01*
X545824Y179668D01*
X548468Y177024D01*
X549899Y173570D01*
X549899Y169830D01*
X548468Y166376D01*
X545824Y163732D01*
X542370Y162301D01*
X538630Y162301D01*
G37*
%LPD*%
%LPC*%
G36*
X81430Y59751D02*
X81430Y59751D01*
X77976Y61182D01*
X75332Y63826D01*
X73901Y67280D01*
X73901Y71020D01*
X75332Y74474D01*
X77976Y77118D01*
X81430Y78549D01*
X85170Y78549D01*
X88624Y77118D01*
X91268Y74474D01*
X92699Y71020D01*
X92699Y67280D01*
X91268Y63826D01*
X88624Y61182D01*
X85170Y59751D01*
X81430Y59751D01*
G37*
%LPD*%
%LPC*%
G36*
X132230Y59751D02*
X132230Y59751D01*
X128776Y61182D01*
X126132Y63826D01*
X124701Y67280D01*
X124701Y71020D01*
X126132Y74474D01*
X128776Y77118D01*
X132230Y78549D01*
X135970Y78549D01*
X139424Y77118D01*
X142068Y74474D01*
X143499Y71020D01*
X143499Y67280D01*
X142068Y63826D01*
X139424Y61182D01*
X135970Y59751D01*
X132230Y59751D01*
G37*
%LPD*%
%LPC*%
G36*
X106830Y59751D02*
X106830Y59751D01*
X103376Y61182D01*
X100732Y63826D01*
X99301Y67280D01*
X99301Y71020D01*
X100732Y74474D01*
X103376Y77118D01*
X106830Y78549D01*
X110570Y78549D01*
X114024Y77118D01*
X116668Y74474D01*
X118099Y71020D01*
X118099Y67280D01*
X116668Y63826D01*
X114024Y61182D01*
X110570Y59751D01*
X106830Y59751D01*
G37*
%LPD*%
%LPC*%
G36*
X30630Y330101D02*
X30630Y330101D01*
X27176Y331532D01*
X24532Y334176D01*
X23101Y337630D01*
X23101Y341370D01*
X24532Y344824D01*
X27176Y347468D01*
X30630Y348899D01*
X34370Y348899D01*
X37824Y347468D01*
X40468Y344824D01*
X41899Y341370D01*
X41899Y337630D01*
X40468Y334176D01*
X37824Y331532D01*
X34370Y330101D01*
X30630Y330101D01*
G37*
%LPD*%
%LPC*%
G36*
X206925Y783999D02*
X206925Y783999D01*
X203949Y786975D01*
X203949Y791185D01*
X206925Y794161D01*
X207626Y794161D01*
X207697Y794172D01*
X207769Y794174D01*
X207818Y794192D01*
X207869Y794200D01*
X207932Y794234D01*
X208000Y794259D01*
X208040Y794291D01*
X208086Y794316D01*
X208136Y794368D01*
X208192Y794412D01*
X208220Y794456D01*
X208256Y794494D01*
X208286Y794559D01*
X208325Y794619D01*
X208337Y794670D01*
X208359Y794717D01*
X208367Y794788D01*
X208385Y794858D01*
X208381Y794910D01*
X208386Y794961D01*
X208371Y795032D01*
X208366Y795103D01*
X208345Y795151D01*
X208334Y795202D01*
X208297Y795263D01*
X208269Y795329D01*
X208225Y795385D01*
X208208Y795413D01*
X208190Y795428D01*
X208165Y795460D01*
X205219Y798405D01*
X205219Y802615D01*
X208195Y805591D01*
X212405Y805591D01*
X215381Y802615D01*
X215381Y798405D01*
X212405Y795429D01*
X211704Y795429D01*
X211633Y795418D01*
X211561Y795416D01*
X211512Y795398D01*
X211461Y795390D01*
X211398Y795356D01*
X211330Y795331D01*
X211290Y795299D01*
X211244Y795274D01*
X211194Y795222D01*
X211138Y795178D01*
X211110Y795134D01*
X211074Y795096D01*
X211044Y795031D01*
X211005Y794971D01*
X210993Y794920D01*
X210971Y794873D01*
X210963Y794802D01*
X210945Y794732D01*
X210949Y794680D01*
X210944Y794629D01*
X210959Y794558D01*
X210964Y794487D01*
X210985Y794439D01*
X210996Y794388D01*
X211033Y794327D01*
X211061Y794261D01*
X211105Y794205D01*
X211122Y794177D01*
X211140Y794162D01*
X211165Y794130D01*
X214111Y791185D01*
X214111Y786975D01*
X211135Y783999D01*
X206925Y783999D01*
G37*
%LPD*%
%LPC*%
G36*
X177895Y506729D02*
X177895Y506729D01*
X174919Y509705D01*
X174919Y513915D01*
X177895Y516891D01*
X182105Y516891D01*
X184367Y514629D01*
X184383Y514617D01*
X184395Y514601D01*
X184483Y514545D01*
X184566Y514485D01*
X184585Y514479D01*
X184602Y514468D01*
X184703Y514443D01*
X184802Y514413D01*
X184821Y514413D01*
X184841Y514408D01*
X184944Y514416D01*
X185047Y514419D01*
X185066Y514426D01*
X185086Y514427D01*
X185181Y514468D01*
X185278Y514503D01*
X185294Y514516D01*
X185312Y514524D01*
X185443Y514629D01*
X187895Y517081D01*
X192105Y517081D01*
X195081Y514105D01*
X195081Y509895D01*
X192105Y506919D01*
X187895Y506919D01*
X185633Y509181D01*
X185617Y509193D01*
X185605Y509209D01*
X185517Y509265D01*
X185434Y509325D01*
X185415Y509331D01*
X185398Y509342D01*
X185297Y509367D01*
X185198Y509397D01*
X185179Y509397D01*
X185159Y509402D01*
X185056Y509394D01*
X184953Y509391D01*
X184934Y509384D01*
X184914Y509383D01*
X184819Y509342D01*
X184722Y509307D01*
X184706Y509294D01*
X184688Y509286D01*
X184557Y509181D01*
X182105Y506729D01*
X177895Y506729D01*
G37*
%LPD*%
%LPC*%
G36*
X225182Y974803D02*
X225182Y974803D01*
X222073Y977912D01*
X222073Y982308D01*
X225182Y985417D01*
X229578Y985417D01*
X232687Y982308D01*
X232687Y977912D01*
X229578Y974803D01*
X225182Y974803D01*
G37*
%LPD*%
%LPC*%
G36*
X167895Y954919D02*
X167895Y954919D01*
X164919Y957895D01*
X164919Y962105D01*
X167895Y965081D01*
X172105Y965081D01*
X175081Y962105D01*
X175081Y957895D01*
X172105Y954919D01*
X167895Y954919D01*
G37*
%LPD*%
%LPC*%
G36*
X287895Y944919D02*
X287895Y944919D01*
X284919Y947895D01*
X284919Y952105D01*
X287895Y955081D01*
X292105Y955081D01*
X295081Y952105D01*
X295081Y947895D01*
X292105Y944919D01*
X287895Y944919D01*
G37*
%LPD*%
%LPC*%
G36*
X248835Y923741D02*
X248835Y923741D01*
X245859Y926717D01*
X245859Y930927D01*
X248835Y933903D01*
X253045Y933903D01*
X256021Y930927D01*
X256021Y926717D01*
X253045Y923741D01*
X248835Y923741D01*
G37*
%LPD*%
%LPC*%
G36*
X127895Y914919D02*
X127895Y914919D01*
X124919Y917895D01*
X124919Y922105D01*
X127895Y925081D01*
X132105Y925081D01*
X135081Y922105D01*
X135081Y917895D01*
X132105Y914919D01*
X127895Y914919D01*
G37*
%LPD*%
%LPC*%
G36*
X248835Y907189D02*
X248835Y907189D01*
X245859Y910165D01*
X245859Y914375D01*
X248835Y917351D01*
X253045Y917351D01*
X256021Y914375D01*
X256021Y910165D01*
X253045Y907189D01*
X248835Y907189D01*
G37*
%LPD*%
%LPC*%
G36*
X147895Y874919D02*
X147895Y874919D01*
X144919Y877895D01*
X144919Y882105D01*
X147895Y885081D01*
X152105Y885081D01*
X155081Y882105D01*
X155081Y877895D01*
X152105Y874919D01*
X147895Y874919D01*
G37*
%LPD*%
%LPC*%
G36*
X353935Y870189D02*
X353935Y870189D01*
X350959Y873165D01*
X350959Y877375D01*
X353935Y880351D01*
X358145Y880351D01*
X361121Y877375D01*
X361121Y873165D01*
X358145Y870189D01*
X353935Y870189D01*
G37*
%LPD*%
%LPC*%
G36*
X537895Y844919D02*
X537895Y844919D01*
X534919Y847895D01*
X534919Y852105D01*
X537895Y855081D01*
X542105Y855081D01*
X545081Y852105D01*
X545081Y847895D01*
X542105Y844919D01*
X537895Y844919D01*
G37*
%LPD*%
%LPC*%
G36*
X539895Y926088D02*
X539895Y926088D01*
X536919Y929064D01*
X536919Y933274D01*
X539895Y936250D01*
X544105Y936250D01*
X547081Y933274D01*
X547081Y929064D01*
X544105Y926088D01*
X539895Y926088D01*
G37*
%LPD*%
%LPC*%
G36*
X379895Y783919D02*
X379895Y783919D01*
X376919Y786895D01*
X376919Y791105D01*
X379895Y794081D01*
X384105Y794081D01*
X387081Y791105D01*
X387081Y786895D01*
X384105Y783919D01*
X379895Y783919D01*
G37*
%LPD*%
%LPC*%
G36*
X290895Y783919D02*
X290895Y783919D01*
X287919Y786895D01*
X287919Y791105D01*
X290895Y794081D01*
X295105Y794081D01*
X298081Y791105D01*
X298081Y786895D01*
X295105Y783919D01*
X290895Y783919D01*
G37*
%LPD*%
%LPC*%
G36*
X280895Y774919D02*
X280895Y774919D01*
X277919Y777895D01*
X277919Y782105D01*
X280895Y785081D01*
X285105Y785081D01*
X288081Y782105D01*
X288081Y777895D01*
X285105Y774919D01*
X280895Y774919D01*
G37*
%LPD*%
%LPC*%
G36*
X528235Y759869D02*
X528235Y759869D01*
X525259Y762845D01*
X525259Y767055D01*
X528235Y770031D01*
X532445Y770031D01*
X535421Y767055D01*
X535421Y762845D01*
X532445Y759869D01*
X528235Y759869D01*
G37*
%LPD*%
%LPC*%
G36*
X195495Y758599D02*
X195495Y758599D01*
X192519Y761575D01*
X192519Y765785D01*
X195495Y768761D01*
X199705Y768761D01*
X202681Y765785D01*
X202681Y761575D01*
X199705Y758599D01*
X195495Y758599D01*
G37*
%LPD*%
%LPC*%
G36*
X167895Y744919D02*
X167895Y744919D01*
X164919Y747895D01*
X164919Y752105D01*
X167895Y755081D01*
X172105Y755081D01*
X175081Y752105D01*
X175081Y747895D01*
X172105Y744919D01*
X167895Y744919D01*
G37*
%LPD*%
%LPC*%
G36*
X161405Y655319D02*
X161405Y655319D01*
X158429Y658295D01*
X158429Y662505D01*
X161405Y665481D01*
X165615Y665481D01*
X168591Y662505D01*
X168591Y658295D01*
X165615Y655319D01*
X161405Y655319D01*
G37*
%LPD*%
%LPC*%
G36*
X354245Y655319D02*
X354245Y655319D01*
X351269Y658295D01*
X351269Y662505D01*
X354245Y665481D01*
X358455Y665481D01*
X361431Y662505D01*
X361431Y658295D01*
X358455Y655319D01*
X354245Y655319D01*
G37*
%LPD*%
%LPC*%
G36*
X132895Y629919D02*
X132895Y629919D01*
X129919Y632895D01*
X129919Y637105D01*
X132895Y640081D01*
X137105Y640081D01*
X140081Y637105D01*
X140081Y632895D01*
X137105Y629919D01*
X132895Y629919D01*
G37*
%LPD*%
%LPC*%
G36*
X329045Y628649D02*
X329045Y628649D01*
X326069Y631625D01*
X326069Y635835D01*
X329045Y638811D01*
X333255Y638811D01*
X336231Y635835D01*
X336231Y631625D01*
X333255Y628649D01*
X329045Y628649D01*
G37*
%LPD*%
%LPC*%
G36*
X54895Y607919D02*
X54895Y607919D01*
X51919Y610895D01*
X51919Y615105D01*
X54895Y618081D01*
X59105Y618081D01*
X62081Y615105D01*
X62081Y610895D01*
X59105Y607919D01*
X54895Y607919D01*
G37*
%LPD*%
%LPC*%
G36*
X302945Y606419D02*
X302945Y606419D01*
X299969Y609395D01*
X299969Y613605D01*
X302945Y616581D01*
X307155Y616581D01*
X310131Y613605D01*
X310131Y609395D01*
X307155Y606419D01*
X302945Y606419D01*
G37*
%LPD*%
%LPC*%
G36*
X177895Y594919D02*
X177895Y594919D01*
X174919Y597895D01*
X174919Y602105D01*
X177895Y605081D01*
X182105Y605081D01*
X185081Y602105D01*
X185081Y597895D01*
X182105Y594919D01*
X177895Y594919D01*
G37*
%LPD*%
%LPC*%
G36*
X514895Y594919D02*
X514895Y594919D01*
X511919Y597895D01*
X511919Y602105D01*
X514895Y605081D01*
X519105Y605081D01*
X522081Y602105D01*
X522081Y597895D01*
X519105Y594919D01*
X514895Y594919D01*
G37*
%LPD*%
%LPC*%
G36*
X315895Y594919D02*
X315895Y594919D01*
X312919Y597895D01*
X312919Y602105D01*
X315895Y605081D01*
X320105Y605081D01*
X323081Y602105D01*
X323081Y597895D01*
X320105Y594919D01*
X315895Y594919D01*
G37*
%LPD*%
%LPC*%
G36*
X336985Y584199D02*
X336985Y584199D01*
X334009Y587175D01*
X334009Y591385D01*
X336985Y594361D01*
X341195Y594361D01*
X344171Y591385D01*
X344171Y587175D01*
X341195Y584199D01*
X336985Y584199D01*
G37*
%LPD*%
%LPC*%
G36*
X566785Y583809D02*
X566785Y583809D01*
X563809Y586785D01*
X563809Y590995D01*
X566785Y593971D01*
X570995Y593971D01*
X573971Y590995D01*
X573971Y586785D01*
X570995Y583809D01*
X566785Y583809D01*
G37*
%LPD*%
%LPC*%
G36*
X308895Y574919D02*
X308895Y574919D01*
X305919Y577895D01*
X305919Y582105D01*
X308895Y585081D01*
X313105Y585081D01*
X316081Y582105D01*
X316081Y577895D01*
X313105Y574919D01*
X308895Y574919D01*
G37*
%LPD*%
%LPC*%
G36*
X515895Y574919D02*
X515895Y574919D01*
X512919Y577895D01*
X512919Y582105D01*
X515895Y585081D01*
X520105Y585081D01*
X523081Y582105D01*
X523081Y577895D01*
X520105Y574919D01*
X515895Y574919D01*
G37*
%LPD*%
%LPC*%
G36*
X187895Y574039D02*
X187895Y574039D01*
X184919Y577015D01*
X184919Y581225D01*
X187895Y584201D01*
X192105Y584201D01*
X195081Y581225D01*
X195081Y577015D01*
X192105Y574039D01*
X187895Y574039D01*
G37*
%LPD*%
%LPC*%
G36*
X451285Y558799D02*
X451285Y558799D01*
X448309Y561775D01*
X448309Y565985D01*
X451285Y568961D01*
X455495Y568961D01*
X458471Y565985D01*
X458471Y561775D01*
X455495Y558799D01*
X451285Y558799D01*
G37*
%LPD*%
%LPC*%
G36*
X338295Y544919D02*
X338295Y544919D01*
X335319Y547895D01*
X335319Y552105D01*
X338295Y555081D01*
X342505Y555081D01*
X345481Y552105D01*
X345481Y547895D01*
X342505Y544919D01*
X338295Y544919D01*
G37*
%LPD*%
%LPC*%
G36*
X327895Y534919D02*
X327895Y534919D01*
X324919Y537895D01*
X324919Y542105D01*
X327895Y545081D01*
X332105Y545081D01*
X335081Y542105D01*
X335081Y537895D01*
X332105Y534919D01*
X327895Y534919D01*
G37*
%LPD*%
%LPC*%
G36*
X197895Y532539D02*
X197895Y532539D01*
X194919Y535515D01*
X194919Y539725D01*
X197895Y542701D01*
X202105Y542701D01*
X205081Y539725D01*
X205081Y535515D01*
X202105Y532539D01*
X197895Y532539D01*
G37*
%LPD*%
%LPC*%
G36*
X339954Y531919D02*
X339954Y531919D01*
X336978Y534895D01*
X336978Y539105D01*
X339954Y542081D01*
X344163Y542081D01*
X347139Y539105D01*
X347139Y534895D01*
X344163Y531919D01*
X339954Y531919D01*
G37*
%LPD*%
%LPC*%
G36*
X579799Y524919D02*
X579799Y524919D01*
X576823Y527895D01*
X576823Y532105D01*
X579799Y535081D01*
X584009Y535081D01*
X586985Y532105D01*
X586985Y527895D01*
X584009Y524919D01*
X579799Y524919D01*
G37*
%LPD*%
%LPC*%
G36*
X293295Y523919D02*
X293295Y523919D01*
X290319Y526895D01*
X290319Y531105D01*
X293295Y534081D01*
X297505Y534081D01*
X300481Y531105D01*
X300481Y526895D01*
X297505Y523919D01*
X293295Y523919D01*
G37*
%LPD*%
%LPC*%
G36*
X126926Y516919D02*
X126926Y516919D01*
X123950Y519895D01*
X123950Y524105D01*
X126926Y527081D01*
X131136Y527081D01*
X134112Y524105D01*
X134112Y519895D01*
X131136Y516919D01*
X126926Y516919D01*
G37*
%LPD*%
%LPC*%
G36*
X377895Y484919D02*
X377895Y484919D01*
X374919Y487895D01*
X374919Y492105D01*
X377895Y495081D01*
X382105Y495081D01*
X385081Y492105D01*
X385081Y487895D01*
X382105Y484919D01*
X377895Y484919D01*
G37*
%LPD*%
%LPC*%
G36*
X446910Y457904D02*
X446910Y457904D01*
X443934Y460880D01*
X443934Y465090D01*
X446910Y468066D01*
X451120Y468066D01*
X454096Y465090D01*
X454096Y460880D01*
X451120Y457904D01*
X446910Y457904D01*
G37*
%LPD*%
%LPC*%
G36*
X119495Y452119D02*
X119495Y452119D01*
X116519Y455095D01*
X116519Y459305D01*
X119495Y462281D01*
X123705Y462281D01*
X126681Y459305D01*
X126681Y455095D01*
X123705Y452119D01*
X119495Y452119D01*
G37*
%LPD*%
%LPC*%
G36*
X331895Y443919D02*
X331895Y443919D01*
X328919Y446895D01*
X328919Y451105D01*
X331895Y454081D01*
X336105Y454081D01*
X339081Y451105D01*
X339081Y446895D01*
X336105Y443919D01*
X331895Y443919D01*
G37*
%LPD*%
%LPC*%
G36*
X438895Y442919D02*
X438895Y442919D01*
X435919Y445895D01*
X435919Y450105D01*
X438895Y453081D01*
X443105Y453081D01*
X446081Y450105D01*
X446081Y445895D01*
X443105Y442919D01*
X438895Y442919D01*
G37*
%LPD*%
%LPC*%
G36*
X177895Y434919D02*
X177895Y434919D01*
X174919Y437895D01*
X174919Y442105D01*
X177895Y445081D01*
X182105Y445081D01*
X185081Y442105D01*
X185081Y437895D01*
X182105Y434919D01*
X177895Y434919D01*
G37*
%LPD*%
%LPC*%
G36*
X187895Y426919D02*
X187895Y426919D01*
X184919Y429895D01*
X184919Y434105D01*
X187895Y437081D01*
X192105Y437081D01*
X195081Y434105D01*
X195081Y429895D01*
X192105Y426919D01*
X187895Y426919D01*
G37*
%LPD*%
%LPC*%
G36*
X391595Y414019D02*
X391595Y414019D01*
X388619Y416995D01*
X388619Y421205D01*
X391595Y424181D01*
X395805Y424181D01*
X398781Y421205D01*
X398781Y416995D01*
X395805Y414019D01*
X391595Y414019D01*
G37*
%LPD*%
%LPC*%
G36*
X112195Y401319D02*
X112195Y401319D01*
X109219Y404295D01*
X109219Y408505D01*
X112195Y411481D01*
X116405Y411481D01*
X119381Y408505D01*
X119381Y404295D01*
X116405Y401319D01*
X112195Y401319D01*
G37*
%LPD*%
%LPC*%
G36*
X347828Y397851D02*
X347828Y397851D01*
X344851Y400828D01*
X344851Y405037D01*
X347828Y408013D01*
X352037Y408013D01*
X355013Y405037D01*
X355013Y400828D01*
X352037Y397851D01*
X347828Y397851D01*
G37*
%LPD*%
%LPC*%
G36*
X517165Y373329D02*
X517165Y373329D01*
X514189Y376305D01*
X514189Y380515D01*
X517165Y383491D01*
X521375Y383491D01*
X524351Y380515D01*
X524351Y376305D01*
X521375Y373329D01*
X517165Y373329D01*
G37*
%LPD*%
%LPC*%
G36*
X115895Y372519D02*
X115895Y372519D01*
X112919Y375495D01*
X112919Y379705D01*
X115895Y382681D01*
X120105Y382681D01*
X123081Y379705D01*
X123081Y375495D01*
X120105Y372519D01*
X115895Y372519D01*
G37*
%LPD*%
%LPC*%
G36*
X526236Y362359D02*
X526236Y362359D01*
X523260Y365335D01*
X523260Y369545D01*
X526236Y372521D01*
X530446Y372521D01*
X533422Y369545D01*
X533422Y365335D01*
X530446Y362359D01*
X526236Y362359D01*
G37*
%LPD*%
%LPC*%
G36*
X131895Y361919D02*
X131895Y361919D01*
X128919Y364895D01*
X128919Y369105D01*
X131895Y372081D01*
X136105Y372081D01*
X139081Y369105D01*
X139081Y364895D01*
X136105Y361919D01*
X131895Y361919D01*
G37*
%LPD*%
%LPC*%
G36*
X331385Y344581D02*
X331385Y344581D01*
X328409Y347557D01*
X328409Y351767D01*
X331385Y354743D01*
X335595Y354743D01*
X338571Y351767D01*
X338571Y347557D01*
X335595Y344581D01*
X331385Y344581D01*
G37*
%LPD*%
%LPC*%
G36*
X157595Y325119D02*
X157595Y325119D01*
X154619Y328095D01*
X154619Y332305D01*
X157595Y335281D01*
X161805Y335281D01*
X164781Y332305D01*
X164781Y328095D01*
X161805Y325119D01*
X157595Y325119D01*
G37*
%LPD*%
%LPC*%
G36*
X119495Y312419D02*
X119495Y312419D01*
X116519Y315395D01*
X116519Y319605D01*
X119495Y322581D01*
X123705Y322581D01*
X126681Y319605D01*
X126681Y315395D01*
X123705Y312419D01*
X119495Y312419D01*
G37*
%LPD*%
%LPC*%
G36*
X189895Y300919D02*
X189895Y300919D01*
X186919Y303895D01*
X186919Y308105D01*
X189895Y311081D01*
X194105Y311081D01*
X197081Y308105D01*
X197081Y303895D01*
X194105Y300919D01*
X189895Y300919D01*
G37*
%LPD*%
%LPC*%
G36*
X189895Y288919D02*
X189895Y288919D01*
X186919Y291895D01*
X186919Y296105D01*
X189895Y299081D01*
X194105Y299081D01*
X197081Y296105D01*
X197081Y291895D01*
X194105Y288919D01*
X189895Y288919D01*
G37*
%LPD*%
%LPC*%
G36*
X190895Y200919D02*
X190895Y200919D01*
X187919Y203895D01*
X187919Y208105D01*
X190895Y211081D01*
X195105Y211081D01*
X198081Y208105D01*
X198081Y203895D01*
X195105Y200919D01*
X190895Y200919D01*
G37*
%LPD*%
%LPC*%
G36*
X247565Y996089D02*
X247565Y996089D01*
X244589Y999065D01*
X244589Y1003275D01*
X247565Y1006251D01*
X251775Y1006251D01*
X254751Y1003275D01*
X254751Y999065D01*
X251775Y996089D01*
X247565Y996089D01*
G37*
%LPD*%
%LPC*%
G36*
X557895Y994919D02*
X557895Y994919D01*
X554919Y997895D01*
X554919Y1002105D01*
X557895Y1005081D01*
X562105Y1005081D01*
X565081Y1002105D01*
X565081Y997895D01*
X562105Y994919D01*
X557895Y994919D01*
G37*
%LPD*%
%LPC*%
G36*
X585895Y983919D02*
X585895Y983919D01*
X582919Y986895D01*
X582919Y991105D01*
X585895Y994081D01*
X590105Y994081D01*
X593081Y991105D01*
X593081Y986895D01*
X590105Y983919D01*
X585895Y983919D01*
G37*
%LPD*%
%LPC*%
G36*
X444895Y982919D02*
X444895Y982919D01*
X441919Y985895D01*
X441919Y990105D01*
X444895Y993081D01*
X449105Y993081D01*
X452081Y990105D01*
X452081Y985895D01*
X449105Y982919D01*
X444895Y982919D01*
G37*
%LPD*%
%LPC*%
G36*
X497895Y954919D02*
X497895Y954919D01*
X494919Y957895D01*
X494919Y962105D01*
X497895Y965081D01*
X502105Y965081D01*
X505081Y962105D01*
X505081Y957895D01*
X502105Y954919D01*
X497895Y954919D01*
G37*
%LPD*%
%LPC*%
G36*
X557445Y20109D02*
X557445Y20109D01*
X554469Y23085D01*
X554469Y27295D01*
X557445Y30271D01*
X561655Y30271D01*
X564631Y27295D01*
X564631Y23085D01*
X561655Y20109D01*
X557445Y20109D01*
G37*
%LPD*%
%LPC*%
G36*
X491117Y39191D02*
X491117Y39191D01*
X488171Y42137D01*
X488171Y46303D01*
X491117Y49249D01*
X495283Y49249D01*
X498229Y46303D01*
X498229Y42137D01*
X495283Y39191D01*
X491117Y39191D01*
G37*
%LPD*%
%LPC*%
G36*
X376817Y39191D02*
X376817Y39191D01*
X373871Y42137D01*
X373871Y46303D01*
X376817Y49249D01*
X380983Y49249D01*
X383929Y46303D01*
X383929Y42137D01*
X380983Y39191D01*
X376817Y39191D01*
G37*
%LPD*%
%LPC*%
G36*
X433317Y39191D02*
X433317Y39191D01*
X430371Y42137D01*
X430371Y46303D01*
X433317Y49249D01*
X437483Y49249D01*
X440429Y46303D01*
X440429Y42137D01*
X437483Y39191D01*
X433317Y39191D01*
G37*
%LPD*%
%LPC*%
G36*
X319017Y39191D02*
X319017Y39191D01*
X316071Y42137D01*
X316071Y46303D01*
X319017Y49249D01*
X323183Y49249D01*
X326129Y46303D01*
X326129Y42137D01*
X323183Y39191D01*
X319017Y39191D01*
G37*
%LPD*%
%LPC*%
G36*
X636523Y850523D02*
X636523Y850523D01*
X636523Y859046D01*
X637379Y858911D01*
X638900Y858416D01*
X640325Y857690D01*
X641619Y856750D01*
X642750Y855619D01*
X643690Y854325D01*
X644416Y852900D01*
X644911Y851379D01*
X645046Y850523D01*
X636523Y850523D01*
G37*
%LPD*%
%LPC*%
G36*
X542023Y239423D02*
X542023Y239423D01*
X542023Y247946D01*
X542879Y247811D01*
X544400Y247316D01*
X545825Y246590D01*
X547119Y245650D01*
X548250Y244519D01*
X549190Y243225D01*
X549916Y241800D01*
X550411Y240279D01*
X550546Y239423D01*
X542023Y239423D01*
G37*
%LPD*%
%LPC*%
G36*
X161023Y70673D02*
X161023Y70673D01*
X161023Y79196D01*
X161879Y79061D01*
X163400Y78566D01*
X164825Y77840D01*
X166119Y76900D01*
X167250Y75769D01*
X168190Y74475D01*
X168916Y73050D01*
X169411Y71529D01*
X169546Y70673D01*
X161023Y70673D01*
G37*
%LPD*%
%LPC*%
G36*
X618223Y173223D02*
X618223Y173223D01*
X618223Y181746D01*
X619079Y181611D01*
X620600Y181116D01*
X622025Y180390D01*
X623319Y179450D01*
X624450Y178319D01*
X625390Y177025D01*
X626116Y175600D01*
X626611Y174079D01*
X626746Y173223D01*
X618223Y173223D01*
G37*
%LPD*%
%LPC*%
G36*
X31523Y471523D02*
X31523Y471523D01*
X31523Y480046D01*
X32379Y479911D01*
X33900Y479416D01*
X35325Y478690D01*
X36619Y477750D01*
X37750Y476619D01*
X38690Y475325D01*
X39416Y473900D01*
X39911Y472379D01*
X40046Y471523D01*
X31523Y471523D01*
G37*
%LPD*%
%LPC*%
G36*
X636523Y953723D02*
X636523Y953723D01*
X636523Y962246D01*
X637379Y962111D01*
X638900Y961616D01*
X640325Y960890D01*
X641619Y959950D01*
X642750Y958819D01*
X643690Y957525D01*
X644416Y956100D01*
X644911Y954579D01*
X645046Y953723D01*
X636523Y953723D01*
G37*
%LPD*%
%LPC*%
G36*
X624954Y953723D02*
X624954Y953723D01*
X625089Y954579D01*
X625584Y956100D01*
X626310Y957525D01*
X627250Y958819D01*
X628381Y959950D01*
X629675Y960890D01*
X631100Y961616D01*
X632621Y962111D01*
X633477Y962246D01*
X633477Y953723D01*
X624954Y953723D01*
G37*
%LPD*%
%LPC*%
G36*
X624954Y850523D02*
X624954Y850523D01*
X625089Y851379D01*
X625584Y852900D01*
X626310Y854325D01*
X627250Y855619D01*
X628381Y856750D01*
X629675Y857690D01*
X631100Y858416D01*
X632621Y858911D01*
X633477Y859046D01*
X633477Y850523D01*
X624954Y850523D01*
G37*
%LPD*%
%LPC*%
G36*
X530454Y239423D02*
X530454Y239423D01*
X530589Y240279D01*
X531084Y241800D01*
X531810Y243225D01*
X532750Y244519D01*
X533881Y245650D01*
X535175Y246590D01*
X536600Y247316D01*
X538121Y247811D01*
X538977Y247946D01*
X538977Y239423D01*
X530454Y239423D01*
G37*
%LPD*%
%LPC*%
G36*
X542023Y236377D02*
X542023Y236377D01*
X550546Y236377D01*
X550411Y235521D01*
X549916Y234000D01*
X549190Y232575D01*
X548250Y231281D01*
X547119Y230150D01*
X545825Y229210D01*
X544400Y228484D01*
X542879Y227989D01*
X542023Y227854D01*
X542023Y236377D01*
G37*
%LPD*%
%LPC*%
G36*
X161023Y67627D02*
X161023Y67627D01*
X169546Y67627D01*
X169411Y66771D01*
X168916Y65250D01*
X168190Y63825D01*
X167250Y62531D01*
X166119Y61400D01*
X164825Y60460D01*
X163400Y59734D01*
X161879Y59239D01*
X161023Y59104D01*
X161023Y67627D01*
G37*
%LPD*%
%LPC*%
G36*
X19954Y471523D02*
X19954Y471523D01*
X20089Y472379D01*
X20584Y473900D01*
X21310Y475325D01*
X22250Y476619D01*
X23381Y477750D01*
X24675Y478690D01*
X26100Y479416D01*
X27621Y479911D01*
X28477Y480046D01*
X28477Y471523D01*
X19954Y471523D01*
G37*
%LPD*%
%LPC*%
G36*
X636523Y950677D02*
X636523Y950677D01*
X645046Y950677D01*
X644911Y949821D01*
X644416Y948300D01*
X643690Y946875D01*
X642750Y945581D01*
X641619Y944450D01*
X640325Y943510D01*
X638900Y942784D01*
X637379Y942289D01*
X636523Y942154D01*
X636523Y950677D01*
G37*
%LPD*%
%LPC*%
G36*
X606654Y173223D02*
X606654Y173223D01*
X606789Y174079D01*
X607284Y175600D01*
X608010Y177025D01*
X608950Y178319D01*
X610081Y179450D01*
X611375Y180390D01*
X612800Y181116D01*
X614321Y181611D01*
X615177Y181746D01*
X615177Y173223D01*
X606654Y173223D01*
G37*
%LPD*%
%LPC*%
G36*
X636523Y847477D02*
X636523Y847477D01*
X645046Y847477D01*
X644911Y846621D01*
X644416Y845100D01*
X643690Y843675D01*
X642750Y842381D01*
X641619Y841250D01*
X640325Y840310D01*
X638900Y839584D01*
X637379Y839089D01*
X636523Y838954D01*
X636523Y847477D01*
G37*
%LPD*%
%LPC*%
G36*
X618223Y170177D02*
X618223Y170177D01*
X626746Y170177D01*
X626611Y169321D01*
X626116Y167800D01*
X625390Y166375D01*
X624450Y165081D01*
X623319Y163950D01*
X622025Y163010D01*
X620600Y162284D01*
X619079Y161789D01*
X618223Y161654D01*
X618223Y170177D01*
G37*
%LPD*%
%LPC*%
G36*
X225043Y1017017D02*
X225043Y1017017D01*
X233566Y1017017D01*
X233431Y1016161D01*
X232936Y1014640D01*
X232210Y1013215D01*
X231270Y1011921D01*
X230139Y1010790D01*
X228845Y1009850D01*
X227420Y1009124D01*
X225899Y1008629D01*
X225043Y1008494D01*
X225043Y1017017D01*
G37*
%LPD*%
%LPC*%
G36*
X31523Y468477D02*
X31523Y468477D01*
X40046Y468477D01*
X39911Y467621D01*
X39416Y466100D01*
X38690Y464675D01*
X37750Y463381D01*
X36619Y462250D01*
X35325Y461310D01*
X33900Y460584D01*
X32379Y460089D01*
X31523Y459954D01*
X31523Y468477D01*
G37*
%LPD*%
%LPC*%
G36*
X149454Y70673D02*
X149454Y70673D01*
X149589Y71529D01*
X150084Y73050D01*
X150810Y74475D01*
X151750Y75769D01*
X152881Y76900D01*
X154175Y77840D01*
X155600Y78566D01*
X157121Y79061D01*
X157977Y79196D01*
X157977Y70673D01*
X149454Y70673D01*
G37*
%LPD*%
%LPC*%
G36*
X538121Y227989D02*
X538121Y227989D01*
X536600Y228484D01*
X535175Y229210D01*
X533881Y230150D01*
X532750Y231281D01*
X531810Y232575D01*
X531084Y234000D01*
X530589Y235521D01*
X530454Y236377D01*
X538977Y236377D01*
X538977Y227854D01*
X538121Y227989D01*
G37*
%LPD*%
%LPC*%
G36*
X632621Y942289D02*
X632621Y942289D01*
X631100Y942784D01*
X629675Y943510D01*
X628381Y944450D01*
X627250Y945581D01*
X626310Y946875D01*
X625584Y948300D01*
X625089Y949821D01*
X624954Y950677D01*
X633477Y950677D01*
X633477Y942154D01*
X632621Y942289D01*
G37*
%LPD*%
%LPC*%
G36*
X27621Y460089D02*
X27621Y460089D01*
X26100Y460584D01*
X24675Y461310D01*
X23381Y462250D01*
X22250Y463381D01*
X21310Y464675D01*
X20584Y466100D01*
X20089Y467621D01*
X19954Y468477D01*
X28477Y468477D01*
X28477Y459954D01*
X27621Y460089D01*
G37*
%LPD*%
%LPC*%
G36*
X632621Y839089D02*
X632621Y839089D01*
X631100Y839584D01*
X629675Y840310D01*
X628381Y841250D01*
X627250Y842381D01*
X626310Y843675D01*
X625584Y845100D01*
X625089Y846621D01*
X624954Y847477D01*
X633477Y847477D01*
X633477Y838954D01*
X632621Y839089D01*
G37*
%LPD*%
%LPC*%
G36*
X614321Y161789D02*
X614321Y161789D01*
X612800Y162284D01*
X611375Y163010D01*
X610081Y163950D01*
X608950Y165081D01*
X608010Y166375D01*
X607284Y167800D01*
X606789Y169321D01*
X606654Y170177D01*
X615177Y170177D01*
X615177Y161654D01*
X614321Y161789D01*
G37*
%LPD*%
%LPC*%
G36*
X221141Y1008629D02*
X221141Y1008629D01*
X219620Y1009124D01*
X218195Y1009850D01*
X216901Y1010790D01*
X215770Y1011921D01*
X214830Y1013215D01*
X214104Y1014640D01*
X213609Y1016161D01*
X213474Y1017017D01*
X221997Y1017017D01*
X221997Y1008494D01*
X221141Y1008629D01*
G37*
%LPD*%
%LPC*%
G36*
X157121Y59239D02*
X157121Y59239D01*
X155600Y59734D01*
X154175Y60460D01*
X152881Y61400D01*
X151750Y62531D01*
X150810Y63825D01*
X150084Y65250D01*
X149589Y66771D01*
X149454Y67627D01*
X157977Y67627D01*
X157977Y59104D01*
X157121Y59239D01*
G37*
%LPD*%
%LPC*%
G36*
X304977Y38752D02*
X304977Y38752D01*
X304019Y39213D01*
X303851Y39295D01*
X302971Y39996D01*
X302874Y40074D01*
X302095Y41051D01*
X301552Y42177D01*
X301274Y43395D01*
X301274Y46246D01*
X301264Y46310D01*
X301263Y46376D01*
X301240Y46456D01*
X301234Y46488D01*
X301225Y46505D01*
X301216Y46537D01*
X300744Y47677D01*
X300576Y48521D01*
X303816Y48521D01*
X303816Y44020D01*
X303891Y43352D01*
X303892Y43352D01*
X303891Y43351D01*
X304113Y42717D01*
X304114Y42717D01*
X304114Y42716D01*
X304471Y42147D01*
X304472Y42147D01*
X304947Y41672D01*
X304947Y41671D01*
X305516Y41314D01*
X305517Y41314D01*
X305517Y41313D01*
X305821Y41207D01*
X305821Y38560D01*
X304977Y38752D01*
G37*
%LPD*%
%LPC*%
G36*
X505637Y38752D02*
X505637Y38752D01*
X504771Y39169D01*
X504770Y39170D01*
X504511Y39295D01*
X503697Y39944D01*
X503534Y40074D01*
X502755Y41051D01*
X502212Y42177D01*
X501934Y43395D01*
X501934Y46246D01*
X501924Y46310D01*
X501923Y46376D01*
X501900Y46456D01*
X501894Y46488D01*
X501885Y46505D01*
X501876Y46537D01*
X501404Y47677D01*
X501236Y48521D01*
X504476Y48521D01*
X504476Y44020D01*
X504551Y43352D01*
X504552Y43352D01*
X504551Y43351D01*
X504773Y42717D01*
X504774Y42717D01*
X504774Y42716D01*
X505131Y42147D01*
X505132Y42147D01*
X505607Y41672D01*
X505607Y41671D01*
X506176Y41314D01*
X506177Y41314D01*
X506177Y41313D01*
X506481Y41207D01*
X506481Y38560D01*
X505637Y38752D01*
G37*
%LPD*%
%LPC*%
G36*
X419277Y38752D02*
X419277Y38752D01*
X418151Y39295D01*
X417174Y40074D01*
X416395Y41051D01*
X415852Y42177D01*
X415574Y43395D01*
X415574Y46246D01*
X415564Y46310D01*
X415563Y46376D01*
X415540Y46456D01*
X415534Y46488D01*
X415525Y46505D01*
X415516Y46537D01*
X415044Y47677D01*
X414876Y48521D01*
X418116Y48521D01*
X418116Y44020D01*
X418191Y43352D01*
X418192Y43352D01*
X418191Y43351D01*
X418413Y42717D01*
X418414Y42717D01*
X418414Y42716D01*
X418771Y42147D01*
X418772Y42147D01*
X419247Y41672D01*
X419247Y41671D01*
X419816Y41314D01*
X419817Y41314D01*
X419817Y41313D01*
X420121Y41207D01*
X420121Y38560D01*
X419277Y38752D01*
G37*
%LPD*%
%LPC*%
G36*
X391337Y38752D02*
X391337Y38752D01*
X390601Y39107D01*
X390211Y39295D01*
X389496Y39864D01*
X389234Y40074D01*
X388455Y41051D01*
X387912Y42177D01*
X387634Y43395D01*
X387634Y46246D01*
X387624Y46310D01*
X387623Y46376D01*
X387600Y46456D01*
X387594Y46488D01*
X387585Y46505D01*
X387576Y46537D01*
X387104Y47677D01*
X386936Y48521D01*
X390176Y48521D01*
X390176Y44020D01*
X390251Y43352D01*
X390252Y43352D01*
X390251Y43351D01*
X390473Y42717D01*
X390474Y42717D01*
X390474Y42716D01*
X390831Y42147D01*
X390832Y42147D01*
X391307Y41672D01*
X391307Y41671D01*
X391876Y41314D01*
X391877Y41314D01*
X391877Y41313D01*
X392181Y41207D01*
X392181Y38560D01*
X391337Y38752D01*
G37*
%LPD*%
%LPC*%
G36*
X386936Y50519D02*
X386936Y50519D01*
X387104Y51363D01*
X387576Y52503D01*
X387591Y52567D01*
X387616Y52628D01*
X387625Y52711D01*
X387632Y52743D01*
X387631Y52762D01*
X387634Y52794D01*
X387634Y55645D01*
X387912Y56863D01*
X388455Y57989D01*
X389234Y58966D01*
X390211Y59745D01*
X391337Y60288D01*
X392181Y60480D01*
X392181Y57833D01*
X391877Y57727D01*
X391877Y57726D01*
X391876Y57727D01*
X391307Y57369D01*
X391307Y57368D01*
X391307Y57369D01*
X390832Y56893D01*
X390831Y56893D01*
X390474Y56324D01*
X390474Y56323D01*
X390473Y56323D01*
X390251Y55689D01*
X390251Y55688D01*
X390250Y55683D01*
X390250Y55679D01*
X390249Y55670D01*
X390249Y55666D01*
X390248Y55658D01*
X390247Y55653D01*
X390246Y55645D01*
X390246Y55641D01*
X390245Y55632D01*
X390244Y55628D01*
X390243Y55619D01*
X390243Y55615D01*
X390242Y55607D01*
X390241Y55602D01*
X390240Y55594D01*
X390240Y55590D01*
X390239Y55585D01*
X390239Y55581D01*
X390238Y55577D01*
X390238Y55573D01*
X390238Y55568D01*
X390237Y55568D01*
X390238Y55568D01*
X390237Y55564D01*
X390237Y55560D01*
X390236Y55551D01*
X390235Y55547D01*
X390234Y55539D01*
X390234Y55534D01*
X390233Y55526D01*
X390232Y55522D01*
X390231Y55513D01*
X390231Y55509D01*
X390230Y55500D01*
X390229Y55496D01*
X390228Y55488D01*
X390228Y55483D01*
X390227Y55475D01*
X390227Y55471D01*
X390226Y55471D01*
X390227Y55471D01*
X390226Y55462D01*
X390225Y55458D01*
X390224Y55449D01*
X390224Y55445D01*
X390223Y55441D01*
X390223Y55437D01*
X390222Y55432D01*
X390222Y55428D01*
X390221Y55424D01*
X390221Y55420D01*
X390220Y55415D01*
X390219Y55407D01*
X390219Y55403D01*
X390218Y55394D01*
X390217Y55390D01*
X390216Y55381D01*
X390216Y55377D01*
X390215Y55369D01*
X390215Y55364D01*
X390214Y55356D01*
X390213Y55352D01*
X390212Y55343D01*
X390212Y55339D01*
X390211Y55330D01*
X390210Y55326D01*
X390209Y55318D01*
X390209Y55313D01*
X390208Y55305D01*
X390207Y55301D01*
X390206Y55292D01*
X390206Y55288D01*
X390205Y55284D01*
X390205Y55279D01*
X390204Y55275D01*
X390204Y55271D01*
X390204Y55267D01*
X390203Y55267D01*
X390204Y55267D01*
X390203Y55262D01*
X390203Y55258D01*
X390202Y55250D01*
X390201Y55245D01*
X390200Y55237D01*
X390200Y55233D01*
X390199Y55224D01*
X390198Y55220D01*
X390197Y55211D01*
X390197Y55207D01*
X390196Y55199D01*
X390195Y55194D01*
X390194Y55186D01*
X390194Y55182D01*
X390193Y55173D01*
X390193Y55169D01*
X390192Y55169D01*
X390193Y55169D01*
X390192Y55160D01*
X390191Y55156D01*
X390190Y55148D01*
X390190Y55143D01*
X390189Y55135D01*
X390188Y55131D01*
X390188Y55126D01*
X390187Y55122D01*
X390187Y55118D01*
X390186Y55114D01*
X390185Y55105D01*
X390185Y55101D01*
X390184Y55092D01*
X390183Y55088D01*
X390182Y55080D01*
X390182Y55075D01*
X390181Y55067D01*
X390181Y55063D01*
X390180Y55054D01*
X390179Y55050D01*
X390178Y55041D01*
X390178Y55037D01*
X390177Y55029D01*
X390176Y55024D01*
X390176Y55020D01*
X390176Y50519D01*
X386936Y50519D01*
G37*
%LPD*%
%LPC*%
G36*
X414876Y50519D02*
X414876Y50519D01*
X415044Y51363D01*
X415516Y52503D01*
X415531Y52567D01*
X415556Y52628D01*
X415565Y52711D01*
X415572Y52743D01*
X415571Y52762D01*
X415574Y52794D01*
X415574Y55645D01*
X415852Y56863D01*
X416395Y57989D01*
X417174Y58966D01*
X418151Y59745D01*
X419277Y60288D01*
X420121Y60480D01*
X420121Y57833D01*
X419817Y57727D01*
X419817Y57726D01*
X419816Y57727D01*
X419247Y57369D01*
X419247Y57368D01*
X419247Y57369D01*
X418772Y56893D01*
X418771Y56893D01*
X418414Y56324D01*
X418414Y56323D01*
X418413Y56323D01*
X418191Y55689D01*
X418191Y55688D01*
X418190Y55683D01*
X418190Y55679D01*
X418189Y55670D01*
X418189Y55666D01*
X418188Y55658D01*
X418187Y55653D01*
X418186Y55645D01*
X418186Y55641D01*
X418185Y55632D01*
X418184Y55628D01*
X418183Y55619D01*
X418183Y55615D01*
X418182Y55607D01*
X418181Y55602D01*
X418180Y55594D01*
X418180Y55590D01*
X418179Y55585D01*
X418179Y55581D01*
X418178Y55577D01*
X418178Y55573D01*
X418178Y55568D01*
X418177Y55568D01*
X418178Y55568D01*
X418177Y55564D01*
X418177Y55560D01*
X418176Y55551D01*
X418175Y55547D01*
X418174Y55539D01*
X418174Y55534D01*
X418173Y55526D01*
X418172Y55522D01*
X418171Y55513D01*
X418171Y55509D01*
X418170Y55500D01*
X418169Y55496D01*
X418168Y55488D01*
X418168Y55483D01*
X418167Y55475D01*
X418167Y55471D01*
X418166Y55471D01*
X418167Y55471D01*
X418166Y55462D01*
X418165Y55458D01*
X418164Y55449D01*
X418164Y55445D01*
X418163Y55441D01*
X418163Y55437D01*
X418162Y55432D01*
X418162Y55428D01*
X418161Y55424D01*
X418161Y55420D01*
X418160Y55415D01*
X418159Y55407D01*
X418159Y55403D01*
X418158Y55394D01*
X418157Y55390D01*
X418156Y55381D01*
X418156Y55377D01*
X418155Y55369D01*
X418155Y55364D01*
X418154Y55356D01*
X418153Y55352D01*
X418152Y55343D01*
X418152Y55339D01*
X418151Y55330D01*
X418150Y55326D01*
X418149Y55318D01*
X418149Y55313D01*
X418148Y55305D01*
X418147Y55301D01*
X418146Y55292D01*
X418146Y55288D01*
X418145Y55284D01*
X418145Y55279D01*
X418144Y55275D01*
X418144Y55271D01*
X418144Y55267D01*
X418143Y55267D01*
X418144Y55267D01*
X418143Y55262D01*
X418143Y55258D01*
X418142Y55250D01*
X418141Y55245D01*
X418140Y55237D01*
X418140Y55233D01*
X418139Y55224D01*
X418138Y55220D01*
X418137Y55211D01*
X418137Y55207D01*
X418136Y55199D01*
X418135Y55194D01*
X418134Y55186D01*
X418134Y55182D01*
X418133Y55173D01*
X418133Y55169D01*
X418132Y55169D01*
X418133Y55169D01*
X418132Y55160D01*
X418131Y55156D01*
X418130Y55148D01*
X418130Y55143D01*
X418129Y55135D01*
X418128Y55131D01*
X418128Y55126D01*
X418127Y55122D01*
X418127Y55118D01*
X418126Y55114D01*
X418125Y55105D01*
X418125Y55101D01*
X418124Y55092D01*
X418123Y55088D01*
X418122Y55080D01*
X418122Y55075D01*
X418121Y55067D01*
X418121Y55063D01*
X418120Y55054D01*
X418119Y55050D01*
X418118Y55041D01*
X418118Y55037D01*
X418117Y55029D01*
X418116Y55024D01*
X418116Y55020D01*
X418116Y50519D01*
X414876Y50519D01*
G37*
%LPD*%
%LPC*%
G36*
X501236Y50519D02*
X501236Y50519D01*
X501404Y51363D01*
X501876Y52503D01*
X501891Y52567D01*
X501916Y52628D01*
X501925Y52711D01*
X501932Y52743D01*
X501931Y52762D01*
X501934Y52794D01*
X501934Y55645D01*
X502212Y56863D01*
X502755Y57989D01*
X503534Y58966D01*
X504511Y59745D01*
X505637Y60288D01*
X506481Y60480D01*
X506481Y57833D01*
X506177Y57727D01*
X506177Y57726D01*
X506176Y57727D01*
X505607Y57369D01*
X505607Y57368D01*
X505607Y57369D01*
X505132Y56893D01*
X505131Y56893D01*
X504774Y56324D01*
X504774Y56323D01*
X504773Y56323D01*
X504551Y55689D01*
X504551Y55688D01*
X504550Y55683D01*
X504550Y55679D01*
X504549Y55670D01*
X504549Y55666D01*
X504548Y55658D01*
X504547Y55653D01*
X504546Y55645D01*
X504546Y55641D01*
X504545Y55632D01*
X504544Y55628D01*
X504543Y55619D01*
X504543Y55615D01*
X504542Y55607D01*
X504541Y55602D01*
X504540Y55594D01*
X504540Y55590D01*
X504539Y55585D01*
X504539Y55581D01*
X504538Y55577D01*
X504538Y55573D01*
X504538Y55568D01*
X504537Y55568D01*
X504538Y55568D01*
X504537Y55564D01*
X504537Y55560D01*
X504536Y55551D01*
X504535Y55547D01*
X504534Y55539D01*
X504534Y55534D01*
X504533Y55526D01*
X504532Y55522D01*
X504531Y55513D01*
X504531Y55509D01*
X504530Y55500D01*
X504529Y55496D01*
X504528Y55488D01*
X504528Y55483D01*
X504527Y55475D01*
X504527Y55471D01*
X504526Y55471D01*
X504527Y55471D01*
X504526Y55462D01*
X504525Y55458D01*
X504524Y55449D01*
X504524Y55445D01*
X504523Y55441D01*
X504523Y55437D01*
X504522Y55432D01*
X504522Y55428D01*
X504521Y55424D01*
X504521Y55420D01*
X504520Y55415D01*
X504519Y55407D01*
X504519Y55403D01*
X504518Y55394D01*
X504517Y55390D01*
X504516Y55381D01*
X504516Y55377D01*
X504515Y55369D01*
X504515Y55364D01*
X504514Y55356D01*
X504513Y55352D01*
X504512Y55343D01*
X504512Y55339D01*
X504511Y55330D01*
X504510Y55326D01*
X504509Y55318D01*
X504509Y55313D01*
X504508Y55305D01*
X504507Y55301D01*
X504506Y55292D01*
X504506Y55288D01*
X504505Y55284D01*
X504505Y55279D01*
X504504Y55275D01*
X504504Y55271D01*
X504504Y55267D01*
X504503Y55267D01*
X504504Y55267D01*
X504503Y55262D01*
X504503Y55258D01*
X504502Y55250D01*
X504501Y55245D01*
X504500Y55237D01*
X504500Y55233D01*
X504499Y55224D01*
X504498Y55220D01*
X504497Y55211D01*
X504497Y55207D01*
X504496Y55199D01*
X504495Y55194D01*
X504494Y55186D01*
X504494Y55182D01*
X504493Y55173D01*
X504493Y55169D01*
X504492Y55169D01*
X504493Y55169D01*
X504492Y55160D01*
X504491Y55156D01*
X504490Y55148D01*
X504490Y55143D01*
X504489Y55135D01*
X504488Y55131D01*
X504488Y55126D01*
X504487Y55122D01*
X504487Y55118D01*
X504486Y55114D01*
X504485Y55105D01*
X504485Y55101D01*
X504484Y55092D01*
X504483Y55088D01*
X504482Y55080D01*
X504482Y55075D01*
X504481Y55067D01*
X504481Y55063D01*
X504480Y55054D01*
X504479Y55050D01*
X504478Y55041D01*
X504478Y55037D01*
X504477Y55029D01*
X504476Y55024D01*
X504476Y55020D01*
X504476Y50519D01*
X501236Y50519D01*
G37*
%LPD*%
%LPC*%
G36*
X300576Y50519D02*
X300576Y50519D01*
X300744Y51363D01*
X301216Y52503D01*
X301231Y52567D01*
X301256Y52628D01*
X301265Y52711D01*
X301272Y52743D01*
X301271Y52762D01*
X301274Y52794D01*
X301274Y55645D01*
X301552Y56863D01*
X302095Y57989D01*
X302874Y58966D01*
X303851Y59745D01*
X304977Y60288D01*
X305821Y60480D01*
X305821Y57833D01*
X305517Y57727D01*
X305517Y57726D01*
X305516Y57727D01*
X304947Y57369D01*
X304947Y57368D01*
X304947Y57369D01*
X304472Y56893D01*
X304471Y56893D01*
X304114Y56324D01*
X304114Y56323D01*
X304113Y56323D01*
X303891Y55689D01*
X303891Y55688D01*
X303890Y55683D01*
X303890Y55679D01*
X303889Y55670D01*
X303889Y55666D01*
X303888Y55658D01*
X303887Y55653D01*
X303886Y55645D01*
X303886Y55641D01*
X303885Y55632D01*
X303884Y55628D01*
X303883Y55619D01*
X303883Y55615D01*
X303882Y55607D01*
X303881Y55602D01*
X303880Y55594D01*
X303880Y55590D01*
X303879Y55585D01*
X303879Y55581D01*
X303878Y55577D01*
X303878Y55573D01*
X303878Y55568D01*
X303877Y55568D01*
X303878Y55568D01*
X303877Y55564D01*
X303877Y55560D01*
X303876Y55551D01*
X303875Y55547D01*
X303874Y55539D01*
X303874Y55534D01*
X303873Y55526D01*
X303872Y55522D01*
X303871Y55513D01*
X303871Y55509D01*
X303870Y55500D01*
X303869Y55496D01*
X303868Y55488D01*
X303868Y55483D01*
X303867Y55475D01*
X303867Y55471D01*
X303866Y55471D01*
X303867Y55471D01*
X303866Y55462D01*
X303865Y55458D01*
X303864Y55449D01*
X303864Y55445D01*
X303863Y55441D01*
X303863Y55437D01*
X303862Y55432D01*
X303862Y55428D01*
X303861Y55424D01*
X303861Y55420D01*
X303860Y55415D01*
X303859Y55407D01*
X303859Y55403D01*
X303858Y55394D01*
X303857Y55390D01*
X303856Y55381D01*
X303856Y55377D01*
X303855Y55369D01*
X303855Y55364D01*
X303854Y55356D01*
X303853Y55352D01*
X303852Y55343D01*
X303852Y55339D01*
X303851Y55330D01*
X303850Y55326D01*
X303849Y55318D01*
X303849Y55313D01*
X303848Y55305D01*
X303847Y55301D01*
X303846Y55292D01*
X303846Y55288D01*
X303845Y55284D01*
X303845Y55279D01*
X303844Y55275D01*
X303844Y55271D01*
X303844Y55267D01*
X303843Y55267D01*
X303844Y55267D01*
X303843Y55262D01*
X303843Y55258D01*
X303842Y55250D01*
X303841Y55245D01*
X303840Y55237D01*
X303840Y55233D01*
X303839Y55224D01*
X303838Y55220D01*
X303837Y55211D01*
X303837Y55207D01*
X303836Y55199D01*
X303835Y55194D01*
X303834Y55186D01*
X303834Y55182D01*
X303833Y55173D01*
X303833Y55169D01*
X303832Y55169D01*
X303833Y55169D01*
X303832Y55160D01*
X303831Y55156D01*
X303830Y55148D01*
X303830Y55143D01*
X303829Y55135D01*
X303828Y55131D01*
X303828Y55126D01*
X303827Y55122D01*
X303827Y55118D01*
X303826Y55114D01*
X303825Y55105D01*
X303825Y55101D01*
X303824Y55092D01*
X303823Y55088D01*
X303822Y55080D01*
X303822Y55075D01*
X303821Y55067D01*
X303821Y55063D01*
X303820Y55054D01*
X303819Y55050D01*
X303818Y55041D01*
X303818Y55037D01*
X303817Y55029D01*
X303816Y55024D01*
X303816Y55020D01*
X303816Y50519D01*
X300576Y50519D01*
G37*
%LPD*%
%LPC*%
G36*
X422119Y41207D02*
X422119Y41207D01*
X422423Y41313D01*
X422423Y41314D01*
X422424Y41314D01*
X422993Y41671D01*
X422993Y41672D01*
X423469Y42147D01*
X423827Y42716D01*
X423826Y42717D01*
X423827Y42717D01*
X424049Y43351D01*
X424049Y43352D01*
X424050Y43357D01*
X424050Y43361D01*
X424051Y43370D01*
X424051Y43374D01*
X424052Y43374D01*
X424051Y43374D01*
X424052Y43382D01*
X424052Y43383D01*
X424053Y43387D01*
X424054Y43395D01*
X424054Y43399D01*
X424054Y43400D01*
X424055Y43408D01*
X424056Y43412D01*
X424057Y43421D01*
X424057Y43425D01*
X424058Y43433D01*
X424058Y43434D01*
X424059Y43438D01*
X424060Y43446D01*
X424060Y43450D01*
X424060Y43451D01*
X424061Y43455D01*
X424061Y43459D01*
X424062Y43463D01*
X424062Y43467D01*
X424062Y43468D01*
X424063Y43472D01*
X424063Y43476D01*
X424063Y43480D01*
X424064Y43489D01*
X424065Y43493D01*
X424066Y43501D01*
X424066Y43502D01*
X424066Y43506D01*
X424067Y43514D01*
X424068Y43518D01*
X424068Y43519D01*
X424069Y43527D01*
X424069Y43531D01*
X424070Y43540D01*
X424071Y43544D01*
X424072Y43552D01*
X424072Y43553D01*
X424072Y43557D01*
X424073Y43565D01*
X424074Y43569D01*
X424074Y43570D01*
X424074Y43578D01*
X424075Y43578D01*
X424074Y43578D01*
X424075Y43582D01*
X424076Y43591D01*
X424076Y43595D01*
X424077Y43599D01*
X424077Y43603D01*
X424077Y43604D01*
X424078Y43608D01*
X424078Y43612D01*
X424079Y43616D01*
X424079Y43620D01*
X424079Y43621D01*
X424080Y43625D01*
X424081Y43633D01*
X424081Y43637D01*
X424081Y43638D01*
X424082Y43646D01*
X424083Y43650D01*
X424084Y43659D01*
X424084Y43663D01*
X424085Y43671D01*
X424085Y43672D01*
X424085Y43676D01*
X424086Y43676D01*
X424085Y43676D01*
X424086Y43684D01*
X424087Y43688D01*
X424087Y43689D01*
X424088Y43697D01*
X424088Y43701D01*
X424089Y43710D01*
X424090Y43714D01*
X424091Y43722D01*
X424091Y43723D01*
X424091Y43727D01*
X424092Y43735D01*
X424093Y43739D01*
X424093Y43740D01*
X424094Y43748D01*
X424094Y43752D01*
X424095Y43756D01*
X424095Y43757D01*
X424095Y43761D01*
X424096Y43765D01*
X424096Y43769D01*
X424097Y43773D01*
X424097Y43774D01*
X424097Y43778D01*
X424097Y43782D01*
X424098Y43790D01*
X424098Y43791D01*
X424099Y43795D01*
X424100Y43803D01*
X424100Y43807D01*
X424100Y43808D01*
X424101Y43816D01*
X424102Y43820D01*
X424103Y43829D01*
X424103Y43833D01*
X424104Y43841D01*
X424104Y43842D01*
X424105Y43846D01*
X424106Y43854D01*
X424106Y43858D01*
X424106Y43859D01*
X424107Y43867D01*
X424108Y43871D01*
X424108Y43880D01*
X424109Y43880D01*
X424108Y43880D01*
X424109Y43884D01*
X424110Y43892D01*
X424110Y43893D01*
X424110Y43897D01*
X424111Y43905D01*
X424112Y43909D01*
X424112Y43910D01*
X424112Y43914D01*
X424113Y43918D01*
X424113Y43922D01*
X424114Y43926D01*
X424114Y43927D01*
X424115Y43935D01*
X424115Y43939D01*
X424116Y43948D01*
X424117Y43952D01*
X424118Y43960D01*
X424118Y43961D01*
X424118Y43965D01*
X424119Y43973D01*
X424119Y43977D01*
X424120Y43977D01*
X424119Y43978D01*
X424120Y43986D01*
X424121Y43990D01*
X424122Y43999D01*
X424122Y44003D01*
X424123Y44011D01*
X424123Y44012D01*
X424124Y44016D01*
X424124Y44020D01*
X424124Y48521D01*
X427364Y48521D01*
X427196Y47677D01*
X426724Y46537D01*
X426709Y46473D01*
X426684Y46412D01*
X426675Y46329D01*
X426668Y46297D01*
X426669Y46278D01*
X426666Y46245D01*
X426666Y43395D01*
X426388Y42177D01*
X425845Y41051D01*
X425316Y40387D01*
X425066Y40074D01*
X424089Y39295D01*
X422963Y38752D01*
X422119Y38560D01*
X422119Y41207D01*
G37*
%LPD*%
%LPC*%
G36*
X307819Y41207D02*
X307819Y41207D01*
X308123Y41313D01*
X308123Y41314D01*
X308124Y41314D01*
X308693Y41671D01*
X308693Y41672D01*
X309169Y42147D01*
X309527Y42716D01*
X309526Y42717D01*
X309527Y42717D01*
X309749Y43351D01*
X309749Y43352D01*
X309750Y43357D01*
X309750Y43361D01*
X309751Y43370D01*
X309751Y43374D01*
X309752Y43374D01*
X309751Y43374D01*
X309752Y43382D01*
X309752Y43383D01*
X309753Y43387D01*
X309754Y43395D01*
X309754Y43399D01*
X309754Y43400D01*
X309755Y43408D01*
X309756Y43412D01*
X309757Y43421D01*
X309757Y43425D01*
X309758Y43433D01*
X309758Y43434D01*
X309759Y43438D01*
X309760Y43446D01*
X309760Y43450D01*
X309760Y43451D01*
X309761Y43455D01*
X309761Y43459D01*
X309762Y43463D01*
X309762Y43467D01*
X309762Y43468D01*
X309763Y43472D01*
X309763Y43476D01*
X309763Y43480D01*
X309764Y43489D01*
X309765Y43493D01*
X309766Y43501D01*
X309766Y43502D01*
X309766Y43506D01*
X309767Y43514D01*
X309768Y43518D01*
X309768Y43519D01*
X309769Y43527D01*
X309769Y43531D01*
X309770Y43540D01*
X309771Y43544D01*
X309772Y43552D01*
X309772Y43553D01*
X309772Y43557D01*
X309773Y43565D01*
X309774Y43569D01*
X309774Y43570D01*
X309774Y43578D01*
X309775Y43578D01*
X309774Y43578D01*
X309775Y43582D01*
X309776Y43591D01*
X309776Y43595D01*
X309777Y43599D01*
X309777Y43603D01*
X309777Y43604D01*
X309778Y43608D01*
X309778Y43612D01*
X309779Y43616D01*
X309779Y43620D01*
X309779Y43621D01*
X309780Y43625D01*
X309781Y43633D01*
X309781Y43637D01*
X309781Y43638D01*
X309782Y43646D01*
X309783Y43650D01*
X309784Y43659D01*
X309784Y43663D01*
X309785Y43671D01*
X309785Y43672D01*
X309785Y43676D01*
X309786Y43676D01*
X309785Y43676D01*
X309786Y43684D01*
X309787Y43688D01*
X309787Y43689D01*
X309788Y43697D01*
X309788Y43701D01*
X309789Y43710D01*
X309790Y43714D01*
X309791Y43722D01*
X309791Y43723D01*
X309791Y43727D01*
X309792Y43735D01*
X309793Y43739D01*
X309793Y43740D01*
X309794Y43748D01*
X309794Y43752D01*
X309795Y43756D01*
X309795Y43757D01*
X309795Y43761D01*
X309796Y43765D01*
X309796Y43769D01*
X309797Y43773D01*
X309797Y43774D01*
X309797Y43778D01*
X309797Y43782D01*
X309798Y43790D01*
X309798Y43791D01*
X309799Y43795D01*
X309800Y43803D01*
X309800Y43807D01*
X309800Y43808D01*
X309801Y43816D01*
X309802Y43820D01*
X309803Y43829D01*
X309803Y43833D01*
X309804Y43841D01*
X309804Y43842D01*
X309805Y43846D01*
X309806Y43854D01*
X309806Y43858D01*
X309806Y43859D01*
X309807Y43867D01*
X309808Y43871D01*
X309808Y43880D01*
X309809Y43880D01*
X309808Y43880D01*
X309809Y43884D01*
X309810Y43892D01*
X309810Y43893D01*
X309810Y43897D01*
X309811Y43905D01*
X309812Y43909D01*
X309812Y43910D01*
X309812Y43914D01*
X309813Y43918D01*
X309813Y43922D01*
X309814Y43926D01*
X309814Y43927D01*
X309815Y43935D01*
X309815Y43939D01*
X309816Y43948D01*
X309817Y43952D01*
X309818Y43960D01*
X309818Y43961D01*
X309818Y43965D01*
X309819Y43973D01*
X309819Y43977D01*
X309820Y43977D01*
X309819Y43978D01*
X309820Y43986D01*
X309821Y43990D01*
X309822Y43999D01*
X309822Y44003D01*
X309823Y44011D01*
X309823Y44012D01*
X309824Y44016D01*
X309824Y44020D01*
X309824Y48521D01*
X313064Y48521D01*
X312896Y47677D01*
X312424Y46537D01*
X312409Y46473D01*
X312384Y46412D01*
X312375Y46329D01*
X312368Y46297D01*
X312369Y46278D01*
X312366Y46245D01*
X312366Y43395D01*
X312088Y42177D01*
X311545Y41051D01*
X310767Y40075D01*
X310766Y40074D01*
X309789Y39295D01*
X308663Y38752D01*
X307819Y38560D01*
X307819Y41207D01*
G37*
%LPD*%
%LPC*%
G36*
X394179Y41207D02*
X394179Y41207D01*
X394483Y41313D01*
X394483Y41314D01*
X394484Y41314D01*
X395053Y41671D01*
X395053Y41672D01*
X395529Y42147D01*
X395887Y42716D01*
X395886Y42717D01*
X395887Y42717D01*
X396109Y43351D01*
X396109Y43352D01*
X396110Y43357D01*
X396110Y43361D01*
X396111Y43370D01*
X396111Y43374D01*
X396112Y43374D01*
X396111Y43374D01*
X396112Y43382D01*
X396112Y43383D01*
X396113Y43387D01*
X396114Y43395D01*
X396114Y43399D01*
X396114Y43400D01*
X396115Y43408D01*
X396116Y43412D01*
X396117Y43421D01*
X396117Y43425D01*
X396118Y43433D01*
X396118Y43434D01*
X396119Y43438D01*
X396120Y43446D01*
X396120Y43450D01*
X396120Y43451D01*
X396121Y43455D01*
X396121Y43459D01*
X396122Y43463D01*
X396122Y43467D01*
X396122Y43468D01*
X396123Y43472D01*
X396123Y43476D01*
X396123Y43480D01*
X396124Y43489D01*
X396125Y43493D01*
X396126Y43501D01*
X396126Y43502D01*
X396126Y43506D01*
X396127Y43514D01*
X396128Y43518D01*
X396128Y43519D01*
X396129Y43527D01*
X396129Y43531D01*
X396130Y43540D01*
X396131Y43544D01*
X396132Y43552D01*
X396132Y43553D01*
X396132Y43557D01*
X396133Y43565D01*
X396134Y43569D01*
X396134Y43570D01*
X396134Y43578D01*
X396135Y43578D01*
X396134Y43578D01*
X396135Y43582D01*
X396136Y43591D01*
X396136Y43595D01*
X396137Y43599D01*
X396137Y43603D01*
X396137Y43604D01*
X396138Y43608D01*
X396138Y43612D01*
X396139Y43616D01*
X396139Y43620D01*
X396139Y43621D01*
X396140Y43625D01*
X396141Y43633D01*
X396141Y43637D01*
X396141Y43638D01*
X396142Y43646D01*
X396143Y43650D01*
X396144Y43659D01*
X396144Y43663D01*
X396145Y43671D01*
X396145Y43672D01*
X396145Y43676D01*
X396146Y43676D01*
X396145Y43676D01*
X396146Y43684D01*
X396147Y43688D01*
X396147Y43689D01*
X396148Y43697D01*
X396148Y43701D01*
X396149Y43710D01*
X396150Y43714D01*
X396151Y43722D01*
X396151Y43723D01*
X396151Y43727D01*
X396152Y43735D01*
X396153Y43739D01*
X396153Y43740D01*
X396154Y43748D01*
X396154Y43752D01*
X396155Y43756D01*
X396155Y43757D01*
X396155Y43761D01*
X396156Y43765D01*
X396156Y43769D01*
X396157Y43773D01*
X396157Y43774D01*
X396157Y43778D01*
X396157Y43782D01*
X396158Y43790D01*
X396158Y43791D01*
X396159Y43795D01*
X396160Y43803D01*
X396160Y43807D01*
X396160Y43808D01*
X396161Y43816D01*
X396162Y43820D01*
X396163Y43829D01*
X396163Y43833D01*
X396164Y43841D01*
X396164Y43842D01*
X396165Y43846D01*
X396166Y43854D01*
X396166Y43858D01*
X396166Y43859D01*
X396167Y43867D01*
X396168Y43871D01*
X396168Y43880D01*
X396169Y43880D01*
X396168Y43880D01*
X396169Y43884D01*
X396170Y43892D01*
X396170Y43893D01*
X396170Y43897D01*
X396171Y43905D01*
X396172Y43909D01*
X396172Y43910D01*
X396172Y43914D01*
X396173Y43918D01*
X396173Y43922D01*
X396174Y43926D01*
X396174Y43927D01*
X396175Y43935D01*
X396175Y43939D01*
X396176Y43948D01*
X396177Y43952D01*
X396178Y43960D01*
X396178Y43961D01*
X396178Y43965D01*
X396179Y43973D01*
X396179Y43977D01*
X396180Y43977D01*
X396179Y43978D01*
X396180Y43986D01*
X396181Y43990D01*
X396182Y43999D01*
X396182Y44003D01*
X396183Y44011D01*
X396183Y44012D01*
X396184Y44016D01*
X396184Y44020D01*
X396184Y48521D01*
X399424Y48521D01*
X399256Y47677D01*
X398784Y46537D01*
X398769Y46473D01*
X398744Y46412D01*
X398735Y46329D01*
X398728Y46297D01*
X398729Y46278D01*
X398726Y46245D01*
X398726Y43395D01*
X398448Y42177D01*
X397905Y41051D01*
X397277Y40262D01*
X397276Y40262D01*
X397126Y40074D01*
X396149Y39295D01*
X395023Y38752D01*
X394179Y38560D01*
X394179Y41207D01*
G37*
%LPD*%
%LPC*%
G36*
X508479Y41207D02*
X508479Y41207D01*
X508783Y41313D01*
X508783Y41314D01*
X508784Y41314D01*
X509353Y41671D01*
X509353Y41672D01*
X509829Y42147D01*
X510187Y42716D01*
X510186Y42717D01*
X510187Y42717D01*
X510409Y43351D01*
X510409Y43352D01*
X510410Y43357D01*
X510410Y43361D01*
X510411Y43370D01*
X510411Y43374D01*
X510412Y43374D01*
X510411Y43374D01*
X510412Y43382D01*
X510412Y43383D01*
X510413Y43387D01*
X510414Y43395D01*
X510414Y43399D01*
X510414Y43400D01*
X510415Y43408D01*
X510416Y43412D01*
X510417Y43421D01*
X510417Y43425D01*
X510418Y43433D01*
X510418Y43434D01*
X510419Y43438D01*
X510420Y43446D01*
X510420Y43450D01*
X510420Y43451D01*
X510421Y43455D01*
X510421Y43459D01*
X510422Y43463D01*
X510422Y43467D01*
X510422Y43468D01*
X510423Y43472D01*
X510423Y43476D01*
X510423Y43480D01*
X510424Y43489D01*
X510425Y43493D01*
X510426Y43501D01*
X510426Y43502D01*
X510426Y43506D01*
X510427Y43514D01*
X510428Y43518D01*
X510428Y43519D01*
X510429Y43527D01*
X510429Y43531D01*
X510430Y43540D01*
X510431Y43544D01*
X510432Y43552D01*
X510432Y43553D01*
X510432Y43557D01*
X510433Y43565D01*
X510434Y43569D01*
X510434Y43570D01*
X510434Y43578D01*
X510435Y43578D01*
X510434Y43578D01*
X510435Y43582D01*
X510436Y43591D01*
X510436Y43595D01*
X510437Y43599D01*
X510437Y43603D01*
X510437Y43604D01*
X510438Y43608D01*
X510438Y43612D01*
X510439Y43616D01*
X510439Y43620D01*
X510439Y43621D01*
X510440Y43625D01*
X510441Y43633D01*
X510441Y43637D01*
X510441Y43638D01*
X510442Y43646D01*
X510443Y43650D01*
X510444Y43659D01*
X510444Y43663D01*
X510445Y43671D01*
X510445Y43672D01*
X510445Y43676D01*
X510446Y43676D01*
X510445Y43676D01*
X510446Y43684D01*
X510447Y43688D01*
X510447Y43689D01*
X510448Y43697D01*
X510448Y43701D01*
X510449Y43710D01*
X510450Y43714D01*
X510451Y43722D01*
X510451Y43723D01*
X510451Y43727D01*
X510452Y43735D01*
X510453Y43739D01*
X510453Y43740D01*
X510454Y43748D01*
X510454Y43752D01*
X510455Y43756D01*
X510455Y43757D01*
X510455Y43761D01*
X510456Y43765D01*
X510456Y43769D01*
X510457Y43773D01*
X510457Y43774D01*
X510457Y43778D01*
X510457Y43782D01*
X510458Y43790D01*
X510458Y43791D01*
X510459Y43795D01*
X510460Y43803D01*
X510460Y43807D01*
X510460Y43808D01*
X510461Y43816D01*
X510462Y43820D01*
X510463Y43829D01*
X510463Y43833D01*
X510464Y43841D01*
X510464Y43842D01*
X510465Y43846D01*
X510466Y43854D01*
X510466Y43858D01*
X510466Y43859D01*
X510467Y43867D01*
X510468Y43871D01*
X510468Y43880D01*
X510469Y43880D01*
X510468Y43880D01*
X510469Y43884D01*
X510470Y43892D01*
X510470Y43893D01*
X510470Y43897D01*
X510471Y43905D01*
X510472Y43909D01*
X510472Y43910D01*
X510472Y43914D01*
X510473Y43918D01*
X510473Y43922D01*
X510474Y43926D01*
X510474Y43927D01*
X510475Y43935D01*
X510475Y43939D01*
X510476Y43948D01*
X510477Y43952D01*
X510478Y43960D01*
X510478Y43961D01*
X510478Y43965D01*
X510479Y43973D01*
X510479Y43977D01*
X510480Y43977D01*
X510479Y43978D01*
X510480Y43986D01*
X510481Y43990D01*
X510482Y43999D01*
X510482Y44003D01*
X510483Y44011D01*
X510483Y44012D01*
X510484Y44016D01*
X510484Y44020D01*
X510484Y48521D01*
X513724Y48521D01*
X513556Y47677D01*
X513084Y46537D01*
X513069Y46473D01*
X513044Y46412D01*
X513035Y46329D01*
X513028Y46297D01*
X513029Y46278D01*
X513026Y46245D01*
X513026Y43395D01*
X512748Y42177D01*
X512205Y41051D01*
X511487Y40150D01*
X511426Y40074D01*
X510449Y39295D01*
X509323Y38752D01*
X508479Y38560D01*
X508479Y41207D01*
G37*
%LPD*%
%LPC*%
G36*
X424124Y50519D02*
X424124Y50519D01*
X424124Y55020D01*
X424049Y55688D01*
X424049Y55689D01*
X423827Y56323D01*
X423826Y56323D01*
X423827Y56324D01*
X423469Y56893D01*
X423468Y56893D01*
X423469Y56893D01*
X422993Y57369D01*
X422424Y57727D01*
X422423Y57726D01*
X422423Y57727D01*
X422119Y57833D01*
X422119Y60480D01*
X422963Y60288D01*
X424089Y59745D01*
X425066Y58966D01*
X425845Y57989D01*
X426388Y56863D01*
X426666Y55645D01*
X426666Y52794D01*
X426676Y52730D01*
X426677Y52664D01*
X426700Y52584D01*
X426705Y52552D01*
X426715Y52535D01*
X426724Y52503D01*
X427196Y51363D01*
X427364Y50519D01*
X424124Y50519D01*
G37*
%LPD*%
%LPC*%
G36*
X396184Y50519D02*
X396184Y50519D01*
X396184Y55020D01*
X396109Y55688D01*
X396109Y55689D01*
X395887Y56323D01*
X395886Y56323D01*
X395887Y56324D01*
X395529Y56893D01*
X395528Y56893D01*
X395529Y56893D01*
X395053Y57369D01*
X394484Y57727D01*
X394483Y57726D01*
X394483Y57727D01*
X394179Y57833D01*
X394179Y60480D01*
X395023Y60288D01*
X396149Y59745D01*
X397126Y58966D01*
X397905Y57989D01*
X398448Y56863D01*
X398726Y55645D01*
X398726Y52794D01*
X398736Y52730D01*
X398737Y52664D01*
X398760Y52584D01*
X398765Y52552D01*
X398775Y52535D01*
X398784Y52503D01*
X399256Y51363D01*
X399424Y50519D01*
X396184Y50519D01*
G37*
%LPD*%
%LPC*%
G36*
X510484Y50519D02*
X510484Y50519D01*
X510484Y55020D01*
X510409Y55688D01*
X510409Y55689D01*
X510187Y56323D01*
X510186Y56323D01*
X510187Y56324D01*
X509829Y56893D01*
X509828Y56893D01*
X509829Y56893D01*
X509353Y57369D01*
X508784Y57727D01*
X508783Y57726D01*
X508783Y57727D01*
X508479Y57833D01*
X508479Y60480D01*
X509323Y60288D01*
X510449Y59745D01*
X511426Y58966D01*
X512205Y57989D01*
X512748Y56863D01*
X513026Y55645D01*
X513026Y52794D01*
X513036Y52730D01*
X513037Y52664D01*
X513060Y52584D01*
X513065Y52552D01*
X513075Y52535D01*
X513084Y52503D01*
X513556Y51363D01*
X513724Y50519D01*
X510484Y50519D01*
G37*
%LPD*%
%LPC*%
G36*
X309824Y50519D02*
X309824Y50519D01*
X309824Y55020D01*
X309749Y55688D01*
X309749Y55689D01*
X309527Y56323D01*
X309526Y56323D01*
X309527Y56324D01*
X309169Y56893D01*
X309168Y56893D01*
X309169Y56893D01*
X308693Y57369D01*
X308124Y57727D01*
X308123Y57726D01*
X308123Y57727D01*
X307819Y57833D01*
X307819Y60480D01*
X308663Y60288D01*
X309789Y59745D01*
X310766Y58966D01*
X311545Y57989D01*
X312088Y56863D01*
X312366Y55645D01*
X312366Y52794D01*
X312376Y52730D01*
X312377Y52664D01*
X312400Y52584D01*
X312405Y52552D01*
X312415Y52535D01*
X312424Y52503D01*
X312896Y51363D01*
X313064Y50519D01*
X309824Y50519D01*
G37*
%LPD*%
%LPC*%
G36*
X501236Y8719D02*
X501236Y8719D01*
X501404Y9563D01*
X501876Y10703D01*
X501891Y10767D01*
X501916Y10828D01*
X501925Y10911D01*
X501932Y10943D01*
X501931Y10962D01*
X501934Y10994D01*
X501934Y11495D01*
X502212Y12713D01*
X502755Y13839D01*
X503534Y14816D01*
X504511Y15595D01*
X505637Y16138D01*
X506481Y16330D01*
X506481Y13683D01*
X506177Y13577D01*
X506177Y13576D01*
X506176Y13577D01*
X505607Y13219D01*
X505607Y13218D01*
X505607Y13219D01*
X505132Y12743D01*
X505131Y12743D01*
X504774Y12174D01*
X504774Y12173D01*
X504773Y12173D01*
X504551Y11539D01*
X504551Y11538D01*
X504550Y11531D01*
X504550Y11526D01*
X504549Y11518D01*
X504548Y11514D01*
X504547Y11505D01*
X504547Y11501D01*
X504546Y11492D01*
X504545Y11488D01*
X504544Y11480D01*
X504544Y11475D01*
X504543Y11467D01*
X504543Y11463D01*
X504542Y11463D01*
X504543Y11463D01*
X504542Y11454D01*
X504541Y11450D01*
X504540Y11441D01*
X504540Y11437D01*
X504539Y11433D01*
X504539Y11429D01*
X504538Y11424D01*
X504538Y11420D01*
X504537Y11416D01*
X504537Y11412D01*
X504536Y11407D01*
X504535Y11399D01*
X504535Y11395D01*
X504534Y11386D01*
X504533Y11382D01*
X504532Y11373D01*
X504532Y11369D01*
X504531Y11361D01*
X504531Y11356D01*
X504530Y11348D01*
X504529Y11344D01*
X504528Y11335D01*
X504528Y11331D01*
X504527Y11322D01*
X504526Y11318D01*
X504525Y11310D01*
X504525Y11305D01*
X504524Y11297D01*
X504523Y11293D01*
X504522Y11284D01*
X504522Y11280D01*
X504521Y11276D01*
X504521Y11271D01*
X504520Y11267D01*
X504520Y11263D01*
X504520Y11259D01*
X504519Y11259D01*
X504520Y11259D01*
X504519Y11254D01*
X504519Y11250D01*
X504518Y11242D01*
X504517Y11237D01*
X504516Y11229D01*
X504516Y11225D01*
X504515Y11216D01*
X504514Y11212D01*
X504513Y11203D01*
X504513Y11199D01*
X504512Y11191D01*
X504511Y11186D01*
X504510Y11178D01*
X504510Y11174D01*
X504509Y11165D01*
X504509Y11161D01*
X504508Y11161D01*
X504509Y11161D01*
X504508Y11152D01*
X504507Y11148D01*
X504506Y11140D01*
X504506Y11135D01*
X504505Y11127D01*
X504504Y11123D01*
X504504Y11118D01*
X504503Y11114D01*
X504503Y11110D01*
X504502Y11106D01*
X504501Y11097D01*
X504501Y11093D01*
X504500Y11084D01*
X504499Y11080D01*
X504498Y11072D01*
X504498Y11067D01*
X504497Y11059D01*
X504497Y11055D01*
X504496Y11046D01*
X504495Y11042D01*
X504494Y11033D01*
X504494Y11029D01*
X504493Y11021D01*
X504492Y11016D01*
X504491Y11008D01*
X504491Y11004D01*
X504490Y10995D01*
X504489Y10991D01*
X504488Y10982D01*
X504488Y10978D01*
X504487Y10974D01*
X504487Y10970D01*
X504486Y10965D01*
X504486Y10961D01*
X504486Y10957D01*
X504485Y10957D01*
X504486Y10957D01*
X504485Y10953D01*
X504485Y10948D01*
X504484Y10940D01*
X504483Y10936D01*
X504482Y10927D01*
X504482Y10923D01*
X504481Y10914D01*
X504480Y10910D01*
X504479Y10902D01*
X504479Y10897D01*
X504478Y10889D01*
X504477Y10885D01*
X504476Y10876D01*
X504476Y10872D01*
X504476Y10870D01*
X504476Y8719D01*
X501236Y8719D01*
G37*
%LPD*%
%LPC*%
G36*
X386936Y8719D02*
X386936Y8719D01*
X387104Y9563D01*
X387576Y10703D01*
X387591Y10767D01*
X387616Y10828D01*
X387625Y10911D01*
X387632Y10943D01*
X387631Y10962D01*
X387634Y10994D01*
X387634Y11495D01*
X387912Y12713D01*
X388455Y13839D01*
X389234Y14816D01*
X390211Y15595D01*
X391337Y16138D01*
X392181Y16330D01*
X392181Y13683D01*
X391877Y13577D01*
X391877Y13576D01*
X391876Y13577D01*
X391307Y13219D01*
X391307Y13218D01*
X391307Y13219D01*
X390832Y12743D01*
X390831Y12743D01*
X390474Y12174D01*
X390474Y12173D01*
X390473Y12173D01*
X390251Y11539D01*
X390251Y11538D01*
X390250Y11531D01*
X390250Y11526D01*
X390249Y11518D01*
X390248Y11514D01*
X390247Y11505D01*
X390247Y11501D01*
X390246Y11492D01*
X390245Y11488D01*
X390244Y11480D01*
X390244Y11475D01*
X390243Y11467D01*
X390243Y11463D01*
X390242Y11463D01*
X390243Y11463D01*
X390242Y11454D01*
X390241Y11450D01*
X390240Y11441D01*
X390240Y11437D01*
X390239Y11433D01*
X390239Y11429D01*
X390238Y11424D01*
X390238Y11420D01*
X390237Y11416D01*
X390237Y11412D01*
X390236Y11407D01*
X390235Y11399D01*
X390235Y11395D01*
X390234Y11386D01*
X390233Y11382D01*
X390232Y11373D01*
X390232Y11369D01*
X390231Y11361D01*
X390231Y11356D01*
X390230Y11348D01*
X390229Y11344D01*
X390228Y11335D01*
X390228Y11331D01*
X390227Y11322D01*
X390226Y11318D01*
X390225Y11310D01*
X390225Y11305D01*
X390224Y11297D01*
X390223Y11293D01*
X390222Y11284D01*
X390222Y11280D01*
X390221Y11276D01*
X390221Y11271D01*
X390220Y11267D01*
X390220Y11263D01*
X390220Y11259D01*
X390219Y11259D01*
X390220Y11259D01*
X390219Y11254D01*
X390219Y11250D01*
X390218Y11242D01*
X390217Y11237D01*
X390216Y11229D01*
X390216Y11225D01*
X390215Y11216D01*
X390214Y11212D01*
X390213Y11203D01*
X390213Y11199D01*
X390212Y11191D01*
X390211Y11186D01*
X390210Y11178D01*
X390210Y11174D01*
X390209Y11165D01*
X390209Y11161D01*
X390208Y11161D01*
X390209Y11161D01*
X390208Y11152D01*
X390207Y11148D01*
X390206Y11140D01*
X390206Y11135D01*
X390205Y11127D01*
X390204Y11123D01*
X390204Y11118D01*
X390203Y11114D01*
X390203Y11110D01*
X390202Y11106D01*
X390201Y11097D01*
X390201Y11093D01*
X390200Y11084D01*
X390199Y11080D01*
X390198Y11072D01*
X390198Y11067D01*
X390197Y11059D01*
X390197Y11055D01*
X390196Y11046D01*
X390195Y11042D01*
X390194Y11033D01*
X390194Y11029D01*
X390193Y11021D01*
X390192Y11016D01*
X390191Y11008D01*
X390191Y11004D01*
X390190Y10995D01*
X390189Y10991D01*
X390188Y10982D01*
X390188Y10978D01*
X390187Y10974D01*
X390187Y10970D01*
X390186Y10965D01*
X390186Y10961D01*
X390186Y10957D01*
X390185Y10957D01*
X390186Y10957D01*
X390185Y10953D01*
X390185Y10948D01*
X390184Y10940D01*
X390183Y10936D01*
X390182Y10927D01*
X390182Y10923D01*
X390181Y10914D01*
X390180Y10910D01*
X390179Y10902D01*
X390179Y10897D01*
X390178Y10889D01*
X390177Y10885D01*
X390176Y10876D01*
X390176Y10872D01*
X390176Y10870D01*
X390176Y8719D01*
X386936Y8719D01*
G37*
%LPD*%
%LPC*%
G36*
X300576Y8719D02*
X300576Y8719D01*
X300744Y9563D01*
X301216Y10703D01*
X301231Y10767D01*
X301256Y10828D01*
X301265Y10911D01*
X301272Y10943D01*
X301271Y10962D01*
X301274Y10994D01*
X301274Y11495D01*
X301552Y12713D01*
X302095Y13839D01*
X302874Y14816D01*
X303851Y15595D01*
X304977Y16138D01*
X305821Y16330D01*
X305821Y13683D01*
X305517Y13577D01*
X305517Y13576D01*
X305516Y13577D01*
X304947Y13219D01*
X304947Y13218D01*
X304947Y13219D01*
X304472Y12743D01*
X304471Y12743D01*
X304114Y12174D01*
X304114Y12173D01*
X304113Y12173D01*
X303891Y11539D01*
X303891Y11538D01*
X303890Y11531D01*
X303890Y11526D01*
X303889Y11518D01*
X303888Y11514D01*
X303887Y11505D01*
X303887Y11501D01*
X303886Y11492D01*
X303885Y11488D01*
X303884Y11480D01*
X303884Y11475D01*
X303883Y11467D01*
X303883Y11463D01*
X303882Y11463D01*
X303883Y11463D01*
X303882Y11454D01*
X303881Y11450D01*
X303880Y11441D01*
X303880Y11437D01*
X303879Y11433D01*
X303879Y11429D01*
X303878Y11424D01*
X303878Y11420D01*
X303877Y11416D01*
X303877Y11412D01*
X303876Y11407D01*
X303875Y11399D01*
X303875Y11395D01*
X303874Y11386D01*
X303873Y11382D01*
X303872Y11373D01*
X303872Y11369D01*
X303871Y11361D01*
X303871Y11356D01*
X303870Y11348D01*
X303869Y11344D01*
X303868Y11335D01*
X303868Y11331D01*
X303867Y11322D01*
X303866Y11318D01*
X303865Y11310D01*
X303865Y11305D01*
X303864Y11297D01*
X303863Y11293D01*
X303862Y11284D01*
X303862Y11280D01*
X303861Y11276D01*
X303861Y11271D01*
X303860Y11267D01*
X303860Y11263D01*
X303860Y11259D01*
X303859Y11259D01*
X303860Y11259D01*
X303859Y11254D01*
X303859Y11250D01*
X303858Y11242D01*
X303857Y11237D01*
X303856Y11229D01*
X303856Y11225D01*
X303855Y11216D01*
X303854Y11212D01*
X303853Y11203D01*
X303853Y11199D01*
X303852Y11191D01*
X303851Y11186D01*
X303850Y11178D01*
X303850Y11174D01*
X303849Y11165D01*
X303849Y11161D01*
X303848Y11161D01*
X303849Y11161D01*
X303848Y11152D01*
X303847Y11148D01*
X303846Y11140D01*
X303846Y11135D01*
X303845Y11127D01*
X303844Y11123D01*
X303844Y11118D01*
X303843Y11114D01*
X303843Y11110D01*
X303842Y11106D01*
X303841Y11097D01*
X303841Y11093D01*
X303840Y11084D01*
X303839Y11080D01*
X303838Y11072D01*
X303838Y11067D01*
X303837Y11059D01*
X303837Y11055D01*
X303836Y11046D01*
X303835Y11042D01*
X303834Y11033D01*
X303834Y11029D01*
X303833Y11021D01*
X303832Y11016D01*
X303831Y11008D01*
X303831Y11004D01*
X303830Y10995D01*
X303829Y10991D01*
X303828Y10982D01*
X303828Y10978D01*
X303827Y10974D01*
X303827Y10970D01*
X303826Y10965D01*
X303826Y10961D01*
X303826Y10957D01*
X303825Y10957D01*
X303826Y10957D01*
X303825Y10953D01*
X303825Y10948D01*
X303824Y10940D01*
X303823Y10936D01*
X303822Y10927D01*
X303822Y10923D01*
X303821Y10914D01*
X303820Y10910D01*
X303819Y10902D01*
X303819Y10897D01*
X303818Y10889D01*
X303817Y10885D01*
X303816Y10876D01*
X303816Y10872D01*
X303816Y10870D01*
X303816Y8719D01*
X300576Y8719D01*
G37*
%LPD*%
%LPC*%
G36*
X414876Y8719D02*
X414876Y8719D01*
X415044Y9563D01*
X415516Y10703D01*
X415531Y10767D01*
X415556Y10828D01*
X415565Y10911D01*
X415572Y10943D01*
X415571Y10962D01*
X415574Y10994D01*
X415574Y11495D01*
X415852Y12713D01*
X416395Y13839D01*
X417174Y14816D01*
X418151Y15595D01*
X419277Y16138D01*
X420121Y16330D01*
X420121Y13683D01*
X419817Y13577D01*
X419817Y13576D01*
X419816Y13577D01*
X419247Y13219D01*
X419247Y13218D01*
X419247Y13219D01*
X418772Y12743D01*
X418771Y12743D01*
X418414Y12174D01*
X418414Y12173D01*
X418413Y12173D01*
X418191Y11539D01*
X418191Y11538D01*
X418190Y11531D01*
X418190Y11526D01*
X418189Y11518D01*
X418188Y11514D01*
X418187Y11505D01*
X418187Y11501D01*
X418186Y11492D01*
X418185Y11488D01*
X418184Y11480D01*
X418184Y11475D01*
X418183Y11467D01*
X418183Y11463D01*
X418182Y11463D01*
X418183Y11463D01*
X418182Y11454D01*
X418181Y11450D01*
X418180Y11441D01*
X418180Y11437D01*
X418179Y11433D01*
X418179Y11429D01*
X418178Y11424D01*
X418178Y11420D01*
X418177Y11416D01*
X418177Y11412D01*
X418176Y11407D01*
X418175Y11399D01*
X418175Y11395D01*
X418174Y11386D01*
X418173Y11382D01*
X418172Y11373D01*
X418172Y11369D01*
X418171Y11361D01*
X418171Y11356D01*
X418170Y11348D01*
X418169Y11344D01*
X418168Y11335D01*
X418168Y11331D01*
X418167Y11322D01*
X418166Y11318D01*
X418165Y11310D01*
X418165Y11305D01*
X418164Y11297D01*
X418163Y11293D01*
X418162Y11284D01*
X418162Y11280D01*
X418161Y11276D01*
X418161Y11271D01*
X418160Y11267D01*
X418160Y11263D01*
X418160Y11259D01*
X418159Y11259D01*
X418160Y11259D01*
X418159Y11254D01*
X418159Y11250D01*
X418158Y11242D01*
X418157Y11237D01*
X418156Y11229D01*
X418156Y11225D01*
X418155Y11216D01*
X418154Y11212D01*
X418153Y11203D01*
X418153Y11199D01*
X418152Y11191D01*
X418151Y11186D01*
X418150Y11178D01*
X418150Y11174D01*
X418149Y11165D01*
X418149Y11161D01*
X418148Y11161D01*
X418149Y11161D01*
X418148Y11152D01*
X418147Y11148D01*
X418146Y11140D01*
X418146Y11135D01*
X418145Y11127D01*
X418144Y11123D01*
X418144Y11118D01*
X418143Y11114D01*
X418143Y11110D01*
X418142Y11106D01*
X418141Y11097D01*
X418141Y11093D01*
X418140Y11084D01*
X418139Y11080D01*
X418138Y11072D01*
X418138Y11067D01*
X418137Y11059D01*
X418137Y11055D01*
X418136Y11046D01*
X418135Y11042D01*
X418134Y11033D01*
X418134Y11029D01*
X418133Y11021D01*
X418132Y11016D01*
X418131Y11008D01*
X418131Y11004D01*
X418130Y10995D01*
X418129Y10991D01*
X418128Y10982D01*
X418128Y10978D01*
X418127Y10974D01*
X418127Y10970D01*
X418126Y10965D01*
X418126Y10961D01*
X418126Y10957D01*
X418125Y10957D01*
X418126Y10957D01*
X418125Y10953D01*
X418125Y10948D01*
X418124Y10940D01*
X418123Y10936D01*
X418122Y10927D01*
X418122Y10923D01*
X418121Y10914D01*
X418120Y10910D01*
X418119Y10902D01*
X418119Y10897D01*
X418118Y10889D01*
X418117Y10885D01*
X418116Y10876D01*
X418116Y10872D01*
X418116Y10870D01*
X418116Y8719D01*
X414876Y8719D01*
G37*
%LPD*%
%LPC*%
G36*
X424124Y8719D02*
X424124Y8719D01*
X424124Y10870D01*
X424049Y11538D01*
X424049Y11539D01*
X423827Y12173D01*
X423826Y12173D01*
X423827Y12174D01*
X423469Y12743D01*
X423468Y12743D01*
X423469Y12743D01*
X422993Y13219D01*
X422424Y13577D01*
X422423Y13576D01*
X422423Y13577D01*
X422119Y13683D01*
X422119Y16330D01*
X422963Y16138D01*
X423962Y15657D01*
X423962Y15656D01*
X424089Y15595D01*
X424998Y14870D01*
X425066Y14816D01*
X425845Y13839D01*
X426388Y12713D01*
X426666Y11495D01*
X426666Y10994D01*
X426676Y10930D01*
X426677Y10864D01*
X426700Y10784D01*
X426705Y10752D01*
X426715Y10735D01*
X426724Y10703D01*
X427196Y9563D01*
X427364Y8719D01*
X424124Y8719D01*
G37*
%LPD*%
%LPC*%
G36*
X309824Y8719D02*
X309824Y8719D01*
X309824Y10870D01*
X309749Y11538D01*
X309749Y11539D01*
X309527Y12173D01*
X309526Y12173D01*
X309527Y12174D01*
X309169Y12743D01*
X309168Y12743D01*
X309169Y12743D01*
X308693Y13219D01*
X308124Y13577D01*
X308123Y13576D01*
X308123Y13577D01*
X307819Y13683D01*
X307819Y16330D01*
X308663Y16138D01*
X309497Y15736D01*
X309789Y15595D01*
X310579Y14966D01*
X310766Y14816D01*
X311545Y13839D01*
X312088Y12713D01*
X312366Y11495D01*
X312366Y10994D01*
X312376Y10930D01*
X312377Y10864D01*
X312400Y10784D01*
X312405Y10752D01*
X312415Y10735D01*
X312424Y10703D01*
X312896Y9563D01*
X313064Y8719D01*
X309824Y8719D01*
G37*
%LPD*%
%LPC*%
G36*
X396184Y8719D02*
X396184Y8719D01*
X396184Y10870D01*
X396109Y11538D01*
X396109Y11539D01*
X395887Y12173D01*
X395886Y12173D01*
X395887Y12174D01*
X395529Y12743D01*
X395528Y12743D01*
X395529Y12743D01*
X395053Y13219D01*
X394484Y13577D01*
X394483Y13576D01*
X394483Y13577D01*
X394179Y13683D01*
X394179Y16330D01*
X395023Y16138D01*
X396116Y15612D01*
X396116Y15611D01*
X396149Y15595D01*
X397122Y14820D01*
X397126Y14816D01*
X397905Y13839D01*
X398448Y12713D01*
X398726Y11495D01*
X398726Y10994D01*
X398736Y10930D01*
X398737Y10864D01*
X398760Y10784D01*
X398765Y10752D01*
X398775Y10735D01*
X398784Y10703D01*
X399256Y9563D01*
X399424Y8719D01*
X396184Y8719D01*
G37*
%LPD*%
%LPC*%
G36*
X510484Y8719D02*
X510484Y8719D01*
X510484Y10870D01*
X510409Y11538D01*
X510409Y11539D01*
X510187Y12173D01*
X510186Y12173D01*
X510187Y12174D01*
X509829Y12743D01*
X509828Y12743D01*
X509829Y12743D01*
X509353Y13219D01*
X508784Y13577D01*
X508783Y13576D01*
X508783Y13577D01*
X508479Y13683D01*
X508479Y16330D01*
X509323Y16138D01*
X509980Y15821D01*
X510449Y15595D01*
X511100Y15076D01*
X511426Y14816D01*
X512205Y13839D01*
X512748Y12713D01*
X513026Y11495D01*
X513026Y10994D01*
X513036Y10930D01*
X513037Y10864D01*
X513060Y10784D01*
X513065Y10752D01*
X513075Y10735D01*
X513084Y10703D01*
X513556Y9563D01*
X513724Y8719D01*
X510484Y8719D01*
G37*
%LPD*%
%LPC*%
G36*
X540499Y237899D02*
X540499Y237899D01*
X540499Y237901D01*
X540501Y237901D01*
X540501Y237899D01*
X540499Y237899D01*
G37*
%LPD*%
%LPC*%
G36*
X634999Y952199D02*
X634999Y952199D01*
X634999Y952201D01*
X635001Y952201D01*
X635001Y952199D01*
X634999Y952199D01*
G37*
%LPD*%
%LPC*%
G36*
X159499Y69149D02*
X159499Y69149D01*
X159499Y69151D01*
X159501Y69151D01*
X159501Y69149D01*
X159499Y69149D01*
G37*
%LPD*%
%LPC*%
G36*
X29999Y469999D02*
X29999Y469999D01*
X29999Y470001D01*
X30001Y470001D01*
X30001Y469999D01*
X29999Y469999D01*
G37*
%LPD*%
%LPC*%
G36*
X616699Y171699D02*
X616699Y171699D01*
X616699Y171701D01*
X616701Y171701D01*
X616701Y171699D01*
X616699Y171699D01*
G37*
%LPD*%
%LPC*%
G36*
X634999Y848999D02*
X634999Y848999D01*
X634999Y849001D01*
X635001Y849001D01*
X635001Y848999D01*
X634999Y848999D01*
G37*
%LPD*%
D10*
X306820Y7720D03*
X393180Y7720D03*
X393180Y49520D03*
X306820Y49520D03*
D11*
X223520Y1043940D03*
X223520Y1018540D03*
D10*
X421120Y7720D03*
X507480Y7720D03*
X507480Y49520D03*
X421120Y49520D03*
D11*
X159500Y69150D03*
X134100Y69150D03*
X108700Y69150D03*
X83300Y69150D03*
X616700Y171700D03*
X591300Y171700D03*
X565900Y171700D03*
X540500Y171700D03*
X540500Y237900D03*
X540500Y263300D03*
X540500Y288700D03*
X540500Y314100D03*
X32500Y339500D03*
X32500Y314100D03*
X397300Y80000D03*
X422700Y80000D03*
X157300Y1085000D03*
X182700Y1085000D03*
X635000Y977600D03*
X635000Y952200D03*
X30000Y470000D03*
X55400Y470000D03*
X80800Y470000D03*
X106200Y470000D03*
X170000Y290000D03*
X170000Y264600D03*
X170000Y239200D03*
X170000Y213800D03*
X170000Y188400D03*
X635000Y849000D03*
X635000Y874400D03*
X635000Y899800D03*
X635000Y925200D03*
X110000Y580000D03*
D12*
X197600Y763680D03*
X530340Y764950D03*
X559550Y25190D03*
X349932Y402932D03*
X305050Y611500D03*
D13*
X540500Y387150D02*
X540500Y314100D01*
X540500Y387150D02*
X540700Y387350D01*
D12*
X540700Y387350D03*
X431280Y65340D03*
X575000Y17000D03*
X140450Y27240D03*
X310000Y140000D03*
X350000Y100580D03*
X377940Y84390D03*
X315710Y67880D03*
X120000Y940000D03*
X220000Y940000D03*
X287770Y280320D03*
X309360Y280320D03*
X330950Y280320D03*
X351270Y280320D03*
X372860Y280320D03*
X393180Y280320D03*
X414770Y280320D03*
X435090Y280320D03*
X266180Y280320D03*
X286500Y300640D03*
X308090Y300640D03*
X329680Y300640D03*
X350000Y300640D03*
X371590Y300640D03*
X391910Y300640D03*
X413500Y300640D03*
X433820Y300640D03*
X264910Y300640D03*
X286500Y320960D03*
X308090Y320960D03*
X329680Y320960D03*
X350000Y320960D03*
X371590Y320960D03*
X391910Y320960D03*
X413500Y320960D03*
X433820Y320960D03*
X264910Y320960D03*
X287770Y219360D03*
X308000Y218000D03*
X330000Y220000D03*
X350000Y220000D03*
X370000Y220000D03*
X393180Y219360D03*
X414770Y219360D03*
X435090Y219360D03*
X266180Y219360D03*
X286500Y239680D03*
X308000Y239000D03*
X330000Y240000D03*
X350000Y240000D03*
X370000Y240000D03*
X391910Y239680D03*
X413500Y239680D03*
X433820Y239680D03*
X264910Y239680D03*
X286500Y260000D03*
X308090Y260000D03*
X330000Y260000D03*
X350000Y260000D03*
X370000Y260000D03*
X391910Y260000D03*
X413500Y260000D03*
X433820Y260000D03*
X264910Y260000D03*
X286500Y199040D03*
X308090Y199040D03*
X329680Y199040D03*
X350000Y199040D03*
X371590Y199040D03*
X391910Y199040D03*
X413500Y199040D03*
X433820Y199040D03*
X264910Y199040D03*
X270000Y170000D03*
X390000Y170000D03*
X360000Y170000D03*
X380000Y170000D03*
X400000Y170000D03*
X420000Y170000D03*
X260000Y170000D03*
X240000Y350000D03*
X258560Y350170D03*
X280000Y350000D03*
X320000Y350000D03*
X380000Y350000D03*
X400000Y350000D03*
X420000Y350000D03*
X440000Y350000D03*
X460000Y350000D03*
X470000Y330000D03*
X466840Y261270D03*
X470000Y230000D03*
X470000Y220000D03*
X470000Y200000D03*
X470000Y180000D03*
X470000Y340000D03*
X435000Y180000D03*
X460000Y170000D03*
X440000Y170000D03*
X280000Y170000D03*
X282150Y153130D03*
X274530Y146240D03*
X267500Y138600D03*
X257600Y132000D03*
X245860Y146140D03*
X238240Y137250D03*
X248400Y116820D03*
X225000Y85000D03*
X225000Y70000D03*
X268000Y60000D03*
X220000Y60000D03*
X245000Y70000D03*
X205000Y60000D03*
X195000Y50000D03*
X195000Y20000D03*
X195000Y35000D03*
X258560Y123440D03*
X267450Y128600D03*
X240000Y170000D03*
X231000Y185000D03*
X250000Y180000D03*
X228080Y128360D03*
X279340Y131220D03*
X285230Y141380D03*
X294120Y146970D03*
X275610Y116820D03*
X250000Y100000D03*
X250000Y60000D03*
X275000Y50000D03*
X275000Y35000D03*
X275000Y20000D03*
X300470Y172370D03*
X265000Y180000D03*
X263640Y337470D03*
X250940Y337470D03*
X435090Y337470D03*
X450330Y338740D03*
X450000Y180000D03*
X210000Y100000D03*
X245000Y85000D03*
X311900Y949100D03*
X332000Y940000D03*
X383000Y959000D03*
X383000Y941000D03*
X375400Y898300D03*
X362700Y898300D03*
X350000Y898300D03*
X337300Y898300D03*
X324600Y898300D03*
X311900Y898300D03*
X311900Y974500D03*
X324600Y974500D03*
X337300Y974500D03*
X350000Y974500D03*
X375400Y974500D03*
X388100Y974500D03*
X388100Y898300D03*
X331000Y959000D03*
X397000Y940000D03*
X347000Y941000D03*
X347000Y960000D03*
X365000Y960000D03*
X366000Y940000D03*
X601000Y17000D03*
X494320Y84880D03*
X449060Y1012600D03*
X405880Y1012600D03*
X283960Y1012600D03*
X407150Y848770D03*
X407150Y818290D03*
X144260Y1050700D03*
X470000Y210000D03*
X520290Y69800D03*
X468110Y122330D03*
X575000Y740031D03*
X492000Y981031D03*
X320000Y490000D03*
X366000Y489000D03*
X371000Y439000D03*
X441000Y459000D03*
X441000Y439000D03*
X581000Y771031D03*
X561000Y933031D03*
X191000Y1004000D03*
X132730Y1012350D03*
X147650Y981650D03*
X320000Y400000D03*
X340000Y400000D03*
X365000Y400000D03*
X287000Y429000D03*
X300000Y490000D03*
X292000Y551000D03*
X271000Y453000D03*
X217000Y420000D03*
X33000Y431000D03*
X568000Y459000D03*
X397000Y460000D03*
X495000Y1009000D03*
X199290Y559890D03*
X246280Y500200D03*
X493000Y870911D03*
X480000Y925031D03*
X192000Y294000D03*
X180000Y440000D03*
X180000Y600000D03*
X180000Y910000D03*
X517000Y600000D03*
X318000Y600000D03*
D14*
X180000Y910000D02*
X180000Y979000D01*
X190000Y989000D01*
X192000Y989000D01*
D15*
X192000Y989000D03*
D12*
X180000Y511810D03*
X192000Y306000D03*
X190000Y432000D03*
X190000Y910000D03*
X290000Y950000D03*
X210000Y950000D03*
X518000Y580000D03*
X311000Y580000D03*
D14*
X190000Y910000D02*
X190000Y930000D01*
X210000Y950000D01*
D12*
X225000Y512000D03*
X190000Y512000D03*
X190000Y579120D03*
X135000Y635000D03*
X331150Y633730D03*
X358890Y135540D03*
X280000Y400000D03*
D14*
X299200Y347120D02*
X319774Y326546D01*
X299200Y380140D02*
X280000Y399340D01*
X280000Y400000D01*
X299200Y380140D02*
X299200Y347120D01*
X319774Y150126D02*
X327660Y142240D01*
X346458Y144909D02*
X356483Y144909D01*
X358890Y142502D01*
X358890Y135540D01*
X343789Y142240D02*
X327660Y142240D01*
X343789Y142240D02*
X346458Y144909D01*
X319774Y150126D02*
X319774Y326546D01*
D12*
X338570Y149510D03*
X300000Y400000D03*
D14*
X323330Y164750D02*
X338570Y149510D01*
X323330Y164750D02*
X323330Y328070D01*
X303010Y348390D01*
X303010Y357280D02*
X306439Y360709D01*
X328410Y363630D02*
X328410Y369980D01*
X325870Y372520D01*
X305550Y372520D02*
X304280Y373790D01*
X304280Y395720D02*
X300000Y400000D01*
X304280Y395720D02*
X304280Y373790D01*
X303010Y357280D02*
X303010Y348390D01*
X306439Y360709D02*
X325489Y360709D01*
X328410Y363630D01*
X325870Y372520D02*
X305550Y372520D01*
D12*
X118000Y377600D03*
X519270Y378410D03*
X134000Y367000D03*
X528341Y367440D03*
X170000Y960000D03*
X560000Y1000000D03*
X268000Y498000D03*
D13*
X268000Y999460D01*
X223520Y1043940D01*
D12*
X150000Y880000D03*
X244130Y848770D03*
X130000Y920000D03*
X500000Y960000D03*
X447000Y988000D03*
X519000Y861000D03*
D14*
X519000Y899000D01*
X520000Y900000D01*
D12*
X520000Y900000D03*
X409690Y899570D03*
X495161Y310979D03*
D14*
X492748Y313392D01*
X492748Y359137D01*
X472761Y379124D01*
X413754Y416143D02*
X413754Y784830D01*
X406642Y896522D02*
X409690Y899570D01*
X450773Y379124D02*
X472761Y379124D01*
X450773Y379124D02*
X413754Y416143D01*
X413754Y784830D02*
X418580Y789656D01*
X418580Y852580D01*
X406642Y864518D02*
X406642Y896522D01*
X406642Y864518D02*
X418580Y852580D01*
D12*
X250940Y912270D03*
X508978Y297080D03*
D14*
X508978Y300493D01*
X511290Y302805D01*
X511290Y308321D01*
X499860Y319751D01*
X499860Y362083D01*
X475707Y386236D01*
X453719Y386236D01*
X420866Y419089D01*
X420866Y781884D02*
X425692Y786710D01*
X425692Y902170D02*
X414546Y913316D01*
X425692Y902170D02*
X425692Y786710D01*
D12*
X414546Y913316D03*
D14*
X425692Y786710D02*
X425692Y786710D01*
X420866Y781884D01*
X420866Y419089D01*
X469815Y372012D02*
X485636Y356191D01*
X469815Y372012D02*
X447827Y372012D01*
X406642Y413197D01*
X406642Y797462D01*
X409690Y800510D01*
D12*
X409690Y800510D03*
X210300Y800510D03*
D14*
X485636Y179886D02*
X477200Y171450D01*
D12*
X477200Y171450D03*
D14*
X485636Y179886D02*
X485636Y356191D01*
X489192Y357664D02*
X471288Y375568D01*
X410198Y414670D02*
X410198Y789715D01*
X449300Y375568D02*
X471288Y375568D01*
X449300Y375568D02*
X410198Y414670D01*
X410198Y789715D02*
X412611Y792128D01*
D12*
X412611Y792128D03*
X209030Y789080D03*
X477200Y161290D03*
D14*
X489192Y168202D02*
X489192Y357664D01*
X489192Y168202D02*
X484341Y163351D01*
X479261Y163351D01*
X477200Y161290D01*
D12*
X440170Y73910D03*
X488430Y73910D03*
X458000Y75000D03*
D13*
X441260Y75000D01*
X440170Y73910D01*
X487340Y75000D02*
X488430Y73910D01*
X487340Y75000D02*
X458000Y75000D01*
D12*
X250940Y928822D03*
X517640Y296320D03*
D14*
X514947Y299014D01*
X514947Y309693D01*
X503416Y321224D01*
X503416Y363556D01*
X477180Y389792D01*
X455192Y389792D01*
X424422Y420562D01*
X424422Y780411D02*
X429248Y785237D01*
X429248Y907055D01*
D12*
X414770Y923700D03*
D14*
X414770Y921533D01*
X429248Y907055D01*
X424422Y780411D02*
X424422Y420562D01*
D12*
X249670Y1001170D03*
X505321Y305278D03*
D14*
X501130Y309469D01*
X501130Y313452D01*
X496304Y318278D01*
X496304Y360610D01*
X474234Y382680D01*
X452246Y382680D01*
X417310Y417616D01*
X417310Y783357D02*
X422136Y788183D01*
X422136Y854053D01*
X410198Y865991D01*
X410198Y891637D01*
X415659Y897098D01*
X415659Y903761D01*
X406642Y912778D01*
D12*
X404610Y999900D03*
D14*
X406642Y997868D01*
X406642Y912778D01*
X417310Y783357D02*
X417310Y417616D01*
D12*
X170000Y750000D03*
X445000Y750000D03*
X447000Y950000D03*
D14*
X445000Y893021D02*
X445000Y750000D01*
X445000Y893021D02*
X458966Y906987D01*
X447000Y934202D02*
X447000Y950000D01*
X458966Y922236D02*
X458966Y906987D01*
X458966Y922236D02*
X447000Y934202D01*
D15*
X325870Y67560D03*
D13*
X375400Y67560D01*
D15*
X375400Y67560D03*
D12*
X588000Y989000D03*
X568890Y588890D03*
X339090Y589280D03*
X581904Y530000D03*
X330000Y540000D03*
X400673Y886000D03*
X396000Y779000D03*
X283000Y780000D03*
X382000Y789000D03*
X293000Y789000D03*
X446720Y962660D03*
D14*
X462522Y905514D02*
X449539Y892531D01*
X462522Y946858D02*
X446720Y962660D01*
X462522Y946858D02*
X462522Y905514D01*
X449539Y892531D02*
X449539Y753903D01*
X450969Y752473D01*
D12*
X441640Y537210D03*
D14*
X442090Y655683D02*
X450969Y664562D01*
X442090Y537660D02*
X441640Y537210D01*
X442090Y537660D02*
X442090Y655683D01*
X450969Y664562D02*
X450969Y752473D01*
D12*
X342058Y537000D03*
X356040Y875270D03*
X159700Y330200D03*
X163510Y660400D03*
X356350Y660400D03*
X121600Y317500D03*
X295400Y529000D03*
X129031Y522000D03*
X193000Y206000D03*
X340400Y550000D03*
X200000Y537620D03*
X250000Y520000D03*
X250000Y886000D03*
D14*
X250000Y843199D02*
X250000Y520000D01*
X250000Y843199D02*
X253099Y846298D01*
X253099Y851243D01*
X250000Y854342D01*
X250000Y886000D01*
D12*
X395000Y819000D03*
D14*
X395000Y786442D01*
X390031Y781473D01*
X390031Y442401D02*
X377840Y430210D01*
X377840Y411160D01*
X388000Y401000D01*
D12*
X388000Y401000D03*
D14*
X390031Y442401D02*
X390031Y781473D01*
D12*
X416167Y873760D03*
X453390Y563880D03*
X449015Y462985D03*
X441000Y448000D03*
X380000Y490000D03*
X57000Y613000D03*
X510000Y617000D03*
X521800Y925200D03*
X506000Y926000D03*
D14*
X506800Y925200D01*
X510000Y925200D01*
X521800Y925200D01*
X510000Y925200D02*
X510000Y617000D01*
D13*
X559200Y222310D02*
X516570Y179680D01*
X516570Y153670D02*
X516570Y128270D01*
X516570Y153670D02*
X516570Y179680D01*
D12*
X469570Y153780D03*
X410000Y100000D03*
X350200Y138940D03*
D13*
X500300Y112000D02*
X516570Y128270D01*
X491311Y153064D02*
X491917Y153670D01*
X516570Y153670D01*
X486000Y112000D02*
X474000Y100000D01*
X410000Y100000D01*
X486000Y112000D02*
X500300Y112000D01*
D12*
X486000Y112000D03*
D15*
X470000Y449000D03*
D12*
X547000Y448920D03*
D16*
X350200Y138940D02*
X350200Y115890D01*
X359160Y106930D01*
X403070Y106930D02*
X410000Y100000D01*
X403070Y106930D02*
X359160Y106930D01*
D13*
X559200Y436720D02*
X547000Y448920D01*
X559200Y436720D02*
X559200Y222310D01*
D16*
X491311Y153064D02*
X470286Y153064D01*
X469570Y153780D01*
X470000Y449000D02*
X470000Y845424D01*
X469604Y845820D01*
D12*
X469604Y845820D03*
X540000Y850000D03*
X542000Y931169D03*
D17*
X227380Y980110D03*
D12*
X460673Y476000D03*
X121600Y457200D03*
X234730Y622350D03*
D13*
X234730Y477270D01*
X236000Y476000D01*
D12*
X236000Y476000D03*
X114300Y406400D03*
X393700Y419100D03*
X333490Y349662D03*
X334000Y449000D03*
M02*
