M48
;GenerationSoftware,Autodesk,EAGLE,9.6.2*%
;CreationDate,2021-06-10T03:24:25Z*%
FMAT,2
ICI,OFF
METRIC,TZ,000.000
T7C0.305
T6C0.350
T5C0.381
T4C0.400
T3C0.650
T2C1.016
T1C3.200
%
G90
M71
T1
X63499Y78006
X63499Y27994
X6501Y27994
X6501Y78006
T2
X11000Y58000
X18270Y108500
X63500Y97760
X63500Y95220
X3000Y47000
X5540Y47000
X54050Y31410
X8080Y47000
X10620Y47000
X17000Y29000
X17000Y23920
X17000Y21380
X17000Y18840
X63500Y84900
X22352Y104394
X22352Y101854
X63500Y87440
X61670Y17170
X63500Y89980
X63500Y92520
X15950Y6915
X13410Y6915
X10870Y6915
X8330Y6915
X17000Y26460
X59130Y17170
X56590Y17170
X54050Y17170
X54050Y23790
X54050Y26330
X54050Y28870
X3250Y33950
X3250Y31410
X39730Y8000
X42270Y8000
X15730Y108500
T3
X37890Y4422
X43540Y4422
X49320Y4422
X32110Y4422
T4
X30682Y772
X39318Y772
X39318Y4952
X30682Y4952
X42112Y772
X50748Y4952
X42112Y4952
X50748Y772
T5
X19200Y98900
X32587Y6756
X37540Y6756
X47000Y44900
T6
X22738Y98011
T7
X41350Y23968
X43382Y23968
X26491Y23968
X28650Y26000
X30809Y26000
X33000Y26000
X35000Y26000
X37000Y26000
X39191Y26000
X41350Y26000
X43382Y26000
X26491Y26000
X28650Y19904
X30809Y19904
X32968Y19904
X35000Y19904
X37159Y19904
X39191Y19904
X41350Y19904
X43382Y19904
X26491Y19904
X27000Y17000
X39000Y17000
X36000Y17000
X38000Y17000
X40000Y17000
X42000Y17000
X26000Y17000
X24000Y35000
X25856Y35017
X28000Y35000
X32000Y35000
X38000Y35000
X40000Y35000
X42000Y35000
X44000Y35000
X46000Y35000
X47000Y33000
X46684Y26127
X47000Y23000
X47000Y22000
X47000Y20000
X47000Y18000
X47000Y34000
X43500Y18000
X46000Y17000
X44000Y17000
X28000Y17000
X28215Y15313
X27453Y14624
X26750Y13860
X25760Y13200
X24586Y14614
X23824Y13725
X24840Y11682
X22500Y8500
X22500Y7000
X26800Y6000
X22000Y6000
X24500Y7000
X20500Y6000
X19500Y5000
X19500Y2000
X19500Y3500
X25856Y12344
X26745Y12860
X24000Y17000
X23100Y18500
X25000Y18000
X22808Y12836
X27934Y13122
X28523Y14138
X29412Y14697
X27561Y11682
X25000Y10000
X25000Y6000
X27500Y5000
X27500Y3500
X27500Y2000
X30047Y17237
X26500Y18000
X26364Y33747
X25094Y33747
X43509Y33747
X45033Y33874
X45000Y18000
X21000Y10000
X24500Y8500
X31190Y94910
X33200Y94000
X38300Y95900
X38300Y94100
X37540Y89830
X36270Y89830
X35000Y89830
X33730Y89830
X32460Y89830
X31190Y89830
X31190Y97450
X32460Y97450
X33730Y97450
X35000Y97450
X37540Y97450
X38810Y97450
X38810Y89830
X33100Y95900
X39700Y94000
X34700Y94100
X34700Y96000
X36500Y96000
X36600Y94000
X60100Y1700
X49432Y8488
X44906Y101260
X40588Y101260
X28396Y101260
X40715Y84877
X40715Y81829
X14426Y105070
X47000Y21000
X52029Y6980
X46811Y12233
X57500Y74003
X49200Y98103
X32000Y49000
X36600Y48900
X37100Y43900
X44100Y45900
X44100Y43900
X58100Y77103
X56100Y93303
X39318Y21936
X13273Y101235
X14765Y98165
X32000Y40000
X34000Y40000
X36500Y40000
X28700Y42900
X30000Y49000
X29200Y55100
X27100Y45300
X21700Y42000
X3300Y43100
X56800Y45900
X39700Y46000
X49500Y100900
X19929Y55989
X24628Y50020
X49300Y87091
X48000Y92503
X19200Y29400
X18000Y44000
X18000Y60000
X18000Y91000
X51700Y60000
X31800Y60000
X19760Y76368
X18000Y51181
X19200Y30600
X19000Y43200
X19000Y91000
X29000Y95000
X21000Y95000
X51800Y58000
X31100Y58000
X22500Y51200
X19000Y51200
X19000Y57912
X13500Y63500
X33115Y63373
X35889Y13554
X28000Y40000
X33857Y14951
X30000Y40000
X11800Y37760
X51927Y37841
X13400Y36700
X52834Y36744
X17000Y96000
X56000Y100000
X26800Y49800
X15000Y88000
X24413Y84877
X13000Y92000
X50000Y96000
X44700Y98800
X51900Y86100
X52000Y90000
X40969Y89957
X49516Y31098
X25094Y91227
X50898Y29708
X41455Y91332
X40969Y80051
X21030Y80051
X47720Y17145
X41261Y79213
X20903Y78908
X47720Y16129
X44017Y7391
X48843Y7391
X45800Y7500
X25094Y92882
X51764Y29632
X41477Y92370
X24967Y100117
X50532Y30528
X40461Y99990
X17000Y75000
X44500Y75000
X44700Y95000
X53034Y76495
X55955Y2519
X58800Y98900
X56889Y58889
X33909Y58928
X58190Y53000
X33000Y54000
X40067Y88600
X39600Y77900
X28300Y78000
X38200Y78900
X29300Y78900
X44672Y96266
X34993Y40293
X34206Y53700
X35604Y87527
X15970Y33020
X16351Y66040
X35635Y66040
X12160Y31750
X29540Y52900
X12903Y52200
X19300Y20600
X34040Y55000
X20000Y53762
X25000Y52000
X25000Y88600
X39500Y81900
X38800Y40100
X41617Y87376
X45339Y56388
X44901Y46298
X44100Y44800
X38000Y49000
X5700Y61300
X51000Y61700
X52180Y92520
X50600Y92600
X46957Y15378
X41000Y10000
X35020Y13894
X48600Y11200
X30505Y61150
X54700Y44892
X46960Y84582
X54000Y85000
X54200Y93117
X54070Y38735
X46067Y47600
X12160Y45720
X23473Y62235
X23600Y47600
X11430Y40640
X39370Y41910
X33349Y34966
X33400Y44900
X43128Y6534
X57500Y1700
X14045Y2724
X31000Y14000
X19100Y100400
X35000Y10058
X37794Y8439
X31571Y6788
X12000Y94000
X22000Y94000
X28777Y28032
X30936Y28032
X33095Y28032
X35127Y28032
X37286Y28032
X39318Y28032
X41477Y28032
X43509Y28032
X26618Y28032
X28650Y30064
X30809Y30064
X32968Y30064
X35000Y30064
X37159Y30064
X39191Y30064
X41350Y30064
X43382Y30064
X26491Y30064
X28650Y32096
X30809Y32096
X32968Y32096
X35000Y32096
X37159Y32096
X39191Y32096
X41350Y32096
X43382Y32096
X26491Y32096
X28777Y21936
X30800Y21800
X33000Y22000
X35000Y22000
X37000Y22000
X41477Y21936
X43509Y21936
X26618Y21936
X28650Y23968
X30800Y23900
X33000Y24000
X35000Y24000
X37000Y24000
X39191Y23968
X44164Y53721
M30