G04 EAGLE Gerber RS-274X export*
G75*
%MOMM*%
%FSLAX34Y34*%
%LPD*%
%INSoldermask Bottom*%
%IPPOS*%
%AMOC8*
5,1,8,0,0,1.08239X$1,22.5*%
G01*
%ADD10R,1.403200X2.203200*%
%ADD11R,0.803200X1.553200*%
%ADD12C,0.838200*%
%ADD13C,0.853200*%
%ADD14R,1.703200X4.203200*%
%ADD15C,3.403600*%
%ADD16R,1.203200X1.303200*%
%ADD17R,1.303200X1.203200*%
%ADD18C,2.082800*%
%ADD19R,1.033200X0.833200*%
%ADD20R,1.403200X0.803200*%
%ADD21R,0.863200X0.503200*%
%ADD22R,0.703200X1.203200*%
%ADD23R,0.923200X0.983200*%
%ADD24R,1.253200X1.283200*%
%ADD25R,1.253200X1.403200*%
%ADD26R,1.253200X2.593200*%
%ADD27R,3.113200X0.753200*%
%ADD28R,0.553200X1.003200*%
%ADD29R,2.703200X1.903200*%
%ADD30R,1.703200X1.103200*%
%ADD31R,1.103200X1.703200*%
%ADD32R,1.533200X1.533200*%


D10*
X378000Y7950D03*
X322000Y7950D03*
D11*
X365000Y44700D03*
X355000Y44700D03*
X345000Y44700D03*
X335000Y44700D03*
D12*
X642100Y40100D03*
X59700Y1048900D03*
D13*
X321100Y44220D03*
X378900Y44220D03*
D14*
X261400Y33000D03*
X210600Y33000D03*
D15*
X65012Y279937D03*
X65012Y780063D03*
X634988Y780063D03*
X634988Y279937D03*
D16*
X146800Y1004100D03*
X146800Y1021100D03*
D17*
X178500Y1050000D03*
X161500Y1050000D03*
X178500Y980000D03*
X161500Y980000D03*
D18*
X223520Y1043940D03*
X223520Y1018540D03*
D19*
X240000Y978500D03*
X240000Y1001500D03*
D16*
X460000Y958500D03*
X460000Y941500D03*
X480000Y998500D03*
X480000Y981500D03*
X460000Y998500D03*
X460000Y981500D03*
X480000Y958500D03*
X480000Y941500D03*
D17*
X181500Y960000D03*
X198500Y960000D03*
D20*
X218000Y924450D03*
X218000Y911750D03*
X218000Y899050D03*
X218000Y886350D03*
X218000Y873650D03*
X218000Y860950D03*
X218000Y848250D03*
X218000Y835550D03*
X162000Y835550D03*
X162000Y848250D03*
X162000Y860950D03*
X162000Y873650D03*
X162000Y886350D03*
X162000Y899050D03*
X162000Y911750D03*
X162000Y924450D03*
D17*
X121500Y850000D03*
X138500Y850000D03*
X138500Y910000D03*
X121500Y910000D03*
D21*
X139200Y886500D03*
X120800Y880000D03*
X120800Y873500D03*
X120800Y886500D03*
X139200Y880000D03*
X139200Y873500D03*
D13*
X435400Y44220D03*
X493200Y44220D03*
D17*
X181500Y940000D03*
X198500Y940000D03*
D18*
X159500Y69150D03*
X134100Y69150D03*
X108700Y69150D03*
X83300Y69150D03*
X616700Y171700D03*
X591300Y171700D03*
X565900Y171700D03*
X540500Y171700D03*
X540500Y237900D03*
X540500Y263300D03*
X540500Y288700D03*
X540500Y314100D03*
X32500Y339500D03*
X32500Y314100D03*
D17*
X461500Y900000D03*
X478500Y900000D03*
D22*
X523300Y36430D03*
X534300Y36430D03*
X545300Y36430D03*
X556300Y36430D03*
X567300Y36430D03*
X578300Y36430D03*
X589300Y36430D03*
X600300Y36430D03*
D23*
X505300Y63230D03*
D24*
X505300Y75930D03*
D25*
X505300Y102030D03*
X612050Y96330D03*
D26*
X612050Y64480D03*
D27*
X580250Y108780D03*
X538350Y108780D03*
D18*
X397300Y80000D03*
X422700Y80000D03*
X157300Y1085000D03*
X182700Y1085000D03*
X635000Y977600D03*
X635000Y952200D03*
D17*
X588500Y1000000D03*
X571500Y1000000D03*
D28*
X170000Y995500D03*
X175000Y995500D03*
X180000Y995500D03*
X165000Y995500D03*
X160000Y995500D03*
X160000Y1024500D03*
X165000Y1024500D03*
X170000Y1024500D03*
X175000Y1024500D03*
X180000Y1024500D03*
D29*
X170000Y1010000D03*
D17*
X128500Y1050000D03*
X111500Y1050000D03*
X128500Y1030000D03*
X111500Y1030000D03*
X128500Y1070000D03*
X111500Y1070000D03*
D18*
X30000Y470000D03*
X55400Y470000D03*
X80800Y470000D03*
X106200Y470000D03*
X170000Y290000D03*
X170000Y264600D03*
X170000Y239200D03*
X170000Y213800D03*
X170000Y188400D03*
X635000Y849000D03*
X635000Y874400D03*
X635000Y899800D03*
X635000Y925200D03*
X110000Y580000D03*
D17*
X461500Y870000D03*
X478500Y870000D03*
D30*
X432380Y1014300D03*
X432380Y1001600D03*
X432380Y988900D03*
X432380Y976200D03*
X432380Y963500D03*
X432380Y950800D03*
X432380Y938100D03*
X432380Y925400D03*
X432380Y912700D03*
X432380Y900000D03*
X432380Y887300D03*
X432380Y874600D03*
X432380Y861900D03*
X432380Y849200D03*
D31*
X407150Y834300D03*
X394450Y834300D03*
X381750Y834300D03*
X369050Y834300D03*
X356350Y834300D03*
X343650Y834300D03*
X330950Y834300D03*
X318250Y834300D03*
X305550Y834300D03*
X292850Y834300D03*
D30*
X267620Y849200D03*
X267620Y861900D03*
X267620Y874600D03*
X267620Y887300D03*
X267620Y900000D03*
X267620Y912700D03*
X267620Y925400D03*
X267620Y938100D03*
X267620Y950800D03*
X267620Y963500D03*
X267620Y976200D03*
X267620Y988900D03*
X267620Y1001600D03*
X267620Y1014300D03*
D32*
X365310Y940880D03*
X346860Y959090D03*
X365160Y959090D03*
X383460Y959090D03*
X383460Y940790D03*
X346760Y941090D03*
X346860Y922490D03*
X365160Y922390D03*
X383460Y922490D03*
M02*
