G04 EAGLE Gerber RS-274X export*
G75*
%MOMM*%
%FSLAX34Y34*%
%LPD*%
%INSolderpaste Top*%
%IPPOS*%
%AMOC8*
5,1,8,0,0,1.08239X$1,22.5*%
G01*
%ADD10R,1.000000X1.100000*%
%ADD11R,1.200000X0.550000*%
%ADD12R,0.900000X0.850000*%
%ADD13R,1.100000X1.000000*%
%ADD14R,0.600000X0.600000*%
%ADD15R,0.850000X1.520000*%
%ADD16R,1.520000X0.850000*%
%ADD17R,0.900000X0.900000*%
%ADD18R,0.300000X1.000000*%
%ADD19R,0.600000X1.000000*%
%ADD20R,0.250000X0.610000*%
%ADD21R,0.250000X0.560000*%
%ADD22R,4.600000X1.000000*%
%ADD23R,3.400000X1.600000*%
%ADD24R,0.600000X1.700000*%
%ADD25R,1.000000X2.700000*%
%ADD26R,0.630000X0.830000*%
%ADD27R,0.637500X0.250000*%
%ADD28R,0.640000X0.500000*%
%ADD29R,1.200000X2.000000*%
%ADD30R,0.600000X1.350000*%
%ADD31R,0.600000X1.200000*%
%ADD32R,1.524000X0.762000*%
%ADD33R,0.550000X0.800000*%
%ADD34R,0.550000X0.500000*%
%ADD35R,0.830000X0.630000*%
%ADD36R,0.275000X0.250000*%
%ADD37R,0.250000X0.275000*%
%ADD38R,0.850000X0.900000*%
%ADD39R,0.400000X0.800000*%
%ADD40R,0.250000X0.650000*%

G36*
X1071688Y41864D02*
X1071688Y41864D01*
X1071689Y41864D01*
X1072757Y41883D01*
X1072764Y41888D01*
X1072768Y41884D01*
X1073805Y42141D01*
X1073810Y42147D01*
X1073816Y42144D01*
X1074770Y42625D01*
X1074774Y42632D01*
X1074779Y42631D01*
X1075603Y43312D01*
X1075604Y43320D01*
X1075610Y43320D01*
X1076261Y44167D01*
X1076261Y44175D01*
X1076267Y44176D01*
X1076714Y45147D01*
X1076712Y45155D01*
X1076717Y45157D01*
X1076936Y46203D01*
X1076933Y46210D01*
X1076937Y46213D01*
X1076937Y58213D01*
X1076934Y58218D01*
X1076937Y58221D01*
X1076757Y59316D01*
X1076751Y59322D01*
X1076754Y59327D01*
X1076335Y60355D01*
X1076328Y60359D01*
X1076330Y60364D01*
X1075693Y61273D01*
X1075685Y61276D01*
X1075685Y61281D01*
X1074862Y62026D01*
X1074854Y62026D01*
X1074853Y62032D01*
X1073885Y62574D01*
X1073876Y62573D01*
X1073874Y62579D01*
X1072810Y62892D01*
X1072805Y62890D01*
X1072801Y62890D01*
X1072799Y62894D01*
X1071691Y62962D01*
X1071685Y62958D01*
X1071681Y62962D01*
X1070573Y62792D01*
X1070567Y62786D01*
X1070562Y62789D01*
X1069520Y62377D01*
X1069516Y62370D01*
X1069511Y62372D01*
X1068586Y61738D01*
X1068584Y61731D01*
X1068578Y61731D01*
X1067818Y60908D01*
X1067817Y60900D01*
X1067811Y60899D01*
X1067254Y59927D01*
X1067255Y59919D01*
X1067249Y59917D01*
X1066922Y58845D01*
X1066925Y58838D01*
X1066920Y58834D01*
X1066839Y57717D01*
X1066840Y57714D01*
X1066839Y57713D01*
X1066839Y45713D01*
X1066844Y45707D01*
X1066840Y45702D01*
X1067059Y44758D01*
X1067065Y44753D01*
X1067063Y44747D01*
X1067487Y43875D01*
X1067494Y43872D01*
X1067492Y43866D01*
X1068099Y43110D01*
X1068107Y43108D01*
X1068107Y43103D01*
X1068867Y42501D01*
X1068876Y42501D01*
X1068877Y42495D01*
X1069752Y42078D01*
X1069760Y42079D01*
X1069762Y42074D01*
X1070708Y41862D01*
X1070715Y41865D01*
X1070719Y41861D01*
X1071688Y41864D01*
G37*
G36*
X1185988Y41864D02*
X1185988Y41864D01*
X1185989Y41864D01*
X1187057Y41883D01*
X1187064Y41888D01*
X1187068Y41884D01*
X1188105Y42141D01*
X1188110Y42147D01*
X1188116Y42144D01*
X1189070Y42625D01*
X1189074Y42632D01*
X1189079Y42631D01*
X1189903Y43312D01*
X1189904Y43320D01*
X1189910Y43320D01*
X1190561Y44167D01*
X1190561Y44175D01*
X1190567Y44176D01*
X1191014Y45147D01*
X1191012Y45155D01*
X1191017Y45157D01*
X1191236Y46203D01*
X1191233Y46210D01*
X1191237Y46213D01*
X1191237Y58213D01*
X1191234Y58218D01*
X1191237Y58221D01*
X1191057Y59316D01*
X1191051Y59322D01*
X1191054Y59327D01*
X1190635Y60355D01*
X1190628Y60359D01*
X1190630Y60364D01*
X1189993Y61273D01*
X1189985Y61276D01*
X1189985Y61281D01*
X1189162Y62026D01*
X1189154Y62026D01*
X1189153Y62032D01*
X1188185Y62574D01*
X1188176Y62573D01*
X1188174Y62579D01*
X1187110Y62892D01*
X1187105Y62890D01*
X1187101Y62890D01*
X1187099Y62894D01*
X1185991Y62962D01*
X1185985Y62958D01*
X1185981Y62962D01*
X1184873Y62792D01*
X1184867Y62786D01*
X1184862Y62789D01*
X1183820Y62377D01*
X1183816Y62370D01*
X1183811Y62372D01*
X1182886Y61738D01*
X1182884Y61731D01*
X1182878Y61731D01*
X1182118Y60908D01*
X1182117Y60900D01*
X1182111Y60899D01*
X1181554Y59927D01*
X1181555Y59919D01*
X1181549Y59917D01*
X1181222Y58845D01*
X1181225Y58838D01*
X1181220Y58834D01*
X1181139Y57717D01*
X1181140Y57714D01*
X1181139Y57713D01*
X1181139Y45713D01*
X1181144Y45707D01*
X1181140Y45702D01*
X1181359Y44758D01*
X1181365Y44753D01*
X1181363Y44747D01*
X1181787Y43875D01*
X1181794Y43872D01*
X1181792Y43866D01*
X1182399Y43110D01*
X1182407Y43108D01*
X1182407Y43103D01*
X1183167Y42501D01*
X1183176Y42501D01*
X1183177Y42495D01*
X1184052Y42078D01*
X1184060Y42079D01*
X1184062Y42074D01*
X1185008Y41862D01*
X1185015Y41865D01*
X1185019Y41861D01*
X1185988Y41864D01*
G37*
G36*
X384618Y41864D02*
X384618Y41864D01*
X384619Y41864D01*
X385687Y41883D01*
X385694Y41888D01*
X385698Y41884D01*
X386735Y42141D01*
X386740Y42147D01*
X386746Y42144D01*
X387700Y42625D01*
X387704Y42632D01*
X387709Y42631D01*
X388533Y43312D01*
X388534Y43320D01*
X388540Y43320D01*
X389191Y44167D01*
X389191Y44175D01*
X389197Y44176D01*
X389644Y45147D01*
X389642Y45155D01*
X389647Y45157D01*
X389866Y46203D01*
X389863Y46210D01*
X389867Y46213D01*
X389867Y58213D01*
X389864Y58218D01*
X389867Y58221D01*
X389687Y59316D01*
X389681Y59322D01*
X389684Y59327D01*
X389265Y60355D01*
X389258Y60359D01*
X389260Y60364D01*
X388623Y61273D01*
X388615Y61276D01*
X388615Y61281D01*
X387792Y62026D01*
X387784Y62026D01*
X387783Y62032D01*
X386815Y62574D01*
X386806Y62573D01*
X386804Y62579D01*
X385740Y62892D01*
X385735Y62890D01*
X385731Y62890D01*
X385729Y62894D01*
X384621Y62962D01*
X384615Y62958D01*
X384611Y62962D01*
X383503Y62792D01*
X383497Y62786D01*
X383492Y62789D01*
X382450Y62377D01*
X382446Y62370D01*
X382441Y62372D01*
X381516Y61738D01*
X381514Y61731D01*
X381508Y61731D01*
X380748Y60908D01*
X380747Y60900D01*
X380741Y60899D01*
X380184Y59927D01*
X380185Y59919D01*
X380179Y59917D01*
X379852Y58845D01*
X379855Y58838D01*
X379850Y58834D01*
X379769Y57717D01*
X379770Y57714D01*
X379769Y57713D01*
X379769Y45713D01*
X379774Y45707D01*
X379770Y45702D01*
X379989Y44758D01*
X379995Y44753D01*
X379993Y44747D01*
X380417Y43875D01*
X380424Y43872D01*
X380422Y43866D01*
X381029Y43110D01*
X381037Y43108D01*
X381037Y43103D01*
X381797Y42501D01*
X381806Y42501D01*
X381807Y42495D01*
X382682Y42078D01*
X382690Y42079D01*
X382692Y42074D01*
X383638Y41862D01*
X383645Y41865D01*
X383649Y41861D01*
X384618Y41864D01*
G37*
G36*
X1873058Y41864D02*
X1873058Y41864D01*
X1873059Y41864D01*
X1874127Y41883D01*
X1874134Y41888D01*
X1874138Y41884D01*
X1875175Y42141D01*
X1875180Y42147D01*
X1875186Y42144D01*
X1876140Y42625D01*
X1876144Y42632D01*
X1876149Y42631D01*
X1876973Y43312D01*
X1876974Y43320D01*
X1876980Y43320D01*
X1877631Y44167D01*
X1877631Y44175D01*
X1877637Y44176D01*
X1878084Y45147D01*
X1878082Y45155D01*
X1878087Y45157D01*
X1878306Y46203D01*
X1878303Y46210D01*
X1878307Y46213D01*
X1878307Y58213D01*
X1878304Y58218D01*
X1878307Y58221D01*
X1878127Y59316D01*
X1878121Y59322D01*
X1878124Y59327D01*
X1877705Y60355D01*
X1877698Y60359D01*
X1877700Y60364D01*
X1877063Y61273D01*
X1877055Y61276D01*
X1877055Y61281D01*
X1876232Y62026D01*
X1876224Y62026D01*
X1876223Y62032D01*
X1875255Y62574D01*
X1875246Y62573D01*
X1875244Y62579D01*
X1874180Y62892D01*
X1874175Y62890D01*
X1874171Y62890D01*
X1874169Y62894D01*
X1873061Y62962D01*
X1873055Y62958D01*
X1873051Y62962D01*
X1871943Y62792D01*
X1871937Y62786D01*
X1871932Y62789D01*
X1870890Y62377D01*
X1870886Y62370D01*
X1870881Y62372D01*
X1869956Y61738D01*
X1869954Y61731D01*
X1869948Y61731D01*
X1869188Y60908D01*
X1869187Y60900D01*
X1869181Y60899D01*
X1868624Y59927D01*
X1868625Y59919D01*
X1868619Y59917D01*
X1868292Y58845D01*
X1868295Y58838D01*
X1868290Y58834D01*
X1868209Y57717D01*
X1868210Y57714D01*
X1868209Y57713D01*
X1868209Y45713D01*
X1868214Y45707D01*
X1868210Y45702D01*
X1868429Y44758D01*
X1868435Y44753D01*
X1868433Y44747D01*
X1868857Y43875D01*
X1868864Y43872D01*
X1868862Y43866D01*
X1869469Y43110D01*
X1869477Y43108D01*
X1869477Y43103D01*
X1870237Y42501D01*
X1870246Y42501D01*
X1870247Y42495D01*
X1871122Y42078D01*
X1871130Y42079D01*
X1871132Y42074D01*
X1872078Y41862D01*
X1872085Y41865D01*
X1872089Y41861D01*
X1873058Y41864D01*
G37*
G36*
X498918Y41864D02*
X498918Y41864D01*
X498919Y41864D01*
X499987Y41883D01*
X499994Y41888D01*
X499998Y41884D01*
X501035Y42141D01*
X501040Y42147D01*
X501046Y42144D01*
X502000Y42625D01*
X502004Y42632D01*
X502009Y42631D01*
X502833Y43312D01*
X502834Y43320D01*
X502840Y43320D01*
X503491Y44167D01*
X503491Y44175D01*
X503497Y44176D01*
X503944Y45147D01*
X503942Y45155D01*
X503947Y45157D01*
X504166Y46203D01*
X504163Y46210D01*
X504167Y46213D01*
X504167Y58213D01*
X504164Y58218D01*
X504167Y58221D01*
X503987Y59316D01*
X503981Y59322D01*
X503984Y59327D01*
X503565Y60355D01*
X503558Y60359D01*
X503560Y60364D01*
X502923Y61273D01*
X502915Y61276D01*
X502915Y61281D01*
X502092Y62026D01*
X502084Y62026D01*
X502083Y62032D01*
X501115Y62574D01*
X501106Y62573D01*
X501104Y62579D01*
X500040Y62892D01*
X500035Y62890D01*
X500031Y62890D01*
X500029Y62894D01*
X498921Y62962D01*
X498915Y62958D01*
X498911Y62962D01*
X497803Y62792D01*
X497797Y62786D01*
X497792Y62789D01*
X496750Y62377D01*
X496746Y62370D01*
X496741Y62372D01*
X495816Y61738D01*
X495814Y61731D01*
X495808Y61731D01*
X495048Y60908D01*
X495047Y60900D01*
X495041Y60899D01*
X494484Y59927D01*
X494485Y59919D01*
X494479Y59917D01*
X494152Y58845D01*
X494155Y58838D01*
X494150Y58834D01*
X494069Y57717D01*
X494070Y57714D01*
X494069Y57713D01*
X494069Y45713D01*
X494074Y45707D01*
X494070Y45702D01*
X494289Y44758D01*
X494295Y44753D01*
X494293Y44747D01*
X494717Y43875D01*
X494724Y43872D01*
X494722Y43866D01*
X495329Y43110D01*
X495337Y43108D01*
X495337Y43103D01*
X496097Y42501D01*
X496106Y42501D01*
X496107Y42495D01*
X496982Y42078D01*
X496990Y42079D01*
X496992Y42074D01*
X497938Y41862D01*
X497945Y41865D01*
X497949Y41861D01*
X498918Y41864D01*
G37*
G36*
X1758758Y41864D02*
X1758758Y41864D01*
X1758759Y41864D01*
X1759827Y41883D01*
X1759834Y41888D01*
X1759838Y41884D01*
X1760875Y42141D01*
X1760880Y42147D01*
X1760886Y42144D01*
X1761840Y42625D01*
X1761844Y42632D01*
X1761849Y42631D01*
X1762673Y43312D01*
X1762674Y43320D01*
X1762680Y43320D01*
X1763331Y44167D01*
X1763331Y44175D01*
X1763337Y44176D01*
X1763784Y45147D01*
X1763782Y45155D01*
X1763787Y45157D01*
X1764006Y46203D01*
X1764003Y46210D01*
X1764007Y46213D01*
X1764007Y58213D01*
X1764004Y58218D01*
X1764007Y58221D01*
X1763827Y59316D01*
X1763821Y59322D01*
X1763824Y59327D01*
X1763405Y60355D01*
X1763398Y60359D01*
X1763400Y60364D01*
X1762763Y61273D01*
X1762755Y61276D01*
X1762755Y61281D01*
X1761932Y62026D01*
X1761924Y62026D01*
X1761923Y62032D01*
X1760955Y62574D01*
X1760946Y62573D01*
X1760944Y62579D01*
X1759880Y62892D01*
X1759875Y62890D01*
X1759871Y62890D01*
X1759869Y62894D01*
X1758761Y62962D01*
X1758755Y62958D01*
X1758751Y62962D01*
X1757643Y62792D01*
X1757637Y62786D01*
X1757632Y62789D01*
X1756590Y62377D01*
X1756586Y62370D01*
X1756581Y62372D01*
X1755656Y61738D01*
X1755654Y61731D01*
X1755648Y61731D01*
X1754888Y60908D01*
X1754887Y60900D01*
X1754881Y60899D01*
X1754324Y59927D01*
X1754325Y59919D01*
X1754319Y59917D01*
X1753992Y58845D01*
X1753995Y58838D01*
X1753990Y58834D01*
X1753909Y57717D01*
X1753910Y57714D01*
X1753909Y57713D01*
X1753909Y45713D01*
X1753914Y45707D01*
X1753910Y45702D01*
X1754129Y44758D01*
X1754135Y44753D01*
X1754133Y44747D01*
X1754557Y43875D01*
X1754564Y43872D01*
X1754562Y43866D01*
X1755169Y43110D01*
X1755177Y43108D01*
X1755177Y43103D01*
X1755937Y42501D01*
X1755946Y42501D01*
X1755947Y42495D01*
X1756822Y42078D01*
X1756830Y42079D01*
X1756832Y42074D01*
X1757778Y41862D01*
X1757785Y41865D01*
X1757789Y41861D01*
X1758758Y41864D01*
G37*
G36*
X299199Y41873D02*
X299199Y41873D01*
X299206Y41878D01*
X299210Y41874D01*
X300262Y42124D01*
X300267Y42130D01*
X300272Y42127D01*
X301242Y42604D01*
X301245Y42612D01*
X301251Y42610D01*
X302090Y43291D01*
X302092Y43299D01*
X302098Y43299D01*
X302764Y44150D01*
X302765Y44158D01*
X302770Y44159D01*
X303231Y45137D01*
X303229Y45145D01*
X303235Y45147D01*
X303466Y46203D01*
X303463Y46210D01*
X303467Y46213D01*
X303467Y58213D01*
X303463Y58218D01*
X303467Y58222D01*
X303274Y59327D01*
X303268Y59332D01*
X303271Y59337D01*
X302838Y60372D01*
X302831Y60376D01*
X302833Y60382D01*
X302180Y61294D01*
X302172Y61296D01*
X302173Y61302D01*
X301334Y62046D01*
X301325Y62047D01*
X301325Y62053D01*
X300341Y62591D01*
X300333Y62590D01*
X300331Y62596D01*
X299252Y62902D01*
X299244Y62899D01*
X299241Y62904D01*
X298121Y62962D01*
X298116Y62959D01*
X298113Y62962D01*
X297067Y62844D01*
X297061Y62839D01*
X297056Y62842D01*
X296062Y62494D01*
X296058Y62487D01*
X296053Y62489D01*
X295161Y61929D01*
X295159Y61922D01*
X295153Y61923D01*
X294409Y61178D01*
X294407Y61170D01*
X294402Y61170D01*
X293842Y60279D01*
X293842Y60271D01*
X293837Y60269D01*
X293489Y59275D01*
X293492Y59267D01*
X293487Y59265D01*
X293369Y58219D01*
X293371Y58215D01*
X293369Y58213D01*
X293369Y46213D01*
X293372Y46209D01*
X293369Y46206D01*
X293527Y45209D01*
X293533Y45203D01*
X293530Y45199D01*
X293905Y44262D01*
X293912Y44258D01*
X293910Y44253D01*
X294484Y43423D01*
X294492Y43421D01*
X294491Y43415D01*
X295235Y42734D01*
X295244Y42733D01*
X295244Y42727D01*
X296121Y42229D01*
X296130Y42230D01*
X296132Y42225D01*
X297097Y41934D01*
X297105Y41937D01*
X297108Y41932D01*
X298115Y41864D01*
X298117Y41866D01*
X298118Y41864D01*
X299199Y41873D01*
G37*
G36*
X1787639Y41873D02*
X1787639Y41873D01*
X1787646Y41878D01*
X1787650Y41874D01*
X1788702Y42124D01*
X1788707Y42130D01*
X1788712Y42127D01*
X1789682Y42604D01*
X1789685Y42612D01*
X1789691Y42610D01*
X1790530Y43291D01*
X1790532Y43299D01*
X1790538Y43299D01*
X1791204Y44150D01*
X1791205Y44158D01*
X1791210Y44159D01*
X1791671Y45137D01*
X1791669Y45145D01*
X1791675Y45147D01*
X1791906Y46203D01*
X1791903Y46210D01*
X1791907Y46213D01*
X1791907Y58213D01*
X1791903Y58218D01*
X1791907Y58222D01*
X1791714Y59327D01*
X1791708Y59332D01*
X1791711Y59337D01*
X1791278Y60372D01*
X1791271Y60376D01*
X1791273Y60382D01*
X1790620Y61294D01*
X1790612Y61296D01*
X1790613Y61302D01*
X1789774Y62046D01*
X1789765Y62047D01*
X1789765Y62053D01*
X1788781Y62591D01*
X1788773Y62590D01*
X1788771Y62596D01*
X1787692Y62902D01*
X1787684Y62899D01*
X1787681Y62904D01*
X1786561Y62962D01*
X1786556Y62959D01*
X1786553Y62962D01*
X1785507Y62844D01*
X1785501Y62839D01*
X1785496Y62842D01*
X1784502Y62494D01*
X1784498Y62487D01*
X1784493Y62489D01*
X1783601Y61929D01*
X1783599Y61922D01*
X1783593Y61923D01*
X1782849Y61178D01*
X1782847Y61170D01*
X1782842Y61170D01*
X1782282Y60279D01*
X1782282Y60271D01*
X1782277Y60269D01*
X1781929Y59275D01*
X1781932Y59267D01*
X1781927Y59265D01*
X1781809Y58219D01*
X1781811Y58215D01*
X1781809Y58213D01*
X1781809Y46213D01*
X1781812Y46209D01*
X1781809Y46206D01*
X1781967Y45209D01*
X1781973Y45203D01*
X1781970Y45199D01*
X1782345Y44262D01*
X1782352Y44258D01*
X1782350Y44253D01*
X1782924Y43423D01*
X1782932Y43421D01*
X1782931Y43415D01*
X1783675Y42734D01*
X1783684Y42733D01*
X1783684Y42727D01*
X1784561Y42229D01*
X1784570Y42230D01*
X1784572Y42225D01*
X1785537Y41934D01*
X1785545Y41937D01*
X1785548Y41932D01*
X1786555Y41864D01*
X1786557Y41866D01*
X1786558Y41864D01*
X1787639Y41873D01*
G37*
G36*
X1673339Y41873D02*
X1673339Y41873D01*
X1673346Y41878D01*
X1673350Y41874D01*
X1674402Y42124D01*
X1674407Y42130D01*
X1674412Y42127D01*
X1675382Y42604D01*
X1675385Y42612D01*
X1675391Y42610D01*
X1676230Y43291D01*
X1676232Y43299D01*
X1676238Y43299D01*
X1676904Y44150D01*
X1676905Y44158D01*
X1676910Y44159D01*
X1677371Y45137D01*
X1677369Y45145D01*
X1677375Y45147D01*
X1677606Y46203D01*
X1677603Y46210D01*
X1677607Y46213D01*
X1677607Y58213D01*
X1677603Y58218D01*
X1677607Y58222D01*
X1677414Y59327D01*
X1677408Y59332D01*
X1677411Y59337D01*
X1676978Y60372D01*
X1676971Y60376D01*
X1676973Y60382D01*
X1676320Y61294D01*
X1676312Y61296D01*
X1676313Y61302D01*
X1675474Y62046D01*
X1675465Y62047D01*
X1675465Y62053D01*
X1674481Y62591D01*
X1674473Y62590D01*
X1674471Y62596D01*
X1673392Y62902D01*
X1673384Y62899D01*
X1673381Y62904D01*
X1672261Y62962D01*
X1672256Y62959D01*
X1672253Y62962D01*
X1671207Y62844D01*
X1671201Y62839D01*
X1671196Y62842D01*
X1670202Y62494D01*
X1670198Y62487D01*
X1670193Y62489D01*
X1669301Y61929D01*
X1669299Y61922D01*
X1669293Y61923D01*
X1668549Y61178D01*
X1668547Y61170D01*
X1668542Y61170D01*
X1667982Y60279D01*
X1667982Y60271D01*
X1667977Y60269D01*
X1667629Y59275D01*
X1667632Y59267D01*
X1667627Y59265D01*
X1667509Y58219D01*
X1667511Y58215D01*
X1667509Y58213D01*
X1667509Y46213D01*
X1667512Y46209D01*
X1667509Y46206D01*
X1667667Y45209D01*
X1667673Y45203D01*
X1667670Y45199D01*
X1668045Y44262D01*
X1668052Y44258D01*
X1668050Y44253D01*
X1668624Y43423D01*
X1668632Y43421D01*
X1668631Y43415D01*
X1669375Y42734D01*
X1669384Y42733D01*
X1669384Y42727D01*
X1670261Y42229D01*
X1670270Y42230D01*
X1670272Y42225D01*
X1671237Y41934D01*
X1671245Y41937D01*
X1671248Y41932D01*
X1672255Y41864D01*
X1672257Y41866D01*
X1672258Y41864D01*
X1673339Y41873D01*
G37*
G36*
X986269Y41873D02*
X986269Y41873D01*
X986276Y41878D01*
X986280Y41874D01*
X987332Y42124D01*
X987337Y42130D01*
X987342Y42127D01*
X988312Y42604D01*
X988315Y42612D01*
X988321Y42610D01*
X989160Y43291D01*
X989162Y43299D01*
X989168Y43299D01*
X989834Y44150D01*
X989835Y44158D01*
X989840Y44159D01*
X990301Y45137D01*
X990299Y45145D01*
X990305Y45147D01*
X990536Y46203D01*
X990533Y46210D01*
X990537Y46213D01*
X990537Y58213D01*
X990533Y58218D01*
X990537Y58222D01*
X990344Y59327D01*
X990338Y59332D01*
X990341Y59337D01*
X989908Y60372D01*
X989901Y60376D01*
X989903Y60382D01*
X989250Y61294D01*
X989242Y61296D01*
X989243Y61302D01*
X988404Y62046D01*
X988395Y62047D01*
X988395Y62053D01*
X987411Y62591D01*
X987403Y62590D01*
X987401Y62596D01*
X986322Y62902D01*
X986314Y62899D01*
X986311Y62904D01*
X985191Y62962D01*
X985186Y62959D01*
X985183Y62962D01*
X984137Y62844D01*
X984131Y62839D01*
X984126Y62842D01*
X983132Y62494D01*
X983128Y62487D01*
X983123Y62489D01*
X982231Y61929D01*
X982229Y61922D01*
X982223Y61923D01*
X981479Y61178D01*
X981477Y61170D01*
X981472Y61170D01*
X980912Y60279D01*
X980912Y60271D01*
X980907Y60269D01*
X980559Y59275D01*
X980562Y59267D01*
X980557Y59265D01*
X980439Y58219D01*
X980441Y58215D01*
X980439Y58213D01*
X980439Y46213D01*
X980442Y46209D01*
X980439Y46206D01*
X980597Y45209D01*
X980603Y45203D01*
X980600Y45199D01*
X980975Y44262D01*
X980982Y44258D01*
X980980Y44253D01*
X981554Y43423D01*
X981562Y43421D01*
X981561Y43415D01*
X982305Y42734D01*
X982314Y42733D01*
X982314Y42727D01*
X983191Y42229D01*
X983200Y42230D01*
X983202Y42225D01*
X984167Y41934D01*
X984175Y41937D01*
X984178Y41932D01*
X985185Y41864D01*
X985187Y41866D01*
X985188Y41864D01*
X986269Y41873D01*
G37*
G36*
X1100569Y41873D02*
X1100569Y41873D01*
X1100576Y41878D01*
X1100580Y41874D01*
X1101632Y42124D01*
X1101637Y42130D01*
X1101642Y42127D01*
X1102612Y42604D01*
X1102615Y42612D01*
X1102621Y42610D01*
X1103460Y43291D01*
X1103462Y43299D01*
X1103468Y43299D01*
X1104134Y44150D01*
X1104135Y44158D01*
X1104140Y44159D01*
X1104601Y45137D01*
X1104599Y45145D01*
X1104605Y45147D01*
X1104836Y46203D01*
X1104833Y46210D01*
X1104837Y46213D01*
X1104837Y58213D01*
X1104833Y58218D01*
X1104837Y58222D01*
X1104644Y59327D01*
X1104638Y59332D01*
X1104641Y59337D01*
X1104208Y60372D01*
X1104201Y60376D01*
X1104203Y60382D01*
X1103550Y61294D01*
X1103542Y61296D01*
X1103543Y61302D01*
X1102704Y62046D01*
X1102695Y62047D01*
X1102695Y62053D01*
X1101711Y62591D01*
X1101703Y62590D01*
X1101701Y62596D01*
X1100622Y62902D01*
X1100614Y62899D01*
X1100611Y62904D01*
X1099491Y62962D01*
X1099486Y62959D01*
X1099483Y62962D01*
X1098437Y62844D01*
X1098431Y62839D01*
X1098426Y62842D01*
X1097432Y62494D01*
X1097428Y62487D01*
X1097423Y62489D01*
X1096531Y61929D01*
X1096529Y61922D01*
X1096523Y61923D01*
X1095779Y61178D01*
X1095777Y61170D01*
X1095772Y61170D01*
X1095212Y60279D01*
X1095212Y60271D01*
X1095207Y60269D01*
X1094859Y59275D01*
X1094862Y59267D01*
X1094857Y59265D01*
X1094739Y58219D01*
X1094741Y58215D01*
X1094739Y58213D01*
X1094739Y46213D01*
X1094742Y46209D01*
X1094739Y46206D01*
X1094897Y45209D01*
X1094903Y45203D01*
X1094900Y45199D01*
X1095275Y44262D01*
X1095282Y44258D01*
X1095280Y44253D01*
X1095854Y43423D01*
X1095862Y43421D01*
X1095861Y43415D01*
X1096605Y42734D01*
X1096614Y42733D01*
X1096614Y42727D01*
X1097491Y42229D01*
X1097500Y42230D01*
X1097502Y42225D01*
X1098467Y41934D01*
X1098475Y41937D01*
X1098478Y41932D01*
X1099485Y41864D01*
X1099487Y41866D01*
X1099488Y41864D01*
X1100569Y41873D01*
G37*
G36*
X413499Y41873D02*
X413499Y41873D01*
X413506Y41878D01*
X413510Y41874D01*
X414562Y42124D01*
X414567Y42130D01*
X414572Y42127D01*
X415542Y42604D01*
X415545Y42612D01*
X415551Y42610D01*
X416390Y43291D01*
X416392Y43299D01*
X416398Y43299D01*
X417064Y44150D01*
X417065Y44158D01*
X417070Y44159D01*
X417531Y45137D01*
X417529Y45145D01*
X417535Y45147D01*
X417766Y46203D01*
X417763Y46210D01*
X417767Y46213D01*
X417767Y58213D01*
X417763Y58218D01*
X417767Y58222D01*
X417574Y59327D01*
X417568Y59332D01*
X417571Y59337D01*
X417138Y60372D01*
X417131Y60376D01*
X417133Y60382D01*
X416480Y61294D01*
X416472Y61296D01*
X416473Y61302D01*
X415634Y62046D01*
X415625Y62047D01*
X415625Y62053D01*
X414641Y62591D01*
X414633Y62590D01*
X414631Y62596D01*
X413552Y62902D01*
X413544Y62899D01*
X413541Y62904D01*
X412421Y62962D01*
X412416Y62959D01*
X412413Y62962D01*
X411367Y62844D01*
X411361Y62839D01*
X411356Y62842D01*
X410362Y62494D01*
X410358Y62487D01*
X410353Y62489D01*
X409461Y61929D01*
X409459Y61922D01*
X409453Y61923D01*
X408709Y61178D01*
X408707Y61170D01*
X408702Y61170D01*
X408142Y60279D01*
X408142Y60271D01*
X408137Y60269D01*
X407789Y59275D01*
X407792Y59267D01*
X407787Y59265D01*
X407669Y58219D01*
X407671Y58215D01*
X407669Y58213D01*
X407669Y46213D01*
X407672Y46209D01*
X407669Y46206D01*
X407827Y45209D01*
X407833Y45203D01*
X407830Y45199D01*
X408205Y44262D01*
X408212Y44258D01*
X408210Y44253D01*
X408784Y43423D01*
X408792Y43421D01*
X408791Y43415D01*
X409535Y42734D01*
X409544Y42733D01*
X409544Y42727D01*
X410421Y42229D01*
X410430Y42230D01*
X410432Y42225D01*
X411397Y41934D01*
X411405Y41937D01*
X411408Y41932D01*
X412415Y41864D01*
X412417Y41866D01*
X412418Y41864D01*
X413499Y41873D01*
G37*
G36*
X1186492Y2368D02*
X1186492Y2368D01*
X1186495Y2364D01*
X1187571Y2519D01*
X1187576Y2525D01*
X1187581Y2522D01*
X1188595Y2913D01*
X1188599Y2920D01*
X1188605Y2918D01*
X1189507Y3524D01*
X1189509Y3532D01*
X1189515Y3531D01*
X1190259Y4323D01*
X1190260Y4331D01*
X1190266Y4332D01*
X1190815Y5269D01*
X1190814Y5277D01*
X1190820Y5279D01*
X1191147Y6315D01*
X1191144Y6323D01*
X1191149Y6326D01*
X1191237Y7409D01*
X1191235Y7412D01*
X1191237Y7413D01*
X1191237Y13413D01*
X1191234Y13417D01*
X1191237Y13420D01*
X1191087Y14552D01*
X1191081Y14558D01*
X1191084Y14563D01*
X1190686Y15633D01*
X1190679Y15638D01*
X1190681Y15643D01*
X1190054Y16598D01*
X1190046Y16601D01*
X1190047Y16607D01*
X1189224Y17398D01*
X1189216Y17399D01*
X1189215Y17405D01*
X1188236Y17994D01*
X1188228Y17993D01*
X1188226Y17998D01*
X1187141Y18354D01*
X1187133Y18352D01*
X1187130Y18357D01*
X1185993Y18462D01*
X1185984Y18457D01*
X1185979Y18462D01*
X1184842Y18255D01*
X1184836Y18249D01*
X1184831Y18251D01*
X1183769Y17797D01*
X1183765Y17789D01*
X1183759Y17791D01*
X1182824Y17111D01*
X1182822Y17103D01*
X1182816Y17104D01*
X1182056Y16233D01*
X1182056Y16225D01*
X1182050Y16224D01*
X1181503Y15206D01*
X1181504Y15198D01*
X1181499Y15195D01*
X1181495Y15182D01*
X1181482Y15133D01*
X1181481Y15133D01*
X1181482Y15133D01*
X1181468Y15084D01*
X1181454Y15035D01*
X1181454Y15034D01*
X1181441Y14985D01*
X1181427Y14936D01*
X1181414Y14887D01*
X1181400Y14838D01*
X1181400Y14837D01*
X1181387Y14788D01*
X1181373Y14739D01*
X1181359Y14690D01*
X1181346Y14641D01*
X1181346Y14640D01*
X1181332Y14591D01*
X1181319Y14542D01*
X1181305Y14493D01*
X1181292Y14444D01*
X1181292Y14443D01*
X1181278Y14394D01*
X1181265Y14345D01*
X1181264Y14345D01*
X1181251Y14296D01*
X1181237Y14247D01*
X1181192Y14081D01*
X1181195Y14073D01*
X1181190Y14070D01*
X1181139Y12915D01*
X1181140Y12914D01*
X1181139Y12913D01*
X1181139Y6913D01*
X1181143Y6908D01*
X1181140Y6904D01*
X1181352Y5823D01*
X1181358Y5818D01*
X1181355Y5813D01*
X1181802Y4807D01*
X1181809Y4803D01*
X1181807Y4797D01*
X1182467Y3916D01*
X1182475Y3914D01*
X1182475Y3908D01*
X1183314Y3195D01*
X1183322Y3195D01*
X1183323Y3189D01*
X1184300Y2681D01*
X1184308Y2683D01*
X1184310Y2677D01*
X1185375Y2399D01*
X1185383Y2403D01*
X1185386Y2398D01*
X1186487Y2364D01*
X1186492Y2368D01*
G37*
G36*
X1072192Y2368D02*
X1072192Y2368D01*
X1072195Y2364D01*
X1073271Y2519D01*
X1073276Y2525D01*
X1073281Y2522D01*
X1074295Y2913D01*
X1074299Y2920D01*
X1074305Y2918D01*
X1075207Y3524D01*
X1075209Y3532D01*
X1075215Y3531D01*
X1075959Y4323D01*
X1075960Y4331D01*
X1075966Y4332D01*
X1076515Y5269D01*
X1076514Y5277D01*
X1076520Y5279D01*
X1076847Y6315D01*
X1076844Y6323D01*
X1076849Y6326D01*
X1076937Y7409D01*
X1076935Y7412D01*
X1076937Y7413D01*
X1076937Y13413D01*
X1076934Y13417D01*
X1076937Y13420D01*
X1076787Y14552D01*
X1076781Y14558D01*
X1076784Y14563D01*
X1076386Y15633D01*
X1076379Y15638D01*
X1076381Y15643D01*
X1075754Y16598D01*
X1075746Y16601D01*
X1075747Y16607D01*
X1074924Y17398D01*
X1074916Y17399D01*
X1074915Y17405D01*
X1073936Y17994D01*
X1073928Y17993D01*
X1073926Y17998D01*
X1072841Y18354D01*
X1072833Y18352D01*
X1072830Y18357D01*
X1071693Y18462D01*
X1071684Y18457D01*
X1071679Y18462D01*
X1070542Y18255D01*
X1070536Y18249D01*
X1070531Y18251D01*
X1069469Y17797D01*
X1069465Y17789D01*
X1069459Y17791D01*
X1068524Y17111D01*
X1068522Y17103D01*
X1068516Y17104D01*
X1067756Y16233D01*
X1067756Y16225D01*
X1067750Y16224D01*
X1067203Y15206D01*
X1067204Y15198D01*
X1067199Y15195D01*
X1067195Y15182D01*
X1067182Y15133D01*
X1067181Y15133D01*
X1067182Y15133D01*
X1067168Y15084D01*
X1067154Y15035D01*
X1067154Y15034D01*
X1067141Y14985D01*
X1067127Y14936D01*
X1067114Y14887D01*
X1067100Y14838D01*
X1067100Y14837D01*
X1067087Y14788D01*
X1067073Y14739D01*
X1067059Y14690D01*
X1067046Y14641D01*
X1067046Y14640D01*
X1067032Y14591D01*
X1067019Y14542D01*
X1067005Y14493D01*
X1066992Y14444D01*
X1066992Y14443D01*
X1066978Y14394D01*
X1066965Y14345D01*
X1066964Y14345D01*
X1066951Y14296D01*
X1066937Y14247D01*
X1066892Y14081D01*
X1066895Y14073D01*
X1066890Y14070D01*
X1066839Y12915D01*
X1066840Y12914D01*
X1066839Y12913D01*
X1066839Y6913D01*
X1066843Y6908D01*
X1066840Y6904D01*
X1067052Y5823D01*
X1067058Y5818D01*
X1067055Y5813D01*
X1067502Y4807D01*
X1067509Y4803D01*
X1067507Y4797D01*
X1068167Y3916D01*
X1068175Y3914D01*
X1068175Y3908D01*
X1069014Y3195D01*
X1069022Y3195D01*
X1069023Y3189D01*
X1070000Y2681D01*
X1070008Y2683D01*
X1070010Y2677D01*
X1071075Y2399D01*
X1071083Y2403D01*
X1071086Y2398D01*
X1072187Y2364D01*
X1072192Y2368D01*
G37*
G36*
X385122Y2368D02*
X385122Y2368D01*
X385125Y2364D01*
X386201Y2519D01*
X386206Y2525D01*
X386211Y2522D01*
X387225Y2913D01*
X387229Y2920D01*
X387235Y2918D01*
X388137Y3524D01*
X388139Y3532D01*
X388145Y3531D01*
X388889Y4323D01*
X388890Y4331D01*
X388896Y4332D01*
X389445Y5269D01*
X389444Y5277D01*
X389450Y5279D01*
X389777Y6315D01*
X389774Y6323D01*
X389779Y6326D01*
X389867Y7409D01*
X389865Y7412D01*
X389867Y7413D01*
X389867Y13413D01*
X389864Y13417D01*
X389867Y13420D01*
X389717Y14552D01*
X389711Y14558D01*
X389714Y14563D01*
X389316Y15633D01*
X389309Y15638D01*
X389311Y15643D01*
X388684Y16598D01*
X388676Y16601D01*
X388677Y16607D01*
X387854Y17398D01*
X387846Y17399D01*
X387845Y17405D01*
X386866Y17994D01*
X386858Y17993D01*
X386856Y17998D01*
X385771Y18354D01*
X385763Y18352D01*
X385760Y18357D01*
X384623Y18462D01*
X384614Y18457D01*
X384609Y18462D01*
X383472Y18255D01*
X383466Y18249D01*
X383461Y18251D01*
X382399Y17797D01*
X382395Y17789D01*
X382389Y17791D01*
X381454Y17111D01*
X381452Y17103D01*
X381446Y17104D01*
X380686Y16233D01*
X380686Y16225D01*
X380680Y16224D01*
X380133Y15206D01*
X380134Y15198D01*
X380129Y15195D01*
X380125Y15182D01*
X380112Y15133D01*
X380111Y15133D01*
X380112Y15133D01*
X380098Y15084D01*
X380084Y15035D01*
X380084Y15034D01*
X380071Y14985D01*
X380057Y14936D01*
X380044Y14887D01*
X380030Y14838D01*
X380030Y14837D01*
X380017Y14788D01*
X380003Y14739D01*
X379989Y14690D01*
X379976Y14641D01*
X379976Y14640D01*
X379962Y14591D01*
X379949Y14542D01*
X379935Y14493D01*
X379922Y14444D01*
X379922Y14443D01*
X379908Y14394D01*
X379895Y14345D01*
X379894Y14345D01*
X379881Y14296D01*
X379867Y14247D01*
X379822Y14081D01*
X379825Y14073D01*
X379820Y14070D01*
X379769Y12915D01*
X379770Y12914D01*
X379769Y12913D01*
X379769Y6913D01*
X379773Y6908D01*
X379770Y6904D01*
X379982Y5823D01*
X379988Y5818D01*
X379985Y5813D01*
X380432Y4807D01*
X380439Y4803D01*
X380437Y4797D01*
X381097Y3916D01*
X381105Y3914D01*
X381105Y3908D01*
X381944Y3195D01*
X381952Y3195D01*
X381953Y3189D01*
X382930Y2681D01*
X382938Y2683D01*
X382940Y2677D01*
X384005Y2399D01*
X384013Y2403D01*
X384016Y2398D01*
X385117Y2364D01*
X385122Y2368D01*
G37*
G36*
X1759262Y2368D02*
X1759262Y2368D01*
X1759265Y2364D01*
X1760341Y2519D01*
X1760346Y2525D01*
X1760351Y2522D01*
X1761365Y2913D01*
X1761369Y2920D01*
X1761375Y2918D01*
X1762277Y3524D01*
X1762279Y3532D01*
X1762285Y3531D01*
X1763029Y4323D01*
X1763030Y4331D01*
X1763036Y4332D01*
X1763585Y5269D01*
X1763584Y5277D01*
X1763590Y5279D01*
X1763917Y6315D01*
X1763914Y6323D01*
X1763919Y6326D01*
X1764007Y7409D01*
X1764005Y7412D01*
X1764007Y7413D01*
X1764007Y13413D01*
X1764004Y13417D01*
X1764007Y13420D01*
X1763857Y14552D01*
X1763851Y14558D01*
X1763854Y14563D01*
X1763456Y15633D01*
X1763449Y15638D01*
X1763451Y15643D01*
X1762824Y16598D01*
X1762816Y16601D01*
X1762817Y16607D01*
X1761994Y17398D01*
X1761986Y17399D01*
X1761985Y17405D01*
X1761006Y17994D01*
X1760998Y17993D01*
X1760996Y17998D01*
X1759911Y18354D01*
X1759903Y18352D01*
X1759900Y18357D01*
X1758763Y18462D01*
X1758754Y18457D01*
X1758749Y18462D01*
X1757612Y18255D01*
X1757606Y18249D01*
X1757601Y18251D01*
X1756539Y17797D01*
X1756535Y17789D01*
X1756529Y17791D01*
X1755594Y17111D01*
X1755592Y17103D01*
X1755586Y17104D01*
X1754826Y16233D01*
X1754826Y16225D01*
X1754820Y16224D01*
X1754273Y15206D01*
X1754274Y15198D01*
X1754269Y15195D01*
X1754265Y15182D01*
X1754252Y15133D01*
X1754251Y15133D01*
X1754252Y15133D01*
X1754238Y15084D01*
X1754224Y15035D01*
X1754224Y15034D01*
X1754211Y14985D01*
X1754197Y14936D01*
X1754184Y14887D01*
X1754170Y14838D01*
X1754170Y14837D01*
X1754157Y14788D01*
X1754143Y14739D01*
X1754129Y14690D01*
X1754116Y14641D01*
X1754116Y14640D01*
X1754102Y14591D01*
X1754089Y14542D01*
X1754075Y14493D01*
X1754062Y14444D01*
X1754062Y14443D01*
X1754048Y14394D01*
X1754035Y14345D01*
X1754034Y14345D01*
X1754021Y14296D01*
X1754007Y14247D01*
X1753962Y14081D01*
X1753965Y14073D01*
X1753960Y14070D01*
X1753909Y12915D01*
X1753910Y12914D01*
X1753909Y12913D01*
X1753909Y6913D01*
X1753913Y6908D01*
X1753910Y6904D01*
X1754122Y5823D01*
X1754128Y5818D01*
X1754125Y5813D01*
X1754572Y4807D01*
X1754579Y4803D01*
X1754577Y4797D01*
X1755237Y3916D01*
X1755245Y3914D01*
X1755245Y3908D01*
X1756084Y3195D01*
X1756092Y3195D01*
X1756093Y3189D01*
X1757070Y2681D01*
X1757078Y2683D01*
X1757080Y2677D01*
X1758145Y2399D01*
X1758153Y2403D01*
X1758156Y2398D01*
X1759257Y2364D01*
X1759262Y2368D01*
G37*
G36*
X1873562Y2368D02*
X1873562Y2368D01*
X1873565Y2364D01*
X1874641Y2519D01*
X1874646Y2525D01*
X1874651Y2522D01*
X1875665Y2913D01*
X1875669Y2920D01*
X1875675Y2918D01*
X1876577Y3524D01*
X1876579Y3532D01*
X1876585Y3531D01*
X1877329Y4323D01*
X1877330Y4331D01*
X1877336Y4332D01*
X1877885Y5269D01*
X1877884Y5277D01*
X1877890Y5279D01*
X1878217Y6315D01*
X1878214Y6323D01*
X1878219Y6326D01*
X1878307Y7409D01*
X1878305Y7412D01*
X1878307Y7413D01*
X1878307Y13413D01*
X1878304Y13417D01*
X1878307Y13420D01*
X1878157Y14552D01*
X1878151Y14558D01*
X1878154Y14563D01*
X1877756Y15633D01*
X1877749Y15638D01*
X1877751Y15643D01*
X1877124Y16598D01*
X1877116Y16601D01*
X1877117Y16607D01*
X1876294Y17398D01*
X1876286Y17399D01*
X1876285Y17405D01*
X1875306Y17994D01*
X1875298Y17993D01*
X1875296Y17998D01*
X1874211Y18354D01*
X1874203Y18352D01*
X1874200Y18357D01*
X1873063Y18462D01*
X1873054Y18457D01*
X1873049Y18462D01*
X1871912Y18255D01*
X1871906Y18249D01*
X1871901Y18251D01*
X1870839Y17797D01*
X1870835Y17789D01*
X1870829Y17791D01*
X1869894Y17111D01*
X1869892Y17103D01*
X1869886Y17104D01*
X1869126Y16233D01*
X1869126Y16225D01*
X1869120Y16224D01*
X1868573Y15206D01*
X1868574Y15198D01*
X1868569Y15195D01*
X1868565Y15182D01*
X1868552Y15133D01*
X1868551Y15133D01*
X1868552Y15133D01*
X1868538Y15084D01*
X1868524Y15035D01*
X1868524Y15034D01*
X1868511Y14985D01*
X1868497Y14936D01*
X1868484Y14887D01*
X1868470Y14838D01*
X1868470Y14837D01*
X1868457Y14788D01*
X1868443Y14739D01*
X1868429Y14690D01*
X1868416Y14641D01*
X1868416Y14640D01*
X1868402Y14591D01*
X1868389Y14542D01*
X1868375Y14493D01*
X1868362Y14444D01*
X1868362Y14443D01*
X1868348Y14394D01*
X1868335Y14345D01*
X1868334Y14345D01*
X1868321Y14296D01*
X1868307Y14247D01*
X1868262Y14081D01*
X1868265Y14073D01*
X1868260Y14070D01*
X1868209Y12915D01*
X1868210Y12914D01*
X1868209Y12913D01*
X1868209Y6913D01*
X1868213Y6908D01*
X1868210Y6904D01*
X1868422Y5823D01*
X1868428Y5818D01*
X1868425Y5813D01*
X1868872Y4807D01*
X1868879Y4803D01*
X1868877Y4797D01*
X1869537Y3916D01*
X1869545Y3914D01*
X1869545Y3908D01*
X1870384Y3195D01*
X1870392Y3195D01*
X1870393Y3189D01*
X1871370Y2681D01*
X1871378Y2683D01*
X1871380Y2677D01*
X1872445Y2399D01*
X1872453Y2403D01*
X1872456Y2398D01*
X1873557Y2364D01*
X1873562Y2368D01*
G37*
G36*
X499422Y2368D02*
X499422Y2368D01*
X499425Y2364D01*
X500501Y2519D01*
X500506Y2525D01*
X500511Y2522D01*
X501525Y2913D01*
X501529Y2920D01*
X501535Y2918D01*
X502437Y3524D01*
X502439Y3532D01*
X502445Y3531D01*
X503189Y4323D01*
X503190Y4331D01*
X503196Y4332D01*
X503745Y5269D01*
X503744Y5277D01*
X503750Y5279D01*
X504077Y6315D01*
X504074Y6323D01*
X504079Y6326D01*
X504167Y7409D01*
X504165Y7412D01*
X504167Y7413D01*
X504167Y13413D01*
X504164Y13417D01*
X504167Y13420D01*
X504017Y14552D01*
X504011Y14558D01*
X504014Y14563D01*
X503616Y15633D01*
X503609Y15638D01*
X503611Y15643D01*
X502984Y16598D01*
X502976Y16601D01*
X502977Y16607D01*
X502154Y17398D01*
X502146Y17399D01*
X502145Y17405D01*
X501166Y17994D01*
X501158Y17993D01*
X501156Y17998D01*
X500071Y18354D01*
X500063Y18352D01*
X500060Y18357D01*
X498923Y18462D01*
X498914Y18457D01*
X498909Y18462D01*
X497772Y18255D01*
X497766Y18249D01*
X497761Y18251D01*
X496699Y17797D01*
X496695Y17789D01*
X496689Y17791D01*
X495754Y17111D01*
X495752Y17103D01*
X495746Y17104D01*
X494986Y16233D01*
X494986Y16225D01*
X494980Y16224D01*
X494433Y15206D01*
X494434Y15198D01*
X494429Y15195D01*
X494425Y15182D01*
X494412Y15133D01*
X494411Y15133D01*
X494412Y15133D01*
X494398Y15084D01*
X494384Y15035D01*
X494384Y15034D01*
X494371Y14985D01*
X494357Y14936D01*
X494344Y14887D01*
X494330Y14838D01*
X494330Y14837D01*
X494317Y14788D01*
X494303Y14739D01*
X494289Y14690D01*
X494276Y14641D01*
X494276Y14640D01*
X494262Y14591D01*
X494249Y14542D01*
X494235Y14493D01*
X494222Y14444D01*
X494222Y14443D01*
X494208Y14394D01*
X494195Y14345D01*
X494194Y14345D01*
X494181Y14296D01*
X494167Y14247D01*
X494122Y14081D01*
X494125Y14073D01*
X494120Y14070D01*
X494069Y12915D01*
X494070Y12914D01*
X494069Y12913D01*
X494069Y6913D01*
X494073Y6908D01*
X494070Y6904D01*
X494282Y5823D01*
X494288Y5818D01*
X494285Y5813D01*
X494732Y4807D01*
X494739Y4803D01*
X494737Y4797D01*
X495397Y3916D01*
X495405Y3914D01*
X495405Y3908D01*
X496244Y3195D01*
X496252Y3195D01*
X496253Y3189D01*
X497230Y2681D01*
X497238Y2683D01*
X497240Y2677D01*
X498305Y2399D01*
X498313Y2403D01*
X498316Y2398D01*
X499417Y2364D01*
X499422Y2368D01*
G37*
G36*
X412920Y2369D02*
X412920Y2369D01*
X412925Y2364D01*
X414012Y2509D01*
X414018Y2515D01*
X414023Y2512D01*
X415051Y2896D01*
X415056Y2903D01*
X415061Y2901D01*
X415978Y3503D01*
X415981Y3511D01*
X415987Y3510D01*
X416747Y4302D01*
X416748Y4310D01*
X416754Y4311D01*
X417318Y5252D01*
X417318Y5256D01*
X417319Y5256D01*
X417318Y5258D01*
X417317Y5260D01*
X417323Y5262D01*
X417664Y6305D01*
X417662Y6313D01*
X417666Y6316D01*
X417767Y7409D01*
X417765Y7412D01*
X417767Y7413D01*
X417767Y13413D01*
X417765Y13416D01*
X417767Y13418D01*
X417666Y14511D01*
X417661Y14517D01*
X417664Y14521D01*
X417323Y15564D01*
X417316Y15569D01*
X417318Y15574D01*
X416754Y16515D01*
X416746Y16518D01*
X416747Y16524D01*
X415987Y17316D01*
X415979Y17317D01*
X415978Y17323D01*
X415061Y17926D01*
X415053Y17925D01*
X415051Y17931D01*
X414023Y18314D01*
X414015Y18312D01*
X414012Y18317D01*
X412925Y18462D01*
X412917Y18458D01*
X412913Y18462D01*
X411776Y18357D01*
X411770Y18351D01*
X411765Y18354D01*
X410680Y17998D01*
X410675Y17992D01*
X410670Y17994D01*
X409691Y17405D01*
X409688Y17397D01*
X409682Y17398D01*
X408859Y16607D01*
X408858Y16599D01*
X408852Y16598D01*
X408225Y15643D01*
X408226Y15635D01*
X408220Y15633D01*
X407822Y14563D01*
X407824Y14555D01*
X407819Y14552D01*
X407669Y13420D01*
X407672Y13415D01*
X407669Y13413D01*
X407669Y7413D01*
X407672Y7409D01*
X407669Y7407D01*
X407819Y6274D01*
X407825Y6269D01*
X407822Y6264D01*
X408220Y5193D01*
X408227Y5189D01*
X408225Y5183D01*
X408852Y4228D01*
X408860Y4225D01*
X408859Y4220D01*
X409682Y3428D01*
X409690Y3427D01*
X409691Y3421D01*
X410670Y2833D01*
X410678Y2834D01*
X410680Y2828D01*
X411765Y2472D01*
X411773Y2475D01*
X411776Y2470D01*
X412913Y2364D01*
X412920Y2369D01*
G37*
G36*
X1787060Y2369D02*
X1787060Y2369D01*
X1787065Y2364D01*
X1788152Y2509D01*
X1788158Y2515D01*
X1788163Y2512D01*
X1789191Y2896D01*
X1789196Y2903D01*
X1789201Y2901D01*
X1790118Y3503D01*
X1790121Y3511D01*
X1790127Y3510D01*
X1790887Y4302D01*
X1790888Y4310D01*
X1790894Y4311D01*
X1791458Y5252D01*
X1791458Y5256D01*
X1791459Y5256D01*
X1791458Y5258D01*
X1791457Y5260D01*
X1791463Y5262D01*
X1791804Y6305D01*
X1791802Y6313D01*
X1791806Y6316D01*
X1791907Y7409D01*
X1791905Y7412D01*
X1791907Y7413D01*
X1791907Y13413D01*
X1791905Y13416D01*
X1791907Y13418D01*
X1791806Y14511D01*
X1791801Y14517D01*
X1791804Y14521D01*
X1791463Y15564D01*
X1791456Y15569D01*
X1791458Y15574D01*
X1790894Y16515D01*
X1790886Y16518D01*
X1790887Y16524D01*
X1790127Y17316D01*
X1790119Y17317D01*
X1790118Y17323D01*
X1789201Y17926D01*
X1789193Y17925D01*
X1789191Y17931D01*
X1788163Y18314D01*
X1788155Y18312D01*
X1788152Y18317D01*
X1787065Y18462D01*
X1787057Y18458D01*
X1787053Y18462D01*
X1785916Y18357D01*
X1785910Y18351D01*
X1785905Y18354D01*
X1784820Y17998D01*
X1784815Y17992D01*
X1784810Y17994D01*
X1783831Y17405D01*
X1783828Y17397D01*
X1783822Y17398D01*
X1782999Y16607D01*
X1782998Y16599D01*
X1782992Y16598D01*
X1782365Y15643D01*
X1782366Y15635D01*
X1782360Y15633D01*
X1781962Y14563D01*
X1781964Y14555D01*
X1781959Y14552D01*
X1781809Y13420D01*
X1781812Y13415D01*
X1781809Y13413D01*
X1781809Y7413D01*
X1781812Y7409D01*
X1781809Y7407D01*
X1781959Y6274D01*
X1781965Y6269D01*
X1781962Y6264D01*
X1782360Y5193D01*
X1782367Y5189D01*
X1782365Y5183D01*
X1782992Y4228D01*
X1783000Y4225D01*
X1782999Y4220D01*
X1783822Y3428D01*
X1783830Y3427D01*
X1783831Y3421D01*
X1784810Y2833D01*
X1784818Y2834D01*
X1784820Y2828D01*
X1785905Y2472D01*
X1785913Y2475D01*
X1785916Y2470D01*
X1787053Y2364D01*
X1787060Y2369D01*
G37*
G36*
X1099990Y2369D02*
X1099990Y2369D01*
X1099995Y2364D01*
X1101082Y2509D01*
X1101088Y2515D01*
X1101093Y2512D01*
X1102121Y2896D01*
X1102126Y2903D01*
X1102131Y2901D01*
X1103048Y3503D01*
X1103051Y3511D01*
X1103057Y3510D01*
X1103817Y4302D01*
X1103818Y4310D01*
X1103824Y4311D01*
X1104388Y5252D01*
X1104388Y5256D01*
X1104389Y5256D01*
X1104388Y5258D01*
X1104387Y5260D01*
X1104393Y5262D01*
X1104734Y6305D01*
X1104732Y6313D01*
X1104736Y6316D01*
X1104837Y7409D01*
X1104835Y7412D01*
X1104837Y7413D01*
X1104837Y13413D01*
X1104835Y13416D01*
X1104837Y13418D01*
X1104736Y14511D01*
X1104731Y14517D01*
X1104734Y14521D01*
X1104393Y15564D01*
X1104386Y15569D01*
X1104388Y15574D01*
X1103824Y16515D01*
X1103816Y16518D01*
X1103817Y16524D01*
X1103057Y17316D01*
X1103049Y17317D01*
X1103048Y17323D01*
X1102131Y17926D01*
X1102123Y17925D01*
X1102121Y17931D01*
X1101093Y18314D01*
X1101085Y18312D01*
X1101082Y18317D01*
X1099995Y18462D01*
X1099987Y18458D01*
X1099983Y18462D01*
X1098846Y18357D01*
X1098840Y18351D01*
X1098835Y18354D01*
X1097750Y17998D01*
X1097745Y17992D01*
X1097740Y17994D01*
X1096761Y17405D01*
X1096758Y17397D01*
X1096752Y17398D01*
X1095929Y16607D01*
X1095928Y16599D01*
X1095922Y16598D01*
X1095295Y15643D01*
X1095296Y15635D01*
X1095290Y15633D01*
X1094892Y14563D01*
X1094894Y14555D01*
X1094889Y14552D01*
X1094739Y13420D01*
X1094742Y13415D01*
X1094739Y13413D01*
X1094739Y7413D01*
X1094742Y7409D01*
X1094739Y7407D01*
X1094889Y6274D01*
X1094895Y6269D01*
X1094892Y6264D01*
X1095290Y5193D01*
X1095297Y5189D01*
X1095295Y5183D01*
X1095922Y4228D01*
X1095930Y4225D01*
X1095929Y4220D01*
X1096752Y3428D01*
X1096760Y3427D01*
X1096761Y3421D01*
X1097740Y2833D01*
X1097748Y2834D01*
X1097750Y2828D01*
X1098835Y2472D01*
X1098843Y2475D01*
X1098846Y2470D01*
X1099983Y2364D01*
X1099990Y2369D01*
G37*
G36*
X985690Y2369D02*
X985690Y2369D01*
X985695Y2364D01*
X986782Y2509D01*
X986788Y2515D01*
X986793Y2512D01*
X987821Y2896D01*
X987826Y2903D01*
X987831Y2901D01*
X988748Y3503D01*
X988751Y3511D01*
X988757Y3510D01*
X989517Y4302D01*
X989518Y4310D01*
X989524Y4311D01*
X990088Y5252D01*
X990088Y5256D01*
X990089Y5256D01*
X990088Y5258D01*
X990087Y5260D01*
X990093Y5262D01*
X990434Y6305D01*
X990432Y6313D01*
X990436Y6316D01*
X990537Y7409D01*
X990535Y7412D01*
X990537Y7413D01*
X990537Y13413D01*
X990535Y13416D01*
X990537Y13418D01*
X990436Y14511D01*
X990431Y14517D01*
X990434Y14521D01*
X990093Y15564D01*
X990086Y15569D01*
X990088Y15574D01*
X989524Y16515D01*
X989516Y16518D01*
X989517Y16524D01*
X988757Y17316D01*
X988749Y17317D01*
X988748Y17323D01*
X987831Y17926D01*
X987823Y17925D01*
X987821Y17931D01*
X986793Y18314D01*
X986785Y18312D01*
X986782Y18317D01*
X985695Y18462D01*
X985687Y18458D01*
X985683Y18462D01*
X984546Y18357D01*
X984540Y18351D01*
X984535Y18354D01*
X983450Y17998D01*
X983445Y17992D01*
X983440Y17994D01*
X982461Y17405D01*
X982458Y17397D01*
X982452Y17398D01*
X981629Y16607D01*
X981628Y16599D01*
X981622Y16598D01*
X980995Y15643D01*
X980996Y15635D01*
X980990Y15633D01*
X980592Y14563D01*
X980594Y14555D01*
X980589Y14552D01*
X980439Y13420D01*
X980442Y13415D01*
X980439Y13413D01*
X980439Y7413D01*
X980442Y7409D01*
X980439Y7407D01*
X980589Y6274D01*
X980595Y6269D01*
X980592Y6264D01*
X980990Y5193D01*
X980997Y5189D01*
X980995Y5183D01*
X981622Y4228D01*
X981630Y4225D01*
X981629Y4220D01*
X982452Y3428D01*
X982460Y3427D01*
X982461Y3421D01*
X983440Y2833D01*
X983448Y2834D01*
X983450Y2828D01*
X984535Y2472D01*
X984543Y2475D01*
X984546Y2470D01*
X985683Y2364D01*
X985690Y2369D01*
G37*
G36*
X1672760Y2369D02*
X1672760Y2369D01*
X1672765Y2364D01*
X1673852Y2509D01*
X1673858Y2515D01*
X1673863Y2512D01*
X1674891Y2896D01*
X1674896Y2903D01*
X1674901Y2901D01*
X1675818Y3503D01*
X1675821Y3511D01*
X1675827Y3510D01*
X1676587Y4302D01*
X1676588Y4310D01*
X1676594Y4311D01*
X1677158Y5252D01*
X1677158Y5256D01*
X1677159Y5256D01*
X1677158Y5258D01*
X1677157Y5260D01*
X1677163Y5262D01*
X1677504Y6305D01*
X1677502Y6313D01*
X1677506Y6316D01*
X1677607Y7409D01*
X1677605Y7412D01*
X1677607Y7413D01*
X1677607Y13413D01*
X1677605Y13416D01*
X1677607Y13418D01*
X1677506Y14511D01*
X1677501Y14517D01*
X1677504Y14521D01*
X1677163Y15564D01*
X1677156Y15569D01*
X1677158Y15574D01*
X1676594Y16515D01*
X1676586Y16518D01*
X1676587Y16524D01*
X1675827Y17316D01*
X1675819Y17317D01*
X1675818Y17323D01*
X1674901Y17926D01*
X1674893Y17925D01*
X1674891Y17931D01*
X1673863Y18314D01*
X1673855Y18312D01*
X1673852Y18317D01*
X1672765Y18462D01*
X1672757Y18458D01*
X1672753Y18462D01*
X1671616Y18357D01*
X1671610Y18351D01*
X1671605Y18354D01*
X1670520Y17998D01*
X1670515Y17992D01*
X1670510Y17994D01*
X1669531Y17405D01*
X1669528Y17397D01*
X1669522Y17398D01*
X1668699Y16607D01*
X1668698Y16599D01*
X1668692Y16598D01*
X1668065Y15643D01*
X1668066Y15635D01*
X1668060Y15633D01*
X1667662Y14563D01*
X1667664Y14555D01*
X1667659Y14552D01*
X1667509Y13420D01*
X1667512Y13415D01*
X1667509Y13413D01*
X1667509Y7413D01*
X1667512Y7409D01*
X1667509Y7407D01*
X1667659Y6274D01*
X1667665Y6269D01*
X1667662Y6264D01*
X1668060Y5193D01*
X1668067Y5189D01*
X1668065Y5183D01*
X1668692Y4228D01*
X1668700Y4225D01*
X1668699Y4220D01*
X1669522Y3428D01*
X1669530Y3427D01*
X1669531Y3421D01*
X1670510Y2833D01*
X1670518Y2834D01*
X1670520Y2828D01*
X1671605Y2472D01*
X1671613Y2475D01*
X1671616Y2470D01*
X1672753Y2364D01*
X1672760Y2369D01*
G37*
G36*
X298620Y2369D02*
X298620Y2369D01*
X298625Y2364D01*
X299712Y2509D01*
X299718Y2515D01*
X299723Y2512D01*
X300751Y2896D01*
X300756Y2903D01*
X300761Y2901D01*
X301678Y3503D01*
X301681Y3511D01*
X301687Y3510D01*
X302447Y4302D01*
X302448Y4310D01*
X302454Y4311D01*
X303018Y5252D01*
X303018Y5256D01*
X303019Y5256D01*
X303018Y5258D01*
X303017Y5260D01*
X303023Y5262D01*
X303364Y6305D01*
X303362Y6313D01*
X303366Y6316D01*
X303467Y7409D01*
X303465Y7412D01*
X303467Y7413D01*
X303467Y13413D01*
X303465Y13416D01*
X303467Y13418D01*
X303366Y14511D01*
X303361Y14517D01*
X303364Y14521D01*
X303023Y15564D01*
X303016Y15569D01*
X303018Y15574D01*
X302454Y16515D01*
X302446Y16518D01*
X302447Y16524D01*
X301687Y17316D01*
X301679Y17317D01*
X301678Y17323D01*
X300761Y17926D01*
X300753Y17925D01*
X300751Y17931D01*
X299723Y18314D01*
X299715Y18312D01*
X299712Y18317D01*
X298625Y18462D01*
X298617Y18458D01*
X298613Y18462D01*
X297476Y18357D01*
X297470Y18351D01*
X297465Y18354D01*
X296380Y17998D01*
X296375Y17992D01*
X296370Y17994D01*
X295391Y17405D01*
X295388Y17397D01*
X295382Y17398D01*
X294559Y16607D01*
X294558Y16599D01*
X294552Y16598D01*
X293925Y15643D01*
X293926Y15635D01*
X293920Y15633D01*
X293522Y14563D01*
X293524Y14555D01*
X293519Y14552D01*
X293369Y13420D01*
X293372Y13415D01*
X293369Y13413D01*
X293369Y7413D01*
X293372Y7409D01*
X293369Y7407D01*
X293519Y6274D01*
X293525Y6269D01*
X293522Y6264D01*
X293920Y5193D01*
X293927Y5189D01*
X293925Y5183D01*
X294552Y4228D01*
X294560Y4225D01*
X294559Y4220D01*
X295382Y3428D01*
X295390Y3427D01*
X295391Y3421D01*
X296370Y2833D01*
X296378Y2834D01*
X296380Y2828D01*
X297465Y2472D01*
X297473Y2475D01*
X297476Y2470D01*
X298613Y2364D01*
X298620Y2369D01*
G37*
D10*
X311618Y414243D03*
X311618Y431243D03*
X291618Y431243D03*
X291618Y414243D03*
D11*
X354619Y413243D03*
X354619Y422743D03*
X354619Y432243D03*
X328617Y432243D03*
X328617Y413243D03*
D10*
X371618Y414243D03*
X371618Y431243D03*
X271618Y391243D03*
X271618Y374243D03*
X291618Y391243D03*
X291618Y374243D03*
D12*
X303518Y164403D03*
X303518Y152803D03*
D13*
X321688Y164953D03*
X338688Y164953D03*
D10*
X331618Y391243D03*
X331618Y374243D03*
D14*
X282008Y164953D03*
X292008Y164953D03*
D15*
X270118Y188243D03*
X281118Y188243D03*
X292118Y188243D03*
X303118Y188243D03*
X314118Y188243D03*
X325118Y188243D03*
X336118Y188243D03*
X347118Y188243D03*
X358118Y188243D03*
X369118Y188243D03*
X380118Y188243D03*
X391118Y188243D03*
X402118Y188243D03*
X413118Y188243D03*
D16*
X441118Y196743D03*
X441118Y207743D03*
X441118Y218743D03*
X441118Y229743D03*
X441118Y240743D03*
X441118Y251743D03*
X441118Y262743D03*
X441118Y273743D03*
X441118Y284743D03*
X441118Y295743D03*
X441118Y306743D03*
X441118Y317743D03*
X441118Y328743D03*
D15*
X413118Y337243D03*
X402118Y337243D03*
X391118Y337243D03*
X380118Y337243D03*
X369118Y337243D03*
X358118Y337243D03*
X347118Y337243D03*
X336118Y337243D03*
X325118Y337243D03*
X314118Y337243D03*
X303118Y337243D03*
X292118Y337243D03*
X281118Y337243D03*
X270118Y337243D03*
D16*
X242118Y328743D03*
X242118Y317743D03*
X242118Y306743D03*
X242118Y295743D03*
X242118Y284743D03*
X242118Y273743D03*
X242118Y262743D03*
X242118Y251743D03*
X242118Y240743D03*
X242118Y229743D03*
X242118Y218743D03*
X242118Y207743D03*
X242118Y196743D03*
D17*
X331118Y273243D03*
X310118Y273243D03*
X289118Y273243D03*
X268118Y273243D03*
X331118Y293743D03*
X310118Y293743D03*
X289118Y293743D03*
X268118Y293743D03*
X331118Y314243D03*
X310118Y314243D03*
X289118Y314243D03*
X268118Y314243D03*
X331118Y211243D03*
X310118Y211243D03*
X289118Y211243D03*
X268118Y211243D03*
X331118Y231743D03*
X310118Y231743D03*
X289118Y231743D03*
X268118Y231743D03*
X331118Y252243D03*
X310118Y252243D03*
X289118Y252243D03*
X268118Y252243D03*
X415118Y273243D03*
X394118Y273243D03*
X373118Y273243D03*
X352118Y273243D03*
X415118Y293743D03*
X394118Y293743D03*
X373118Y293743D03*
X352118Y293743D03*
X415118Y314243D03*
X394118Y314243D03*
X373118Y314243D03*
X352118Y314243D03*
X415118Y211243D03*
X394118Y211243D03*
X373118Y211243D03*
X352118Y211243D03*
X415118Y231743D03*
X394118Y231743D03*
X373118Y231743D03*
X352118Y231743D03*
X415118Y252243D03*
X394118Y252243D03*
X373118Y252243D03*
X352118Y252243D03*
D13*
X390118Y102743D03*
X373118Y102743D03*
X293118Y102743D03*
X310118Y102743D03*
D18*
X349118Y58013D03*
X344118Y58013D03*
D19*
X373868Y58013D03*
X366118Y58013D03*
D18*
X359118Y58013D03*
X354118Y58013D03*
X334118Y58013D03*
X339118Y58013D03*
D19*
X309368Y58013D03*
X317118Y58013D03*
D18*
X324118Y58013D03*
X329118Y58013D03*
D10*
X351618Y374243D03*
X351618Y391243D03*
X311618Y391243D03*
X311618Y374243D03*
D20*
X336618Y118693D03*
D21*
X341618Y118443D03*
X346618Y118443D03*
X346618Y127043D03*
X341618Y127043D03*
X336618Y127043D03*
D22*
X178618Y1022743D03*
X178618Y1042743D03*
D23*
X126618Y998743D03*
X126618Y1066743D03*
D18*
X463418Y58013D03*
X458418Y58013D03*
D19*
X488168Y58013D03*
X480418Y58013D03*
D18*
X473418Y58013D03*
X468418Y58013D03*
X448418Y58013D03*
X453418Y58013D03*
D19*
X423668Y58013D03*
X431418Y58013D03*
D18*
X438418Y58013D03*
X443418Y58013D03*
D13*
X500118Y102743D03*
X483118Y102743D03*
X413118Y102743D03*
X430118Y102743D03*
D24*
X94268Y44883D03*
D25*
X150268Y12883D03*
X75768Y12883D03*
D24*
X106768Y44883D03*
X119268Y44883D03*
X131768Y44883D03*
X551468Y44883D03*
D25*
X607468Y12883D03*
X532968Y12883D03*
D24*
X563968Y44883D03*
X576468Y44883D03*
X588968Y44883D03*
D13*
X510118Y172743D03*
X493118Y172743D03*
D26*
X468118Y112743D03*
X445118Y112743D03*
D27*
X271806Y465243D03*
X251431Y470243D03*
X251431Y465243D03*
X251431Y475243D03*
X251431Y480243D03*
X271806Y470243D03*
X271806Y475243D03*
X271806Y480243D03*
D28*
X261618Y476143D03*
X261618Y469343D03*
D10*
X291618Y464243D03*
X291618Y481243D03*
D11*
X354619Y463243D03*
X354619Y472743D03*
X354619Y482243D03*
X328617Y482243D03*
X328617Y463243D03*
D10*
X371618Y464243D03*
X371618Y481243D03*
X311618Y464243D03*
X311618Y481243D03*
D20*
X456618Y138693D03*
D21*
X461618Y138443D03*
X466618Y138443D03*
X466618Y147043D03*
X461618Y147043D03*
X456618Y147043D03*
D29*
X23618Y395993D03*
X79618Y395993D03*
D30*
X36618Y432743D03*
X46618Y432743D03*
X56618Y432743D03*
X66618Y432743D03*
D31*
X297168Y514743D03*
X309868Y514743D03*
X322568Y514743D03*
X335268Y514743D03*
X347968Y514743D03*
X360668Y514743D03*
X373368Y514743D03*
X386068Y514743D03*
X386068Y570743D03*
X373368Y570743D03*
X360668Y570743D03*
X347968Y570743D03*
X335268Y570743D03*
X322568Y570743D03*
X309868Y570743D03*
X297168Y570743D03*
D10*
X271618Y571243D03*
X271618Y554243D03*
X271618Y514243D03*
X271618Y531243D03*
D32*
X463678Y551793D03*
X519558Y551793D03*
X463678Y513693D03*
X519558Y513693D03*
D33*
X485418Y284743D03*
D34*
X485418Y276743D03*
X485418Y268743D03*
D33*
X485418Y260743D03*
X498418Y260743D03*
D34*
X498418Y268743D03*
X498418Y276743D03*
D33*
X498418Y284743D03*
X207818Y300743D03*
D34*
X207818Y308743D03*
X207818Y316743D03*
D33*
X207818Y324743D03*
X194818Y324743D03*
D34*
X194818Y316743D03*
X194818Y308743D03*
D33*
X194818Y300743D03*
X207818Y250743D03*
D34*
X207818Y258743D03*
X207818Y266743D03*
D33*
X207818Y274743D03*
X194818Y274743D03*
D34*
X194818Y266743D03*
X194818Y258743D03*
D33*
X194818Y250743D03*
X207818Y200743D03*
D34*
X207818Y208743D03*
X207818Y216743D03*
D33*
X207818Y224743D03*
X194818Y224743D03*
D34*
X194818Y216743D03*
X194818Y208743D03*
D33*
X194818Y200743D03*
X421118Y474743D03*
X411618Y474743D03*
X402118Y474743D03*
X402118Y450743D03*
X421118Y450743D03*
X411618Y450743D03*
D13*
X403118Y432743D03*
X420118Y432743D03*
X420118Y412743D03*
X403118Y412743D03*
D10*
X441618Y431243D03*
X441618Y414243D03*
D26*
X400118Y392743D03*
X423118Y392743D03*
D13*
X403118Y492743D03*
X420118Y492743D03*
X420118Y552743D03*
X403118Y552743D03*
X403118Y512743D03*
X420118Y512743D03*
X420118Y532743D03*
X403118Y532743D03*
D35*
X461618Y464243D03*
X461618Y441243D03*
D36*
X219118Y530243D03*
X219118Y535243D03*
X204118Y535243D03*
X204118Y530243D03*
D37*
X204118Y525243D03*
X209118Y525243D03*
X219118Y525243D03*
X214118Y525243D03*
X219118Y540243D03*
X214118Y540243D03*
X209118Y540243D03*
X204118Y540243D03*
D13*
X220118Y562743D03*
X203118Y562743D03*
X203118Y502743D03*
X220118Y502743D03*
D38*
X227418Y102743D03*
X215818Y102743D03*
D39*
X549118Y974243D03*
D40*
X539118Y949243D03*
X534118Y949243D03*
D39*
X474118Y974243D03*
D40*
X529118Y949243D03*
X524118Y949243D03*
X519118Y949243D03*
X514118Y949243D03*
X509118Y949243D03*
X504118Y949243D03*
X499118Y949243D03*
X494118Y949243D03*
X489118Y949243D03*
X484118Y949243D03*
D10*
X998688Y414243D03*
X998688Y431243D03*
X978688Y431243D03*
X978688Y414243D03*
D11*
X1041689Y413243D03*
X1041689Y422743D03*
X1041689Y432243D03*
X1015687Y432243D03*
X1015687Y413243D03*
D10*
X1058688Y414243D03*
X1058688Y431243D03*
X958688Y391243D03*
X958688Y374243D03*
X978688Y391243D03*
X978688Y374243D03*
D12*
X990588Y164403D03*
X990588Y152803D03*
D13*
X1008758Y164953D03*
X1025758Y164953D03*
D10*
X1018688Y391243D03*
X1018688Y374243D03*
D14*
X969078Y164953D03*
X979078Y164953D03*
D15*
X957188Y188243D03*
X968188Y188243D03*
X979188Y188243D03*
X990188Y188243D03*
X1001188Y188243D03*
X1012188Y188243D03*
X1023188Y188243D03*
X1034188Y188243D03*
X1045188Y188243D03*
X1056188Y188243D03*
X1067188Y188243D03*
X1078188Y188243D03*
X1089188Y188243D03*
X1100188Y188243D03*
D16*
X1128188Y196743D03*
X1128188Y207743D03*
X1128188Y218743D03*
X1128188Y229743D03*
X1128188Y240743D03*
X1128188Y251743D03*
X1128188Y262743D03*
X1128188Y273743D03*
X1128188Y284743D03*
X1128188Y295743D03*
X1128188Y306743D03*
X1128188Y317743D03*
X1128188Y328743D03*
D15*
X1100188Y337243D03*
X1089188Y337243D03*
X1078188Y337243D03*
X1067188Y337243D03*
X1056188Y337243D03*
X1045188Y337243D03*
X1034188Y337243D03*
X1023188Y337243D03*
X1012188Y337243D03*
X1001188Y337243D03*
X990188Y337243D03*
X979188Y337243D03*
X968188Y337243D03*
X957188Y337243D03*
D16*
X929188Y328743D03*
X929188Y317743D03*
X929188Y306743D03*
X929188Y295743D03*
X929188Y284743D03*
X929188Y273743D03*
X929188Y262743D03*
X929188Y251743D03*
X929188Y240743D03*
X929188Y229743D03*
X929188Y218743D03*
X929188Y207743D03*
X929188Y196743D03*
D17*
X1018188Y273243D03*
X997188Y273243D03*
X976188Y273243D03*
X955188Y273243D03*
X1018188Y293743D03*
X997188Y293743D03*
X976188Y293743D03*
X955188Y293743D03*
X1018188Y314243D03*
X997188Y314243D03*
X976188Y314243D03*
X955188Y314243D03*
X1018188Y211243D03*
X997188Y211243D03*
X976188Y211243D03*
X955188Y211243D03*
X1018188Y231743D03*
X997188Y231743D03*
X976188Y231743D03*
X955188Y231743D03*
X1018188Y252243D03*
X997188Y252243D03*
X976188Y252243D03*
X955188Y252243D03*
X1102188Y273243D03*
X1081188Y273243D03*
X1060188Y273243D03*
X1039188Y273243D03*
X1102188Y293743D03*
X1081188Y293743D03*
X1060188Y293743D03*
X1039188Y293743D03*
X1102188Y314243D03*
X1081188Y314243D03*
X1060188Y314243D03*
X1039188Y314243D03*
X1102188Y211243D03*
X1081188Y211243D03*
X1060188Y211243D03*
X1039188Y211243D03*
X1102188Y231743D03*
X1081188Y231743D03*
X1060188Y231743D03*
X1039188Y231743D03*
X1102188Y252243D03*
X1081188Y252243D03*
X1060188Y252243D03*
X1039188Y252243D03*
D13*
X1077188Y102743D03*
X1060188Y102743D03*
X980188Y102743D03*
X997188Y102743D03*
D18*
X1036188Y58013D03*
X1031188Y58013D03*
D19*
X1060938Y58013D03*
X1053188Y58013D03*
D18*
X1046188Y58013D03*
X1041188Y58013D03*
X1021188Y58013D03*
X1026188Y58013D03*
D19*
X996438Y58013D03*
X1004188Y58013D03*
D18*
X1011188Y58013D03*
X1016188Y58013D03*
D10*
X1038688Y374243D03*
X1038688Y391243D03*
X998688Y391243D03*
X998688Y374243D03*
D20*
X1023688Y118693D03*
D21*
X1028688Y118443D03*
X1033688Y118443D03*
X1033688Y127043D03*
X1028688Y127043D03*
X1023688Y127043D03*
D22*
X865688Y1022743D03*
X865688Y1042743D03*
D23*
X813688Y998743D03*
X813688Y1066743D03*
D18*
X1150488Y58013D03*
X1145488Y58013D03*
D19*
X1175238Y58013D03*
X1167488Y58013D03*
D18*
X1160488Y58013D03*
X1155488Y58013D03*
X1135488Y58013D03*
X1140488Y58013D03*
D19*
X1110738Y58013D03*
X1118488Y58013D03*
D18*
X1125488Y58013D03*
X1130488Y58013D03*
D13*
X1187188Y102743D03*
X1170188Y102743D03*
X1100188Y102743D03*
X1117188Y102743D03*
D24*
X781338Y44883D03*
D25*
X837338Y12883D03*
X762838Y12883D03*
D24*
X793838Y44883D03*
X806338Y44883D03*
X818838Y44883D03*
X1238538Y44883D03*
D25*
X1294538Y12883D03*
X1220038Y12883D03*
D24*
X1251038Y44883D03*
X1263538Y44883D03*
X1276038Y44883D03*
D13*
X1197188Y172743D03*
X1180188Y172743D03*
D26*
X1155188Y112743D03*
X1132188Y112743D03*
D27*
X958876Y465243D03*
X938501Y470243D03*
X938501Y465243D03*
X938501Y475243D03*
X938501Y480243D03*
X958876Y470243D03*
X958876Y475243D03*
X958876Y480243D03*
D28*
X948688Y476143D03*
X948688Y469343D03*
D10*
X978688Y464243D03*
X978688Y481243D03*
D11*
X1041689Y463243D03*
X1041689Y472743D03*
X1041689Y482243D03*
X1015687Y482243D03*
X1015687Y463243D03*
D10*
X1058688Y464243D03*
X1058688Y481243D03*
X998688Y464243D03*
X998688Y481243D03*
D20*
X1143688Y138693D03*
D21*
X1148688Y138443D03*
X1153688Y138443D03*
X1153688Y147043D03*
X1148688Y147043D03*
X1143688Y147043D03*
D29*
X710688Y395993D03*
X766688Y395993D03*
D30*
X723688Y432743D03*
X733688Y432743D03*
X743688Y432743D03*
X753688Y432743D03*
D31*
X984238Y514743D03*
X996938Y514743D03*
X1009638Y514743D03*
X1022338Y514743D03*
X1035038Y514743D03*
X1047738Y514743D03*
X1060438Y514743D03*
X1073138Y514743D03*
X1073138Y570743D03*
X1060438Y570743D03*
X1047738Y570743D03*
X1035038Y570743D03*
X1022338Y570743D03*
X1009638Y570743D03*
X996938Y570743D03*
X984238Y570743D03*
D10*
X958688Y571243D03*
X958688Y554243D03*
X958688Y514243D03*
X958688Y531243D03*
D32*
X1150748Y551793D03*
X1206628Y551793D03*
X1150748Y513693D03*
X1206628Y513693D03*
D33*
X1172488Y284743D03*
D34*
X1172488Y276743D03*
X1172488Y268743D03*
D33*
X1172488Y260743D03*
X1185488Y260743D03*
D34*
X1185488Y268743D03*
X1185488Y276743D03*
D33*
X1185488Y284743D03*
X894888Y300743D03*
D34*
X894888Y308743D03*
X894888Y316743D03*
D33*
X894888Y324743D03*
X881888Y324743D03*
D34*
X881888Y316743D03*
X881888Y308743D03*
D33*
X881888Y300743D03*
X894888Y250743D03*
D34*
X894888Y258743D03*
X894888Y266743D03*
D33*
X894888Y274743D03*
X881888Y274743D03*
D34*
X881888Y266743D03*
X881888Y258743D03*
D33*
X881888Y250743D03*
X894888Y200743D03*
D34*
X894888Y208743D03*
X894888Y216743D03*
D33*
X894888Y224743D03*
X881888Y224743D03*
D34*
X881888Y216743D03*
X881888Y208743D03*
D33*
X881888Y200743D03*
X1108188Y474743D03*
X1098688Y474743D03*
X1089188Y474743D03*
X1089188Y450743D03*
X1108188Y450743D03*
X1098688Y450743D03*
D13*
X1090188Y432743D03*
X1107188Y432743D03*
X1107188Y412743D03*
X1090188Y412743D03*
D10*
X1128688Y431243D03*
X1128688Y414243D03*
D26*
X1087188Y392743D03*
X1110188Y392743D03*
D13*
X1090188Y492743D03*
X1107188Y492743D03*
X1107188Y552743D03*
X1090188Y552743D03*
X1090188Y512743D03*
X1107188Y512743D03*
X1107188Y532743D03*
X1090188Y532743D03*
D35*
X1148688Y464243D03*
X1148688Y441243D03*
D36*
X906188Y530243D03*
X906188Y535243D03*
X891188Y535243D03*
X891188Y530243D03*
D37*
X891188Y525243D03*
X896188Y525243D03*
X906188Y525243D03*
X901188Y525243D03*
X906188Y540243D03*
X901188Y540243D03*
X896188Y540243D03*
X891188Y540243D03*
D13*
X907188Y562743D03*
X890188Y562743D03*
X890188Y502743D03*
X907188Y502743D03*
D38*
X914488Y102743D03*
X902888Y102743D03*
D39*
X1236188Y974243D03*
D40*
X1226188Y949243D03*
X1221188Y949243D03*
D39*
X1161188Y974243D03*
D40*
X1216188Y949243D03*
X1211188Y949243D03*
X1206188Y949243D03*
X1201188Y949243D03*
X1196188Y949243D03*
X1191188Y949243D03*
X1186188Y949243D03*
X1181188Y949243D03*
X1176188Y949243D03*
X1171188Y949243D03*
D10*
X1685758Y414243D03*
X1685758Y431243D03*
X1665758Y431243D03*
X1665758Y414243D03*
D11*
X1728759Y413243D03*
X1728759Y422743D03*
X1728759Y432243D03*
X1702757Y432243D03*
X1702757Y413243D03*
D10*
X1745758Y414243D03*
X1745758Y431243D03*
X1645758Y391243D03*
X1645758Y374243D03*
X1665758Y391243D03*
X1665758Y374243D03*
D12*
X1677658Y164403D03*
X1677658Y152803D03*
D13*
X1695828Y164953D03*
X1712828Y164953D03*
D10*
X1705758Y391243D03*
X1705758Y374243D03*
D14*
X1656148Y164953D03*
X1666148Y164953D03*
D15*
X1644258Y188243D03*
X1655258Y188243D03*
X1666258Y188243D03*
X1677258Y188243D03*
X1688258Y188243D03*
X1699258Y188243D03*
X1710258Y188243D03*
X1721258Y188243D03*
X1732258Y188243D03*
X1743258Y188243D03*
X1754258Y188243D03*
X1765258Y188243D03*
X1776258Y188243D03*
X1787258Y188243D03*
D16*
X1815258Y196743D03*
X1815258Y207743D03*
X1815258Y218743D03*
X1815258Y229743D03*
X1815258Y240743D03*
X1815258Y251743D03*
X1815258Y262743D03*
X1815258Y273743D03*
X1815258Y284743D03*
X1815258Y295743D03*
X1815258Y306743D03*
X1815258Y317743D03*
X1815258Y328743D03*
D15*
X1787258Y337243D03*
X1776258Y337243D03*
X1765258Y337243D03*
X1754258Y337243D03*
X1743258Y337243D03*
X1732258Y337243D03*
X1721258Y337243D03*
X1710258Y337243D03*
X1699258Y337243D03*
X1688258Y337243D03*
X1677258Y337243D03*
X1666258Y337243D03*
X1655258Y337243D03*
X1644258Y337243D03*
D16*
X1616258Y328743D03*
X1616258Y317743D03*
X1616258Y306743D03*
X1616258Y295743D03*
X1616258Y284743D03*
X1616258Y273743D03*
X1616258Y262743D03*
X1616258Y251743D03*
X1616258Y240743D03*
X1616258Y229743D03*
X1616258Y218743D03*
X1616258Y207743D03*
X1616258Y196743D03*
D17*
X1705258Y273243D03*
X1684258Y273243D03*
X1663258Y273243D03*
X1642258Y273243D03*
X1705258Y293743D03*
X1684258Y293743D03*
X1663258Y293743D03*
X1642258Y293743D03*
X1705258Y314243D03*
X1684258Y314243D03*
X1663258Y314243D03*
X1642258Y314243D03*
X1705258Y211243D03*
X1684258Y211243D03*
X1663258Y211243D03*
X1642258Y211243D03*
X1705258Y231743D03*
X1684258Y231743D03*
X1663258Y231743D03*
X1642258Y231743D03*
X1705258Y252243D03*
X1684258Y252243D03*
X1663258Y252243D03*
X1642258Y252243D03*
X1789258Y273243D03*
X1768258Y273243D03*
X1747258Y273243D03*
X1726258Y273243D03*
X1789258Y293743D03*
X1768258Y293743D03*
X1747258Y293743D03*
X1726258Y293743D03*
X1789258Y314243D03*
X1768258Y314243D03*
X1747258Y314243D03*
X1726258Y314243D03*
X1789258Y211243D03*
X1768258Y211243D03*
X1747258Y211243D03*
X1726258Y211243D03*
X1789258Y231743D03*
X1768258Y231743D03*
X1747258Y231743D03*
X1726258Y231743D03*
X1789258Y252243D03*
X1768258Y252243D03*
X1747258Y252243D03*
X1726258Y252243D03*
D13*
X1764258Y102743D03*
X1747258Y102743D03*
X1667258Y102743D03*
X1684258Y102743D03*
D18*
X1723258Y58013D03*
X1718258Y58013D03*
D19*
X1748008Y58013D03*
X1740258Y58013D03*
D18*
X1733258Y58013D03*
X1728258Y58013D03*
X1708258Y58013D03*
X1713258Y58013D03*
D19*
X1683508Y58013D03*
X1691258Y58013D03*
D18*
X1698258Y58013D03*
X1703258Y58013D03*
D10*
X1725758Y374243D03*
X1725758Y391243D03*
X1685758Y391243D03*
X1685758Y374243D03*
D20*
X1710758Y118693D03*
D21*
X1715758Y118443D03*
X1720758Y118443D03*
X1720758Y127043D03*
X1715758Y127043D03*
X1710758Y127043D03*
D22*
X1552758Y1022743D03*
X1552758Y1042743D03*
D23*
X1500758Y998743D03*
X1500758Y1066743D03*
D18*
X1837558Y58013D03*
X1832558Y58013D03*
D19*
X1862308Y58013D03*
X1854558Y58013D03*
D18*
X1847558Y58013D03*
X1842558Y58013D03*
X1822558Y58013D03*
X1827558Y58013D03*
D19*
X1797808Y58013D03*
X1805558Y58013D03*
D18*
X1812558Y58013D03*
X1817558Y58013D03*
D13*
X1874258Y102743D03*
X1857258Y102743D03*
X1787258Y102743D03*
X1804258Y102743D03*
D24*
X1468408Y44883D03*
D25*
X1524408Y12883D03*
X1449908Y12883D03*
D24*
X1480908Y44883D03*
X1493408Y44883D03*
X1505908Y44883D03*
X1925608Y44883D03*
D25*
X1981608Y12883D03*
X1907108Y12883D03*
D24*
X1938108Y44883D03*
X1950608Y44883D03*
X1963108Y44883D03*
D13*
X1884258Y172743D03*
X1867258Y172743D03*
D26*
X1842258Y112743D03*
X1819258Y112743D03*
D27*
X1645946Y465243D03*
X1625571Y470243D03*
X1625571Y465243D03*
X1625571Y475243D03*
X1625571Y480243D03*
X1645946Y470243D03*
X1645946Y475243D03*
X1645946Y480243D03*
D28*
X1635758Y476143D03*
X1635758Y469343D03*
D10*
X1665758Y464243D03*
X1665758Y481243D03*
D11*
X1728759Y463243D03*
X1728759Y472743D03*
X1728759Y482243D03*
X1702757Y482243D03*
X1702757Y463243D03*
D10*
X1745758Y464243D03*
X1745758Y481243D03*
X1685758Y464243D03*
X1685758Y481243D03*
D20*
X1830758Y138693D03*
D21*
X1835758Y138443D03*
X1840758Y138443D03*
X1840758Y147043D03*
X1835758Y147043D03*
X1830758Y147043D03*
D29*
X1397758Y395993D03*
X1453758Y395993D03*
D30*
X1410758Y432743D03*
X1420758Y432743D03*
X1430758Y432743D03*
X1440758Y432743D03*
D31*
X1671308Y514743D03*
X1684008Y514743D03*
X1696708Y514743D03*
X1709408Y514743D03*
X1722108Y514743D03*
X1734808Y514743D03*
X1747508Y514743D03*
X1760208Y514743D03*
X1760208Y570743D03*
X1747508Y570743D03*
X1734808Y570743D03*
X1722108Y570743D03*
X1709408Y570743D03*
X1696708Y570743D03*
X1684008Y570743D03*
X1671308Y570743D03*
D10*
X1645758Y571243D03*
X1645758Y554243D03*
X1645758Y514243D03*
X1645758Y531243D03*
D32*
X1837818Y551793D03*
X1893698Y551793D03*
X1837818Y513693D03*
X1893698Y513693D03*
D33*
X1859558Y284743D03*
D34*
X1859558Y276743D03*
X1859558Y268743D03*
D33*
X1859558Y260743D03*
X1872558Y260743D03*
D34*
X1872558Y268743D03*
X1872558Y276743D03*
D33*
X1872558Y284743D03*
X1581958Y300743D03*
D34*
X1581958Y308743D03*
X1581958Y316743D03*
D33*
X1581958Y324743D03*
X1568958Y324743D03*
D34*
X1568958Y316743D03*
X1568958Y308743D03*
D33*
X1568958Y300743D03*
X1581958Y250743D03*
D34*
X1581958Y258743D03*
X1581958Y266743D03*
D33*
X1581958Y274743D03*
X1568958Y274743D03*
D34*
X1568958Y266743D03*
X1568958Y258743D03*
D33*
X1568958Y250743D03*
X1581958Y200743D03*
D34*
X1581958Y208743D03*
X1581958Y216743D03*
D33*
X1581958Y224743D03*
X1568958Y224743D03*
D34*
X1568958Y216743D03*
X1568958Y208743D03*
D33*
X1568958Y200743D03*
X1795258Y474743D03*
X1785758Y474743D03*
X1776258Y474743D03*
X1776258Y450743D03*
X1795258Y450743D03*
X1785758Y450743D03*
D13*
X1777258Y432743D03*
X1794258Y432743D03*
X1794258Y412743D03*
X1777258Y412743D03*
D10*
X1815758Y431243D03*
X1815758Y414243D03*
D26*
X1774258Y392743D03*
X1797258Y392743D03*
D13*
X1777258Y492743D03*
X1794258Y492743D03*
X1794258Y552743D03*
X1777258Y552743D03*
X1777258Y512743D03*
X1794258Y512743D03*
X1794258Y532743D03*
X1777258Y532743D03*
D35*
X1835758Y464243D03*
X1835758Y441243D03*
D36*
X1593258Y530243D03*
X1593258Y535243D03*
X1578258Y535243D03*
X1578258Y530243D03*
D37*
X1578258Y525243D03*
X1583258Y525243D03*
X1593258Y525243D03*
X1588258Y525243D03*
X1593258Y540243D03*
X1588258Y540243D03*
X1583258Y540243D03*
X1578258Y540243D03*
D13*
X1594258Y562743D03*
X1577258Y562743D03*
X1577258Y502743D03*
X1594258Y502743D03*
D38*
X1601558Y102743D03*
X1589958Y102743D03*
D39*
X1923258Y974243D03*
D40*
X1913258Y949243D03*
X1908258Y949243D03*
D39*
X1848258Y974243D03*
D40*
X1903258Y949243D03*
X1898258Y949243D03*
X1893258Y949243D03*
X1888258Y949243D03*
X1883258Y949243D03*
X1878258Y949243D03*
X1873258Y949243D03*
X1868258Y949243D03*
X1863258Y949243D03*
X1858258Y949243D03*
M02*
