G04 EAGLE Gerber RS-274X export*
G75*
%MOMM*%
%FSLAX34Y34*%
%LPD*%
%INSoldermask Bottom*%
%IPPOS*%
%AMOC8*
5,1,8,0,0,1.08239X$1,22.5*%
G01*
%ADD10R,1.403200X2.203200*%
%ADD11R,0.803200X1.553200*%
%ADD12C,0.838200*%
%ADD13C,0.853200*%
%ADD14R,1.703200X4.203200*%
%ADD15C,3.403600*%
%ADD16R,1.203200X1.303200*%
%ADD17R,1.303200X1.203200*%
%ADD18C,2.082800*%
%ADD19R,1.033200X0.833200*%
%ADD20R,1.403200X0.803200*%
%ADD21R,0.863200X0.503200*%
%ADD22R,0.553200X1.003200*%
%ADD23R,2.703200X1.903200*%
%ADD24R,1.703200X1.103200*%
%ADD25R,1.103200X1.703200*%
%ADD26R,1.533200X1.533200*%
%ADD27R,0.903200X1.803200*%
%ADD28C,1.203200*%
%ADD29R,1.403200X2.403200*%
%ADD30R,1.803200X1.603200*%
%ADD31R,1.403200X1.803200*%
%ADD32C,1.270000*%
%ADD33C,1.703200*%


D10*
X369618Y10693D03*
X313618Y10693D03*
D11*
X356618Y47443D03*
X346618Y47443D03*
X336618Y47443D03*
X326618Y47443D03*
D12*
X633718Y42843D03*
X51318Y1051643D03*
D13*
X312718Y46963D03*
X370518Y46963D03*
D14*
X252718Y36013D03*
X201918Y36013D03*
D15*
X56630Y282680D03*
X56630Y782806D03*
X626606Y782806D03*
X626606Y282680D03*
D16*
X138418Y1006843D03*
X138418Y1023843D03*
D17*
X170118Y1052743D03*
X153118Y1052743D03*
X170118Y982743D03*
X153118Y982743D03*
D18*
X215138Y1046683D03*
X215138Y1021283D03*
D19*
X231618Y981243D03*
X231618Y1004243D03*
D16*
X451618Y961243D03*
X451618Y944243D03*
X471618Y1001243D03*
X471618Y984243D03*
X451618Y1001243D03*
X451618Y984243D03*
X471618Y961243D03*
X471618Y944243D03*
D17*
X173118Y962743D03*
X190118Y962743D03*
D20*
X209618Y927193D03*
X209618Y914493D03*
X209618Y901793D03*
X209618Y889093D03*
X209618Y876393D03*
X209618Y863693D03*
X209618Y850993D03*
X209618Y838293D03*
X153618Y838293D03*
X153618Y850993D03*
X153618Y863693D03*
X153618Y876393D03*
X153618Y889093D03*
X153618Y901793D03*
X153618Y914493D03*
X153618Y927193D03*
D17*
X113118Y852743D03*
X130118Y852743D03*
X130118Y912743D03*
X113118Y912743D03*
D21*
X130818Y889243D03*
X112418Y882743D03*
X112418Y876243D03*
X112418Y889243D03*
X130818Y882743D03*
X130818Y876243D03*
D13*
X427018Y46963D03*
X484818Y46963D03*
D17*
X173118Y942743D03*
X190118Y942743D03*
D18*
X151118Y71893D03*
X125718Y71893D03*
X100318Y71893D03*
X74918Y71893D03*
X608318Y174443D03*
X582918Y174443D03*
X557518Y174443D03*
X532118Y174443D03*
X532118Y240643D03*
X532118Y266043D03*
X532118Y291443D03*
X532118Y316843D03*
X24118Y342243D03*
X24118Y316843D03*
D17*
X453118Y902743D03*
X470118Y902743D03*
D18*
X388918Y82743D03*
X414318Y82743D03*
X148918Y1087743D03*
X174318Y1087743D03*
X626618Y980343D03*
X626618Y954943D03*
D17*
X580118Y1002743D03*
X563118Y1002743D03*
D22*
X161618Y998243D03*
X166618Y998243D03*
X171618Y998243D03*
X156618Y998243D03*
X151618Y998243D03*
X151618Y1027243D03*
X156618Y1027243D03*
X161618Y1027243D03*
X166618Y1027243D03*
X171618Y1027243D03*
D23*
X161618Y1012743D03*
D17*
X120118Y1052743D03*
X103118Y1052743D03*
X120118Y1032743D03*
X103118Y1032743D03*
D18*
X21618Y472743D03*
X47018Y472743D03*
X72418Y472743D03*
X97818Y472743D03*
X161618Y292743D03*
X161618Y267343D03*
X161618Y241943D03*
X161618Y216543D03*
X161618Y191143D03*
X626618Y851743D03*
X626618Y877143D03*
X626618Y902543D03*
X626618Y927943D03*
X101618Y582743D03*
D17*
X453118Y872743D03*
X470118Y872743D03*
D24*
X431618Y1017043D03*
X431618Y1004343D03*
X431618Y991643D03*
X431618Y978943D03*
X431618Y966243D03*
X431618Y953543D03*
X431618Y940843D03*
X431618Y928143D03*
X431618Y915443D03*
X431618Y902743D03*
X431618Y890043D03*
X431618Y877343D03*
X431618Y864643D03*
X431618Y851943D03*
D25*
X398768Y837043D03*
X386068Y837043D03*
X373368Y837043D03*
X360668Y837043D03*
X347968Y837043D03*
X335268Y837043D03*
X322568Y837043D03*
X309868Y837043D03*
X297168Y837043D03*
X284468Y837043D03*
D24*
X251618Y851943D03*
X251618Y864643D03*
X251618Y877343D03*
X251618Y890043D03*
X251618Y902743D03*
X251618Y915443D03*
X251618Y928143D03*
X251618Y940843D03*
X251618Y953543D03*
X251618Y966243D03*
X251618Y978943D03*
X251618Y991643D03*
X251618Y1004343D03*
X251618Y1017043D03*
D26*
X356928Y943623D03*
X338478Y961833D03*
X356778Y961833D03*
X375078Y961833D03*
X375078Y943533D03*
X338378Y943833D03*
X338478Y925233D03*
X356778Y925133D03*
X375078Y925233D03*
D27*
X535948Y144573D03*
X524948Y144573D03*
X513948Y144573D03*
X546948Y144573D03*
X557948Y144573D03*
X568948Y144573D03*
X579948Y144573D03*
X590948Y144573D03*
X601948Y144573D03*
D28*
X505948Y39573D03*
X585948Y39573D03*
D29*
X458948Y43573D03*
X613948Y43573D03*
D30*
X467948Y139573D03*
D31*
X613948Y138573D03*
D17*
X444618Y802843D03*
X427618Y802843D03*
X427618Y777443D03*
X444618Y777443D03*
X120118Y1072743D03*
X103118Y1072743D03*
D10*
X1056688Y10693D03*
X1000688Y10693D03*
D11*
X1043688Y47443D03*
X1033688Y47443D03*
X1023688Y47443D03*
X1013688Y47443D03*
D12*
X1320788Y42843D03*
X738388Y1051643D03*
D13*
X999788Y46963D03*
X1057588Y46963D03*
D14*
X939788Y36013D03*
X888988Y36013D03*
D15*
X743700Y282680D03*
X743700Y782806D03*
X1313676Y782806D03*
X1313676Y282680D03*
D16*
X825488Y1006843D03*
X825488Y1023843D03*
D17*
X857188Y1052743D03*
X840188Y1052743D03*
X857188Y982743D03*
X840188Y982743D03*
D18*
X902208Y1046683D03*
X902208Y1021283D03*
D19*
X918688Y981243D03*
X918688Y1004243D03*
D16*
X1138688Y961243D03*
X1138688Y944243D03*
X1158688Y1001243D03*
X1158688Y984243D03*
X1138688Y1001243D03*
X1138688Y984243D03*
X1158688Y961243D03*
X1158688Y944243D03*
D17*
X860188Y962743D03*
X877188Y962743D03*
D20*
X896688Y927193D03*
X896688Y914493D03*
X896688Y901793D03*
X896688Y889093D03*
X896688Y876393D03*
X896688Y863693D03*
X896688Y850993D03*
X896688Y838293D03*
X840688Y838293D03*
X840688Y850993D03*
X840688Y863693D03*
X840688Y876393D03*
X840688Y889093D03*
X840688Y901793D03*
X840688Y914493D03*
X840688Y927193D03*
D17*
X800188Y852743D03*
X817188Y852743D03*
X817188Y912743D03*
X800188Y912743D03*
D21*
X817888Y889243D03*
X799488Y882743D03*
X799488Y876243D03*
X799488Y889243D03*
X817888Y882743D03*
X817888Y876243D03*
D13*
X1114088Y46963D03*
X1171888Y46963D03*
D17*
X860188Y942743D03*
X877188Y942743D03*
D18*
X838188Y71893D03*
X812788Y71893D03*
X787388Y71893D03*
X761988Y71893D03*
X1295388Y174443D03*
X1269988Y174443D03*
X1244588Y174443D03*
X1219188Y174443D03*
X1219188Y240643D03*
X1219188Y266043D03*
X1219188Y291443D03*
X1219188Y316843D03*
X711188Y342243D03*
X711188Y316843D03*
D17*
X1140188Y902743D03*
X1157188Y902743D03*
D18*
X1075988Y82743D03*
X1101388Y82743D03*
X835988Y1087743D03*
X861388Y1087743D03*
X1313688Y980343D03*
X1313688Y954943D03*
D17*
X1267188Y1002743D03*
X1250188Y1002743D03*
D22*
X848688Y998243D03*
X853688Y998243D03*
X858688Y998243D03*
X843688Y998243D03*
X838688Y998243D03*
X838688Y1027243D03*
X843688Y1027243D03*
X848688Y1027243D03*
X853688Y1027243D03*
X858688Y1027243D03*
D23*
X848688Y1012743D03*
D17*
X807188Y1052743D03*
X790188Y1052743D03*
X807188Y1032743D03*
X790188Y1032743D03*
D18*
X708688Y472743D03*
X734088Y472743D03*
X759488Y472743D03*
X784888Y472743D03*
X848688Y292743D03*
X848688Y267343D03*
X848688Y241943D03*
X848688Y216543D03*
X848688Y191143D03*
X1313688Y851743D03*
X1313688Y877143D03*
X1313688Y902543D03*
X1313688Y927943D03*
X788688Y582743D03*
D17*
X1140188Y872743D03*
X1157188Y872743D03*
D24*
X1118688Y1017043D03*
X1118688Y1004343D03*
X1118688Y991643D03*
X1118688Y978943D03*
X1118688Y966243D03*
X1118688Y953543D03*
X1118688Y940843D03*
X1118688Y928143D03*
X1118688Y915443D03*
X1118688Y902743D03*
X1118688Y890043D03*
X1118688Y877343D03*
X1118688Y864643D03*
X1118688Y851943D03*
D25*
X1085838Y837043D03*
X1073138Y837043D03*
X1060438Y837043D03*
X1047738Y837043D03*
X1035038Y837043D03*
X1022338Y837043D03*
X1009638Y837043D03*
X996938Y837043D03*
X984238Y837043D03*
X971538Y837043D03*
D24*
X938688Y851943D03*
X938688Y864643D03*
X938688Y877343D03*
X938688Y890043D03*
X938688Y902743D03*
X938688Y915443D03*
X938688Y928143D03*
X938688Y940843D03*
X938688Y953543D03*
X938688Y966243D03*
X938688Y978943D03*
X938688Y991643D03*
X938688Y1004343D03*
X938688Y1017043D03*
D26*
X1043998Y943623D03*
X1025548Y961833D03*
X1043848Y961833D03*
X1062148Y961833D03*
X1062148Y943533D03*
X1025448Y943833D03*
X1025548Y925233D03*
X1043848Y925133D03*
X1062148Y925233D03*
D27*
X1223018Y144573D03*
X1212018Y144573D03*
X1201018Y144573D03*
X1234018Y144573D03*
X1245018Y144573D03*
X1256018Y144573D03*
X1267018Y144573D03*
X1278018Y144573D03*
X1289018Y144573D03*
D28*
X1193018Y39573D03*
X1273018Y39573D03*
D29*
X1146018Y43573D03*
X1301018Y43573D03*
D30*
X1155018Y139573D03*
D31*
X1301018Y138573D03*
D17*
X1131688Y802843D03*
X1114688Y802843D03*
X1114688Y777443D03*
X1131688Y777443D03*
X807188Y1072743D03*
X790188Y1072743D03*
D10*
X1743758Y10693D03*
X1687758Y10693D03*
D11*
X1730758Y47443D03*
X1720758Y47443D03*
X1710758Y47443D03*
X1700758Y47443D03*
D12*
X2007858Y42843D03*
X1425458Y1051643D03*
D13*
X1686858Y46963D03*
X1744658Y46963D03*
D14*
X1626858Y36013D03*
X1576058Y36013D03*
D15*
X1430770Y282680D03*
X1430770Y782806D03*
X2000746Y782806D03*
X2000746Y282680D03*
D16*
X1512558Y1006843D03*
X1512558Y1023843D03*
D17*
X1544258Y1052743D03*
X1527258Y1052743D03*
X1544258Y982743D03*
X1527258Y982743D03*
D18*
X1589278Y1046683D03*
X1589278Y1021283D03*
D19*
X1605758Y981243D03*
X1605758Y1004243D03*
D16*
X1825758Y961243D03*
X1825758Y944243D03*
X1845758Y1001243D03*
X1845758Y984243D03*
X1825758Y1001243D03*
X1825758Y984243D03*
X1845758Y961243D03*
X1845758Y944243D03*
D17*
X1547258Y962743D03*
X1564258Y962743D03*
D20*
X1583758Y927193D03*
X1583758Y914493D03*
X1583758Y901793D03*
X1583758Y889093D03*
X1583758Y876393D03*
X1583758Y863693D03*
X1583758Y850993D03*
X1583758Y838293D03*
X1527758Y838293D03*
X1527758Y850993D03*
X1527758Y863693D03*
X1527758Y876393D03*
X1527758Y889093D03*
X1527758Y901793D03*
X1527758Y914493D03*
X1527758Y927193D03*
D17*
X1487258Y852743D03*
X1504258Y852743D03*
X1504258Y912743D03*
X1487258Y912743D03*
D21*
X1504958Y889243D03*
X1486558Y882743D03*
X1486558Y876243D03*
X1486558Y889243D03*
X1504958Y882743D03*
X1504958Y876243D03*
D13*
X1801158Y46963D03*
X1858958Y46963D03*
D17*
X1547258Y942743D03*
X1564258Y942743D03*
D18*
X1525258Y71893D03*
X1499858Y71893D03*
X1474458Y71893D03*
X1449058Y71893D03*
X1982458Y174443D03*
X1957058Y174443D03*
X1931658Y174443D03*
X1906258Y174443D03*
X1906258Y240643D03*
X1906258Y266043D03*
X1906258Y291443D03*
X1906258Y316843D03*
X1398258Y342243D03*
X1398258Y316843D03*
D17*
X1827258Y902743D03*
X1844258Y902743D03*
D18*
X1763058Y82743D03*
X1788458Y82743D03*
X1523058Y1087743D03*
X1548458Y1087743D03*
X2000758Y980343D03*
X2000758Y954943D03*
D17*
X1954258Y1002743D03*
X1937258Y1002743D03*
D22*
X1535758Y998243D03*
X1540758Y998243D03*
X1545758Y998243D03*
X1530758Y998243D03*
X1525758Y998243D03*
X1525758Y1027243D03*
X1530758Y1027243D03*
X1535758Y1027243D03*
X1540758Y1027243D03*
X1545758Y1027243D03*
D23*
X1535758Y1012743D03*
D17*
X1494258Y1052743D03*
X1477258Y1052743D03*
X1494258Y1032743D03*
X1477258Y1032743D03*
D18*
X1395758Y472743D03*
X1421158Y472743D03*
X1446558Y472743D03*
X1471958Y472743D03*
X1535758Y292743D03*
X1535758Y267343D03*
X1535758Y241943D03*
X1535758Y216543D03*
X1535758Y191143D03*
X2000758Y851743D03*
X2000758Y877143D03*
X2000758Y902543D03*
X2000758Y927943D03*
X1475758Y582743D03*
D17*
X1827258Y872743D03*
X1844258Y872743D03*
D24*
X1805758Y1017043D03*
X1805758Y1004343D03*
X1805758Y991643D03*
X1805758Y978943D03*
X1805758Y966243D03*
X1805758Y953543D03*
X1805758Y940843D03*
X1805758Y928143D03*
X1805758Y915443D03*
X1805758Y902743D03*
X1805758Y890043D03*
X1805758Y877343D03*
X1805758Y864643D03*
X1805758Y851943D03*
D25*
X1772908Y837043D03*
X1760208Y837043D03*
X1747508Y837043D03*
X1734808Y837043D03*
X1722108Y837043D03*
X1709408Y837043D03*
X1696708Y837043D03*
X1684008Y837043D03*
X1671308Y837043D03*
X1658608Y837043D03*
D24*
X1625758Y851943D03*
X1625758Y864643D03*
X1625758Y877343D03*
X1625758Y890043D03*
X1625758Y902743D03*
X1625758Y915443D03*
X1625758Y928143D03*
X1625758Y940843D03*
X1625758Y953543D03*
X1625758Y966243D03*
X1625758Y978943D03*
X1625758Y991643D03*
X1625758Y1004343D03*
X1625758Y1017043D03*
D26*
X1731068Y943623D03*
X1712618Y961833D03*
X1730918Y961833D03*
X1749218Y961833D03*
X1749218Y943533D03*
X1712518Y943833D03*
X1712618Y925233D03*
X1730918Y925133D03*
X1749218Y925233D03*
D27*
X1910088Y144573D03*
X1899088Y144573D03*
X1888088Y144573D03*
X1921088Y144573D03*
X1932088Y144573D03*
X1943088Y144573D03*
X1954088Y144573D03*
X1965088Y144573D03*
X1976088Y144573D03*
D28*
X1880088Y39573D03*
X1960088Y39573D03*
D29*
X1833088Y43573D03*
X1988088Y43573D03*
D30*
X1842088Y139573D03*
D31*
X1988088Y138573D03*
D17*
X1818758Y802843D03*
X1801758Y802843D03*
X1801758Y777443D03*
X1818758Y777443D03*
X1494258Y1072743D03*
X1477258Y1072743D03*
D28*
X-26238Y1133145D03*
X2082368Y1133145D03*
D32*
X-35293Y63500D02*
X-35290Y63722D01*
X-35282Y63944D01*
X-35268Y64166D01*
X-35249Y64388D01*
X-35225Y64608D01*
X-35195Y64829D01*
X-35160Y65048D01*
X-35119Y65267D01*
X-35073Y65484D01*
X-35022Y65700D01*
X-34965Y65915D01*
X-34903Y66129D01*
X-34836Y66340D01*
X-34764Y66551D01*
X-34686Y66759D01*
X-34604Y66965D01*
X-34516Y67169D01*
X-34424Y67372D01*
X-34326Y67571D01*
X-34224Y67768D01*
X-34117Y67963D01*
X-34005Y68155D01*
X-33888Y68344D01*
X-33767Y68531D01*
X-33641Y68714D01*
X-33511Y68894D01*
X-33376Y69071D01*
X-33238Y69244D01*
X-33095Y69414D01*
X-32947Y69581D01*
X-32796Y69744D01*
X-32641Y69903D01*
X-32482Y70058D01*
X-32319Y70209D01*
X-32152Y70357D01*
X-31982Y70500D01*
X-31809Y70638D01*
X-31632Y70773D01*
X-31452Y70903D01*
X-31269Y71029D01*
X-31082Y71150D01*
X-30893Y71267D01*
X-30701Y71379D01*
X-30506Y71486D01*
X-30309Y71588D01*
X-30110Y71686D01*
X-29907Y71778D01*
X-29703Y71866D01*
X-29497Y71948D01*
X-29289Y72026D01*
X-29078Y72098D01*
X-28867Y72165D01*
X-28653Y72227D01*
X-28438Y72284D01*
X-28222Y72335D01*
X-28005Y72381D01*
X-27786Y72422D01*
X-27567Y72457D01*
X-27346Y72487D01*
X-27126Y72511D01*
X-26904Y72530D01*
X-26682Y72544D01*
X-26460Y72552D01*
X-26238Y72555D01*
X-26016Y72552D01*
X-25794Y72544D01*
X-25572Y72530D01*
X-25350Y72511D01*
X-25130Y72487D01*
X-24909Y72457D01*
X-24690Y72422D01*
X-24471Y72381D01*
X-24254Y72335D01*
X-24038Y72284D01*
X-23823Y72227D01*
X-23609Y72165D01*
X-23398Y72098D01*
X-23187Y72026D01*
X-22979Y71948D01*
X-22773Y71866D01*
X-22569Y71778D01*
X-22366Y71686D01*
X-22167Y71588D01*
X-21970Y71486D01*
X-21775Y71379D01*
X-21583Y71267D01*
X-21394Y71150D01*
X-21207Y71029D01*
X-21024Y70903D01*
X-20844Y70773D01*
X-20667Y70638D01*
X-20494Y70500D01*
X-20324Y70357D01*
X-20157Y70209D01*
X-19994Y70058D01*
X-19835Y69903D01*
X-19680Y69744D01*
X-19529Y69581D01*
X-19381Y69414D01*
X-19238Y69244D01*
X-19100Y69071D01*
X-18965Y68894D01*
X-18835Y68714D01*
X-18709Y68531D01*
X-18588Y68344D01*
X-18471Y68155D01*
X-18359Y67963D01*
X-18252Y67768D01*
X-18150Y67571D01*
X-18052Y67372D01*
X-17960Y67169D01*
X-17872Y66965D01*
X-17790Y66759D01*
X-17712Y66551D01*
X-17640Y66340D01*
X-17573Y66129D01*
X-17511Y65915D01*
X-17454Y65700D01*
X-17403Y65484D01*
X-17357Y65267D01*
X-17316Y65048D01*
X-17281Y64829D01*
X-17251Y64608D01*
X-17227Y64388D01*
X-17208Y64166D01*
X-17194Y63944D01*
X-17186Y63722D01*
X-17183Y63500D01*
X-17186Y63278D01*
X-17194Y63056D01*
X-17208Y62834D01*
X-17227Y62612D01*
X-17251Y62392D01*
X-17281Y62171D01*
X-17316Y61952D01*
X-17357Y61733D01*
X-17403Y61516D01*
X-17454Y61300D01*
X-17511Y61085D01*
X-17573Y60871D01*
X-17640Y60660D01*
X-17712Y60449D01*
X-17790Y60241D01*
X-17872Y60035D01*
X-17960Y59831D01*
X-18052Y59628D01*
X-18150Y59429D01*
X-18252Y59232D01*
X-18359Y59037D01*
X-18471Y58845D01*
X-18588Y58656D01*
X-18709Y58469D01*
X-18835Y58286D01*
X-18965Y58106D01*
X-19100Y57929D01*
X-19238Y57756D01*
X-19381Y57586D01*
X-19529Y57419D01*
X-19680Y57256D01*
X-19835Y57097D01*
X-19994Y56942D01*
X-20157Y56791D01*
X-20324Y56643D01*
X-20494Y56500D01*
X-20667Y56362D01*
X-20844Y56227D01*
X-21024Y56097D01*
X-21207Y55971D01*
X-21394Y55850D01*
X-21583Y55733D01*
X-21775Y55621D01*
X-21970Y55514D01*
X-22167Y55412D01*
X-22366Y55314D01*
X-22569Y55222D01*
X-22773Y55134D01*
X-22979Y55052D01*
X-23187Y54974D01*
X-23398Y54902D01*
X-23609Y54835D01*
X-23823Y54773D01*
X-24038Y54716D01*
X-24254Y54665D01*
X-24471Y54619D01*
X-24690Y54578D01*
X-24909Y54543D01*
X-25130Y54513D01*
X-25350Y54489D01*
X-25572Y54470D01*
X-25794Y54456D01*
X-26016Y54448D01*
X-26238Y54445D01*
X-26460Y54448D01*
X-26682Y54456D01*
X-26904Y54470D01*
X-27126Y54489D01*
X-27346Y54513D01*
X-27567Y54543D01*
X-27786Y54578D01*
X-28005Y54619D01*
X-28222Y54665D01*
X-28438Y54716D01*
X-28653Y54773D01*
X-28867Y54835D01*
X-29078Y54902D01*
X-29289Y54974D01*
X-29497Y55052D01*
X-29703Y55134D01*
X-29907Y55222D01*
X-30110Y55314D01*
X-30309Y55412D01*
X-30506Y55514D01*
X-30701Y55621D01*
X-30893Y55733D01*
X-31082Y55850D01*
X-31269Y55971D01*
X-31452Y56097D01*
X-31632Y56227D01*
X-31809Y56362D01*
X-31982Y56500D01*
X-32152Y56643D01*
X-32319Y56791D01*
X-32482Y56942D01*
X-32641Y57097D01*
X-32796Y57256D01*
X-32947Y57419D01*
X-33095Y57586D01*
X-33238Y57756D01*
X-33376Y57929D01*
X-33511Y58106D01*
X-33641Y58286D01*
X-33767Y58469D01*
X-33888Y58656D01*
X-34005Y58845D01*
X-34117Y59037D01*
X-34224Y59232D01*
X-34326Y59429D01*
X-34424Y59628D01*
X-34516Y59831D01*
X-34604Y60035D01*
X-34686Y60241D01*
X-34764Y60449D01*
X-34836Y60660D01*
X-34903Y60871D01*
X-34965Y61085D01*
X-35022Y61300D01*
X-35073Y61516D01*
X-35119Y61733D01*
X-35160Y61952D01*
X-35195Y62171D01*
X-35225Y62392D01*
X-35249Y62612D01*
X-35268Y62834D01*
X-35282Y63056D01*
X-35290Y63278D01*
X-35293Y63500D01*
D33*
X-26238Y63500D03*
M02*
