G04 EAGLE Gerber RS-274X export*
G75*
%MOMM*%
%FSLAX34Y34*%
%LPD*%
%INSoldermask Top*%
%IPPOS*%
%AMOC8*
5,1,8,0,0,1.08239X$1,22.5*%
G01*
%ADD10C,0.838200*%
%ADD11R,1.203200X1.303200*%
%ADD12R,1.403200X0.753200*%
%ADD13R,1.103200X1.053200*%
%ADD14R,1.303200X1.203200*%
%ADD15R,0.803200X0.803200*%
%ADD16R,1.053200X1.723200*%
%ADD17R,1.723200X1.053200*%
%ADD18R,1.303200X1.303200*%
%ADD19R,0.503200X1.203200*%
%ADD20R,0.803200X1.203200*%
%ADD21C,0.853200*%
%ADD22R,0.453200X0.813200*%
%ADD23R,0.453200X0.763200*%
%ADD24R,1.703200X4.203200*%
%ADD25C,3.403600*%
%ADD26R,4.803200X1.203200*%
%ADD27R,3.603200X1.803200*%
%ADD28C,2.082800*%
%ADD29R,0.803200X1.903200*%
%ADD30R,1.203200X2.903200*%
%ADD31R,0.833200X1.033200*%
%ADD32R,0.840000X0.440000*%
%ADD33R,0.940000X1.520000*%
%ADD34R,0.838200X1.473200*%
%ADD35R,1.403200X2.203200*%
%ADD36R,0.803200X1.553200*%
%ADD37R,0.803200X1.403200*%
%ADD38R,1.727200X0.965200*%
%ADD39R,0.620000X0.840000*%
%ADD40R,0.620000X0.560000*%
%ADD41R,0.640000X0.840000*%
%ADD42R,0.753200X1.003200*%
%ADD43R,1.033200X0.833200*%
%ADD44R,0.478200X0.453200*%
%ADD45R,0.453200X0.478200*%
%ADD46C,1.803200*%
%ADD47R,1.053200X1.103200*%
%ADD48C,1.203200*%
%ADD49R,0.803200X2.203200*%
%ADD50C,1.270000*%
%ADD51C,1.703200*%

G36*
X1673842Y40796D02*
X1673842Y40796D01*
X1673848Y40802D01*
X1673853Y40798D01*
X1675083Y41164D01*
X1675088Y41170D01*
X1675093Y41168D01*
X1676212Y41798D01*
X1676215Y41805D01*
X1676221Y41804D01*
X1677171Y42667D01*
X1677172Y42675D01*
X1677178Y42676D01*
X1677912Y43728D01*
X1677912Y43736D01*
X1677917Y43738D01*
X1678399Y44928D01*
X1678397Y44933D01*
X1678401Y44936D01*
X1678400Y44937D01*
X1678402Y44938D01*
X1678607Y46205D01*
X1678604Y46211D01*
X1678607Y46213D01*
X1678607Y58213D01*
X1678604Y58217D01*
X1678607Y58220D01*
X1678452Y59342D01*
X1678447Y59347D01*
X1678450Y59352D01*
X1678079Y60422D01*
X1678073Y60426D01*
X1678075Y60431D01*
X1677502Y61409D01*
X1677496Y61411D01*
X1677497Y61416D01*
X1676744Y62264D01*
X1676737Y62265D01*
X1676737Y62270D01*
X1675834Y62954D01*
X1675827Y62954D01*
X1675826Y62959D01*
X1674807Y63454D01*
X1674800Y63453D01*
X1674798Y63457D01*
X1673701Y63744D01*
X1673695Y63741D01*
X1673692Y63745D01*
X1672561Y63812D01*
X1672555Y63812D01*
X1671424Y63745D01*
X1671419Y63741D01*
X1671415Y63744D01*
X1670318Y63457D01*
X1670314Y63452D01*
X1670309Y63454D01*
X1669290Y62959D01*
X1669287Y62953D01*
X1669282Y62954D01*
X1668379Y62270D01*
X1668377Y62263D01*
X1668372Y62264D01*
X1667619Y61416D01*
X1667619Y61409D01*
X1667614Y61409D01*
X1667041Y60431D01*
X1667042Y60428D01*
X1667041Y60427D01*
X1667042Y60426D01*
X1667042Y60424D01*
X1667037Y60422D01*
X1666666Y59352D01*
X1666668Y59346D01*
X1666665Y59344D01*
X1666665Y59343D01*
X1666664Y59342D01*
X1666509Y58220D01*
X1666512Y58215D01*
X1666509Y58213D01*
X1666509Y46213D01*
X1666512Y46208D01*
X1666509Y46205D01*
X1666714Y44938D01*
X1666720Y44933D01*
X1666717Y44928D01*
X1667199Y43738D01*
X1667206Y43734D01*
X1667204Y43728D01*
X1667938Y42676D01*
X1667946Y42673D01*
X1667945Y42667D01*
X1668895Y41804D01*
X1668904Y41804D01*
X1668904Y41798D01*
X1670023Y41168D01*
X1670031Y41169D01*
X1670033Y41164D01*
X1671263Y40798D01*
X1671271Y40801D01*
X1671274Y40796D01*
X1672555Y40714D01*
X1672559Y40717D01*
X1672561Y40714D01*
X1673842Y40796D01*
G37*
G36*
X500402Y40796D02*
X500402Y40796D01*
X500408Y40802D01*
X500413Y40798D01*
X501643Y41164D01*
X501648Y41170D01*
X501653Y41168D01*
X502772Y41798D01*
X502775Y41805D01*
X502781Y41804D01*
X503731Y42667D01*
X503732Y42675D01*
X503738Y42676D01*
X504472Y43728D01*
X504472Y43736D01*
X504477Y43738D01*
X504959Y44928D01*
X504957Y44933D01*
X504961Y44936D01*
X504960Y44937D01*
X504962Y44938D01*
X505167Y46205D01*
X505164Y46211D01*
X505167Y46213D01*
X505167Y58213D01*
X505164Y58217D01*
X505167Y58220D01*
X505012Y59342D01*
X505007Y59347D01*
X505010Y59352D01*
X504639Y60422D01*
X504633Y60426D01*
X504635Y60431D01*
X504062Y61409D01*
X504056Y61411D01*
X504057Y61416D01*
X503304Y62264D01*
X503297Y62265D01*
X503297Y62270D01*
X502394Y62954D01*
X502387Y62954D01*
X502386Y62959D01*
X501367Y63454D01*
X501360Y63453D01*
X501358Y63457D01*
X500261Y63744D01*
X500255Y63741D01*
X500252Y63745D01*
X499121Y63812D01*
X499115Y63812D01*
X497984Y63745D01*
X497979Y63741D01*
X497975Y63744D01*
X496878Y63457D01*
X496874Y63452D01*
X496869Y63454D01*
X495850Y62959D01*
X495847Y62953D01*
X495842Y62954D01*
X494939Y62270D01*
X494937Y62263D01*
X494932Y62264D01*
X494179Y61416D01*
X494179Y61409D01*
X494174Y61409D01*
X493601Y60431D01*
X493602Y60428D01*
X493601Y60427D01*
X493602Y60426D01*
X493602Y60424D01*
X493597Y60422D01*
X493226Y59352D01*
X493228Y59346D01*
X493225Y59344D01*
X493225Y59343D01*
X493224Y59342D01*
X493069Y58220D01*
X493072Y58215D01*
X493069Y58213D01*
X493069Y46213D01*
X493072Y46208D01*
X493069Y46205D01*
X493274Y44938D01*
X493280Y44933D01*
X493277Y44928D01*
X493759Y43738D01*
X493766Y43734D01*
X493764Y43728D01*
X494498Y42676D01*
X494506Y42673D01*
X494505Y42667D01*
X495455Y41804D01*
X495464Y41804D01*
X495464Y41798D01*
X496583Y41168D01*
X496591Y41169D01*
X496593Y41164D01*
X497823Y40798D01*
X497831Y40801D01*
X497834Y40796D01*
X499115Y40714D01*
X499119Y40717D01*
X499121Y40714D01*
X500402Y40796D01*
G37*
G36*
X299702Y40796D02*
X299702Y40796D01*
X299708Y40802D01*
X299713Y40798D01*
X300943Y41164D01*
X300948Y41170D01*
X300953Y41168D01*
X302072Y41798D01*
X302075Y41805D01*
X302081Y41804D01*
X303031Y42667D01*
X303032Y42675D01*
X303038Y42676D01*
X303772Y43728D01*
X303772Y43736D01*
X303777Y43738D01*
X304259Y44928D01*
X304257Y44933D01*
X304261Y44936D01*
X304260Y44937D01*
X304262Y44938D01*
X304467Y46205D01*
X304464Y46211D01*
X304467Y46213D01*
X304467Y58213D01*
X304464Y58217D01*
X304467Y58220D01*
X304312Y59342D01*
X304307Y59347D01*
X304310Y59352D01*
X303939Y60422D01*
X303933Y60426D01*
X303935Y60431D01*
X303362Y61409D01*
X303356Y61411D01*
X303357Y61416D01*
X302604Y62264D01*
X302597Y62265D01*
X302597Y62270D01*
X301694Y62954D01*
X301687Y62954D01*
X301686Y62959D01*
X300667Y63454D01*
X300660Y63453D01*
X300658Y63457D01*
X299561Y63744D01*
X299555Y63741D01*
X299552Y63745D01*
X298421Y63812D01*
X298415Y63812D01*
X297284Y63745D01*
X297279Y63741D01*
X297275Y63744D01*
X296178Y63457D01*
X296174Y63452D01*
X296169Y63454D01*
X295150Y62959D01*
X295147Y62953D01*
X295142Y62954D01*
X294239Y62270D01*
X294237Y62263D01*
X294232Y62264D01*
X293479Y61416D01*
X293479Y61409D01*
X293474Y61409D01*
X292901Y60431D01*
X292902Y60428D01*
X292901Y60427D01*
X292902Y60426D01*
X292902Y60424D01*
X292897Y60422D01*
X292526Y59352D01*
X292528Y59346D01*
X292525Y59344D01*
X292525Y59343D01*
X292524Y59342D01*
X292369Y58220D01*
X292372Y58215D01*
X292369Y58213D01*
X292369Y46213D01*
X292372Y46208D01*
X292369Y46205D01*
X292574Y44938D01*
X292580Y44933D01*
X292577Y44928D01*
X293059Y43738D01*
X293066Y43734D01*
X293064Y43728D01*
X293798Y42676D01*
X293806Y42673D01*
X293805Y42667D01*
X294755Y41804D01*
X294764Y41804D01*
X294764Y41798D01*
X295883Y41168D01*
X295891Y41169D01*
X295893Y41164D01*
X297123Y40798D01*
X297131Y40801D01*
X297134Y40796D01*
X298415Y40714D01*
X298419Y40717D01*
X298421Y40714D01*
X299702Y40796D01*
G37*
G36*
X1073172Y40796D02*
X1073172Y40796D01*
X1073178Y40802D01*
X1073183Y40798D01*
X1074413Y41164D01*
X1074418Y41170D01*
X1074423Y41168D01*
X1075542Y41798D01*
X1075545Y41805D01*
X1075551Y41804D01*
X1076501Y42667D01*
X1076502Y42675D01*
X1076508Y42676D01*
X1077242Y43728D01*
X1077242Y43736D01*
X1077247Y43738D01*
X1077729Y44928D01*
X1077727Y44933D01*
X1077731Y44936D01*
X1077730Y44937D01*
X1077732Y44938D01*
X1077937Y46205D01*
X1077934Y46211D01*
X1077937Y46213D01*
X1077937Y58213D01*
X1077934Y58217D01*
X1077937Y58220D01*
X1077782Y59342D01*
X1077777Y59347D01*
X1077780Y59352D01*
X1077409Y60422D01*
X1077403Y60426D01*
X1077405Y60431D01*
X1076832Y61409D01*
X1076826Y61411D01*
X1076827Y61416D01*
X1076074Y62264D01*
X1076067Y62265D01*
X1076067Y62270D01*
X1075164Y62954D01*
X1075157Y62954D01*
X1075156Y62959D01*
X1074137Y63454D01*
X1074130Y63453D01*
X1074128Y63457D01*
X1073031Y63744D01*
X1073025Y63741D01*
X1073022Y63745D01*
X1071891Y63812D01*
X1071885Y63812D01*
X1070754Y63745D01*
X1070749Y63741D01*
X1070745Y63744D01*
X1069648Y63457D01*
X1069644Y63452D01*
X1069639Y63454D01*
X1068620Y62959D01*
X1068617Y62953D01*
X1068612Y62954D01*
X1067709Y62270D01*
X1067707Y62263D01*
X1067702Y62264D01*
X1066949Y61416D01*
X1066949Y61409D01*
X1066944Y61409D01*
X1066371Y60431D01*
X1066372Y60428D01*
X1066371Y60427D01*
X1066372Y60426D01*
X1066372Y60424D01*
X1066367Y60422D01*
X1065996Y59352D01*
X1065998Y59346D01*
X1065995Y59344D01*
X1065995Y59343D01*
X1065994Y59342D01*
X1065839Y58220D01*
X1065842Y58215D01*
X1065839Y58213D01*
X1065839Y46213D01*
X1065842Y46208D01*
X1065839Y46205D01*
X1066044Y44938D01*
X1066050Y44933D01*
X1066047Y44928D01*
X1066529Y43738D01*
X1066536Y43734D01*
X1066534Y43728D01*
X1067268Y42676D01*
X1067276Y42673D01*
X1067275Y42667D01*
X1068225Y41804D01*
X1068234Y41804D01*
X1068234Y41798D01*
X1069353Y41168D01*
X1069361Y41169D01*
X1069363Y41164D01*
X1070593Y40798D01*
X1070601Y40801D01*
X1070604Y40796D01*
X1071885Y40714D01*
X1071889Y40717D01*
X1071891Y40714D01*
X1073172Y40796D01*
G37*
G36*
X1788142Y40796D02*
X1788142Y40796D01*
X1788148Y40802D01*
X1788153Y40798D01*
X1789383Y41164D01*
X1789388Y41170D01*
X1789393Y41168D01*
X1790512Y41798D01*
X1790515Y41805D01*
X1790521Y41804D01*
X1791471Y42667D01*
X1791472Y42675D01*
X1791478Y42676D01*
X1792212Y43728D01*
X1792212Y43736D01*
X1792217Y43738D01*
X1792699Y44928D01*
X1792697Y44933D01*
X1792701Y44936D01*
X1792700Y44937D01*
X1792702Y44938D01*
X1792907Y46205D01*
X1792904Y46211D01*
X1792907Y46213D01*
X1792907Y58213D01*
X1792904Y58217D01*
X1792907Y58220D01*
X1792752Y59342D01*
X1792747Y59347D01*
X1792750Y59352D01*
X1792379Y60422D01*
X1792373Y60426D01*
X1792375Y60431D01*
X1791802Y61409D01*
X1791796Y61411D01*
X1791797Y61416D01*
X1791044Y62264D01*
X1791037Y62265D01*
X1791037Y62270D01*
X1790134Y62954D01*
X1790127Y62954D01*
X1790126Y62959D01*
X1789107Y63454D01*
X1789100Y63453D01*
X1789098Y63457D01*
X1788001Y63744D01*
X1787995Y63741D01*
X1787992Y63745D01*
X1786861Y63812D01*
X1786855Y63812D01*
X1785724Y63745D01*
X1785719Y63741D01*
X1785715Y63744D01*
X1784618Y63457D01*
X1784614Y63452D01*
X1784609Y63454D01*
X1783590Y62959D01*
X1783587Y62953D01*
X1783582Y62954D01*
X1782679Y62270D01*
X1782677Y62263D01*
X1782672Y62264D01*
X1781919Y61416D01*
X1781919Y61409D01*
X1781914Y61409D01*
X1781341Y60431D01*
X1781342Y60428D01*
X1781341Y60427D01*
X1781342Y60426D01*
X1781342Y60424D01*
X1781337Y60422D01*
X1780966Y59352D01*
X1780968Y59346D01*
X1780965Y59344D01*
X1780965Y59343D01*
X1780964Y59342D01*
X1780809Y58220D01*
X1780812Y58215D01*
X1780809Y58213D01*
X1780809Y46213D01*
X1780812Y46208D01*
X1780809Y46205D01*
X1781014Y44938D01*
X1781020Y44933D01*
X1781017Y44928D01*
X1781499Y43738D01*
X1781506Y43734D01*
X1781504Y43728D01*
X1782238Y42676D01*
X1782246Y42673D01*
X1782245Y42667D01*
X1783195Y41804D01*
X1783204Y41804D01*
X1783204Y41798D01*
X1784323Y41168D01*
X1784331Y41169D01*
X1784333Y41164D01*
X1785563Y40798D01*
X1785571Y40801D01*
X1785574Y40796D01*
X1786855Y40714D01*
X1786859Y40717D01*
X1786861Y40714D01*
X1788142Y40796D01*
G37*
G36*
X1101072Y40796D02*
X1101072Y40796D01*
X1101078Y40802D01*
X1101083Y40798D01*
X1102313Y41164D01*
X1102318Y41170D01*
X1102323Y41168D01*
X1103442Y41798D01*
X1103445Y41805D01*
X1103451Y41804D01*
X1104401Y42667D01*
X1104402Y42675D01*
X1104408Y42676D01*
X1105142Y43728D01*
X1105142Y43736D01*
X1105147Y43738D01*
X1105629Y44928D01*
X1105627Y44933D01*
X1105631Y44936D01*
X1105630Y44937D01*
X1105632Y44938D01*
X1105837Y46205D01*
X1105834Y46211D01*
X1105837Y46213D01*
X1105837Y58213D01*
X1105834Y58217D01*
X1105837Y58220D01*
X1105682Y59342D01*
X1105677Y59347D01*
X1105680Y59352D01*
X1105309Y60422D01*
X1105303Y60426D01*
X1105305Y60431D01*
X1104732Y61409D01*
X1104726Y61411D01*
X1104727Y61416D01*
X1103974Y62264D01*
X1103967Y62265D01*
X1103967Y62270D01*
X1103064Y62954D01*
X1103057Y62954D01*
X1103056Y62959D01*
X1102037Y63454D01*
X1102030Y63453D01*
X1102028Y63457D01*
X1100931Y63744D01*
X1100925Y63741D01*
X1100922Y63745D01*
X1099791Y63812D01*
X1099785Y63812D01*
X1098654Y63745D01*
X1098649Y63741D01*
X1098645Y63744D01*
X1097548Y63457D01*
X1097544Y63452D01*
X1097539Y63454D01*
X1096520Y62959D01*
X1096517Y62953D01*
X1096512Y62954D01*
X1095609Y62270D01*
X1095607Y62263D01*
X1095602Y62264D01*
X1094849Y61416D01*
X1094849Y61409D01*
X1094844Y61409D01*
X1094271Y60431D01*
X1094272Y60428D01*
X1094271Y60427D01*
X1094272Y60426D01*
X1094272Y60424D01*
X1094267Y60422D01*
X1093896Y59352D01*
X1093898Y59346D01*
X1093895Y59344D01*
X1093895Y59343D01*
X1093894Y59342D01*
X1093739Y58220D01*
X1093742Y58215D01*
X1093739Y58213D01*
X1093739Y46213D01*
X1093742Y46208D01*
X1093739Y46205D01*
X1093944Y44938D01*
X1093950Y44933D01*
X1093947Y44928D01*
X1094429Y43738D01*
X1094436Y43734D01*
X1094434Y43728D01*
X1095168Y42676D01*
X1095176Y42673D01*
X1095175Y42667D01*
X1096125Y41804D01*
X1096134Y41804D01*
X1096134Y41798D01*
X1097253Y41168D01*
X1097261Y41169D01*
X1097263Y41164D01*
X1098493Y40798D01*
X1098501Y40801D01*
X1098504Y40796D01*
X1099785Y40714D01*
X1099789Y40717D01*
X1099791Y40714D01*
X1101072Y40796D01*
G37*
G36*
X1187472Y40796D02*
X1187472Y40796D01*
X1187478Y40802D01*
X1187483Y40798D01*
X1188713Y41164D01*
X1188718Y41170D01*
X1188723Y41168D01*
X1189842Y41798D01*
X1189845Y41805D01*
X1189851Y41804D01*
X1190801Y42667D01*
X1190802Y42675D01*
X1190808Y42676D01*
X1191542Y43728D01*
X1191542Y43736D01*
X1191547Y43738D01*
X1192029Y44928D01*
X1192027Y44933D01*
X1192031Y44936D01*
X1192030Y44937D01*
X1192032Y44938D01*
X1192237Y46205D01*
X1192234Y46211D01*
X1192237Y46213D01*
X1192237Y58213D01*
X1192234Y58217D01*
X1192237Y58220D01*
X1192082Y59342D01*
X1192077Y59347D01*
X1192080Y59352D01*
X1191709Y60422D01*
X1191703Y60426D01*
X1191705Y60431D01*
X1191132Y61409D01*
X1191126Y61411D01*
X1191127Y61416D01*
X1190374Y62264D01*
X1190367Y62265D01*
X1190367Y62270D01*
X1189464Y62954D01*
X1189457Y62954D01*
X1189456Y62959D01*
X1188437Y63454D01*
X1188430Y63453D01*
X1188428Y63457D01*
X1187331Y63744D01*
X1187325Y63741D01*
X1187322Y63745D01*
X1186191Y63812D01*
X1186185Y63812D01*
X1185054Y63745D01*
X1185049Y63741D01*
X1185045Y63744D01*
X1183948Y63457D01*
X1183944Y63452D01*
X1183939Y63454D01*
X1182920Y62959D01*
X1182917Y62953D01*
X1182912Y62954D01*
X1182009Y62270D01*
X1182007Y62263D01*
X1182002Y62264D01*
X1181249Y61416D01*
X1181249Y61409D01*
X1181244Y61409D01*
X1180671Y60431D01*
X1180672Y60428D01*
X1180671Y60427D01*
X1180672Y60426D01*
X1180672Y60424D01*
X1180667Y60422D01*
X1180296Y59352D01*
X1180298Y59346D01*
X1180295Y59344D01*
X1180295Y59343D01*
X1180294Y59342D01*
X1180139Y58220D01*
X1180142Y58215D01*
X1180139Y58213D01*
X1180139Y46213D01*
X1180142Y46208D01*
X1180139Y46205D01*
X1180344Y44938D01*
X1180350Y44933D01*
X1180347Y44928D01*
X1180829Y43738D01*
X1180836Y43734D01*
X1180834Y43728D01*
X1181568Y42676D01*
X1181576Y42673D01*
X1181575Y42667D01*
X1182525Y41804D01*
X1182534Y41804D01*
X1182534Y41798D01*
X1183653Y41168D01*
X1183661Y41169D01*
X1183663Y41164D01*
X1184893Y40798D01*
X1184901Y40801D01*
X1184904Y40796D01*
X1186185Y40714D01*
X1186189Y40717D01*
X1186191Y40714D01*
X1187472Y40796D01*
G37*
G36*
X1874542Y40796D02*
X1874542Y40796D01*
X1874548Y40802D01*
X1874553Y40798D01*
X1875783Y41164D01*
X1875788Y41170D01*
X1875793Y41168D01*
X1876912Y41798D01*
X1876915Y41805D01*
X1876921Y41804D01*
X1877871Y42667D01*
X1877872Y42675D01*
X1877878Y42676D01*
X1878612Y43728D01*
X1878612Y43736D01*
X1878617Y43738D01*
X1879099Y44928D01*
X1879097Y44933D01*
X1879101Y44936D01*
X1879100Y44937D01*
X1879102Y44938D01*
X1879307Y46205D01*
X1879304Y46211D01*
X1879307Y46213D01*
X1879307Y58213D01*
X1879304Y58217D01*
X1879307Y58220D01*
X1879152Y59342D01*
X1879147Y59347D01*
X1879150Y59352D01*
X1878779Y60422D01*
X1878773Y60426D01*
X1878775Y60431D01*
X1878202Y61409D01*
X1878196Y61411D01*
X1878197Y61416D01*
X1877444Y62264D01*
X1877437Y62265D01*
X1877437Y62270D01*
X1876534Y62954D01*
X1876527Y62954D01*
X1876526Y62959D01*
X1875507Y63454D01*
X1875500Y63453D01*
X1875498Y63457D01*
X1874401Y63744D01*
X1874395Y63741D01*
X1874392Y63745D01*
X1873261Y63812D01*
X1873255Y63812D01*
X1872124Y63745D01*
X1872119Y63741D01*
X1872115Y63744D01*
X1871018Y63457D01*
X1871014Y63452D01*
X1871009Y63454D01*
X1869990Y62959D01*
X1869987Y62953D01*
X1869982Y62954D01*
X1869079Y62270D01*
X1869077Y62263D01*
X1869072Y62264D01*
X1868319Y61416D01*
X1868319Y61409D01*
X1868314Y61409D01*
X1867741Y60431D01*
X1867742Y60428D01*
X1867741Y60427D01*
X1867742Y60426D01*
X1867742Y60424D01*
X1867737Y60422D01*
X1867366Y59352D01*
X1867368Y59346D01*
X1867365Y59344D01*
X1867365Y59343D01*
X1867364Y59342D01*
X1867209Y58220D01*
X1867212Y58215D01*
X1867209Y58213D01*
X1867209Y46213D01*
X1867212Y46208D01*
X1867209Y46205D01*
X1867414Y44938D01*
X1867420Y44933D01*
X1867417Y44928D01*
X1867899Y43738D01*
X1867906Y43734D01*
X1867904Y43728D01*
X1868638Y42676D01*
X1868646Y42673D01*
X1868645Y42667D01*
X1869595Y41804D01*
X1869604Y41804D01*
X1869604Y41798D01*
X1870723Y41168D01*
X1870731Y41169D01*
X1870733Y41164D01*
X1871963Y40798D01*
X1871971Y40801D01*
X1871974Y40796D01*
X1873255Y40714D01*
X1873259Y40717D01*
X1873261Y40714D01*
X1874542Y40796D01*
G37*
G36*
X386102Y40796D02*
X386102Y40796D01*
X386108Y40802D01*
X386113Y40798D01*
X387343Y41164D01*
X387348Y41170D01*
X387353Y41168D01*
X388472Y41798D01*
X388475Y41805D01*
X388481Y41804D01*
X389431Y42667D01*
X389432Y42675D01*
X389438Y42676D01*
X390172Y43728D01*
X390172Y43736D01*
X390177Y43738D01*
X390659Y44928D01*
X390657Y44933D01*
X390661Y44936D01*
X390660Y44937D01*
X390662Y44938D01*
X390867Y46205D01*
X390864Y46211D01*
X390867Y46213D01*
X390867Y58213D01*
X390864Y58217D01*
X390867Y58220D01*
X390712Y59342D01*
X390707Y59347D01*
X390710Y59352D01*
X390339Y60422D01*
X390333Y60426D01*
X390335Y60431D01*
X389762Y61409D01*
X389756Y61411D01*
X389757Y61416D01*
X389004Y62264D01*
X388997Y62265D01*
X388997Y62270D01*
X388094Y62954D01*
X388087Y62954D01*
X388086Y62959D01*
X387067Y63454D01*
X387060Y63453D01*
X387058Y63457D01*
X385961Y63744D01*
X385955Y63741D01*
X385952Y63745D01*
X384821Y63812D01*
X384815Y63812D01*
X383684Y63745D01*
X383679Y63741D01*
X383675Y63744D01*
X382578Y63457D01*
X382574Y63452D01*
X382569Y63454D01*
X381550Y62959D01*
X381547Y62953D01*
X381542Y62954D01*
X380639Y62270D01*
X380637Y62263D01*
X380632Y62264D01*
X379879Y61416D01*
X379879Y61409D01*
X379874Y61409D01*
X379301Y60431D01*
X379302Y60428D01*
X379301Y60427D01*
X379302Y60426D01*
X379302Y60424D01*
X379297Y60422D01*
X378926Y59352D01*
X378928Y59346D01*
X378925Y59344D01*
X378925Y59343D01*
X378924Y59342D01*
X378769Y58220D01*
X378772Y58215D01*
X378769Y58213D01*
X378769Y46213D01*
X378772Y46208D01*
X378769Y46205D01*
X378974Y44938D01*
X378980Y44933D01*
X378977Y44928D01*
X379459Y43738D01*
X379466Y43734D01*
X379464Y43728D01*
X380198Y42676D01*
X380206Y42673D01*
X380205Y42667D01*
X381155Y41804D01*
X381164Y41804D01*
X381164Y41798D01*
X382283Y41168D01*
X382291Y41169D01*
X382293Y41164D01*
X383523Y40798D01*
X383531Y40801D01*
X383534Y40796D01*
X384815Y40714D01*
X384819Y40717D01*
X384821Y40714D01*
X386102Y40796D01*
G37*
G36*
X1760242Y40796D02*
X1760242Y40796D01*
X1760248Y40802D01*
X1760253Y40798D01*
X1761483Y41164D01*
X1761488Y41170D01*
X1761493Y41168D01*
X1762612Y41798D01*
X1762615Y41805D01*
X1762621Y41804D01*
X1763571Y42667D01*
X1763572Y42675D01*
X1763578Y42676D01*
X1764312Y43728D01*
X1764312Y43736D01*
X1764317Y43738D01*
X1764799Y44928D01*
X1764797Y44933D01*
X1764801Y44936D01*
X1764800Y44937D01*
X1764802Y44938D01*
X1765007Y46205D01*
X1765004Y46211D01*
X1765007Y46213D01*
X1765007Y58213D01*
X1765004Y58217D01*
X1765007Y58220D01*
X1764852Y59342D01*
X1764847Y59347D01*
X1764850Y59352D01*
X1764479Y60422D01*
X1764473Y60426D01*
X1764475Y60431D01*
X1763902Y61409D01*
X1763896Y61411D01*
X1763897Y61416D01*
X1763144Y62264D01*
X1763137Y62265D01*
X1763137Y62270D01*
X1762234Y62954D01*
X1762227Y62954D01*
X1762226Y62959D01*
X1761207Y63454D01*
X1761200Y63453D01*
X1761198Y63457D01*
X1760101Y63744D01*
X1760095Y63741D01*
X1760092Y63745D01*
X1758961Y63812D01*
X1758955Y63812D01*
X1757824Y63745D01*
X1757819Y63741D01*
X1757815Y63744D01*
X1756718Y63457D01*
X1756714Y63452D01*
X1756709Y63454D01*
X1755690Y62959D01*
X1755687Y62953D01*
X1755682Y62954D01*
X1754779Y62270D01*
X1754777Y62263D01*
X1754772Y62264D01*
X1754019Y61416D01*
X1754019Y61409D01*
X1754014Y61409D01*
X1753441Y60431D01*
X1753442Y60428D01*
X1753441Y60427D01*
X1753442Y60426D01*
X1753442Y60424D01*
X1753437Y60422D01*
X1753066Y59352D01*
X1753068Y59346D01*
X1753065Y59344D01*
X1753065Y59343D01*
X1753064Y59342D01*
X1752909Y58220D01*
X1752912Y58215D01*
X1752909Y58213D01*
X1752909Y46213D01*
X1752912Y46208D01*
X1752909Y46205D01*
X1753114Y44938D01*
X1753120Y44933D01*
X1753117Y44928D01*
X1753599Y43738D01*
X1753606Y43734D01*
X1753604Y43728D01*
X1754338Y42676D01*
X1754346Y42673D01*
X1754345Y42667D01*
X1755295Y41804D01*
X1755304Y41804D01*
X1755304Y41798D01*
X1756423Y41168D01*
X1756431Y41169D01*
X1756433Y41164D01*
X1757663Y40798D01*
X1757671Y40801D01*
X1757674Y40796D01*
X1758955Y40714D01*
X1758959Y40717D01*
X1758961Y40714D01*
X1760242Y40796D01*
G37*
G36*
X414002Y40796D02*
X414002Y40796D01*
X414008Y40802D01*
X414013Y40798D01*
X415243Y41164D01*
X415248Y41170D01*
X415253Y41168D01*
X416372Y41798D01*
X416375Y41805D01*
X416381Y41804D01*
X417331Y42667D01*
X417332Y42675D01*
X417338Y42676D01*
X418072Y43728D01*
X418072Y43736D01*
X418077Y43738D01*
X418559Y44928D01*
X418557Y44933D01*
X418561Y44936D01*
X418560Y44937D01*
X418562Y44938D01*
X418767Y46205D01*
X418764Y46211D01*
X418767Y46213D01*
X418767Y58213D01*
X418764Y58217D01*
X418767Y58220D01*
X418612Y59342D01*
X418607Y59347D01*
X418610Y59352D01*
X418239Y60422D01*
X418233Y60426D01*
X418235Y60431D01*
X417662Y61409D01*
X417656Y61411D01*
X417657Y61416D01*
X416904Y62264D01*
X416897Y62265D01*
X416897Y62270D01*
X415994Y62954D01*
X415987Y62954D01*
X415986Y62959D01*
X414967Y63454D01*
X414960Y63453D01*
X414958Y63457D01*
X413861Y63744D01*
X413855Y63741D01*
X413852Y63745D01*
X412721Y63812D01*
X412715Y63812D01*
X411584Y63745D01*
X411579Y63741D01*
X411575Y63744D01*
X410478Y63457D01*
X410474Y63452D01*
X410469Y63454D01*
X409450Y62959D01*
X409447Y62953D01*
X409442Y62954D01*
X408539Y62270D01*
X408537Y62263D01*
X408532Y62264D01*
X407779Y61416D01*
X407779Y61409D01*
X407774Y61409D01*
X407201Y60431D01*
X407202Y60428D01*
X407201Y60427D01*
X407202Y60426D01*
X407202Y60424D01*
X407197Y60422D01*
X406826Y59352D01*
X406828Y59346D01*
X406825Y59344D01*
X406825Y59343D01*
X406824Y59342D01*
X406669Y58220D01*
X406672Y58215D01*
X406669Y58213D01*
X406669Y46213D01*
X406672Y46208D01*
X406669Y46205D01*
X406874Y44938D01*
X406880Y44933D01*
X406877Y44928D01*
X407359Y43738D01*
X407366Y43734D01*
X407364Y43728D01*
X408098Y42676D01*
X408106Y42673D01*
X408105Y42667D01*
X409055Y41804D01*
X409064Y41804D01*
X409064Y41798D01*
X410183Y41168D01*
X410191Y41169D01*
X410193Y41164D01*
X411423Y40798D01*
X411431Y40801D01*
X411434Y40796D01*
X412715Y40714D01*
X412719Y40717D01*
X412721Y40714D01*
X414002Y40796D01*
G37*
G36*
X986772Y40796D02*
X986772Y40796D01*
X986778Y40802D01*
X986783Y40798D01*
X988013Y41164D01*
X988018Y41170D01*
X988023Y41168D01*
X989142Y41798D01*
X989145Y41805D01*
X989151Y41804D01*
X990101Y42667D01*
X990102Y42675D01*
X990108Y42676D01*
X990842Y43728D01*
X990842Y43736D01*
X990847Y43738D01*
X991329Y44928D01*
X991327Y44933D01*
X991331Y44936D01*
X991330Y44937D01*
X991332Y44938D01*
X991537Y46205D01*
X991534Y46211D01*
X991537Y46213D01*
X991537Y58213D01*
X991534Y58217D01*
X991537Y58220D01*
X991382Y59342D01*
X991377Y59347D01*
X991380Y59352D01*
X991009Y60422D01*
X991003Y60426D01*
X991005Y60431D01*
X990432Y61409D01*
X990426Y61411D01*
X990427Y61416D01*
X989674Y62264D01*
X989667Y62265D01*
X989667Y62270D01*
X988764Y62954D01*
X988757Y62954D01*
X988756Y62959D01*
X987737Y63454D01*
X987730Y63453D01*
X987728Y63457D01*
X986631Y63744D01*
X986625Y63741D01*
X986622Y63745D01*
X985491Y63812D01*
X985485Y63812D01*
X984354Y63745D01*
X984349Y63741D01*
X984345Y63744D01*
X983248Y63457D01*
X983244Y63452D01*
X983239Y63454D01*
X982220Y62959D01*
X982217Y62953D01*
X982212Y62954D01*
X981309Y62270D01*
X981307Y62263D01*
X981302Y62264D01*
X980549Y61416D01*
X980549Y61409D01*
X980544Y61409D01*
X979971Y60431D01*
X979972Y60428D01*
X979971Y60427D01*
X979972Y60426D01*
X979972Y60424D01*
X979967Y60422D01*
X979596Y59352D01*
X979598Y59346D01*
X979595Y59344D01*
X979595Y59343D01*
X979594Y59342D01*
X979439Y58220D01*
X979442Y58215D01*
X979439Y58213D01*
X979439Y46213D01*
X979442Y46208D01*
X979439Y46205D01*
X979644Y44938D01*
X979650Y44933D01*
X979647Y44928D01*
X980129Y43738D01*
X980136Y43734D01*
X980134Y43728D01*
X980868Y42676D01*
X980876Y42673D01*
X980875Y42667D01*
X981825Y41804D01*
X981834Y41804D01*
X981834Y41798D01*
X982953Y41168D01*
X982961Y41169D01*
X982963Y41164D01*
X984193Y40798D01*
X984201Y40801D01*
X984204Y40796D01*
X985485Y40714D01*
X985489Y40717D01*
X985491Y40714D01*
X986772Y40796D01*
G37*
G36*
X413889Y1524D02*
X413889Y1524D01*
X413894Y1529D01*
X413898Y1526D01*
X415021Y1861D01*
X415025Y1867D01*
X415029Y1865D01*
X416065Y2413D01*
X416068Y2419D01*
X416073Y2418D01*
X416981Y3157D01*
X416983Y3164D01*
X416988Y3164D01*
X417735Y4066D01*
X417735Y4074D01*
X417741Y4074D01*
X418297Y5105D01*
X418296Y5112D01*
X418301Y5114D01*
X418645Y6234D01*
X418643Y6240D01*
X418647Y6243D01*
X418767Y7408D01*
X418765Y7411D01*
X418767Y7413D01*
X418767Y13413D01*
X418765Y13416D01*
X418767Y13418D01*
X418656Y14594D01*
X418651Y14599D01*
X418654Y14603D01*
X418316Y15735D01*
X418310Y15739D01*
X418312Y15744D01*
X417760Y16788D01*
X417753Y16791D01*
X417755Y16796D01*
X417009Y17712D01*
X417002Y17714D01*
X417002Y17719D01*
X416093Y18472D01*
X416085Y18472D01*
X416085Y18477D01*
X415045Y19038D01*
X415038Y19037D01*
X415036Y19042D01*
X413907Y19390D01*
X413901Y19387D01*
X413898Y19392D01*
X412723Y19512D01*
X412716Y19508D01*
X412712Y19512D01*
X411372Y19355D01*
X411366Y19350D01*
X411361Y19353D01*
X410090Y18902D01*
X410085Y18895D01*
X410080Y18897D01*
X408941Y18175D01*
X408938Y18167D01*
X408932Y18168D01*
X407982Y17210D01*
X407981Y17202D01*
X407975Y17201D01*
X407262Y16056D01*
X407263Y16048D01*
X407257Y16046D01*
X406817Y14771D01*
X406819Y14763D01*
X406815Y14760D01*
X406669Y13419D01*
X406671Y13415D01*
X406669Y13413D01*
X406669Y7413D01*
X406671Y7410D01*
X406669Y7407D01*
X406824Y6079D01*
X406830Y6073D01*
X406827Y6068D01*
X407274Y4807D01*
X407281Y4802D01*
X407279Y4797D01*
X407996Y3667D01*
X408003Y3664D01*
X408002Y3658D01*
X408953Y2716D01*
X408961Y2715D01*
X408961Y2709D01*
X410097Y2002D01*
X410105Y2003D01*
X410107Y1998D01*
X411372Y1561D01*
X411377Y1563D01*
X411378Y1562D01*
X411381Y1562D01*
X411383Y1558D01*
X412713Y1414D01*
X412719Y1418D01*
X412723Y1414D01*
X413889Y1524D01*
G37*
G36*
X500289Y1524D02*
X500289Y1524D01*
X500294Y1529D01*
X500298Y1526D01*
X501421Y1861D01*
X501425Y1867D01*
X501429Y1865D01*
X502465Y2413D01*
X502468Y2419D01*
X502473Y2418D01*
X503381Y3157D01*
X503383Y3164D01*
X503388Y3164D01*
X504135Y4066D01*
X504135Y4074D01*
X504141Y4074D01*
X504697Y5105D01*
X504696Y5112D01*
X504701Y5114D01*
X505045Y6234D01*
X505043Y6240D01*
X505047Y6243D01*
X505167Y7408D01*
X505165Y7411D01*
X505167Y7413D01*
X505167Y13413D01*
X505165Y13416D01*
X505167Y13418D01*
X505056Y14594D01*
X505051Y14599D01*
X505054Y14603D01*
X504716Y15735D01*
X504710Y15739D01*
X504712Y15744D01*
X504160Y16788D01*
X504153Y16791D01*
X504155Y16796D01*
X503409Y17712D01*
X503402Y17714D01*
X503402Y17719D01*
X502493Y18472D01*
X502485Y18472D01*
X502485Y18477D01*
X501445Y19038D01*
X501438Y19037D01*
X501436Y19042D01*
X500307Y19390D01*
X500301Y19387D01*
X500298Y19392D01*
X499123Y19512D01*
X499116Y19508D01*
X499112Y19512D01*
X497772Y19355D01*
X497766Y19350D01*
X497761Y19353D01*
X496490Y18902D01*
X496485Y18895D01*
X496480Y18897D01*
X495341Y18175D01*
X495338Y18167D01*
X495332Y18168D01*
X494382Y17210D01*
X494381Y17202D01*
X494375Y17201D01*
X493662Y16056D01*
X493663Y16048D01*
X493657Y16046D01*
X493217Y14771D01*
X493219Y14763D01*
X493215Y14760D01*
X493069Y13419D01*
X493071Y13415D01*
X493069Y13413D01*
X493069Y7413D01*
X493071Y7410D01*
X493069Y7407D01*
X493224Y6079D01*
X493230Y6073D01*
X493227Y6068D01*
X493674Y4807D01*
X493681Y4802D01*
X493679Y4797D01*
X494396Y3667D01*
X494403Y3664D01*
X494402Y3658D01*
X495353Y2716D01*
X495361Y2715D01*
X495361Y2709D01*
X496497Y2002D01*
X496505Y2003D01*
X496507Y1998D01*
X497772Y1561D01*
X497777Y1563D01*
X497778Y1562D01*
X497781Y1562D01*
X497783Y1558D01*
X499113Y1414D01*
X499119Y1418D01*
X499123Y1414D01*
X500289Y1524D01*
G37*
G36*
X1760129Y1524D02*
X1760129Y1524D01*
X1760134Y1529D01*
X1760138Y1526D01*
X1761261Y1861D01*
X1761265Y1867D01*
X1761269Y1865D01*
X1762305Y2413D01*
X1762308Y2419D01*
X1762313Y2418D01*
X1763221Y3157D01*
X1763223Y3164D01*
X1763228Y3164D01*
X1763975Y4066D01*
X1763975Y4074D01*
X1763981Y4074D01*
X1764537Y5105D01*
X1764536Y5112D01*
X1764541Y5114D01*
X1764885Y6234D01*
X1764883Y6240D01*
X1764887Y6243D01*
X1765007Y7408D01*
X1765005Y7411D01*
X1765007Y7413D01*
X1765007Y13413D01*
X1765005Y13416D01*
X1765007Y13418D01*
X1764896Y14594D01*
X1764891Y14599D01*
X1764894Y14603D01*
X1764556Y15735D01*
X1764550Y15739D01*
X1764552Y15744D01*
X1764000Y16788D01*
X1763993Y16791D01*
X1763995Y16796D01*
X1763249Y17712D01*
X1763242Y17714D01*
X1763242Y17719D01*
X1762333Y18472D01*
X1762325Y18472D01*
X1762325Y18477D01*
X1761285Y19038D01*
X1761278Y19037D01*
X1761276Y19042D01*
X1760147Y19390D01*
X1760141Y19387D01*
X1760138Y19392D01*
X1758963Y19512D01*
X1758956Y19508D01*
X1758952Y19512D01*
X1757612Y19355D01*
X1757606Y19350D01*
X1757601Y19353D01*
X1756330Y18902D01*
X1756325Y18895D01*
X1756320Y18897D01*
X1755181Y18175D01*
X1755178Y18167D01*
X1755172Y18168D01*
X1754222Y17210D01*
X1754221Y17202D01*
X1754215Y17201D01*
X1753502Y16056D01*
X1753503Y16048D01*
X1753497Y16046D01*
X1753057Y14771D01*
X1753059Y14763D01*
X1753055Y14760D01*
X1752909Y13419D01*
X1752911Y13415D01*
X1752909Y13413D01*
X1752909Y7413D01*
X1752911Y7410D01*
X1752909Y7407D01*
X1753064Y6079D01*
X1753070Y6073D01*
X1753067Y6068D01*
X1753514Y4807D01*
X1753521Y4802D01*
X1753519Y4797D01*
X1754236Y3667D01*
X1754243Y3664D01*
X1754242Y3658D01*
X1755193Y2716D01*
X1755201Y2715D01*
X1755201Y2709D01*
X1756337Y2002D01*
X1756345Y2003D01*
X1756347Y1998D01*
X1757612Y1561D01*
X1757617Y1563D01*
X1757618Y1562D01*
X1757621Y1562D01*
X1757623Y1558D01*
X1758953Y1414D01*
X1758959Y1418D01*
X1758963Y1414D01*
X1760129Y1524D01*
G37*
G36*
X385989Y1524D02*
X385989Y1524D01*
X385994Y1529D01*
X385998Y1526D01*
X387121Y1861D01*
X387125Y1867D01*
X387129Y1865D01*
X388165Y2413D01*
X388168Y2419D01*
X388173Y2418D01*
X389081Y3157D01*
X389083Y3164D01*
X389088Y3164D01*
X389835Y4066D01*
X389835Y4074D01*
X389841Y4074D01*
X390397Y5105D01*
X390396Y5112D01*
X390401Y5114D01*
X390745Y6234D01*
X390743Y6240D01*
X390747Y6243D01*
X390867Y7408D01*
X390865Y7411D01*
X390867Y7413D01*
X390867Y13413D01*
X390865Y13416D01*
X390867Y13418D01*
X390756Y14594D01*
X390751Y14599D01*
X390754Y14603D01*
X390416Y15735D01*
X390410Y15739D01*
X390412Y15744D01*
X389860Y16788D01*
X389853Y16791D01*
X389855Y16796D01*
X389109Y17712D01*
X389102Y17714D01*
X389102Y17719D01*
X388193Y18472D01*
X388185Y18472D01*
X388185Y18477D01*
X387145Y19038D01*
X387138Y19037D01*
X387136Y19042D01*
X386007Y19390D01*
X386001Y19387D01*
X385998Y19392D01*
X384823Y19512D01*
X384816Y19508D01*
X384812Y19512D01*
X383472Y19355D01*
X383466Y19350D01*
X383461Y19353D01*
X382190Y18902D01*
X382185Y18895D01*
X382180Y18897D01*
X381041Y18175D01*
X381038Y18167D01*
X381032Y18168D01*
X380082Y17210D01*
X380081Y17202D01*
X380075Y17201D01*
X379362Y16056D01*
X379363Y16048D01*
X379357Y16046D01*
X378917Y14771D01*
X378919Y14763D01*
X378915Y14760D01*
X378769Y13419D01*
X378771Y13415D01*
X378769Y13413D01*
X378769Y7413D01*
X378771Y7410D01*
X378769Y7407D01*
X378924Y6079D01*
X378930Y6073D01*
X378927Y6068D01*
X379374Y4807D01*
X379381Y4802D01*
X379379Y4797D01*
X380096Y3667D01*
X380103Y3664D01*
X380102Y3658D01*
X381053Y2716D01*
X381061Y2715D01*
X381061Y2709D01*
X382197Y2002D01*
X382205Y2003D01*
X382207Y1998D01*
X383472Y1561D01*
X383477Y1563D01*
X383478Y1562D01*
X383481Y1562D01*
X383483Y1558D01*
X384813Y1414D01*
X384819Y1418D01*
X384823Y1414D01*
X385989Y1524D01*
G37*
G36*
X986659Y1524D02*
X986659Y1524D01*
X986664Y1529D01*
X986668Y1526D01*
X987791Y1861D01*
X987795Y1867D01*
X987799Y1865D01*
X988835Y2413D01*
X988838Y2419D01*
X988843Y2418D01*
X989751Y3157D01*
X989753Y3164D01*
X989758Y3164D01*
X990505Y4066D01*
X990505Y4074D01*
X990511Y4074D01*
X991067Y5105D01*
X991066Y5112D01*
X991071Y5114D01*
X991415Y6234D01*
X991413Y6240D01*
X991417Y6243D01*
X991537Y7408D01*
X991535Y7411D01*
X991537Y7413D01*
X991537Y13413D01*
X991535Y13416D01*
X991537Y13418D01*
X991426Y14594D01*
X991421Y14599D01*
X991424Y14603D01*
X991086Y15735D01*
X991080Y15739D01*
X991082Y15744D01*
X990530Y16788D01*
X990523Y16791D01*
X990525Y16796D01*
X989779Y17712D01*
X989772Y17714D01*
X989772Y17719D01*
X988863Y18472D01*
X988855Y18472D01*
X988855Y18477D01*
X987815Y19038D01*
X987808Y19037D01*
X987806Y19042D01*
X986677Y19390D01*
X986671Y19387D01*
X986668Y19392D01*
X985493Y19512D01*
X985486Y19508D01*
X985482Y19512D01*
X984142Y19355D01*
X984136Y19350D01*
X984131Y19353D01*
X982860Y18902D01*
X982855Y18895D01*
X982850Y18897D01*
X981711Y18175D01*
X981708Y18167D01*
X981702Y18168D01*
X980752Y17210D01*
X980751Y17202D01*
X980745Y17201D01*
X980032Y16056D01*
X980033Y16048D01*
X980027Y16046D01*
X979587Y14771D01*
X979589Y14763D01*
X979585Y14760D01*
X979439Y13419D01*
X979441Y13415D01*
X979439Y13413D01*
X979439Y7413D01*
X979441Y7410D01*
X979439Y7407D01*
X979594Y6079D01*
X979600Y6073D01*
X979597Y6068D01*
X980044Y4807D01*
X980051Y4802D01*
X980049Y4797D01*
X980766Y3667D01*
X980773Y3664D01*
X980772Y3658D01*
X981723Y2716D01*
X981731Y2715D01*
X981731Y2709D01*
X982867Y2002D01*
X982875Y2003D01*
X982877Y1998D01*
X984142Y1561D01*
X984147Y1563D01*
X984148Y1562D01*
X984151Y1562D01*
X984153Y1558D01*
X985483Y1414D01*
X985489Y1418D01*
X985493Y1414D01*
X986659Y1524D01*
G37*
G36*
X1874429Y1524D02*
X1874429Y1524D01*
X1874434Y1529D01*
X1874438Y1526D01*
X1875561Y1861D01*
X1875565Y1867D01*
X1875569Y1865D01*
X1876605Y2413D01*
X1876608Y2419D01*
X1876613Y2418D01*
X1877521Y3157D01*
X1877523Y3164D01*
X1877528Y3164D01*
X1878275Y4066D01*
X1878275Y4074D01*
X1878281Y4074D01*
X1878837Y5105D01*
X1878836Y5112D01*
X1878841Y5114D01*
X1879185Y6234D01*
X1879183Y6240D01*
X1879187Y6243D01*
X1879307Y7408D01*
X1879305Y7411D01*
X1879307Y7413D01*
X1879307Y13413D01*
X1879305Y13416D01*
X1879307Y13418D01*
X1879196Y14594D01*
X1879191Y14599D01*
X1879194Y14603D01*
X1878856Y15735D01*
X1878850Y15739D01*
X1878852Y15744D01*
X1878300Y16788D01*
X1878293Y16791D01*
X1878295Y16796D01*
X1877549Y17712D01*
X1877542Y17714D01*
X1877542Y17719D01*
X1876633Y18472D01*
X1876625Y18472D01*
X1876625Y18477D01*
X1875585Y19038D01*
X1875578Y19037D01*
X1875576Y19042D01*
X1874447Y19390D01*
X1874441Y19387D01*
X1874438Y19392D01*
X1873263Y19512D01*
X1873256Y19508D01*
X1873252Y19512D01*
X1871912Y19355D01*
X1871906Y19350D01*
X1871901Y19353D01*
X1870630Y18902D01*
X1870625Y18895D01*
X1870620Y18897D01*
X1869481Y18175D01*
X1869478Y18167D01*
X1869472Y18168D01*
X1868522Y17210D01*
X1868521Y17202D01*
X1868515Y17201D01*
X1867802Y16056D01*
X1867803Y16048D01*
X1867797Y16046D01*
X1867357Y14771D01*
X1867359Y14763D01*
X1867355Y14760D01*
X1867209Y13419D01*
X1867211Y13415D01*
X1867209Y13413D01*
X1867209Y7413D01*
X1867211Y7410D01*
X1867209Y7407D01*
X1867364Y6079D01*
X1867370Y6073D01*
X1867367Y6068D01*
X1867814Y4807D01*
X1867821Y4802D01*
X1867819Y4797D01*
X1868536Y3667D01*
X1868543Y3664D01*
X1868542Y3658D01*
X1869493Y2716D01*
X1869501Y2715D01*
X1869501Y2709D01*
X1870637Y2002D01*
X1870645Y2003D01*
X1870647Y1998D01*
X1871912Y1561D01*
X1871917Y1563D01*
X1871918Y1562D01*
X1871921Y1562D01*
X1871923Y1558D01*
X1873253Y1414D01*
X1873259Y1418D01*
X1873263Y1414D01*
X1874429Y1524D01*
G37*
G36*
X299589Y1524D02*
X299589Y1524D01*
X299594Y1529D01*
X299598Y1526D01*
X300721Y1861D01*
X300725Y1867D01*
X300729Y1865D01*
X301765Y2413D01*
X301768Y2419D01*
X301773Y2418D01*
X302681Y3157D01*
X302683Y3164D01*
X302688Y3164D01*
X303435Y4066D01*
X303435Y4074D01*
X303441Y4074D01*
X303997Y5105D01*
X303996Y5112D01*
X304001Y5114D01*
X304345Y6234D01*
X304343Y6240D01*
X304347Y6243D01*
X304467Y7408D01*
X304465Y7411D01*
X304467Y7413D01*
X304467Y13413D01*
X304465Y13416D01*
X304467Y13418D01*
X304356Y14594D01*
X304351Y14599D01*
X304354Y14603D01*
X304016Y15735D01*
X304010Y15739D01*
X304012Y15744D01*
X303460Y16788D01*
X303453Y16791D01*
X303455Y16796D01*
X302709Y17712D01*
X302702Y17714D01*
X302702Y17719D01*
X301793Y18472D01*
X301785Y18472D01*
X301785Y18477D01*
X300745Y19038D01*
X300738Y19037D01*
X300736Y19042D01*
X299607Y19390D01*
X299601Y19387D01*
X299598Y19392D01*
X298423Y19512D01*
X298416Y19508D01*
X298412Y19512D01*
X297072Y19355D01*
X297066Y19350D01*
X297061Y19353D01*
X295790Y18902D01*
X295785Y18895D01*
X295780Y18897D01*
X294641Y18175D01*
X294638Y18167D01*
X294632Y18168D01*
X293682Y17210D01*
X293681Y17202D01*
X293675Y17201D01*
X292962Y16056D01*
X292963Y16048D01*
X292957Y16046D01*
X292517Y14771D01*
X292519Y14763D01*
X292515Y14760D01*
X292369Y13419D01*
X292371Y13415D01*
X292369Y13413D01*
X292369Y7413D01*
X292371Y7410D01*
X292369Y7407D01*
X292524Y6079D01*
X292530Y6073D01*
X292527Y6068D01*
X292974Y4807D01*
X292981Y4802D01*
X292979Y4797D01*
X293696Y3667D01*
X293703Y3664D01*
X293702Y3658D01*
X294653Y2716D01*
X294661Y2715D01*
X294661Y2709D01*
X295797Y2002D01*
X295805Y2003D01*
X295807Y1998D01*
X297072Y1561D01*
X297077Y1563D01*
X297078Y1562D01*
X297081Y1562D01*
X297083Y1558D01*
X298413Y1414D01*
X298419Y1418D01*
X298423Y1414D01*
X299589Y1524D01*
G37*
G36*
X1673729Y1524D02*
X1673729Y1524D01*
X1673734Y1529D01*
X1673738Y1526D01*
X1674861Y1861D01*
X1674865Y1867D01*
X1674869Y1865D01*
X1675905Y2413D01*
X1675908Y2419D01*
X1675913Y2418D01*
X1676821Y3157D01*
X1676823Y3164D01*
X1676828Y3164D01*
X1677575Y4066D01*
X1677575Y4074D01*
X1677581Y4074D01*
X1678137Y5105D01*
X1678136Y5112D01*
X1678141Y5114D01*
X1678485Y6234D01*
X1678483Y6240D01*
X1678487Y6243D01*
X1678607Y7408D01*
X1678605Y7411D01*
X1678607Y7413D01*
X1678607Y13413D01*
X1678605Y13416D01*
X1678607Y13418D01*
X1678496Y14594D01*
X1678491Y14599D01*
X1678494Y14603D01*
X1678156Y15735D01*
X1678150Y15739D01*
X1678152Y15744D01*
X1677600Y16788D01*
X1677593Y16791D01*
X1677595Y16796D01*
X1676849Y17712D01*
X1676842Y17714D01*
X1676842Y17719D01*
X1675933Y18472D01*
X1675925Y18472D01*
X1675925Y18477D01*
X1674885Y19038D01*
X1674878Y19037D01*
X1674876Y19042D01*
X1673747Y19390D01*
X1673741Y19387D01*
X1673738Y19392D01*
X1672563Y19512D01*
X1672556Y19508D01*
X1672552Y19512D01*
X1671212Y19355D01*
X1671206Y19350D01*
X1671201Y19353D01*
X1669930Y18902D01*
X1669925Y18895D01*
X1669920Y18897D01*
X1668781Y18175D01*
X1668778Y18167D01*
X1668772Y18168D01*
X1667822Y17210D01*
X1667821Y17202D01*
X1667815Y17201D01*
X1667102Y16056D01*
X1667103Y16048D01*
X1667097Y16046D01*
X1666657Y14771D01*
X1666659Y14763D01*
X1666655Y14760D01*
X1666509Y13419D01*
X1666511Y13415D01*
X1666509Y13413D01*
X1666509Y7413D01*
X1666511Y7410D01*
X1666509Y7407D01*
X1666664Y6079D01*
X1666670Y6073D01*
X1666667Y6068D01*
X1667114Y4807D01*
X1667121Y4802D01*
X1667119Y4797D01*
X1667836Y3667D01*
X1667843Y3664D01*
X1667842Y3658D01*
X1668793Y2716D01*
X1668801Y2715D01*
X1668801Y2709D01*
X1669937Y2002D01*
X1669945Y2003D01*
X1669947Y1998D01*
X1671212Y1561D01*
X1671217Y1563D01*
X1671218Y1562D01*
X1671221Y1562D01*
X1671223Y1558D01*
X1672553Y1414D01*
X1672559Y1418D01*
X1672563Y1414D01*
X1673729Y1524D01*
G37*
G36*
X1073059Y1524D02*
X1073059Y1524D01*
X1073064Y1529D01*
X1073068Y1526D01*
X1074191Y1861D01*
X1074195Y1867D01*
X1074199Y1865D01*
X1075235Y2413D01*
X1075238Y2419D01*
X1075243Y2418D01*
X1076151Y3157D01*
X1076153Y3164D01*
X1076158Y3164D01*
X1076905Y4066D01*
X1076905Y4074D01*
X1076911Y4074D01*
X1077467Y5105D01*
X1077466Y5112D01*
X1077471Y5114D01*
X1077815Y6234D01*
X1077813Y6240D01*
X1077817Y6243D01*
X1077937Y7408D01*
X1077935Y7411D01*
X1077937Y7413D01*
X1077937Y13413D01*
X1077935Y13416D01*
X1077937Y13418D01*
X1077826Y14594D01*
X1077821Y14599D01*
X1077824Y14603D01*
X1077486Y15735D01*
X1077480Y15739D01*
X1077482Y15744D01*
X1076930Y16788D01*
X1076923Y16791D01*
X1076925Y16796D01*
X1076179Y17712D01*
X1076172Y17714D01*
X1076172Y17719D01*
X1075263Y18472D01*
X1075255Y18472D01*
X1075255Y18477D01*
X1074215Y19038D01*
X1074208Y19037D01*
X1074206Y19042D01*
X1073077Y19390D01*
X1073071Y19387D01*
X1073068Y19392D01*
X1071893Y19512D01*
X1071886Y19508D01*
X1071882Y19512D01*
X1070542Y19355D01*
X1070536Y19350D01*
X1070531Y19353D01*
X1069260Y18902D01*
X1069255Y18895D01*
X1069250Y18897D01*
X1068111Y18175D01*
X1068108Y18167D01*
X1068102Y18168D01*
X1067152Y17210D01*
X1067151Y17202D01*
X1067145Y17201D01*
X1066432Y16056D01*
X1066433Y16048D01*
X1066427Y16046D01*
X1065987Y14771D01*
X1065989Y14763D01*
X1065985Y14760D01*
X1065839Y13419D01*
X1065841Y13415D01*
X1065839Y13413D01*
X1065839Y7413D01*
X1065841Y7410D01*
X1065839Y7407D01*
X1065994Y6079D01*
X1066000Y6073D01*
X1065997Y6068D01*
X1066444Y4807D01*
X1066451Y4802D01*
X1066449Y4797D01*
X1067166Y3667D01*
X1067173Y3664D01*
X1067172Y3658D01*
X1068123Y2716D01*
X1068131Y2715D01*
X1068131Y2709D01*
X1069267Y2002D01*
X1069275Y2003D01*
X1069277Y1998D01*
X1070542Y1561D01*
X1070547Y1563D01*
X1070548Y1562D01*
X1070551Y1562D01*
X1070553Y1558D01*
X1071883Y1414D01*
X1071889Y1418D01*
X1071893Y1414D01*
X1073059Y1524D01*
G37*
G36*
X1100959Y1524D02*
X1100959Y1524D01*
X1100964Y1529D01*
X1100968Y1526D01*
X1102091Y1861D01*
X1102095Y1867D01*
X1102099Y1865D01*
X1103135Y2413D01*
X1103138Y2419D01*
X1103143Y2418D01*
X1104051Y3157D01*
X1104053Y3164D01*
X1104058Y3164D01*
X1104805Y4066D01*
X1104805Y4074D01*
X1104811Y4074D01*
X1105367Y5105D01*
X1105366Y5112D01*
X1105371Y5114D01*
X1105715Y6234D01*
X1105713Y6240D01*
X1105717Y6243D01*
X1105837Y7408D01*
X1105835Y7411D01*
X1105837Y7413D01*
X1105837Y13413D01*
X1105835Y13416D01*
X1105837Y13418D01*
X1105726Y14594D01*
X1105721Y14599D01*
X1105724Y14603D01*
X1105386Y15735D01*
X1105380Y15739D01*
X1105382Y15744D01*
X1104830Y16788D01*
X1104823Y16791D01*
X1104825Y16796D01*
X1104079Y17712D01*
X1104072Y17714D01*
X1104072Y17719D01*
X1103163Y18472D01*
X1103155Y18472D01*
X1103155Y18477D01*
X1102115Y19038D01*
X1102108Y19037D01*
X1102106Y19042D01*
X1100977Y19390D01*
X1100971Y19387D01*
X1100968Y19392D01*
X1099793Y19512D01*
X1099786Y19508D01*
X1099782Y19512D01*
X1098442Y19355D01*
X1098436Y19350D01*
X1098431Y19353D01*
X1097160Y18902D01*
X1097155Y18895D01*
X1097150Y18897D01*
X1096011Y18175D01*
X1096008Y18167D01*
X1096002Y18168D01*
X1095052Y17210D01*
X1095051Y17202D01*
X1095045Y17201D01*
X1094332Y16056D01*
X1094333Y16048D01*
X1094327Y16046D01*
X1093887Y14771D01*
X1093889Y14763D01*
X1093885Y14760D01*
X1093739Y13419D01*
X1093741Y13415D01*
X1093739Y13413D01*
X1093739Y7413D01*
X1093741Y7410D01*
X1093739Y7407D01*
X1093894Y6079D01*
X1093900Y6073D01*
X1093897Y6068D01*
X1094344Y4807D01*
X1094351Y4802D01*
X1094349Y4797D01*
X1095066Y3667D01*
X1095073Y3664D01*
X1095072Y3658D01*
X1096023Y2716D01*
X1096031Y2715D01*
X1096031Y2709D01*
X1097167Y2002D01*
X1097175Y2003D01*
X1097177Y1998D01*
X1098442Y1561D01*
X1098447Y1563D01*
X1098448Y1562D01*
X1098451Y1562D01*
X1098453Y1558D01*
X1099783Y1414D01*
X1099789Y1418D01*
X1099793Y1414D01*
X1100959Y1524D01*
G37*
G36*
X1187359Y1524D02*
X1187359Y1524D01*
X1187364Y1529D01*
X1187368Y1526D01*
X1188491Y1861D01*
X1188495Y1867D01*
X1188499Y1865D01*
X1189535Y2413D01*
X1189538Y2419D01*
X1189543Y2418D01*
X1190451Y3157D01*
X1190453Y3164D01*
X1190458Y3164D01*
X1191205Y4066D01*
X1191205Y4074D01*
X1191211Y4074D01*
X1191767Y5105D01*
X1191766Y5112D01*
X1191771Y5114D01*
X1192115Y6234D01*
X1192113Y6240D01*
X1192117Y6243D01*
X1192237Y7408D01*
X1192235Y7411D01*
X1192237Y7413D01*
X1192237Y13413D01*
X1192235Y13416D01*
X1192237Y13418D01*
X1192126Y14594D01*
X1192121Y14599D01*
X1192124Y14603D01*
X1191786Y15735D01*
X1191780Y15739D01*
X1191782Y15744D01*
X1191230Y16788D01*
X1191223Y16791D01*
X1191225Y16796D01*
X1190479Y17712D01*
X1190472Y17714D01*
X1190472Y17719D01*
X1189563Y18472D01*
X1189555Y18472D01*
X1189555Y18477D01*
X1188515Y19038D01*
X1188508Y19037D01*
X1188506Y19042D01*
X1187377Y19390D01*
X1187371Y19387D01*
X1187368Y19392D01*
X1186193Y19512D01*
X1186186Y19508D01*
X1186182Y19512D01*
X1184842Y19355D01*
X1184836Y19350D01*
X1184831Y19353D01*
X1183560Y18902D01*
X1183555Y18895D01*
X1183550Y18897D01*
X1182411Y18175D01*
X1182408Y18167D01*
X1182402Y18168D01*
X1181452Y17210D01*
X1181451Y17202D01*
X1181445Y17201D01*
X1180732Y16056D01*
X1180733Y16048D01*
X1180727Y16046D01*
X1180287Y14771D01*
X1180289Y14763D01*
X1180285Y14760D01*
X1180139Y13419D01*
X1180141Y13415D01*
X1180139Y13413D01*
X1180139Y7413D01*
X1180141Y7410D01*
X1180139Y7407D01*
X1180294Y6079D01*
X1180300Y6073D01*
X1180297Y6068D01*
X1180744Y4807D01*
X1180751Y4802D01*
X1180749Y4797D01*
X1181466Y3667D01*
X1181473Y3664D01*
X1181472Y3658D01*
X1182423Y2716D01*
X1182431Y2715D01*
X1182431Y2709D01*
X1183567Y2002D01*
X1183575Y2003D01*
X1183577Y1998D01*
X1184842Y1561D01*
X1184847Y1563D01*
X1184848Y1562D01*
X1184851Y1562D01*
X1184853Y1558D01*
X1186183Y1414D01*
X1186189Y1418D01*
X1186193Y1414D01*
X1187359Y1524D01*
G37*
G36*
X1788029Y1524D02*
X1788029Y1524D01*
X1788034Y1529D01*
X1788038Y1526D01*
X1789161Y1861D01*
X1789165Y1867D01*
X1789169Y1865D01*
X1790205Y2413D01*
X1790208Y2419D01*
X1790213Y2418D01*
X1791121Y3157D01*
X1791123Y3164D01*
X1791128Y3164D01*
X1791875Y4066D01*
X1791875Y4074D01*
X1791881Y4074D01*
X1792437Y5105D01*
X1792436Y5112D01*
X1792441Y5114D01*
X1792785Y6234D01*
X1792783Y6240D01*
X1792787Y6243D01*
X1792907Y7408D01*
X1792905Y7411D01*
X1792907Y7413D01*
X1792907Y13413D01*
X1792905Y13416D01*
X1792907Y13418D01*
X1792796Y14594D01*
X1792791Y14599D01*
X1792794Y14603D01*
X1792456Y15735D01*
X1792450Y15739D01*
X1792452Y15744D01*
X1791900Y16788D01*
X1791893Y16791D01*
X1791895Y16796D01*
X1791149Y17712D01*
X1791142Y17714D01*
X1791142Y17719D01*
X1790233Y18472D01*
X1790225Y18472D01*
X1790225Y18477D01*
X1789185Y19038D01*
X1789178Y19037D01*
X1789176Y19042D01*
X1788047Y19390D01*
X1788041Y19387D01*
X1788038Y19392D01*
X1786863Y19512D01*
X1786856Y19508D01*
X1786852Y19512D01*
X1785512Y19355D01*
X1785506Y19350D01*
X1785501Y19353D01*
X1784230Y18902D01*
X1784225Y18895D01*
X1784220Y18897D01*
X1783081Y18175D01*
X1783078Y18167D01*
X1783072Y18168D01*
X1782122Y17210D01*
X1782121Y17202D01*
X1782115Y17201D01*
X1781402Y16056D01*
X1781403Y16048D01*
X1781397Y16046D01*
X1780957Y14771D01*
X1780959Y14763D01*
X1780955Y14760D01*
X1780809Y13419D01*
X1780811Y13415D01*
X1780809Y13413D01*
X1780809Y7413D01*
X1780811Y7410D01*
X1780809Y7407D01*
X1780964Y6079D01*
X1780970Y6073D01*
X1780967Y6068D01*
X1781414Y4807D01*
X1781421Y4802D01*
X1781419Y4797D01*
X1782136Y3667D01*
X1782143Y3664D01*
X1782142Y3658D01*
X1783093Y2716D01*
X1783101Y2715D01*
X1783101Y2709D01*
X1784237Y2002D01*
X1784245Y2003D01*
X1784247Y1998D01*
X1785512Y1561D01*
X1785517Y1563D01*
X1785518Y1562D01*
X1785521Y1562D01*
X1785523Y1558D01*
X1786853Y1414D01*
X1786859Y1418D01*
X1786863Y1414D01*
X1788029Y1524D01*
G37*
G36*
X1537728Y1080517D02*
X1537728Y1080517D01*
X1537794Y1080519D01*
X1537837Y1080536D01*
X1537884Y1080545D01*
X1537941Y1080578D01*
X1538001Y1080603D01*
X1538036Y1080635D01*
X1538077Y1080659D01*
X1538119Y1080710D01*
X1538167Y1080754D01*
X1538189Y1080796D01*
X1538218Y1080833D01*
X1538239Y1080895D01*
X1538270Y1080954D01*
X1538278Y1081008D01*
X1538290Y1081045D01*
X1538289Y1081085D01*
X1538297Y1081139D01*
X1538297Y1094347D01*
X1538286Y1094412D01*
X1538284Y1094478D01*
X1538266Y1094521D01*
X1538258Y1094568D01*
X1538224Y1094625D01*
X1538199Y1094686D01*
X1538168Y1094721D01*
X1538143Y1094761D01*
X1538092Y1094803D01*
X1538048Y1094851D01*
X1538006Y1094873D01*
X1537969Y1094903D01*
X1537907Y1094924D01*
X1537848Y1094954D01*
X1537794Y1094962D01*
X1537757Y1094974D01*
X1537717Y1094973D01*
X1537663Y1094981D01*
X1533853Y1094981D01*
X1533788Y1094970D01*
X1533722Y1094968D01*
X1533679Y1094950D01*
X1533632Y1094942D01*
X1533575Y1094908D01*
X1533515Y1094884D01*
X1533480Y1094852D01*
X1533439Y1094828D01*
X1533398Y1094777D01*
X1533349Y1094732D01*
X1533327Y1094690D01*
X1533298Y1094653D01*
X1533277Y1094591D01*
X1533246Y1094533D01*
X1533238Y1094478D01*
X1533226Y1094441D01*
X1533227Y1094402D01*
X1533219Y1094347D01*
X1533219Y1081139D01*
X1533230Y1081074D01*
X1533232Y1081009D01*
X1533250Y1080965D01*
X1533258Y1080918D01*
X1533292Y1080862D01*
X1533317Y1080801D01*
X1533348Y1080766D01*
X1533373Y1080725D01*
X1533424Y1080684D01*
X1533468Y1080635D01*
X1533510Y1080614D01*
X1533547Y1080584D01*
X1533609Y1080563D01*
X1533668Y1080533D01*
X1533722Y1080525D01*
X1533759Y1080512D01*
X1533799Y1080513D01*
X1533853Y1080505D01*
X1537663Y1080505D01*
X1537728Y1080517D01*
G37*
G36*
X850658Y1080517D02*
X850658Y1080517D01*
X850724Y1080519D01*
X850767Y1080536D01*
X850814Y1080545D01*
X850871Y1080578D01*
X850931Y1080603D01*
X850966Y1080635D01*
X851007Y1080659D01*
X851049Y1080710D01*
X851097Y1080754D01*
X851119Y1080796D01*
X851148Y1080833D01*
X851169Y1080895D01*
X851200Y1080954D01*
X851208Y1081008D01*
X851220Y1081045D01*
X851219Y1081085D01*
X851227Y1081139D01*
X851227Y1094347D01*
X851216Y1094412D01*
X851214Y1094478D01*
X851196Y1094521D01*
X851188Y1094568D01*
X851154Y1094625D01*
X851129Y1094686D01*
X851098Y1094721D01*
X851073Y1094761D01*
X851022Y1094803D01*
X850978Y1094851D01*
X850936Y1094873D01*
X850899Y1094903D01*
X850837Y1094924D01*
X850778Y1094954D01*
X850724Y1094962D01*
X850687Y1094974D01*
X850647Y1094973D01*
X850593Y1094981D01*
X846783Y1094981D01*
X846718Y1094970D01*
X846652Y1094968D01*
X846609Y1094950D01*
X846562Y1094942D01*
X846505Y1094908D01*
X846445Y1094884D01*
X846410Y1094852D01*
X846369Y1094828D01*
X846328Y1094777D01*
X846279Y1094732D01*
X846257Y1094690D01*
X846228Y1094653D01*
X846207Y1094591D01*
X846176Y1094533D01*
X846168Y1094478D01*
X846156Y1094441D01*
X846157Y1094402D01*
X846149Y1094347D01*
X846149Y1081139D01*
X846160Y1081074D01*
X846162Y1081009D01*
X846180Y1080965D01*
X846188Y1080918D01*
X846222Y1080862D01*
X846247Y1080801D01*
X846278Y1080766D01*
X846303Y1080725D01*
X846354Y1080684D01*
X846398Y1080635D01*
X846440Y1080614D01*
X846477Y1080584D01*
X846539Y1080563D01*
X846598Y1080533D01*
X846652Y1080525D01*
X846689Y1080512D01*
X846729Y1080513D01*
X846783Y1080505D01*
X850593Y1080505D01*
X850658Y1080517D01*
G37*
G36*
X163588Y1080517D02*
X163588Y1080517D01*
X163654Y1080519D01*
X163697Y1080536D01*
X163744Y1080545D01*
X163801Y1080578D01*
X163861Y1080603D01*
X163896Y1080635D01*
X163937Y1080659D01*
X163979Y1080710D01*
X164027Y1080754D01*
X164049Y1080796D01*
X164078Y1080833D01*
X164099Y1080895D01*
X164130Y1080954D01*
X164138Y1081008D01*
X164150Y1081045D01*
X164149Y1081085D01*
X164157Y1081139D01*
X164157Y1094347D01*
X164146Y1094412D01*
X164144Y1094478D01*
X164126Y1094521D01*
X164118Y1094568D01*
X164084Y1094625D01*
X164059Y1094686D01*
X164028Y1094721D01*
X164003Y1094761D01*
X163952Y1094803D01*
X163908Y1094851D01*
X163866Y1094873D01*
X163829Y1094903D01*
X163767Y1094924D01*
X163708Y1094954D01*
X163654Y1094962D01*
X163617Y1094974D01*
X163577Y1094973D01*
X163523Y1094981D01*
X159713Y1094981D01*
X159648Y1094970D01*
X159582Y1094968D01*
X159539Y1094950D01*
X159492Y1094942D01*
X159435Y1094908D01*
X159375Y1094884D01*
X159340Y1094852D01*
X159299Y1094828D01*
X159258Y1094777D01*
X159209Y1094732D01*
X159187Y1094690D01*
X159158Y1094653D01*
X159137Y1094591D01*
X159106Y1094533D01*
X159098Y1094478D01*
X159086Y1094441D01*
X159087Y1094402D01*
X159079Y1094347D01*
X159079Y1081139D01*
X159090Y1081074D01*
X159092Y1081009D01*
X159110Y1080965D01*
X159118Y1080918D01*
X159152Y1080862D01*
X159177Y1080801D01*
X159208Y1080766D01*
X159233Y1080725D01*
X159284Y1080684D01*
X159328Y1080635D01*
X159370Y1080614D01*
X159407Y1080584D01*
X159469Y1080563D01*
X159528Y1080533D01*
X159582Y1080525D01*
X159619Y1080512D01*
X159659Y1080513D01*
X159713Y1080505D01*
X163523Y1080505D01*
X163588Y1080517D01*
G37*
G36*
X403588Y75517D02*
X403588Y75517D01*
X403654Y75519D01*
X403697Y75536D01*
X403744Y75545D01*
X403801Y75578D01*
X403861Y75603D01*
X403896Y75635D01*
X403937Y75659D01*
X403979Y75710D01*
X404027Y75754D01*
X404049Y75796D01*
X404078Y75833D01*
X404099Y75895D01*
X404130Y75954D01*
X404138Y76008D01*
X404150Y76045D01*
X404149Y76085D01*
X404157Y76139D01*
X404157Y89347D01*
X404146Y89412D01*
X404144Y89478D01*
X404126Y89521D01*
X404118Y89568D01*
X404084Y89625D01*
X404059Y89686D01*
X404028Y89721D01*
X404003Y89761D01*
X403952Y89803D01*
X403908Y89851D01*
X403866Y89873D01*
X403829Y89903D01*
X403767Y89924D01*
X403708Y89954D01*
X403654Y89962D01*
X403617Y89974D01*
X403577Y89973D01*
X403523Y89981D01*
X399713Y89981D01*
X399648Y89970D01*
X399582Y89968D01*
X399539Y89950D01*
X399492Y89942D01*
X399435Y89908D01*
X399375Y89884D01*
X399340Y89852D01*
X399299Y89828D01*
X399258Y89777D01*
X399209Y89732D01*
X399187Y89690D01*
X399158Y89653D01*
X399137Y89591D01*
X399106Y89533D01*
X399098Y89478D01*
X399086Y89441D01*
X399087Y89402D01*
X399079Y89347D01*
X399079Y76139D01*
X399090Y76074D01*
X399092Y76009D01*
X399110Y75965D01*
X399118Y75918D01*
X399152Y75862D01*
X399177Y75801D01*
X399208Y75766D01*
X399233Y75725D01*
X399284Y75684D01*
X399328Y75635D01*
X399370Y75614D01*
X399407Y75584D01*
X399469Y75563D01*
X399528Y75533D01*
X399582Y75525D01*
X399619Y75512D01*
X399659Y75513D01*
X399713Y75505D01*
X403523Y75505D01*
X403588Y75517D01*
G37*
G36*
X1777728Y75517D02*
X1777728Y75517D01*
X1777794Y75519D01*
X1777837Y75536D01*
X1777884Y75545D01*
X1777941Y75578D01*
X1778001Y75603D01*
X1778036Y75635D01*
X1778077Y75659D01*
X1778119Y75710D01*
X1778167Y75754D01*
X1778189Y75796D01*
X1778218Y75833D01*
X1778239Y75895D01*
X1778270Y75954D01*
X1778278Y76008D01*
X1778290Y76045D01*
X1778289Y76085D01*
X1778297Y76139D01*
X1778297Y89347D01*
X1778286Y89412D01*
X1778284Y89478D01*
X1778266Y89521D01*
X1778258Y89568D01*
X1778224Y89625D01*
X1778199Y89686D01*
X1778168Y89721D01*
X1778143Y89761D01*
X1778092Y89803D01*
X1778048Y89851D01*
X1778006Y89873D01*
X1777969Y89903D01*
X1777907Y89924D01*
X1777848Y89954D01*
X1777794Y89962D01*
X1777757Y89974D01*
X1777717Y89973D01*
X1777663Y89981D01*
X1773853Y89981D01*
X1773788Y89970D01*
X1773722Y89968D01*
X1773679Y89950D01*
X1773632Y89942D01*
X1773575Y89908D01*
X1773515Y89884D01*
X1773480Y89852D01*
X1773439Y89828D01*
X1773398Y89777D01*
X1773349Y89732D01*
X1773327Y89690D01*
X1773298Y89653D01*
X1773277Y89591D01*
X1773246Y89533D01*
X1773238Y89478D01*
X1773226Y89441D01*
X1773227Y89402D01*
X1773219Y89347D01*
X1773219Y76139D01*
X1773230Y76074D01*
X1773232Y76009D01*
X1773250Y75965D01*
X1773258Y75918D01*
X1773292Y75862D01*
X1773317Y75801D01*
X1773348Y75766D01*
X1773373Y75725D01*
X1773424Y75684D01*
X1773468Y75635D01*
X1773510Y75614D01*
X1773547Y75584D01*
X1773609Y75563D01*
X1773668Y75533D01*
X1773722Y75525D01*
X1773759Y75512D01*
X1773799Y75513D01*
X1773853Y75505D01*
X1777663Y75505D01*
X1777728Y75517D01*
G37*
G36*
X1090658Y75517D02*
X1090658Y75517D01*
X1090724Y75519D01*
X1090767Y75536D01*
X1090814Y75545D01*
X1090871Y75578D01*
X1090931Y75603D01*
X1090966Y75635D01*
X1091007Y75659D01*
X1091049Y75710D01*
X1091097Y75754D01*
X1091119Y75796D01*
X1091148Y75833D01*
X1091169Y75895D01*
X1091200Y75954D01*
X1091208Y76008D01*
X1091220Y76045D01*
X1091219Y76085D01*
X1091227Y76139D01*
X1091227Y89347D01*
X1091216Y89412D01*
X1091214Y89478D01*
X1091196Y89521D01*
X1091188Y89568D01*
X1091154Y89625D01*
X1091129Y89686D01*
X1091098Y89721D01*
X1091073Y89761D01*
X1091022Y89803D01*
X1090978Y89851D01*
X1090936Y89873D01*
X1090899Y89903D01*
X1090837Y89924D01*
X1090778Y89954D01*
X1090724Y89962D01*
X1090687Y89974D01*
X1090647Y89973D01*
X1090593Y89981D01*
X1086783Y89981D01*
X1086718Y89970D01*
X1086652Y89968D01*
X1086609Y89950D01*
X1086562Y89942D01*
X1086505Y89908D01*
X1086445Y89884D01*
X1086410Y89852D01*
X1086369Y89828D01*
X1086328Y89777D01*
X1086279Y89732D01*
X1086257Y89690D01*
X1086228Y89653D01*
X1086207Y89591D01*
X1086176Y89533D01*
X1086168Y89478D01*
X1086156Y89441D01*
X1086157Y89402D01*
X1086149Y89347D01*
X1086149Y76139D01*
X1086160Y76074D01*
X1086162Y76009D01*
X1086180Y75965D01*
X1086188Y75918D01*
X1086222Y75862D01*
X1086247Y75801D01*
X1086278Y75766D01*
X1086303Y75725D01*
X1086354Y75684D01*
X1086398Y75635D01*
X1086440Y75614D01*
X1086477Y75584D01*
X1086539Y75563D01*
X1086598Y75533D01*
X1086652Y75525D01*
X1086689Y75512D01*
X1086729Y75513D01*
X1086783Y75505D01*
X1090593Y75505D01*
X1090658Y75517D01*
G37*
D10*
X633718Y42843D03*
X51318Y1051643D03*
D11*
X311618Y414243D03*
X311618Y431243D03*
X291618Y431243D03*
X291618Y414243D03*
D12*
X354619Y413243D03*
X354619Y422743D03*
X354619Y432243D03*
X328617Y432243D03*
X328617Y413243D03*
D11*
X371618Y414243D03*
X371618Y431243D03*
X271618Y391243D03*
X271618Y374243D03*
X291618Y391243D03*
X291618Y374243D03*
D13*
X303518Y164403D03*
X303518Y152803D03*
D14*
X321688Y164953D03*
X338688Y164953D03*
D11*
X331618Y391243D03*
X331618Y374243D03*
D15*
X282008Y164953D03*
X292008Y164953D03*
D16*
X270118Y188243D03*
X281118Y188243D03*
X292118Y188243D03*
X303118Y188243D03*
X314118Y188243D03*
X325118Y188243D03*
X336118Y188243D03*
X347118Y188243D03*
X358118Y188243D03*
X369118Y188243D03*
X380118Y188243D03*
X391118Y188243D03*
X402118Y188243D03*
X413118Y188243D03*
D17*
X441118Y196743D03*
X441118Y207743D03*
X441118Y218743D03*
X441118Y229743D03*
X441118Y240743D03*
X441118Y251743D03*
X441118Y262743D03*
X441118Y273743D03*
X441118Y284743D03*
X441118Y295743D03*
X441118Y306743D03*
X441118Y317743D03*
X441118Y328743D03*
D16*
X413118Y337243D03*
X402118Y337243D03*
X391118Y337243D03*
X380118Y337243D03*
X369118Y337243D03*
X358118Y337243D03*
X347118Y337243D03*
X336118Y337243D03*
X325118Y337243D03*
X314118Y337243D03*
X303118Y337243D03*
X292118Y337243D03*
X281118Y337243D03*
X270118Y337243D03*
D17*
X242118Y328743D03*
X242118Y317743D03*
X242118Y306743D03*
X242118Y295743D03*
X242118Y284743D03*
X242118Y273743D03*
X242118Y262743D03*
X242118Y251743D03*
X242118Y240743D03*
X242118Y229743D03*
X242118Y218743D03*
X242118Y207743D03*
X242118Y196743D03*
D18*
X331118Y252243D03*
X310118Y252243D03*
X289118Y252243D03*
X268118Y252243D03*
X331118Y231743D03*
X310118Y231743D03*
X289118Y231743D03*
X268118Y231743D03*
X331118Y211243D03*
X310118Y211243D03*
X289118Y211243D03*
X268118Y211243D03*
X331118Y314243D03*
X310118Y314243D03*
X289118Y314243D03*
X268118Y314243D03*
X331118Y293743D03*
X310118Y293743D03*
X289118Y293743D03*
X268118Y293743D03*
X331118Y273243D03*
X310118Y273243D03*
X289118Y273243D03*
X268118Y273243D03*
X352118Y273243D03*
X373118Y273243D03*
X394118Y273243D03*
X415118Y273243D03*
X352118Y293743D03*
X373118Y293743D03*
X394118Y293743D03*
X415118Y293743D03*
X352118Y314243D03*
X373118Y314243D03*
X394118Y314243D03*
X415118Y314243D03*
X352118Y211243D03*
X373118Y211243D03*
X394118Y211243D03*
X415118Y211243D03*
X352118Y231743D03*
X373118Y231743D03*
X394118Y231743D03*
X415118Y231743D03*
X352118Y252243D03*
X373118Y252243D03*
X394118Y252243D03*
X415118Y252243D03*
D14*
X390118Y102743D03*
X373118Y102743D03*
X293118Y102743D03*
X310118Y102743D03*
D19*
X349118Y58013D03*
X344118Y58013D03*
D20*
X373868Y58013D03*
X366118Y58013D03*
D19*
X359118Y58013D03*
X354118Y58013D03*
X334118Y58013D03*
X339118Y58013D03*
D20*
X309368Y58013D03*
X317118Y58013D03*
D19*
X324118Y58013D03*
X329118Y58013D03*
D21*
X312718Y46963D03*
X370518Y46963D03*
D11*
X351618Y374243D03*
X351618Y391243D03*
X311618Y391243D03*
X311618Y374243D03*
D22*
X336618Y118693D03*
D23*
X341618Y118443D03*
X346618Y118443D03*
X346618Y127043D03*
X341618Y127043D03*
X336618Y127043D03*
D24*
X252718Y36013D03*
X227318Y36013D03*
X201918Y36013D03*
D25*
X56630Y282680D03*
X56630Y782806D03*
X626606Y782806D03*
X626606Y282680D03*
D26*
X178618Y1022743D03*
X178618Y1042743D03*
D27*
X126618Y998743D03*
X126618Y1066743D03*
D28*
X215138Y1046683D03*
X215138Y1021283D03*
D19*
X463418Y58013D03*
X458418Y58013D03*
D20*
X488168Y58013D03*
X480418Y58013D03*
D19*
X473418Y58013D03*
X468418Y58013D03*
X448418Y58013D03*
X453418Y58013D03*
D20*
X423668Y58013D03*
X431418Y58013D03*
D19*
X438418Y58013D03*
X443418Y58013D03*
D21*
X427018Y46963D03*
X484818Y46963D03*
D14*
X500118Y102743D03*
X483118Y102743D03*
X413118Y102743D03*
X430118Y102743D03*
D29*
X94268Y44883D03*
D30*
X150268Y12883D03*
X75768Y12883D03*
D29*
X106768Y44883D03*
X119268Y44883D03*
X131768Y44883D03*
X551468Y44883D03*
D30*
X607468Y12883D03*
X532968Y12883D03*
D29*
X563968Y44883D03*
X576468Y44883D03*
X588968Y44883D03*
D28*
X151118Y71893D03*
X125718Y71893D03*
X100318Y71893D03*
X74918Y71893D03*
X608318Y174443D03*
X582918Y174443D03*
X557518Y174443D03*
X532118Y174443D03*
X532118Y240643D03*
X532118Y266043D03*
X532118Y291443D03*
X532118Y316843D03*
X24118Y342243D03*
X24118Y316843D03*
D14*
X510118Y172743D03*
X493118Y172743D03*
D31*
X468118Y112743D03*
X445118Y112743D03*
D32*
X251718Y465243D03*
X251718Y470243D03*
X251718Y475243D03*
X251718Y480243D03*
X271718Y480243D03*
X271718Y475243D03*
X271718Y470243D03*
X271718Y465243D03*
D33*
X261618Y472743D03*
D11*
X291618Y464243D03*
X291618Y481243D03*
D34*
X396538Y82743D03*
X406698Y82743D03*
D28*
X388918Y82743D03*
X414318Y82743D03*
D34*
X156538Y1087743D03*
X166698Y1087743D03*
D28*
X148918Y1087743D03*
X174318Y1087743D03*
X626618Y980343D03*
X626618Y954943D03*
D12*
X354619Y463243D03*
X354619Y472743D03*
X354619Y482243D03*
X328617Y482243D03*
X328617Y463243D03*
D11*
X371618Y464243D03*
X371618Y481243D03*
X311618Y464243D03*
X311618Y481243D03*
D22*
X456618Y138693D03*
D23*
X461618Y138443D03*
X466618Y138443D03*
X466618Y147043D03*
X461618Y147043D03*
X456618Y147043D03*
D28*
X21618Y472743D03*
X47018Y472743D03*
X72418Y472743D03*
X97818Y472743D03*
D35*
X23618Y395993D03*
X79618Y395993D03*
D36*
X36618Y432743D03*
X46618Y432743D03*
X56618Y432743D03*
X66618Y432743D03*
D37*
X297168Y514743D03*
X309868Y514743D03*
X322568Y514743D03*
X335268Y514743D03*
X347968Y514743D03*
X360668Y514743D03*
X373368Y514743D03*
X386068Y514743D03*
X386068Y570743D03*
X373368Y570743D03*
X360668Y570743D03*
X347968Y570743D03*
X335268Y570743D03*
X322568Y570743D03*
X309868Y570743D03*
X297168Y570743D03*
D11*
X271618Y571243D03*
X271618Y554243D03*
X271618Y514243D03*
X271618Y531243D03*
D38*
X463678Y551793D03*
X519558Y551793D03*
X463678Y513693D03*
X519558Y513693D03*
D39*
X498518Y284743D03*
D40*
X498518Y276743D03*
X498518Y268743D03*
D39*
X485318Y284743D03*
D40*
X485318Y276743D03*
X485318Y268743D03*
D41*
X485418Y260743D03*
D39*
X498518Y260743D03*
X194718Y300743D03*
D40*
X194718Y308743D03*
X194718Y316743D03*
D39*
X207918Y300743D03*
D40*
X207918Y308743D03*
X207918Y316743D03*
D41*
X207818Y324743D03*
D39*
X194718Y324743D03*
X194718Y250743D03*
D40*
X194718Y258743D03*
X194718Y266743D03*
D39*
X207918Y250743D03*
D40*
X207918Y258743D03*
X207918Y266743D03*
D41*
X207818Y274743D03*
D39*
X194718Y274743D03*
X194718Y200743D03*
D40*
X194718Y208743D03*
X194718Y216743D03*
D39*
X207918Y200743D03*
D40*
X207918Y208743D03*
X207918Y216743D03*
D41*
X207818Y224743D03*
D39*
X194718Y224743D03*
D28*
X161618Y292743D03*
X161618Y267343D03*
X161618Y241943D03*
X161618Y216543D03*
X161618Y191143D03*
D42*
X421118Y474743D03*
X411618Y474743D03*
X402118Y474743D03*
X402118Y450743D03*
X421118Y450743D03*
X411618Y450743D03*
D14*
X403118Y432743D03*
X420118Y432743D03*
X420118Y412743D03*
X403118Y412743D03*
D11*
X441618Y431243D03*
X441618Y414243D03*
D31*
X400118Y392743D03*
X423118Y392743D03*
D14*
X403118Y492743D03*
X420118Y492743D03*
X420118Y552743D03*
X403118Y552743D03*
X403118Y512743D03*
X420118Y512743D03*
X420118Y532743D03*
X403118Y532743D03*
D43*
X461618Y464243D03*
X461618Y441243D03*
D28*
X626618Y851743D03*
X626618Y877143D03*
X626618Y902543D03*
X626618Y927943D03*
D44*
X219118Y530243D03*
X219118Y535243D03*
X204118Y535243D03*
X204118Y530243D03*
D45*
X204118Y525243D03*
X209118Y525243D03*
X219118Y525243D03*
X214118Y525243D03*
X219118Y540243D03*
X214118Y540243D03*
X209118Y540243D03*
X204118Y540243D03*
D14*
X220118Y562743D03*
X203118Y562743D03*
X203118Y502743D03*
X220118Y502743D03*
D46*
X101618Y582743D03*
D34*
X55682Y582743D03*
X47554Y582743D03*
D47*
X227418Y102743D03*
X215818Y102743D03*
D48*
X505948Y39573D03*
X585948Y39573D03*
D49*
X536618Y952743D03*
X526618Y952743D03*
X516618Y952743D03*
X506618Y952743D03*
X496618Y952743D03*
X486618Y952743D03*
D10*
X1320788Y42843D03*
X738388Y1051643D03*
D11*
X998688Y414243D03*
X998688Y431243D03*
X978688Y431243D03*
X978688Y414243D03*
D12*
X1041689Y413243D03*
X1041689Y422743D03*
X1041689Y432243D03*
X1015687Y432243D03*
X1015687Y413243D03*
D11*
X1058688Y414243D03*
X1058688Y431243D03*
X958688Y391243D03*
X958688Y374243D03*
X978688Y391243D03*
X978688Y374243D03*
D13*
X990588Y164403D03*
X990588Y152803D03*
D14*
X1008758Y164953D03*
X1025758Y164953D03*
D11*
X1018688Y391243D03*
X1018688Y374243D03*
D15*
X969078Y164953D03*
X979078Y164953D03*
D16*
X957188Y188243D03*
X968188Y188243D03*
X979188Y188243D03*
X990188Y188243D03*
X1001188Y188243D03*
X1012188Y188243D03*
X1023188Y188243D03*
X1034188Y188243D03*
X1045188Y188243D03*
X1056188Y188243D03*
X1067188Y188243D03*
X1078188Y188243D03*
X1089188Y188243D03*
X1100188Y188243D03*
D17*
X1128188Y196743D03*
X1128188Y207743D03*
X1128188Y218743D03*
X1128188Y229743D03*
X1128188Y240743D03*
X1128188Y251743D03*
X1128188Y262743D03*
X1128188Y273743D03*
X1128188Y284743D03*
X1128188Y295743D03*
X1128188Y306743D03*
X1128188Y317743D03*
X1128188Y328743D03*
D16*
X1100188Y337243D03*
X1089188Y337243D03*
X1078188Y337243D03*
X1067188Y337243D03*
X1056188Y337243D03*
X1045188Y337243D03*
X1034188Y337243D03*
X1023188Y337243D03*
X1012188Y337243D03*
X1001188Y337243D03*
X990188Y337243D03*
X979188Y337243D03*
X968188Y337243D03*
X957188Y337243D03*
D17*
X929188Y328743D03*
X929188Y317743D03*
X929188Y306743D03*
X929188Y295743D03*
X929188Y284743D03*
X929188Y273743D03*
X929188Y262743D03*
X929188Y251743D03*
X929188Y240743D03*
X929188Y229743D03*
X929188Y218743D03*
X929188Y207743D03*
X929188Y196743D03*
D18*
X1018188Y252243D03*
X997188Y252243D03*
X976188Y252243D03*
X955188Y252243D03*
X1018188Y231743D03*
X997188Y231743D03*
X976188Y231743D03*
X955188Y231743D03*
X1018188Y211243D03*
X997188Y211243D03*
X976188Y211243D03*
X955188Y211243D03*
X1018188Y314243D03*
X997188Y314243D03*
X976188Y314243D03*
X955188Y314243D03*
X1018188Y293743D03*
X997188Y293743D03*
X976188Y293743D03*
X955188Y293743D03*
X1018188Y273243D03*
X997188Y273243D03*
X976188Y273243D03*
X955188Y273243D03*
X1039188Y273243D03*
X1060188Y273243D03*
X1081188Y273243D03*
X1102188Y273243D03*
X1039188Y293743D03*
X1060188Y293743D03*
X1081188Y293743D03*
X1102188Y293743D03*
X1039188Y314243D03*
X1060188Y314243D03*
X1081188Y314243D03*
X1102188Y314243D03*
X1039188Y211243D03*
X1060188Y211243D03*
X1081188Y211243D03*
X1102188Y211243D03*
X1039188Y231743D03*
X1060188Y231743D03*
X1081188Y231743D03*
X1102188Y231743D03*
X1039188Y252243D03*
X1060188Y252243D03*
X1081188Y252243D03*
X1102188Y252243D03*
D14*
X1077188Y102743D03*
X1060188Y102743D03*
X980188Y102743D03*
X997188Y102743D03*
D19*
X1036188Y58013D03*
X1031188Y58013D03*
D20*
X1060938Y58013D03*
X1053188Y58013D03*
D19*
X1046188Y58013D03*
X1041188Y58013D03*
X1021188Y58013D03*
X1026188Y58013D03*
D20*
X996438Y58013D03*
X1004188Y58013D03*
D19*
X1011188Y58013D03*
X1016188Y58013D03*
D21*
X999788Y46963D03*
X1057588Y46963D03*
D11*
X1038688Y374243D03*
X1038688Y391243D03*
X998688Y391243D03*
X998688Y374243D03*
D22*
X1023688Y118693D03*
D23*
X1028688Y118443D03*
X1033688Y118443D03*
X1033688Y127043D03*
X1028688Y127043D03*
X1023688Y127043D03*
D24*
X939788Y36013D03*
X914388Y36013D03*
X888988Y36013D03*
D25*
X743700Y282680D03*
X743700Y782806D03*
X1313676Y782806D03*
X1313676Y282680D03*
D26*
X865688Y1022743D03*
X865688Y1042743D03*
D27*
X813688Y998743D03*
X813688Y1066743D03*
D28*
X902208Y1046683D03*
X902208Y1021283D03*
D19*
X1150488Y58013D03*
X1145488Y58013D03*
D20*
X1175238Y58013D03*
X1167488Y58013D03*
D19*
X1160488Y58013D03*
X1155488Y58013D03*
X1135488Y58013D03*
X1140488Y58013D03*
D20*
X1110738Y58013D03*
X1118488Y58013D03*
D19*
X1125488Y58013D03*
X1130488Y58013D03*
D21*
X1114088Y46963D03*
X1171888Y46963D03*
D14*
X1187188Y102743D03*
X1170188Y102743D03*
X1100188Y102743D03*
X1117188Y102743D03*
D29*
X781338Y44883D03*
D30*
X837338Y12883D03*
X762838Y12883D03*
D29*
X793838Y44883D03*
X806338Y44883D03*
X818838Y44883D03*
X1238538Y44883D03*
D30*
X1294538Y12883D03*
X1220038Y12883D03*
D29*
X1251038Y44883D03*
X1263538Y44883D03*
X1276038Y44883D03*
D28*
X838188Y71893D03*
X812788Y71893D03*
X787388Y71893D03*
X761988Y71893D03*
X1295388Y174443D03*
X1269988Y174443D03*
X1244588Y174443D03*
X1219188Y174443D03*
X1219188Y240643D03*
X1219188Y266043D03*
X1219188Y291443D03*
X1219188Y316843D03*
X711188Y342243D03*
X711188Y316843D03*
D14*
X1197188Y172743D03*
X1180188Y172743D03*
D31*
X1155188Y112743D03*
X1132188Y112743D03*
D32*
X938788Y465243D03*
X938788Y470243D03*
X938788Y475243D03*
X938788Y480243D03*
X958788Y480243D03*
X958788Y475243D03*
X958788Y470243D03*
X958788Y465243D03*
D33*
X948688Y472743D03*
D11*
X978688Y464243D03*
X978688Y481243D03*
D34*
X1083608Y82743D03*
X1093768Y82743D03*
D28*
X1075988Y82743D03*
X1101388Y82743D03*
D34*
X843608Y1087743D03*
X853768Y1087743D03*
D28*
X835988Y1087743D03*
X861388Y1087743D03*
X1313688Y980343D03*
X1313688Y954943D03*
D12*
X1041689Y463243D03*
X1041689Y472743D03*
X1041689Y482243D03*
X1015687Y482243D03*
X1015687Y463243D03*
D11*
X1058688Y464243D03*
X1058688Y481243D03*
X998688Y464243D03*
X998688Y481243D03*
D22*
X1143688Y138693D03*
D23*
X1148688Y138443D03*
X1153688Y138443D03*
X1153688Y147043D03*
X1148688Y147043D03*
X1143688Y147043D03*
D28*
X708688Y472743D03*
X734088Y472743D03*
X759488Y472743D03*
X784888Y472743D03*
D35*
X710688Y395993D03*
X766688Y395993D03*
D36*
X723688Y432743D03*
X733688Y432743D03*
X743688Y432743D03*
X753688Y432743D03*
D37*
X984238Y514743D03*
X996938Y514743D03*
X1009638Y514743D03*
X1022338Y514743D03*
X1035038Y514743D03*
X1047738Y514743D03*
X1060438Y514743D03*
X1073138Y514743D03*
X1073138Y570743D03*
X1060438Y570743D03*
X1047738Y570743D03*
X1035038Y570743D03*
X1022338Y570743D03*
X1009638Y570743D03*
X996938Y570743D03*
X984238Y570743D03*
D11*
X958688Y571243D03*
X958688Y554243D03*
X958688Y514243D03*
X958688Y531243D03*
D38*
X1150748Y551793D03*
X1206628Y551793D03*
X1150748Y513693D03*
X1206628Y513693D03*
D39*
X1185588Y284743D03*
D40*
X1185588Y276743D03*
X1185588Y268743D03*
D39*
X1172388Y284743D03*
D40*
X1172388Y276743D03*
X1172388Y268743D03*
D41*
X1172488Y260743D03*
D39*
X1185588Y260743D03*
X881788Y300743D03*
D40*
X881788Y308743D03*
X881788Y316743D03*
D39*
X894988Y300743D03*
D40*
X894988Y308743D03*
X894988Y316743D03*
D41*
X894888Y324743D03*
D39*
X881788Y324743D03*
X881788Y250743D03*
D40*
X881788Y258743D03*
X881788Y266743D03*
D39*
X894988Y250743D03*
D40*
X894988Y258743D03*
X894988Y266743D03*
D41*
X894888Y274743D03*
D39*
X881788Y274743D03*
X881788Y200743D03*
D40*
X881788Y208743D03*
X881788Y216743D03*
D39*
X894988Y200743D03*
D40*
X894988Y208743D03*
X894988Y216743D03*
D41*
X894888Y224743D03*
D39*
X881788Y224743D03*
D28*
X848688Y292743D03*
X848688Y267343D03*
X848688Y241943D03*
X848688Y216543D03*
X848688Y191143D03*
D42*
X1108188Y474743D03*
X1098688Y474743D03*
X1089188Y474743D03*
X1089188Y450743D03*
X1108188Y450743D03*
X1098688Y450743D03*
D14*
X1090188Y432743D03*
X1107188Y432743D03*
X1107188Y412743D03*
X1090188Y412743D03*
D11*
X1128688Y431243D03*
X1128688Y414243D03*
D31*
X1087188Y392743D03*
X1110188Y392743D03*
D14*
X1090188Y492743D03*
X1107188Y492743D03*
X1107188Y552743D03*
X1090188Y552743D03*
X1090188Y512743D03*
X1107188Y512743D03*
X1107188Y532743D03*
X1090188Y532743D03*
D43*
X1148688Y464243D03*
X1148688Y441243D03*
D28*
X1313688Y851743D03*
X1313688Y877143D03*
X1313688Y902543D03*
X1313688Y927943D03*
D44*
X906188Y530243D03*
X906188Y535243D03*
X891188Y535243D03*
X891188Y530243D03*
D45*
X891188Y525243D03*
X896188Y525243D03*
X906188Y525243D03*
X901188Y525243D03*
X906188Y540243D03*
X901188Y540243D03*
X896188Y540243D03*
X891188Y540243D03*
D14*
X907188Y562743D03*
X890188Y562743D03*
X890188Y502743D03*
X907188Y502743D03*
D46*
X788688Y582743D03*
D34*
X742752Y582743D03*
X734624Y582743D03*
D47*
X914488Y102743D03*
X902888Y102743D03*
D48*
X1193018Y39573D03*
X1273018Y39573D03*
D49*
X1223688Y952743D03*
X1213688Y952743D03*
X1203688Y952743D03*
X1193688Y952743D03*
X1183688Y952743D03*
X1173688Y952743D03*
D10*
X2007858Y42843D03*
X1425458Y1051643D03*
D11*
X1685758Y414243D03*
X1685758Y431243D03*
X1665758Y431243D03*
X1665758Y414243D03*
D12*
X1728759Y413243D03*
X1728759Y422743D03*
X1728759Y432243D03*
X1702757Y432243D03*
X1702757Y413243D03*
D11*
X1745758Y414243D03*
X1745758Y431243D03*
X1645758Y391243D03*
X1645758Y374243D03*
X1665758Y391243D03*
X1665758Y374243D03*
D13*
X1677658Y164403D03*
X1677658Y152803D03*
D14*
X1695828Y164953D03*
X1712828Y164953D03*
D11*
X1705758Y391243D03*
X1705758Y374243D03*
D15*
X1656148Y164953D03*
X1666148Y164953D03*
D16*
X1644258Y188243D03*
X1655258Y188243D03*
X1666258Y188243D03*
X1677258Y188243D03*
X1688258Y188243D03*
X1699258Y188243D03*
X1710258Y188243D03*
X1721258Y188243D03*
X1732258Y188243D03*
X1743258Y188243D03*
X1754258Y188243D03*
X1765258Y188243D03*
X1776258Y188243D03*
X1787258Y188243D03*
D17*
X1815258Y196743D03*
X1815258Y207743D03*
X1815258Y218743D03*
X1815258Y229743D03*
X1815258Y240743D03*
X1815258Y251743D03*
X1815258Y262743D03*
X1815258Y273743D03*
X1815258Y284743D03*
X1815258Y295743D03*
X1815258Y306743D03*
X1815258Y317743D03*
X1815258Y328743D03*
D16*
X1787258Y337243D03*
X1776258Y337243D03*
X1765258Y337243D03*
X1754258Y337243D03*
X1743258Y337243D03*
X1732258Y337243D03*
X1721258Y337243D03*
X1710258Y337243D03*
X1699258Y337243D03*
X1688258Y337243D03*
X1677258Y337243D03*
X1666258Y337243D03*
X1655258Y337243D03*
X1644258Y337243D03*
D17*
X1616258Y328743D03*
X1616258Y317743D03*
X1616258Y306743D03*
X1616258Y295743D03*
X1616258Y284743D03*
X1616258Y273743D03*
X1616258Y262743D03*
X1616258Y251743D03*
X1616258Y240743D03*
X1616258Y229743D03*
X1616258Y218743D03*
X1616258Y207743D03*
X1616258Y196743D03*
D18*
X1705258Y252243D03*
X1684258Y252243D03*
X1663258Y252243D03*
X1642258Y252243D03*
X1705258Y231743D03*
X1684258Y231743D03*
X1663258Y231743D03*
X1642258Y231743D03*
X1705258Y211243D03*
X1684258Y211243D03*
X1663258Y211243D03*
X1642258Y211243D03*
X1705258Y314243D03*
X1684258Y314243D03*
X1663258Y314243D03*
X1642258Y314243D03*
X1705258Y293743D03*
X1684258Y293743D03*
X1663258Y293743D03*
X1642258Y293743D03*
X1705258Y273243D03*
X1684258Y273243D03*
X1663258Y273243D03*
X1642258Y273243D03*
X1726258Y273243D03*
X1747258Y273243D03*
X1768258Y273243D03*
X1789258Y273243D03*
X1726258Y293743D03*
X1747258Y293743D03*
X1768258Y293743D03*
X1789258Y293743D03*
X1726258Y314243D03*
X1747258Y314243D03*
X1768258Y314243D03*
X1789258Y314243D03*
X1726258Y211243D03*
X1747258Y211243D03*
X1768258Y211243D03*
X1789258Y211243D03*
X1726258Y231743D03*
X1747258Y231743D03*
X1768258Y231743D03*
X1789258Y231743D03*
X1726258Y252243D03*
X1747258Y252243D03*
X1768258Y252243D03*
X1789258Y252243D03*
D14*
X1764258Y102743D03*
X1747258Y102743D03*
X1667258Y102743D03*
X1684258Y102743D03*
D19*
X1723258Y58013D03*
X1718258Y58013D03*
D20*
X1748008Y58013D03*
X1740258Y58013D03*
D19*
X1733258Y58013D03*
X1728258Y58013D03*
X1708258Y58013D03*
X1713258Y58013D03*
D20*
X1683508Y58013D03*
X1691258Y58013D03*
D19*
X1698258Y58013D03*
X1703258Y58013D03*
D21*
X1686858Y46963D03*
X1744658Y46963D03*
D11*
X1725758Y374243D03*
X1725758Y391243D03*
X1685758Y391243D03*
X1685758Y374243D03*
D22*
X1710758Y118693D03*
D23*
X1715758Y118443D03*
X1720758Y118443D03*
X1720758Y127043D03*
X1715758Y127043D03*
X1710758Y127043D03*
D24*
X1626858Y36013D03*
X1601458Y36013D03*
X1576058Y36013D03*
D25*
X1430770Y282680D03*
X1430770Y782806D03*
X2000746Y782806D03*
X2000746Y282680D03*
D26*
X1552758Y1022743D03*
X1552758Y1042743D03*
D27*
X1500758Y998743D03*
X1500758Y1066743D03*
D28*
X1589278Y1046683D03*
X1589278Y1021283D03*
D19*
X1837558Y58013D03*
X1832558Y58013D03*
D20*
X1862308Y58013D03*
X1854558Y58013D03*
D19*
X1847558Y58013D03*
X1842558Y58013D03*
X1822558Y58013D03*
X1827558Y58013D03*
D20*
X1797808Y58013D03*
X1805558Y58013D03*
D19*
X1812558Y58013D03*
X1817558Y58013D03*
D21*
X1801158Y46963D03*
X1858958Y46963D03*
D14*
X1874258Y102743D03*
X1857258Y102743D03*
X1787258Y102743D03*
X1804258Y102743D03*
D29*
X1468408Y44883D03*
D30*
X1524408Y12883D03*
X1449908Y12883D03*
D29*
X1480908Y44883D03*
X1493408Y44883D03*
X1505908Y44883D03*
X1925608Y44883D03*
D30*
X1981608Y12883D03*
X1907108Y12883D03*
D29*
X1938108Y44883D03*
X1950608Y44883D03*
X1963108Y44883D03*
D28*
X1525258Y71893D03*
X1499858Y71893D03*
X1474458Y71893D03*
X1449058Y71893D03*
X1982458Y174443D03*
X1957058Y174443D03*
X1931658Y174443D03*
X1906258Y174443D03*
X1906258Y240643D03*
X1906258Y266043D03*
X1906258Y291443D03*
X1906258Y316843D03*
X1398258Y342243D03*
X1398258Y316843D03*
D14*
X1884258Y172743D03*
X1867258Y172743D03*
D31*
X1842258Y112743D03*
X1819258Y112743D03*
D32*
X1625858Y465243D03*
X1625858Y470243D03*
X1625858Y475243D03*
X1625858Y480243D03*
X1645858Y480243D03*
X1645858Y475243D03*
X1645858Y470243D03*
X1645858Y465243D03*
D33*
X1635758Y472743D03*
D11*
X1665758Y464243D03*
X1665758Y481243D03*
D34*
X1770678Y82743D03*
X1780838Y82743D03*
D28*
X1763058Y82743D03*
X1788458Y82743D03*
D34*
X1530678Y1087743D03*
X1540838Y1087743D03*
D28*
X1523058Y1087743D03*
X1548458Y1087743D03*
X2000758Y980343D03*
X2000758Y954943D03*
D12*
X1728759Y463243D03*
X1728759Y472743D03*
X1728759Y482243D03*
X1702757Y482243D03*
X1702757Y463243D03*
D11*
X1745758Y464243D03*
X1745758Y481243D03*
X1685758Y464243D03*
X1685758Y481243D03*
D22*
X1830758Y138693D03*
D23*
X1835758Y138443D03*
X1840758Y138443D03*
X1840758Y147043D03*
X1835758Y147043D03*
X1830758Y147043D03*
D28*
X1395758Y472743D03*
X1421158Y472743D03*
X1446558Y472743D03*
X1471958Y472743D03*
D35*
X1397758Y395993D03*
X1453758Y395993D03*
D36*
X1410758Y432743D03*
X1420758Y432743D03*
X1430758Y432743D03*
X1440758Y432743D03*
D37*
X1671308Y514743D03*
X1684008Y514743D03*
X1696708Y514743D03*
X1709408Y514743D03*
X1722108Y514743D03*
X1734808Y514743D03*
X1747508Y514743D03*
X1760208Y514743D03*
X1760208Y570743D03*
X1747508Y570743D03*
X1734808Y570743D03*
X1722108Y570743D03*
X1709408Y570743D03*
X1696708Y570743D03*
X1684008Y570743D03*
X1671308Y570743D03*
D11*
X1645758Y571243D03*
X1645758Y554243D03*
X1645758Y514243D03*
X1645758Y531243D03*
D38*
X1837818Y551793D03*
X1893698Y551793D03*
X1837818Y513693D03*
X1893698Y513693D03*
D39*
X1872658Y284743D03*
D40*
X1872658Y276743D03*
X1872658Y268743D03*
D39*
X1859458Y284743D03*
D40*
X1859458Y276743D03*
X1859458Y268743D03*
D41*
X1859558Y260743D03*
D39*
X1872658Y260743D03*
X1568858Y300743D03*
D40*
X1568858Y308743D03*
X1568858Y316743D03*
D39*
X1582058Y300743D03*
D40*
X1582058Y308743D03*
X1582058Y316743D03*
D41*
X1581958Y324743D03*
D39*
X1568858Y324743D03*
X1568858Y250743D03*
D40*
X1568858Y258743D03*
X1568858Y266743D03*
D39*
X1582058Y250743D03*
D40*
X1582058Y258743D03*
X1582058Y266743D03*
D41*
X1581958Y274743D03*
D39*
X1568858Y274743D03*
X1568858Y200743D03*
D40*
X1568858Y208743D03*
X1568858Y216743D03*
D39*
X1582058Y200743D03*
D40*
X1582058Y208743D03*
X1582058Y216743D03*
D41*
X1581958Y224743D03*
D39*
X1568858Y224743D03*
D28*
X1535758Y292743D03*
X1535758Y267343D03*
X1535758Y241943D03*
X1535758Y216543D03*
X1535758Y191143D03*
D42*
X1795258Y474743D03*
X1785758Y474743D03*
X1776258Y474743D03*
X1776258Y450743D03*
X1795258Y450743D03*
X1785758Y450743D03*
D14*
X1777258Y432743D03*
X1794258Y432743D03*
X1794258Y412743D03*
X1777258Y412743D03*
D11*
X1815758Y431243D03*
X1815758Y414243D03*
D31*
X1774258Y392743D03*
X1797258Y392743D03*
D14*
X1777258Y492743D03*
X1794258Y492743D03*
X1794258Y552743D03*
X1777258Y552743D03*
X1777258Y512743D03*
X1794258Y512743D03*
X1794258Y532743D03*
X1777258Y532743D03*
D43*
X1835758Y464243D03*
X1835758Y441243D03*
D28*
X2000758Y851743D03*
X2000758Y877143D03*
X2000758Y902543D03*
X2000758Y927943D03*
D44*
X1593258Y530243D03*
X1593258Y535243D03*
X1578258Y535243D03*
X1578258Y530243D03*
D45*
X1578258Y525243D03*
X1583258Y525243D03*
X1593258Y525243D03*
X1588258Y525243D03*
X1593258Y540243D03*
X1588258Y540243D03*
X1583258Y540243D03*
X1578258Y540243D03*
D14*
X1594258Y562743D03*
X1577258Y562743D03*
X1577258Y502743D03*
X1594258Y502743D03*
D46*
X1475758Y582743D03*
D34*
X1429822Y582743D03*
X1421694Y582743D03*
D47*
X1601558Y102743D03*
X1589958Y102743D03*
D48*
X1880088Y39573D03*
X1960088Y39573D03*
D49*
X1910758Y952743D03*
X1900758Y952743D03*
X1890758Y952743D03*
X1880758Y952743D03*
X1870758Y952743D03*
X1860758Y952743D03*
D48*
X-26238Y1133145D03*
X2082368Y1133145D03*
D50*
X-35293Y63500D02*
X-35290Y63722D01*
X-35282Y63944D01*
X-35268Y64166D01*
X-35249Y64388D01*
X-35225Y64608D01*
X-35195Y64829D01*
X-35160Y65048D01*
X-35119Y65267D01*
X-35073Y65484D01*
X-35022Y65700D01*
X-34965Y65915D01*
X-34903Y66129D01*
X-34836Y66340D01*
X-34764Y66551D01*
X-34686Y66759D01*
X-34604Y66965D01*
X-34516Y67169D01*
X-34424Y67372D01*
X-34326Y67571D01*
X-34224Y67768D01*
X-34117Y67963D01*
X-34005Y68155D01*
X-33888Y68344D01*
X-33767Y68531D01*
X-33641Y68714D01*
X-33511Y68894D01*
X-33376Y69071D01*
X-33238Y69244D01*
X-33095Y69414D01*
X-32947Y69581D01*
X-32796Y69744D01*
X-32641Y69903D01*
X-32482Y70058D01*
X-32319Y70209D01*
X-32152Y70357D01*
X-31982Y70500D01*
X-31809Y70638D01*
X-31632Y70773D01*
X-31452Y70903D01*
X-31269Y71029D01*
X-31082Y71150D01*
X-30893Y71267D01*
X-30701Y71379D01*
X-30506Y71486D01*
X-30309Y71588D01*
X-30110Y71686D01*
X-29907Y71778D01*
X-29703Y71866D01*
X-29497Y71948D01*
X-29289Y72026D01*
X-29078Y72098D01*
X-28867Y72165D01*
X-28653Y72227D01*
X-28438Y72284D01*
X-28222Y72335D01*
X-28005Y72381D01*
X-27786Y72422D01*
X-27567Y72457D01*
X-27346Y72487D01*
X-27126Y72511D01*
X-26904Y72530D01*
X-26682Y72544D01*
X-26460Y72552D01*
X-26238Y72555D01*
X-26016Y72552D01*
X-25794Y72544D01*
X-25572Y72530D01*
X-25350Y72511D01*
X-25130Y72487D01*
X-24909Y72457D01*
X-24690Y72422D01*
X-24471Y72381D01*
X-24254Y72335D01*
X-24038Y72284D01*
X-23823Y72227D01*
X-23609Y72165D01*
X-23398Y72098D01*
X-23187Y72026D01*
X-22979Y71948D01*
X-22773Y71866D01*
X-22569Y71778D01*
X-22366Y71686D01*
X-22167Y71588D01*
X-21970Y71486D01*
X-21775Y71379D01*
X-21583Y71267D01*
X-21394Y71150D01*
X-21207Y71029D01*
X-21024Y70903D01*
X-20844Y70773D01*
X-20667Y70638D01*
X-20494Y70500D01*
X-20324Y70357D01*
X-20157Y70209D01*
X-19994Y70058D01*
X-19835Y69903D01*
X-19680Y69744D01*
X-19529Y69581D01*
X-19381Y69414D01*
X-19238Y69244D01*
X-19100Y69071D01*
X-18965Y68894D01*
X-18835Y68714D01*
X-18709Y68531D01*
X-18588Y68344D01*
X-18471Y68155D01*
X-18359Y67963D01*
X-18252Y67768D01*
X-18150Y67571D01*
X-18052Y67372D01*
X-17960Y67169D01*
X-17872Y66965D01*
X-17790Y66759D01*
X-17712Y66551D01*
X-17640Y66340D01*
X-17573Y66129D01*
X-17511Y65915D01*
X-17454Y65700D01*
X-17403Y65484D01*
X-17357Y65267D01*
X-17316Y65048D01*
X-17281Y64829D01*
X-17251Y64608D01*
X-17227Y64388D01*
X-17208Y64166D01*
X-17194Y63944D01*
X-17186Y63722D01*
X-17183Y63500D01*
X-17186Y63278D01*
X-17194Y63056D01*
X-17208Y62834D01*
X-17227Y62612D01*
X-17251Y62392D01*
X-17281Y62171D01*
X-17316Y61952D01*
X-17357Y61733D01*
X-17403Y61516D01*
X-17454Y61300D01*
X-17511Y61085D01*
X-17573Y60871D01*
X-17640Y60660D01*
X-17712Y60449D01*
X-17790Y60241D01*
X-17872Y60035D01*
X-17960Y59831D01*
X-18052Y59628D01*
X-18150Y59429D01*
X-18252Y59232D01*
X-18359Y59037D01*
X-18471Y58845D01*
X-18588Y58656D01*
X-18709Y58469D01*
X-18835Y58286D01*
X-18965Y58106D01*
X-19100Y57929D01*
X-19238Y57756D01*
X-19381Y57586D01*
X-19529Y57419D01*
X-19680Y57256D01*
X-19835Y57097D01*
X-19994Y56942D01*
X-20157Y56791D01*
X-20324Y56643D01*
X-20494Y56500D01*
X-20667Y56362D01*
X-20844Y56227D01*
X-21024Y56097D01*
X-21207Y55971D01*
X-21394Y55850D01*
X-21583Y55733D01*
X-21775Y55621D01*
X-21970Y55514D01*
X-22167Y55412D01*
X-22366Y55314D01*
X-22569Y55222D01*
X-22773Y55134D01*
X-22979Y55052D01*
X-23187Y54974D01*
X-23398Y54902D01*
X-23609Y54835D01*
X-23823Y54773D01*
X-24038Y54716D01*
X-24254Y54665D01*
X-24471Y54619D01*
X-24690Y54578D01*
X-24909Y54543D01*
X-25130Y54513D01*
X-25350Y54489D01*
X-25572Y54470D01*
X-25794Y54456D01*
X-26016Y54448D01*
X-26238Y54445D01*
X-26460Y54448D01*
X-26682Y54456D01*
X-26904Y54470D01*
X-27126Y54489D01*
X-27346Y54513D01*
X-27567Y54543D01*
X-27786Y54578D01*
X-28005Y54619D01*
X-28222Y54665D01*
X-28438Y54716D01*
X-28653Y54773D01*
X-28867Y54835D01*
X-29078Y54902D01*
X-29289Y54974D01*
X-29497Y55052D01*
X-29703Y55134D01*
X-29907Y55222D01*
X-30110Y55314D01*
X-30309Y55412D01*
X-30506Y55514D01*
X-30701Y55621D01*
X-30893Y55733D01*
X-31082Y55850D01*
X-31269Y55971D01*
X-31452Y56097D01*
X-31632Y56227D01*
X-31809Y56362D01*
X-31982Y56500D01*
X-32152Y56643D01*
X-32319Y56791D01*
X-32482Y56942D01*
X-32641Y57097D01*
X-32796Y57256D01*
X-32947Y57419D01*
X-33095Y57586D01*
X-33238Y57756D01*
X-33376Y57929D01*
X-33511Y58106D01*
X-33641Y58286D01*
X-33767Y58469D01*
X-33888Y58656D01*
X-34005Y58845D01*
X-34117Y59037D01*
X-34224Y59232D01*
X-34326Y59429D01*
X-34424Y59628D01*
X-34516Y59831D01*
X-34604Y60035D01*
X-34686Y60241D01*
X-34764Y60449D01*
X-34836Y60660D01*
X-34903Y60871D01*
X-34965Y61085D01*
X-35022Y61300D01*
X-35073Y61516D01*
X-35119Y61733D01*
X-35160Y61952D01*
X-35195Y62171D01*
X-35225Y62392D01*
X-35249Y62612D01*
X-35268Y62834D01*
X-35282Y63056D01*
X-35290Y63278D01*
X-35293Y63500D01*
D51*
X-26238Y63500D03*
M02*
