G04 EAGLE Gerber RS-274X export*
G75*
%MOMM*%
%FSLAX34Y34*%
%LPD*%
%INSolderpaste Bottom*%
%IPPOS*%
%AMOC8*
5,1,8,0,0,1.08239X$1,22.5*%
G01*
%ADD10R,1.200000X2.000000*%
%ADD11R,0.600000X1.350000*%
%ADD12R,1.000000X1.100000*%
%ADD13R,1.100000X1.000000*%
%ADD14R,0.830000X0.630000*%
%ADD15R,1.200000X0.600000*%
%ADD16R,0.660000X0.300000*%
%ADD17R,0.260000X0.599000*%
%ADD18R,2.000000X1.000000*%
%ADD19R,1.500000X0.900000*%
%ADD20R,0.900000X1.500000*%
%ADD21R,1.330000X1.330000*%
%ADD22R,0.700000X1.600000*%
%ADD23R,1.200000X2.200000*%
%ADD24R,1.600000X1.400000*%
%ADD25R,1.200000X1.600000*%


D10*
X369618Y10693D03*
X313618Y10693D03*
D11*
X356618Y47443D03*
X346618Y47443D03*
X336618Y47443D03*
X326618Y47443D03*
D12*
X138418Y1006843D03*
X138418Y1023843D03*
D13*
X170118Y1052743D03*
X153118Y1052743D03*
X170118Y982743D03*
X153118Y982743D03*
D14*
X231618Y981243D03*
X231618Y1004243D03*
D12*
X451618Y961243D03*
X451618Y944243D03*
X471618Y1001243D03*
X471618Y984243D03*
X451618Y1001243D03*
X451618Y984243D03*
X471618Y961243D03*
X471618Y944243D03*
D13*
X173118Y962743D03*
X190118Y962743D03*
D15*
X209618Y927193D03*
X209618Y914493D03*
X209618Y901793D03*
X209618Y889093D03*
X209618Y876393D03*
X209618Y863693D03*
X209618Y850993D03*
X209618Y838293D03*
X153618Y838293D03*
X153618Y850993D03*
X153618Y863693D03*
X153618Y876393D03*
X153618Y889093D03*
X153618Y901793D03*
X153618Y914493D03*
X153618Y927193D03*
D13*
X113118Y852743D03*
X130118Y852743D03*
X130118Y912743D03*
X113118Y912743D03*
D16*
X130818Y889243D03*
X112418Y882743D03*
X112418Y876243D03*
X112418Y889243D03*
X130818Y882743D03*
X130818Y876243D03*
D13*
X173118Y942743D03*
X190118Y942743D03*
X453118Y902743D03*
X470118Y902743D03*
X580118Y1002743D03*
X563118Y1002743D03*
D17*
X161618Y998748D03*
X166618Y998748D03*
X171618Y998748D03*
X156618Y998748D03*
X151618Y998748D03*
X151618Y1026738D03*
X156618Y1026738D03*
X161618Y1026738D03*
X166618Y1026738D03*
X171618Y1026738D03*
D18*
X161618Y1012743D03*
D13*
X120118Y1052743D03*
X103118Y1052743D03*
X120118Y1032743D03*
X103118Y1032743D03*
X120118Y1072743D03*
X103118Y1072743D03*
X453118Y872743D03*
X470118Y872743D03*
D19*
X431618Y1017043D03*
X431618Y1004343D03*
X431618Y991643D03*
X431618Y978943D03*
X431618Y966243D03*
X431618Y953543D03*
X431618Y940843D03*
X431618Y928143D03*
X431618Y915443D03*
X431618Y902743D03*
X431618Y890043D03*
X431618Y877343D03*
X431618Y864643D03*
X431618Y851943D03*
D20*
X398768Y837043D03*
X386068Y837043D03*
X373368Y837043D03*
X360668Y837043D03*
X347968Y837043D03*
X335268Y837043D03*
X322568Y837043D03*
X309868Y837043D03*
X297168Y837043D03*
X284468Y837043D03*
D19*
X251618Y851943D03*
X251618Y864643D03*
X251618Y877343D03*
X251618Y890043D03*
X251618Y902743D03*
X251618Y915443D03*
X251618Y928143D03*
X251618Y940843D03*
X251618Y953543D03*
X251618Y966243D03*
X251618Y978943D03*
X251618Y991643D03*
X251618Y1004343D03*
X251618Y1017043D03*
D21*
X356928Y943623D03*
X338478Y961833D03*
X356778Y961833D03*
X375078Y961833D03*
X375078Y943533D03*
X338378Y943833D03*
X338478Y925233D03*
X356778Y925133D03*
X375078Y925233D03*
D22*
X535948Y144573D03*
X524948Y144573D03*
X513948Y144573D03*
X546948Y144573D03*
X557948Y144573D03*
X568948Y144573D03*
X579948Y144573D03*
X590948Y144573D03*
X601948Y144573D03*
D23*
X458948Y43573D03*
X613948Y43573D03*
D24*
X467948Y139573D03*
D25*
X613948Y138573D03*
D13*
X444618Y802843D03*
X427618Y802843D03*
X427618Y777443D03*
X444618Y777443D03*
D10*
X1056688Y10693D03*
X1000688Y10693D03*
D11*
X1043688Y47443D03*
X1033688Y47443D03*
X1023688Y47443D03*
X1013688Y47443D03*
D12*
X825488Y1006843D03*
X825488Y1023843D03*
D13*
X857188Y1052743D03*
X840188Y1052743D03*
X857188Y982743D03*
X840188Y982743D03*
D14*
X918688Y981243D03*
X918688Y1004243D03*
D12*
X1138688Y961243D03*
X1138688Y944243D03*
X1158688Y1001243D03*
X1158688Y984243D03*
X1138688Y1001243D03*
X1138688Y984243D03*
X1158688Y961243D03*
X1158688Y944243D03*
D13*
X860188Y962743D03*
X877188Y962743D03*
D15*
X896688Y927193D03*
X896688Y914493D03*
X896688Y901793D03*
X896688Y889093D03*
X896688Y876393D03*
X896688Y863693D03*
X896688Y850993D03*
X896688Y838293D03*
X840688Y838293D03*
X840688Y850993D03*
X840688Y863693D03*
X840688Y876393D03*
X840688Y889093D03*
X840688Y901793D03*
X840688Y914493D03*
X840688Y927193D03*
D13*
X800188Y852743D03*
X817188Y852743D03*
X817188Y912743D03*
X800188Y912743D03*
D16*
X817888Y889243D03*
X799488Y882743D03*
X799488Y876243D03*
X799488Y889243D03*
X817888Y882743D03*
X817888Y876243D03*
D13*
X860188Y942743D03*
X877188Y942743D03*
X1140188Y902743D03*
X1157188Y902743D03*
X1267188Y1002743D03*
X1250188Y1002743D03*
D17*
X848688Y998748D03*
X853688Y998748D03*
X858688Y998748D03*
X843688Y998748D03*
X838688Y998748D03*
X838688Y1026738D03*
X843688Y1026738D03*
X848688Y1026738D03*
X853688Y1026738D03*
X858688Y1026738D03*
D18*
X848688Y1012743D03*
D13*
X807188Y1052743D03*
X790188Y1052743D03*
X807188Y1032743D03*
X790188Y1032743D03*
X807188Y1072743D03*
X790188Y1072743D03*
X1140188Y872743D03*
X1157188Y872743D03*
D19*
X1118688Y1017043D03*
X1118688Y1004343D03*
X1118688Y991643D03*
X1118688Y978943D03*
X1118688Y966243D03*
X1118688Y953543D03*
X1118688Y940843D03*
X1118688Y928143D03*
X1118688Y915443D03*
X1118688Y902743D03*
X1118688Y890043D03*
X1118688Y877343D03*
X1118688Y864643D03*
X1118688Y851943D03*
D20*
X1085838Y837043D03*
X1073138Y837043D03*
X1060438Y837043D03*
X1047738Y837043D03*
X1035038Y837043D03*
X1022338Y837043D03*
X1009638Y837043D03*
X996938Y837043D03*
X984238Y837043D03*
X971538Y837043D03*
D19*
X938688Y851943D03*
X938688Y864643D03*
X938688Y877343D03*
X938688Y890043D03*
X938688Y902743D03*
X938688Y915443D03*
X938688Y928143D03*
X938688Y940843D03*
X938688Y953543D03*
X938688Y966243D03*
X938688Y978943D03*
X938688Y991643D03*
X938688Y1004343D03*
X938688Y1017043D03*
D21*
X1043998Y943623D03*
X1025548Y961833D03*
X1043848Y961833D03*
X1062148Y961833D03*
X1062148Y943533D03*
X1025448Y943833D03*
X1025548Y925233D03*
X1043848Y925133D03*
X1062148Y925233D03*
D22*
X1223018Y144573D03*
X1212018Y144573D03*
X1201018Y144573D03*
X1234018Y144573D03*
X1245018Y144573D03*
X1256018Y144573D03*
X1267018Y144573D03*
X1278018Y144573D03*
X1289018Y144573D03*
D23*
X1146018Y43573D03*
X1301018Y43573D03*
D24*
X1155018Y139573D03*
D25*
X1301018Y138573D03*
D13*
X1131688Y802843D03*
X1114688Y802843D03*
X1114688Y777443D03*
X1131688Y777443D03*
D10*
X1743758Y10693D03*
X1687758Y10693D03*
D11*
X1730758Y47443D03*
X1720758Y47443D03*
X1710758Y47443D03*
X1700758Y47443D03*
D12*
X1512558Y1006843D03*
X1512558Y1023843D03*
D13*
X1544258Y1052743D03*
X1527258Y1052743D03*
X1544258Y982743D03*
X1527258Y982743D03*
D14*
X1605758Y981243D03*
X1605758Y1004243D03*
D12*
X1825758Y961243D03*
X1825758Y944243D03*
X1845758Y1001243D03*
X1845758Y984243D03*
X1825758Y1001243D03*
X1825758Y984243D03*
X1845758Y961243D03*
X1845758Y944243D03*
D13*
X1547258Y962743D03*
X1564258Y962743D03*
D15*
X1583758Y927193D03*
X1583758Y914493D03*
X1583758Y901793D03*
X1583758Y889093D03*
X1583758Y876393D03*
X1583758Y863693D03*
X1583758Y850993D03*
X1583758Y838293D03*
X1527758Y838293D03*
X1527758Y850993D03*
X1527758Y863693D03*
X1527758Y876393D03*
X1527758Y889093D03*
X1527758Y901793D03*
X1527758Y914493D03*
X1527758Y927193D03*
D13*
X1487258Y852743D03*
X1504258Y852743D03*
X1504258Y912743D03*
X1487258Y912743D03*
D16*
X1504958Y889243D03*
X1486558Y882743D03*
X1486558Y876243D03*
X1486558Y889243D03*
X1504958Y882743D03*
X1504958Y876243D03*
D13*
X1547258Y942743D03*
X1564258Y942743D03*
X1827258Y902743D03*
X1844258Y902743D03*
X1954258Y1002743D03*
X1937258Y1002743D03*
D17*
X1535758Y998748D03*
X1540758Y998748D03*
X1545758Y998748D03*
X1530758Y998748D03*
X1525758Y998748D03*
X1525758Y1026738D03*
X1530758Y1026738D03*
X1535758Y1026738D03*
X1540758Y1026738D03*
X1545758Y1026738D03*
D18*
X1535758Y1012743D03*
D13*
X1494258Y1052743D03*
X1477258Y1052743D03*
X1494258Y1032743D03*
X1477258Y1032743D03*
X1494258Y1072743D03*
X1477258Y1072743D03*
X1827258Y872743D03*
X1844258Y872743D03*
D19*
X1805758Y1017043D03*
X1805758Y1004343D03*
X1805758Y991643D03*
X1805758Y978943D03*
X1805758Y966243D03*
X1805758Y953543D03*
X1805758Y940843D03*
X1805758Y928143D03*
X1805758Y915443D03*
X1805758Y902743D03*
X1805758Y890043D03*
X1805758Y877343D03*
X1805758Y864643D03*
X1805758Y851943D03*
D20*
X1772908Y837043D03*
X1760208Y837043D03*
X1747508Y837043D03*
X1734808Y837043D03*
X1722108Y837043D03*
X1709408Y837043D03*
X1696708Y837043D03*
X1684008Y837043D03*
X1671308Y837043D03*
X1658608Y837043D03*
D19*
X1625758Y851943D03*
X1625758Y864643D03*
X1625758Y877343D03*
X1625758Y890043D03*
X1625758Y902743D03*
X1625758Y915443D03*
X1625758Y928143D03*
X1625758Y940843D03*
X1625758Y953543D03*
X1625758Y966243D03*
X1625758Y978943D03*
X1625758Y991643D03*
X1625758Y1004343D03*
X1625758Y1017043D03*
D21*
X1731068Y943623D03*
X1712618Y961833D03*
X1730918Y961833D03*
X1749218Y961833D03*
X1749218Y943533D03*
X1712518Y943833D03*
X1712618Y925233D03*
X1730918Y925133D03*
X1749218Y925233D03*
D22*
X1910088Y144573D03*
X1899088Y144573D03*
X1888088Y144573D03*
X1921088Y144573D03*
X1932088Y144573D03*
X1943088Y144573D03*
X1954088Y144573D03*
X1965088Y144573D03*
X1976088Y144573D03*
D23*
X1833088Y43573D03*
X1988088Y43573D03*
D24*
X1842088Y139573D03*
D25*
X1988088Y138573D03*
D13*
X1818758Y802843D03*
X1801758Y802843D03*
X1801758Y777443D03*
X1818758Y777443D03*
M02*
