M48
;GenerationSoftware,Autodesk,EAGLE,9.6.2*%
;CreationDate,2022-05-18T22:42:18Z*%
FMAT,2
ICI,OFF
METRIC,TZ,000.000
T9C0.305
T8C0.350
T7C0.381
T6C0.400
T5C0.650
T4C0.950
T3C1.000
T2C1.016
T1C3.200
%
G90
M71
T1
X62661Y28268
X131368Y78281
X131368Y28268
X200075Y28268
X143077Y28268
X143077Y78281
X200075Y78281
X74370Y28268
X5663Y28268
X5663Y78281
X62661Y78281
X74370Y78281
T2
X84869Y24194
X84869Y21654
X84869Y19114
X131369Y85174
X131369Y87714
X131369Y90254
X131369Y92794
X158928Y104668
X158928Y102128
X152526Y7189
X149986Y7189
X147446Y7189
X144906Y7189
X198246Y17444
X195706Y17444
X193166Y17444
X190626Y17444
X190626Y24064
X62662Y92794
X190626Y26604
X190626Y31684
X139826Y34224
X139826Y31684
X176306Y8274
X178846Y8274
X152306Y108774
X154846Y108774
X200076Y98034
X200076Y95494
X139576Y47274
X142116Y47274
X144656Y47274
X147196Y47274
X153576Y29274
X153576Y26734
X153576Y24194
X153576Y21654
X153576Y19114
X21514Y104668
X21514Y102128
X200076Y85174
X200076Y87714
X200076Y90254
X200076Y92794
X15112Y7189
X12572Y7189
X10032Y7189
X7492Y7189
X60832Y17444
X58292Y17444
X55752Y17444
X53212Y17444
X53212Y24064
X53212Y26604
X53212Y29144
X53212Y31684
X2412Y34224
X2412Y31684
X38892Y8274
X41432Y8274
X14892Y108774
X17432Y108774
X62662Y98034
X62662Y95494
X2162Y47274
X4702Y47274
X7242Y47274
X9782Y47274
X16162Y29274
X16162Y26734
X16162Y24194
X16162Y21654
X16162Y19114
X62662Y85174
X62662Y87714
X62662Y90254
X190626Y29144
X90221Y104668
X90221Y102128
X83819Y7189
X81279Y7189
X78739Y7189
X76199Y7189
X129539Y17444
X126999Y17444
X124459Y17444
X121919Y17444
X121919Y24064
X121919Y26604
X121919Y29144
X121919Y31684
X71119Y34224
X71119Y31684
X107599Y8274
X110139Y8274
X83599Y108774
X86139Y108774
X131369Y98034
X131369Y95494
X70869Y47274
X73409Y47274
X75949Y47274
X78489Y47274
X84869Y29274
X84869Y26734
T3
X58595Y3957
X119302Y3957
X127302Y3957
X188009Y3957
X196009Y3957
X50595Y3957
T4
X147576Y58274
X78869Y58274
X10162Y58274
T5
X99979Y4696
X105759Y4696
X117189Y4696
X111409Y4696
X185896Y4696
X168686Y4696
X174466Y4696
X180116Y4696
X31272Y4696
X37052Y4696
X42702Y4696
X48482Y4696
T6
X107187Y1046
X107187Y5226
X98551Y5226
X98551Y1046
X167258Y1046
X175894Y1046
X175894Y5226
X167258Y5226
X118617Y1046
X109981Y1046
X29844Y1046
X38480Y1046
X38480Y5226
X29844Y5226
X41274Y1046
X49910Y1046
X49910Y5226
X41274Y5226
X118617Y5226
X178688Y1046
X187324Y1046
X187324Y5226
X178688Y5226
X109981Y5226
T7
X46162Y45174
X31749Y7030
X18362Y99174
X36702Y7030
X100456Y7030
X114869Y45174
X155776Y99174
X87069Y99174
X183576Y45174
X169163Y7030
X105409Y7030
X174116Y7030
T8
X21900Y98285
X90607Y98285
X159314Y98285
T9
X35762Y94274
X58673Y2617
X48894Y7062
X44703Y101534
X39750Y101534
X27558Y101534
X39877Y85151
X39877Y82103
X13588Y105344
X46162Y21274
X50291Y8554
X45973Y12507
X56662Y74277
X48662Y92577
X31162Y49274
X35762Y49174
X36262Y44174
X43262Y46174
X43262Y44174
X57262Y77377
X55262Y93577
X18262Y100674
X12435Y101509
X13927Y98439
X31162Y40274
X33162Y40274
X35662Y40274
X27862Y43174
X29162Y49274
X28362Y55374
X26262Y45574
X20862Y42274
X2462Y43374
X55962Y46174
X38862Y46274
X48662Y101174
X20234Y57660
X48462Y87365
X47162Y92777
X26135Y49003
X18362Y29674
X17162Y44274
X17162Y60274
X17162Y91274
X50862Y60274
X30962Y60274
X17162Y51455
X18362Y30874
X18162Y43474
X18162Y91274
X28162Y95274
X20162Y95274
X50962Y58274
X30262Y58274
X21789Y51347
X18162Y51474
X18162Y58186
X12662Y63774
X32277Y63647
X35051Y13828
X27162Y40274
X33019Y15225
X29162Y40274
X10962Y38034
X51089Y38115
X12562Y36974
X51996Y37018
X16162Y96274
X55162Y100274
X25962Y50074
X14162Y88274
X23575Y85151
X12162Y92274
X49162Y99074
X41703Y99074
X51062Y86374
X51162Y90274
X40131Y90231
X48678Y31372
X26923Y91628
X50060Y29982
X40616Y91606
X40131Y80325
X20192Y80325
X46882Y17419
X40423Y79487
X20065Y79182
X46882Y16403
X43179Y7665
X48005Y7665
X44962Y7774
X26923Y92776
X50926Y29906
X40639Y92644
X26796Y100518
X49694Y30802
X39623Y100264
X16162Y75274
X43662Y75274
X41576Y95274
X57962Y99174
X56051Y59163
X33071Y59202
X57352Y53274
X32162Y54274
X39229Y88874
X38762Y78174
X27462Y78274
X37362Y79174
X28462Y79174
X41675Y96540
X43326Y53995
X33368Y53974
X34766Y87801
X15132Y33294
X15513Y66314
X34797Y66314
X11322Y32024
X28702Y53174
X12065Y52474
X18462Y20874
X33202Y55274
X19162Y54036
X24162Y52274
X23781Y88874
X38662Y82174
X37962Y40374
X40779Y87650
X44501Y56662
X44063Y46573
X43262Y45074
X37162Y49274
X4862Y61574
X50162Y61974
X51342Y92794
X49762Y92874
X46119Y15652
X40162Y10274
X34182Y14168
X47762Y11474
X53862Y45166
X46122Y84856
X53162Y85274
X53362Y93391
X45229Y47874
X11322Y45994
X22635Y62509
X22762Y47874
X10592Y40914
X38532Y42184
X32511Y35241
X32562Y45174
X41580Y94000
X42723Y81554
X87629Y76642
X120903Y76769
X123824Y3093
X102862Y40568
X98374Y61424
X121939Y39009
X88951Y48915
X89189Y38644
X121919Y11958
X113589Y76515
X110997Y6808
X125602Y2998
X81914Y2998
X98869Y14274
X102869Y10332
X105663Y8713
X99440Y7062
X79869Y94274
X89869Y94274
X96646Y28306
X98805Y28306
X100964Y28306
X102996Y28306
X105155Y28306
X107187Y28306
X109346Y28306
X111378Y28306
X94487Y28306
X96519Y30338
X98678Y30338
X100837Y30338
X102869Y30338
X105028Y30338
X107060Y30338
X109219Y30338
X111251Y30338
X94360Y30338
X96519Y32370
X98678Y32370
X100837Y32370
X102869Y32370
X105028Y32370
X107060Y32370
X109219Y32370
X111251Y32370
X94360Y32370
X96646Y22210
X98669Y22074
X100869Y22274
X102869Y22274
X104869Y22274
X107187Y22210
X109346Y22210
X111378Y22210
X94487Y22210
X96519Y24242
X98669Y24174
X100869Y24274
X102869Y24274
X104869Y24274
X107060Y24242
X109219Y24242
X111251Y24242
X94360Y24242
X96519Y26274
X98678Y26274
X100869Y26274
X102869Y26274
X104869Y26274
X107060Y26274
X109219Y26274
X111251Y26274
X94360Y26274
X96519Y20178
X98678Y20178
X100837Y20178
X102869Y20178
X105028Y20178
X107060Y20178
X109219Y20178
X111251Y20178
X94360Y20178
X94869Y17274
X106869Y17274
X103869Y17274
X105869Y17274
X107869Y17274
X109869Y17274
X93869Y17274
X91869Y35274
X93725Y35291
X95869Y35274
X99869Y35274
X105869Y35274
X107869Y35274
X109869Y35274
X111869Y35274
X113869Y35274
X114869Y33274
X114553Y26401
X114869Y23274
X114869Y22274
X114869Y20274
X114869Y18274
X114869Y34274
X111369Y18274
X113869Y17274
X111869Y17274
X95869Y17274
X96084Y15587
X95322Y14898
X94619Y14134
X93629Y13474
X92455Y14888
X91693Y13999
X92709Y11956
X90269Y8574
X90210Y6827
X88632Y6824
X92469Y8574
X87278Y5530
X87278Y3933
X85978Y839
X87278Y2336
X93725Y12618
X94614Y13134
X91869Y17274
X90969Y18774
X92869Y18274
X90677Y13110
X95803Y13396
X96392Y14412
X97281Y14971
X95430Y11956
X92769Y6774
X94369Y6774
X95673Y6103
X95673Y4360
X95673Y2636
X96773Y839
X97916Y17511
X94369Y18274
X94233Y34021
X92963Y34021
X111378Y34021
X112902Y34148
X112869Y18274
X89050Y10297
X92669Y10274
X99059Y95184
X101069Y94274
X106169Y96174
X106169Y94374
X105409Y90104
X104139Y90104
X102869Y90104
X101599Y90104
X100329Y90104
X99059Y90104
X99059Y97724
X100329Y97724
X101599Y97724
X102869Y97724
X105409Y97724
X106679Y97724
X106679Y90104
X100969Y96174
X107569Y94274
X102569Y94374
X102569Y96274
X104369Y96274
X104469Y94274
X127380Y2617
X117601Y7062
X113410Y101534
X108457Y101534
X96265Y101534
X108584Y85151
X108584Y82103
X82295Y105344
X114869Y21274
X118998Y8554
X114680Y12507
X125369Y74277
X117369Y92577
X99869Y49274
X104469Y49174
X104969Y44174
X111969Y46174
X111969Y44174
X125969Y77377
X123969Y93577
X86969Y100674
X81142Y101509
X82634Y98439
X99869Y40274
X101869Y40274
X104369Y40274
X96569Y43174
X97869Y49274
X97069Y55374
X94969Y45574
X89569Y42274
X71169Y43374
X124669Y46174
X107569Y46274
X117369Y101174
X88941Y57660
X117169Y87365
X115869Y92777
X94842Y49003
X87069Y29674
X85869Y44274
X85869Y60274
X85869Y91274
X119569Y60274
X99669Y60274
X85869Y51455
X87069Y30874
X86869Y43474
X86869Y91274
X96869Y95274
X88869Y95274
X119669Y58274
X98969Y58274
X90496Y51347
X86869Y51474
X86869Y58186
X81369Y63774
X100984Y63647
X103758Y13828
X95869Y40274
X101726Y15225
X97869Y40274
X79669Y38034
X119796Y38115
X81269Y36974
X120703Y37018
X84869Y96274
X123869Y100274
X94669Y50074
X82869Y88274
X92282Y85151
X80869Y92274
X117869Y99074
X42671Y34021
X119769Y86374
X119869Y90274
X108838Y90231
X117385Y31372
X95630Y91628
X118767Y29982
X109323Y91606
X108838Y80325
X88899Y80325
X115589Y17419
X109130Y79487
X88772Y79182
X115589Y16403
X111886Y7665
X116712Y7665
X113669Y7774
X95630Y92776
X119633Y29906
X109346Y92644
X95503Y100518
X118401Y30802
X108330Y100264
X84869Y75274
X112369Y75274
X110283Y95274
X18922Y76642
X52196Y76769
X126669Y99174
X124758Y59163
X101778Y59202
X126059Y53274
X100869Y54274
X107936Y88874
X107469Y78174
X96169Y78274
X106069Y79174
X97169Y79174
X110382Y96540
X112033Y53995
X102075Y53974
X103473Y87801
X83839Y33294
X84220Y66314
X103504Y66314
X80029Y32024
X97409Y53174
X80772Y52474
X87169Y20874
X101909Y55274
X87869Y54036
X92869Y52274
X92488Y88874
X107369Y82174
X106669Y40374
X109485Y87650
X113208Y56662
X112770Y46573
X111969Y45074
X105869Y49274
X73569Y61574
X118869Y61974
X120049Y92794
X118469Y92874
X114826Y15652
X108869Y10274
X102889Y14168
X116469Y11474
X55117Y3093
X122569Y45166
X114829Y84856
X121869Y85274
X122069Y93391
X34155Y40568
X113936Y47874
X80029Y45994
X91342Y62509
X91469Y47874
X79299Y40914
X107239Y42184
X101218Y35241
X101269Y45174
X110287Y94000
X111430Y81554
X156336Y76642
X189610Y76769
X192531Y3093
X171569Y40568
X167081Y61424
X190646Y39009
X157658Y48915
X157896Y38644
X190626Y11958
X182296Y76515
X179704Y6808
X194309Y2998
X150621Y2998
X167576Y14274
X171576Y10332
X174370Y8713
X168147Y7062
X148576Y94274
X158576Y94274
X165353Y28306
X167512Y28306
X169671Y28306
X171703Y28306
X173862Y28306
X175894Y28306
X178053Y28306
X180085Y28306
X163194Y28306
X165226Y30338
X167385Y30338
X169544Y30338
X171576Y30338
X173735Y30338
X175767Y30338
X177926Y30338
X179958Y30338
X163067Y30338
X165226Y32370
X167385Y32370
X169544Y32370
X171576Y32370
X173735Y32370
X175767Y32370
X177926Y32370
X179958Y32370
X163067Y32370
X165353Y22210
X167376Y22074
X169576Y22274
X171576Y22274
X173576Y22274
X175894Y22210
X178053Y22210
X180085Y22210
X163194Y22210
X165226Y24242
X167376Y24174
X169576Y24274
X171576Y24274
X173576Y24274
X175767Y24242
X177926Y24242
X179958Y24242
X163067Y24242
X165226Y26274
X167385Y26274
X169576Y26274
X171576Y26274
X173576Y26274
X175767Y26274
X177926Y26274
X179958Y26274
X163067Y26274
X165226Y20178
X167385Y20178
X169544Y20178
X171576Y20178
X173735Y20178
X175767Y20178
X177926Y20178
X179958Y20178
X163067Y20178
X163576Y17274
X175576Y17274
X172576Y17274
X174576Y17274
X176576Y17274
X178576Y17274
X162576Y17274
X160576Y35274
X162432Y35291
X164576Y35274
X168576Y35274
X174576Y35274
X176576Y35274
X178576Y35274
X180576Y35274
X182576Y35274
X183576Y33274
X183260Y26401
X183576Y23274
X183576Y22274
X183576Y20274
X183576Y18274
X183576Y34274
X180076Y18274
X182576Y17274
X180576Y17274
X164576Y17274
X164791Y15587
X164029Y14898
X163326Y14134
X162336Y13474
X161162Y14888
X160400Y13999
X161416Y11956
X158976Y8574
X158917Y6827
X157339Y6824
X161176Y8574
X155985Y5530
X155985Y3933
X154685Y839
X155985Y2336
X162432Y12618
X163321Y13134
X160576Y17274
X159676Y18774
X161576Y18274
X159384Y13110
X164510Y13396
X165099Y14412
X165988Y14971
X164137Y11956
X161476Y6774
X163076Y6774
X164380Y6103
X164380Y4360
X164380Y2636
X165480Y839
X166623Y17511
X163076Y18274
X162940Y34021
X161670Y34021
X180085Y34021
X181609Y34148
X181576Y18274
X157757Y10297
X161376Y10274
X167766Y95184
X169776Y94274
X174876Y96174
X174876Y94374
X174116Y90104
X172846Y90104
X171576Y90104
X170306Y90104
X169036Y90104
X167766Y90104
X167766Y97724
X169036Y97724
X170306Y97724
X171576Y97724
X174116Y97724
X175386Y97724
X175386Y90104
X169676Y96174
X176276Y94274
X171276Y94374
X171276Y96274
X173076Y96274
X173176Y94274
X196087Y2617
X186308Y7062
X182117Y101534
X177164Y101534
X164972Y101534
X177291Y85151
X177291Y82103
X151002Y105344
X183576Y21274
X187705Y8554
X183387Y12507
X194076Y74277
X186076Y92577
X168576Y49274
X173176Y49174
X173676Y44174
X180676Y46174
X180676Y44174
X194676Y77377
X192676Y93577
X155676Y100674
X149849Y101509
X151341Y98439
X168576Y40274
X170576Y40274
X173076Y40274
X165276Y43174
X166576Y49274
X165776Y55374
X163676Y45574
X158276Y42274
X29667Y61424
X193376Y46174
X176276Y46274
X186076Y101174
X157648Y57660
X185876Y87365
X184576Y92777
X163549Y49003
X155776Y29674
X154576Y44274
X154576Y60274
X154576Y91274
X188276Y60274
X168376Y60274
X53232Y39009
X154576Y51455
X155776Y30874
X155576Y43474
X155576Y91274
X165576Y95274
X157576Y95274
X188376Y58274
X167676Y58274
X159203Y51347
X155576Y51474
X155576Y58186
X150076Y63774
X169691Y63647
X172465Y13828
X164576Y40274
X170433Y15225
X166576Y40274
X148376Y38034
X188503Y38115
X149976Y36974
X189410Y37018
X153576Y96274
X192576Y100274
X163376Y50074
X151576Y88274
X160989Y85151
X149576Y92274
X186576Y99074
X179117Y99074
X188476Y86374
X188576Y90274
X177545Y90231
X186092Y31372
X164337Y91628
X187474Y29982
X178030Y91606
X177545Y80325
X157606Y80325
X184296Y17419
X177837Y79487
X157479Y79182
X184296Y16403
X180593Y7665
X185419Y7665
X182376Y7774
X164337Y92776
X188340Y29906
X178053Y92644
X164210Y100518
X187108Y30802
X177037Y100264
X153576Y75274
X181076Y75274
X178990Y95274
X20244Y48915
X20482Y38644
X195376Y99174
X193465Y59163
X170485Y59202
X194766Y53274
X169576Y54274
X176643Y88874
X176176Y78174
X164876Y78274
X174776Y79174
X165876Y79174
X179089Y96540
X180740Y53995
X170782Y53974
X172180Y87801
X152546Y33294
X152927Y66314
X172211Y66314
X148736Y32024
X166116Y53174
X149479Y52474
X155876Y20874
X170616Y55274
X156576Y54036
X161576Y52274
X161195Y88874
X176076Y82174
X175376Y40374
X178192Y87650
X181915Y56662
X181477Y46573
X180676Y45074
X174576Y49274
X142276Y61574
X187576Y61974
X188756Y92794
X187176Y92874
X183533Y15652
X177576Y10274
X171596Y14168
X185176Y11474
X53212Y11958
X191276Y45166
X183536Y84856
X190576Y85274
X190776Y93391
X44882Y76515
X182643Y47874
X148736Y45994
X160049Y62509
X160176Y47874
X148006Y40914
X175946Y42184
X169925Y35241
X169976Y45174
X178994Y94000
X180137Y81554
X42290Y6808
X56895Y2998
X13207Y2998
X30162Y14274
X34162Y10332
X36956Y8713
X30733Y7062
X11162Y94274
X21162Y94274
X27939Y28306
X30098Y28306
X32257Y28306
X34289Y28306
X36448Y28306
X38480Y28306
X40639Y28306
X42671Y28306
X110410Y99074
X25780Y28306
X27812Y30338
X29971Y30338
X32130Y30338
X34162Y30338
X36321Y30338
X38353Y30338
X40512Y30338
X42544Y30338
X25653Y30338
X27812Y32370
X29971Y32370
X32130Y32370
X34162Y32370
X36321Y32370
X38353Y32370
X40512Y32370
X42544Y32370
X25653Y32370
X27939Y22210
X29962Y22074
X32162Y22274
X34162Y22274
X36162Y22274
X38480Y22210
X40639Y22210
X42671Y22210
X25780Y22210
X27812Y24242
X29962Y24174
X32162Y24274
X34162Y24274
X36162Y24274
X38353Y24242
X40512Y24242
X42544Y24242
X25653Y24242
X27812Y26274
X29971Y26274
X32162Y26274
X34162Y26274
X36162Y26274
X38353Y26274
X40512Y26274
X42544Y26274
X25653Y26274
X27812Y20178
X29971Y20178
X32130Y20178
X34162Y20178
X36321Y20178
X38353Y20178
X40512Y20178
X42544Y20178
X25653Y20178
X26162Y17274
X38162Y17274
X35162Y17274
X37162Y17274
X39162Y17274
X41162Y17274
X25162Y17274
X23162Y35274
X25018Y35291
X27162Y35274
X31162Y35274
X37162Y35274
X39162Y35274
X41162Y35274
X43162Y35274
X45162Y35274
X46162Y33274
X45846Y26401
X46162Y23274
X46162Y22274
X46162Y20274
X46162Y18274
X46162Y34274
X42662Y18274
X45162Y17274
X43162Y17274
X27162Y17274
X27377Y15587
X26615Y14898
X25912Y14134
X24922Y13474
X23748Y14888
X22986Y13999
X24002Y11956
X21562Y8574
X21503Y6827
X19925Y6824
X23762Y8574
X18571Y5530
X18571Y3933
X17271Y839
X18571Y2336
X25018Y12618
X25907Y13134
X23162Y17274
X22262Y18774
X24162Y18274
X21970Y13110
X27096Y13396
X27685Y14412
X28574Y14971
X26723Y11956
X24062Y6774
X25662Y6774
X26966Y6103
X26966Y4360
X26966Y2636
X28066Y839
X29209Y17511
X25662Y18274
X25526Y34021
X24256Y34021
X44195Y34148
X44162Y18274
X20343Y10297
X23962Y10274
X30352Y95184
X32362Y94274
X37462Y96174
X37462Y94374
X36702Y90104
X35432Y90104
X34162Y90104
X32892Y90104
X31622Y90104
X30352Y90104
X30352Y97724
X31622Y97724
X32892Y97724
X34162Y97724
X36702Y97724
X37972Y97724
X37972Y90104
X32262Y96174
X38862Y94274
X33862Y94374
X33862Y96274
X35662Y96274
X139876Y43374
M30